<?xml version="1.0" encoding="UTF-8" standalone="no"?>
<!DOCTYPE svg PUBLIC "-//W3C//DTD SVG 1.1//EN"
 "http://www.w3.org/Graphics/SVG/1.1/DTD/svg11.dtd">
<!-- Generated by graphviz version 2.40.1 (0)
 -->
<!-- Title: snakemake_dag Pages: 1 -->
<svg width="4593pt" height="476pt"
 viewBox="0.00 0.00 4593.40 476.00" xmlns="http://www.w3.org/2000/svg" xmlns:xlink="http://www.w3.org/1999/xlink">
<g id="graph0" class="graph" transform="scale(1 1) rotate(0) translate(4 472)">
<title>snakemake_dag</title>
<polygon fill="#ffffff" stroke="transparent" points="-4,4 -4,-472 4589.3998,-472 4589.3998,4 -4,4"/>
<!-- 0 -->
<g id="node1" class="node">
<title>0</title>
<path fill="none" stroke="#bed856" stroke-width="2" d="M2443.5,-36C2443.5,-36 2371.5,-36 2371.5,-36 2365.5,-36 2359.5,-30 2359.5,-24 2359.5,-24 2359.5,-12 2359.5,-12 2359.5,-6 2365.5,0 2371.5,0 2371.5,0 2443.5,0 2443.5,0 2449.5,0 2455.5,-6 2455.5,-12 2455.5,-12 2455.5,-24 2455.5,-24 2455.5,-30 2449.5,-36 2443.5,-36"/>
<text text-anchor="middle" x="2407.5" y="-15.5" font-family="sans" font-size="10.00" fill="#000000">make_summary</text>
</g>
<!-- 1 -->
<g id="node2" class="node">
<title>1</title>
<path fill="none" stroke="#61d856" stroke-width="2" d="M107.5,-180C107.5,-180 35.5,-180 35.5,-180 29.5,-180 23.5,-174 23.5,-168 23.5,-168 23.5,-156 23.5,-156 23.5,-150 29.5,-144 35.5,-144 35.5,-144 107.5,-144 107.5,-144 113.5,-144 119.5,-150 119.5,-156 119.5,-156 119.5,-168 119.5,-168 119.5,-174 113.5,-180 107.5,-180"/>
<text text-anchor="middle" x="71.5" y="-159.5" font-family="sans" font-size="10.00" fill="#000000">make_rulegraph</text>
</g>
<!-- 1&#45;&gt;0 -->
<g id="edge25" class="edge">
<title>1&#45;&gt;0</title>
<path fill="none" stroke="#c0c0c0" stroke-width="2" d="M85.2446,-143.7954C103.7958,-119.815 136.4798,-79.7629 153.5,-72 256.2441,-25.1385 2005.7586,-18.8822 2349.2474,-18.1045"/>
<polygon fill="#c0c0c0" stroke="#c0c0c0" stroke-width="2" points="2349.4748,-21.6041 2359.467,-18.0821 2349.4593,-14.6041 2349.4748,-21.6041"/>
</g>
<!-- 2 -->
<g id="node3" class="node">
<title>2</title>
<path fill="none" stroke="#56d88a" stroke-width="2" d="M89,-108C89,-108 12,-108 12,-108 6,-108 0,-102 0,-96 0,-96 0,-84 0,-84 0,-78 6,-72 12,-72 12,-72 89,-72 89,-72 95,-72 101,-78 101,-84 101,-84 101,-96 101,-96 101,-102 95,-108 89,-108"/>
<text text-anchor="middle" x="50.5" y="-87.5" font-family="sans" font-size="10.00" fill="#000000">save_pinned_env</text>
</g>
<!-- 1&#45;&gt;2 -->
<g id="edge54" class="edge">
<title>1&#45;&gt;2</title>
<path fill="none" stroke="#c0c0c0" stroke-width="2" d="M66.2008,-143.8314C63.9302,-136.0463 61.2254,-126.7729 58.706,-118.1347"/>
<polygon fill="#c0c0c0" stroke="#c0c0c0" stroke-width="2" points="62.0306,-117.0332 55.8705,-108.4133 55.3106,-118.9933 62.0306,-117.0332"/>
</g>
<!-- 2&#45;&gt;0 -->
<g id="edge31" class="edge">
<title>2&#45;&gt;0</title>
<path fill="none" stroke="#c0c0c0" stroke-width="2" d="M101.3395,-74.6448C106.0943,-73.596 110.8666,-72.6854 115.5,-72 342.0262,-38.4924 2013.3985,-21.5907 2348.9355,-18.5165"/>
<polygon fill="#c0c0c0" stroke="#c0c0c0" stroke-width="2" points="2349.4223,-22.0123 2359.39,-18.4212 2349.3585,-15.0126 2349.4223,-22.0123"/>
</g>
<!-- 3 -->
<g id="node4" class="node">
<title>3</title>
<path fill="none" stroke="#d85656" stroke-width="2" d="M2070.5,-252C2070.5,-252 1984.5,-252 1984.5,-252 1978.5,-252 1972.5,-246 1972.5,-240 1972.5,-240 1972.5,-228 1972.5,-228 1972.5,-222 1978.5,-216 1984.5,-216 1984.5,-216 2070.5,-216 2070.5,-216 2076.5,-216 2082.5,-222 2082.5,-228 2082.5,-228 2082.5,-240 2082.5,-240 2082.5,-246 2076.5,-252 2070.5,-252"/>
<text text-anchor="middle" x="2027.5" y="-231.5" font-family="sans" font-size="10.00" fill="#000000">get_mut_bind_expr</text>
</g>
<!-- 3&#45;&gt;0 -->
<g id="edge1" class="edge">
<title>3&#45;&gt;0</title>
<path fill="none" stroke="#c0c0c0" stroke-width="2" d="M2082.6863,-226.9174C2162.5639,-216.2062 2302.8281,-195.4941 2320.5,-180 2358.4401,-146.7355 2329.5595,-115.2789 2355.5,-72 2361.7102,-61.639 2370.2523,-51.6929 2378.6193,-43.2227"/>
<polygon fill="#c0c0c0" stroke="#c0c0c0" stroke-width="2" points="2381.1294,-45.6639 2385.8639,-36.1858 2376.2521,-40.6427 2381.1294,-45.6639"/>
</g>
<!-- 5 -->
<g id="node6" class="node">
<title>5</title>
<path fill="none" stroke="#88d856" stroke-width="2" d="M1985,-108C1985,-108 1842,-108 1842,-108 1836,-108 1830,-102 1830,-96 1830,-96 1830,-84 1830,-84 1830,-78 1836,-72 1842,-72 1842,-72 1985,-72 1985,-72 1991,-72 1997,-78 1997,-84 1997,-84 1997,-96 1997,-96 1997,-102 1991,-108 1985,-108"/>
<text text-anchor="middle" x="1913.5" y="-87.5" font-family="sans" font-size="10.00" fill="#000000">bind_expr_filters_Wuhan_Hu_1</text>
</g>
<!-- 3&#45;&gt;5 -->
<g id="edge55" class="edge">
<title>3&#45;&gt;5</title>
<path fill="none" stroke="#c0c0c0" stroke-width="2" d="M1972.3463,-217.3414C1953.9484,-209.0421 1935.1812,-197.028 1923.5,-180 1911.2509,-162.1442 1909.2877,-137.4498 1910.0881,-118.4441"/>
<polygon fill="#c0c0c0" stroke="#c0c0c0" stroke-width="2" points="1913.5927,-118.4975 1910.7953,-108.2786 1906.6096,-118.0116 1913.5927,-118.4975"/>
</g>
<!-- 6 -->
<g id="node7" class="node">
<title>6</title>
<path fill="none" stroke="#d86656" stroke-width="2" d="M2175,-108C2175,-108 2030,-108 2030,-108 2024,-108 2018,-102 2018,-96 2018,-96 2018,-84 2018,-84 2018,-78 2024,-72 2030,-72 2030,-72 2175,-72 2175,-72 2181,-72 2187,-78 2187,-84 2187,-84 2187,-96 2187,-96 2187,-102 2181,-108 2175,-108"/>
<text text-anchor="middle" x="2102.5" y="-87.5" font-family="sans" font-size="10.00" fill="#000000">bind_expr_filters_Omicron_BA2</text>
</g>
<!-- 3&#45;&gt;6 -->
<g id="edge56" class="edge">
<title>3&#45;&gt;6</title>
<path fill="none" stroke="#c0c0c0" stroke-width="2" d="M1975.3838,-215.8022C1959.3972,-207.4867 1943.6289,-195.8568 1934.5,-180 1926.5171,-166.1337 1925.075,-156.9294 1934.5,-144 1944.191,-130.7058 1975.3189,-119.062 2008.1916,-110.0237"/>
<polygon fill="#c0c0c0" stroke="#c0c0c0" stroke-width="2" points="2009.1951,-113.3785 2017.9585,-107.4242 2007.3946,-106.614 2009.1951,-113.3785"/>
</g>
<!-- 17 -->
<g id="node18" class="node">
<title>17</title>
<path fill="none" stroke="#d8b456" stroke-width="2" d="M750,-180C750,-180 613,-180 613,-180 607,-180 601,-174 601,-168 601,-168 601,-156 601,-156 601,-150 607,-144 613,-144 613,-144 750,-144 750,-144 756,-144 762,-150 762,-156 762,-156 762,-168 762,-168 762,-174 756,-180 750,-180"/>
<text text-anchor="middle" x="681.5" y="-159.5" font-family="sans" font-size="10.00" fill="#000000">escape_profiles_Wuhan_Hu_1</text>
</g>
<!-- 3&#45;&gt;17 -->
<g id="edge65" class="edge">
<title>3&#45;&gt;17</title>
<path fill="none" stroke="#c0c0c0" stroke-width="2" d="M1972.4407,-233.4282C1800.3106,-231.2402 1257.1244,-221.3014 809.5,-180 797.4218,-178.8856 784.7379,-177.4393 772.2424,-175.8511"/>
<polygon fill="#c0c0c0" stroke="#c0c0c0" stroke-width="2" points="772.6458,-172.3741 762.2769,-174.5505 771.7398,-179.3152 772.6458,-172.3741"/>
</g>
<!-- 18 -->
<g id="node19" class="node">
<title>18</title>
<path fill="none" stroke="#56d8c9" stroke-width="2" d="M1328.5,-180C1328.5,-180 1188.5,-180 1188.5,-180 1182.5,-180 1176.5,-174 1176.5,-168 1176.5,-168 1176.5,-156 1176.5,-156 1176.5,-150 1182.5,-144 1188.5,-144 1188.5,-144 1328.5,-144 1328.5,-144 1334.5,-144 1340.5,-150 1340.5,-156 1340.5,-156 1340.5,-168 1340.5,-168 1340.5,-174 1334.5,-180 1328.5,-180"/>
<text text-anchor="middle" x="1258.5" y="-159.5" font-family="sans" font-size="10.00" fill="#000000">escape_profiles_Omicron_BA2</text>
</g>
<!-- 3&#45;&gt;18 -->
<g id="edge69" class="edge">
<title>3&#45;&gt;18</title>
<path fill="none" stroke="#c0c0c0" stroke-width="2" d="M1972.1954,-228.8219C1841.5293,-216.5879 1512.5911,-185.7901 1350.998,-170.6604"/>
<polygon fill="#c0c0c0" stroke="#c0c0c0" stroke-width="2" points="1350.8827,-167.1344 1340.6,-169.6869 1350.2301,-174.1039 1350.8827,-167.1344"/>
</g>
<!-- 23 -->
<g id="node24" class="node">
<title>23</title>
<path fill="none" stroke="#d8cb56" stroke-width="2" d="M1636.5,-180C1636.5,-180 1484.5,-180 1484.5,-180 1478.5,-180 1472.5,-174 1472.5,-168 1472.5,-168 1472.5,-156 1472.5,-156 1472.5,-150 1478.5,-144 1484.5,-144 1484.5,-144 1636.5,-144 1636.5,-144 1642.5,-144 1648.5,-150 1648.5,-156 1648.5,-156 1648.5,-168 1648.5,-168 1648.5,-174 1642.5,-180 1636.5,-180"/>
<text text-anchor="middle" x="1560.5" y="-159.5" font-family="sans" font-size="10.00" fill="#000000">bind_expr_filters_Omicron_BQ11</text>
</g>
<!-- 3&#45;&gt;23 -->
<g id="edge77" class="edge">
<title>3&#45;&gt;23</title>
<path fill="none" stroke="#c0c0c0" stroke-width="2" d="M1972.2332,-226.6114C1901.7993,-217.0442 1776.0496,-199.4592 1658.4037,-180.1185"/>
<polygon fill="#c0c0c0" stroke="#c0c0c0" stroke-width="2" points="1658.9391,-176.6596 1648.5024,-178.4834 1657.7984,-183.5661 1658.9391,-176.6596"/>
</g>
<!-- 24 -->
<g id="node25" class="node">
<title>24</title>
<path fill="none" stroke="#d6d856" stroke-width="2" d="M1836.5,-180C1836.5,-180 1678.5,-180 1678.5,-180 1672.5,-180 1666.5,-174 1666.5,-168 1666.5,-168 1666.5,-156 1666.5,-156 1666.5,-150 1672.5,-144 1678.5,-144 1678.5,-144 1836.5,-144 1836.5,-144 1842.5,-144 1848.5,-150 1848.5,-156 1848.5,-156 1848.5,-168 1848.5,-168 1848.5,-174 1842.5,-180 1836.5,-180"/>
<text text-anchor="middle" x="1757.5" y="-159.5" font-family="sans" font-size="10.00" fill="#000000">bind_expr_filters_Omicron_XBB15</text>
</g>
<!-- 3&#45;&gt;24 -->
<g id="edge78" class="edge">
<title>3&#45;&gt;24</title>
<path fill="none" stroke="#c0c0c0" stroke-width="2" d="M1972.2099,-219.256C1932.6223,-208.6993 1878.7874,-194.3433 1834.9283,-182.6476"/>
<polygon fill="#c0c0c0" stroke="#c0c0c0" stroke-width="2" points="1835.723,-179.2372 1825.1588,-180.0423 1833.9193,-186.0009 1835.723,-179.2372"/>
</g>
<!-- 35 -->
<g id="node36" class="node">
<title>35</title>
<path fill="none" stroke="#d85e56" stroke-width="2" d="M2639.5,-180C2639.5,-180 2493.5,-180 2493.5,-180 2487.5,-180 2481.5,-174 2481.5,-168 2481.5,-168 2481.5,-156 2481.5,-156 2481.5,-150 2487.5,-144 2493.5,-144 2493.5,-144 2639.5,-144 2639.5,-144 2645.5,-144 2651.5,-150 2651.5,-156 2651.5,-156 2651.5,-168 2651.5,-168 2651.5,-174 2645.5,-180 2639.5,-180"/>
<text text-anchor="middle" x="2566.5" y="-159.5" font-family="sans" font-size="10.00" fill="#000000">escape_profiles_Omicron_BQ11</text>
</g>
<!-- 3&#45;&gt;35 -->
<g id="edge88" class="edge">
<title>3&#45;&gt;35</title>
<path fill="none" stroke="#c0c0c0" stroke-width="2" d="M2082.6494,-226.6331C2174.1962,-214.4042 2358.607,-189.7705 2471.4545,-174.6963"/>
<polygon fill="#c0c0c0" stroke="#c0c0c0" stroke-width="2" points="2472.0234,-178.1514 2481.472,-173.3581 2471.0965,-171.2131 2472.0234,-178.1514"/>
</g>
<!-- 36 -->
<g id="node37" class="node">
<title>36</title>
<path fill="none" stroke="#d88d56" stroke-width="2" d="M3061.5,-180C3061.5,-180 2909.5,-180 2909.5,-180 2903.5,-180 2897.5,-174 2897.5,-168 2897.5,-168 2897.5,-156 2897.5,-156 2897.5,-150 2903.5,-144 2909.5,-144 2909.5,-144 3061.5,-144 3061.5,-144 3067.5,-144 3073.5,-150 3073.5,-156 3073.5,-156 3073.5,-168 3073.5,-168 3073.5,-174 3067.5,-180 3061.5,-180"/>
<text text-anchor="middle" x="2985.5" y="-159.5" font-family="sans" font-size="10.00" fill="#000000">escape_profiles_Omicron_XBB15</text>
</g>
<!-- 3&#45;&gt;36 -->
<g id="edge90" class="edge">
<title>3&#45;&gt;36</title>
<path fill="none" stroke="#c0c0c0" stroke-width="2" d="M2082.7965,-229.8441C2239.3594,-218.0774 2687.2541,-184.4151 2887.1289,-169.3932"/>
<polygon fill="#c0c0c0" stroke="#c0c0c0" stroke-width="2" points="2887.6173,-172.8665 2897.3268,-168.6268 2887.0926,-165.8862 2887.6173,-172.8665"/>
</g>
<!-- 41 -->
<g id="node42" class="node">
<title>41</title>
<path fill="none" stroke="#56c9d8" stroke-width="2" d="M2100,-180C2100,-180 1955,-180 1955,-180 1949,-180 1943,-174 1943,-168 1943,-168 1943,-156 1943,-156 1943,-150 1949,-144 1955,-144 1955,-144 2100,-144 2100,-144 2106,-144 2112,-150 2112,-156 2112,-156 2112,-168 2112,-168 2112,-174 2106,-180 2100,-180"/>
<text text-anchor="middle" x="2027.5" y="-159.5" font-family="sans" font-size="10.00" fill="#000000">bind_expr_filters_Omicron_EG5</text>
</g>
<!-- 3&#45;&gt;41 -->
<g id="edge99" class="edge">
<title>3&#45;&gt;41</title>
<path fill="none" stroke="#c0c0c0" stroke-width="2" d="M2027.5,-215.8314C2027.5,-208.131 2027.5,-198.9743 2027.5,-190.4166"/>
<polygon fill="#c0c0c0" stroke="#c0c0c0" stroke-width="2" points="2031.0001,-190.4132 2027.5,-180.4133 2024.0001,-190.4133 2031.0001,-190.4132"/>
</g>
<!-- 47 -->
<g id="node48" class="node">
<title>47</title>
<path fill="none" stroke="#56a9d8" stroke-width="2" d="M3659.5,-180C3659.5,-180 3519.5,-180 3519.5,-180 3513.5,-180 3507.5,-174 3507.5,-168 3507.5,-168 3507.5,-156 3507.5,-156 3507.5,-150 3513.5,-144 3519.5,-144 3519.5,-144 3659.5,-144 3659.5,-144 3665.5,-144 3671.5,-150 3671.5,-156 3671.5,-156 3671.5,-168 3671.5,-168 3671.5,-174 3665.5,-180 3659.5,-180"/>
<text text-anchor="middle" x="3589.5" y="-159.5" font-family="sans" font-size="10.00" fill="#000000">escape_profiles_Omicron_EG5</text>
</g>
<!-- 3&#45;&gt;47 -->
<g id="edge104" class="edge">
<title>3&#45;&gt;47</title>
<path fill="none" stroke="#c0c0c0" stroke-width="2" d="M2082.6853,-230.4189C2143.0395,-226.5679 2242.6276,-220.406 2328.5,-216 2765.6318,-193.5715 3288.3413,-173.2667 3496.9337,-165.4268"/>
<polygon fill="#c0c0c0" stroke="#c0c0c0" stroke-width="2" points="3497.3658,-168.9132 3507.2274,-165.0405 3497.1032,-161.9181 3497.3658,-168.9132"/>
</g>
<!-- 50 -->
<g id="node51" class="node">
<title>50</title>
<path fill="none" stroke="#b6d856" stroke-width="2" d="M2299,-180C2299,-180 2142,-180 2142,-180 2136,-180 2130,-174 2130,-168 2130,-168 2130,-156 2130,-156 2130,-150 2136,-144 2142,-144 2142,-144 2299,-144 2299,-144 2305,-144 2311,-150 2311,-156 2311,-156 2311,-168 2311,-168 2311,-174 2305,-180 2299,-180"/>
<text text-anchor="middle" x="2220.5" y="-159.5" font-family="sans" font-size="10.00" fill="#000000">bind_expr_filters_Omicron_BA286</text>
</g>
<!-- 3&#45;&gt;50 -->
<g id="edge110" class="edge">
<title>3&#45;&gt;50</title>
<path fill="none" stroke="#c0c0c0" stroke-width="2" d="M2076.202,-215.8314C2102.4736,-206.0306 2135.0683,-193.8709 2162.6284,-183.5894"/>
<polygon fill="#c0c0c0" stroke="#c0c0c0" stroke-width="2" points="2164.0023,-186.8126 2172.1482,-180.038 2161.5555,-180.2541 2164.0023,-186.8126"/>
</g>
<!-- 56 -->
<g id="node57" class="node">
<title>56</title>
<path fill="none" stroke="#9fd856" stroke-width="2" d="M4255.5,-180C4255.5,-180 4103.5,-180 4103.5,-180 4097.5,-180 4091.5,-174 4091.5,-168 4091.5,-168 4091.5,-156 4091.5,-156 4091.5,-150 4097.5,-144 4103.5,-144 4103.5,-144 4255.5,-144 4255.5,-144 4261.5,-144 4267.5,-150 4267.5,-156 4267.5,-156 4267.5,-168 4267.5,-168 4267.5,-174 4261.5,-180 4255.5,-180"/>
<text text-anchor="middle" x="4179.5" y="-159.5" font-family="sans" font-size="10.00" fill="#000000">escape_profiles_Omicron_BA286</text>
</g>
<!-- 3&#45;&gt;56 -->
<g id="edge115" class="edge">
<title>3&#45;&gt;56</title>
<path fill="none" stroke="#c0c0c0" stroke-width="2" d="M2082.6727,-230.1512C2143.016,-226.07 2242.5948,-219.7113 2328.5,-216 2929.0417,-190.0554 3079.6933,-198.8347 3680.5,-180 3819.5562,-175.6407 3980.3751,-169.6729 4081.0194,-165.8267"/>
<polygon fill="#c0c0c0" stroke="#c0c0c0" stroke-width="2" points="4081.3138,-169.3181 4091.1726,-165.4381 4081.046,-162.3232 4081.3138,-169.3181"/>
</g>
<!-- 4 -->
<g id="node5" class="node">
<title>4</title>
<path fill="none" stroke="#56d8b9" stroke-width="2" d="M347.5,-108C347.5,-108 207.5,-108 207.5,-108 201.5,-108 195.5,-102 195.5,-96 195.5,-96 195.5,-84 195.5,-84 195.5,-78 201.5,-72 207.5,-72 207.5,-72 347.5,-72 347.5,-72 353.5,-72 359.5,-78 359.5,-84 359.5,-84 359.5,-96 359.5,-96 359.5,-102 353.5,-108 347.5,-108"/>
<text text-anchor="middle" x="277.5" y="-87.5" font-family="sans" font-size="10.00" fill="#000000">get_early2020_mut_bind_expr</text>
</g>
<!-- 4&#45;&gt;0 -->
<g id="edge36" class="edge">
<title>4&#45;&gt;0</title>
<path fill="none" stroke="#c0c0c0" stroke-width="2" d="M359.7432,-73.0862C362.6932,-72.6854 365.619,-72.3208 368.5,-72 767.4243,-27.5854 2058.7697,-19.4868 2349.1558,-18.2148"/>
<polygon fill="#c0c0c0" stroke="#c0c0c0" stroke-width="2" points="2349.4744,-21.7135 2359.4593,-18.1707 2349.4443,-14.7136 2349.4744,-21.7135"/>
</g>
<!-- 5&#45;&gt;0 -->
<g id="edge22" class="edge">
<title>5&#45;&gt;0</title>
<path fill="none" stroke="#c0c0c0" stroke-width="2" d="M1997.228,-74.0435C2001.3742,-73.3341 2005.4823,-72.6488 2009.5,-72 2129.8969,-52.5579 2271.5528,-34.4766 2349.2241,-24.9713"/>
<polygon fill="#c0c0c0" stroke="#c0c0c0" stroke-width="2" points="2349.7885,-28.4285 2359.2912,-23.7435 2348.941,-21.48 2349.7885,-28.4285"/>
</g>
<!-- 6&#45;&gt;0 -->
<g id="edge3" class="edge">
<title>6&#45;&gt;0</title>
<path fill="none" stroke="#c0c0c0" stroke-width="2" d="M2179.0707,-71.9243C2231.9525,-59.4407 2301.1884,-43.0965 2349.5165,-31.6879"/>
<polygon fill="#c0c0c0" stroke="#c0c0c0" stroke-width="2" points="2350.57,-35.0355 2359.4984,-29.3315 2348.9617,-28.2227 2350.57,-35.0355"/>
</g>
<!-- 7 -->
<g id="node8" class="node">
<title>7</title>
<path fill="none" stroke="#56d87b" stroke-width="2" d="M714.5,-396C714.5,-396 526.5,-396 526.5,-396 520.5,-396 514.5,-390 514.5,-384 514.5,-384 514.5,-372 514.5,-372 514.5,-366 520.5,-360 526.5,-360 526.5,-360 714.5,-360 714.5,-360 720.5,-360 726.5,-366 726.5,-372 726.5,-372 726.5,-384 726.5,-384 726.5,-390 720.5,-396 714.5,-396"/>
<text text-anchor="middle" x="620.5" y="-375.5" font-family="sans" font-size="10.00" fill="#000000">aggregate_variant_counts_Wuhan_Hu_1</text>
</g>
<!-- 7&#45;&gt;0 -->
<g id="edge29" class="edge">
<title>7&#45;&gt;0</title>
<path fill="none" stroke="#c0c0c0" stroke-width="2" d="M514.2916,-365.7196C380.3985,-347.2183 167.5,-306.4146 167.5,-234 167.5,-234 167.5,-234 167.5,-162 167.5,-121.1184 155.0621,-98.1336 186.5,-72 229.3182,-36.4061 2002.9041,-21.0823 2349.2158,-18.4267"/>
<polygon fill="#c0c0c0" stroke="#c0c0c0" stroke-width="2" points="2349.3064,-21.9262 2359.2794,-18.35 2349.253,-14.9264 2349.3064,-21.9262"/>
</g>
<!-- 11 -->
<g id="node12" class="node">
<title>11</title>
<path fill="none" stroke="#567bd8" stroke-width="2" d="M994.5,-180C994.5,-180 830.5,-180 830.5,-180 824.5,-180 818.5,-174 818.5,-168 818.5,-168 818.5,-156 818.5,-156 818.5,-150 824.5,-144 830.5,-144 830.5,-144 994.5,-144 994.5,-144 1000.5,-144 1006.5,-150 1006.5,-156 1006.5,-156 1006.5,-168 1006.5,-168 1006.5,-174 1000.5,-180 994.5,-180"/>
<text text-anchor="middle" x="912.5" y="-159.5" font-family="sans" font-size="10.00" fill="#000000">counts_to_cells_ratio_Wuhan_Hu_1</text>
</g>
<!-- 7&#45;&gt;11 -->
<g id="edge59" class="edge">
<title>7&#45;&gt;11</title>
<path fill="none" stroke="#c0c0c0" stroke-width="2" d="M655.2639,-359.8153C673.3613,-349.9076 695.5959,-337.0326 714.5,-324 778.4121,-279.9385 847.3479,-220.5285 884.6561,-187.2666"/>
<polygon fill="#c0c0c0" stroke="#c0c0c0" stroke-width="2" points="887.4478,-189.4649 892.5624,-180.1864 882.7779,-184.2502 887.4478,-189.4649"/>
</g>
<!-- 13 -->
<g id="node14" class="node">
<title>13</title>
<path fill="none" stroke="#566bd8" stroke-width="2" d="M693.5,-324C693.5,-324 547.5,-324 547.5,-324 541.5,-324 535.5,-318 535.5,-312 535.5,-312 535.5,-300 535.5,-300 535.5,-294 541.5,-288 547.5,-288 547.5,-288 693.5,-288 693.5,-288 699.5,-288 705.5,-294 705.5,-300 705.5,-300 705.5,-312 705.5,-312 705.5,-318 699.5,-324 693.5,-324"/>
<text text-anchor="middle" x="620.5" y="-303.5" font-family="sans" font-size="10.00" fill="#000000">counts_to_scores_Wuhan_Hu_1</text>
</g>
<!-- 7&#45;&gt;13 -->
<g id="edge61" class="edge">
<title>7&#45;&gt;13</title>
<path fill="none" stroke="#c0c0c0" stroke-width="2" d="M620.5,-359.8314C620.5,-352.131 620.5,-342.9743 620.5,-334.4166"/>
<polygon fill="#c0c0c0" stroke="#c0c0c0" stroke-width="2" points="624.0001,-334.4132 620.5,-324.4133 617.0001,-334.4133 624.0001,-334.4132"/>
</g>
<!-- 8 -->
<g id="node9" class="node">
<title>8</title>
<path fill="none" stroke="#56d863" stroke-width="2" d="M687.5,-468C687.5,-468 553.5,-468 553.5,-468 547.5,-468 541.5,-462 541.5,-456 541.5,-456 541.5,-444 541.5,-444 541.5,-438 547.5,-432 553.5,-432 553.5,-432 687.5,-432 687.5,-432 693.5,-432 699.5,-438 699.5,-444 699.5,-444 699.5,-456 699.5,-456 699.5,-462 693.5,-468 687.5,-468"/>
<text text-anchor="middle" x="620.5" y="-447.5" font-family="sans" font-size="10.00" fill="#000000">count_variants_Wuhan_Hu_1</text>
</g>
<!-- 8&#45;&gt;7 -->
<g id="edge57" class="edge">
<title>8&#45;&gt;7</title>
<path fill="none" stroke="#c0c0c0" stroke-width="2" d="M620.5,-431.8314C620.5,-424.131 620.5,-414.9743 620.5,-406.4166"/>
<polygon fill="#c0c0c0" stroke="#c0c0c0" stroke-width="2" points="624.0001,-406.4132 620.5,-396.4133 617.0001,-406.4133 624.0001,-406.4132"/>
</g>
<!-- 9 -->
<g id="node10" class="node">
<title>9</title>
<path fill="none" stroke="#70d856" stroke-width="2" d="M1146,-396C1146,-396 955,-396 955,-396 949,-396 943,-390 943,-384 943,-384 943,-372 943,-372 943,-366 949,-360 955,-360 955,-360 1146,-360 1146,-360 1152,-360 1158,-366 1158,-372 1158,-372 1158,-384 1158,-384 1158,-390 1152,-396 1146,-396"/>
<text text-anchor="middle" x="1050.5" y="-375.5" font-family="sans" font-size="10.00" fill="#000000">aggregate_variant_counts_Omicron_BA2</text>
</g>
<!-- 9&#45;&gt;0 -->
<g id="edge23" class="edge">
<title>9&#45;&gt;0</title>
<path fill="none" stroke="#c0c0c0" stroke-width="2" d="M989.0808,-359.9938C972.0025,-351.8495 955.4301,-340.2732 945.5,-324 937.1658,-310.342 942.4555,-303.7077 945.5,-288 952.0644,-254.1321 954.5518,-244.1459 974.5,-216 988.5222,-196.2155 999.2974,-198.0424 1015.5,-180 1054.7164,-136.3306 1039.9718,-100.1031 1091.5,-72 1147.3775,-41.5248 2101.7391,-23.2094 2349.2501,-18.9576"/>
<polygon fill="#c0c0c0" stroke="#c0c0c0" stroke-width="2" points="2349.5345,-22.4534 2359.4733,-18.7831 2349.415,-15.4544 2349.5345,-22.4534"/>
</g>
<!-- 12 -->
<g id="node13" class="node">
<title>12</title>
<path fill="none" stroke="#56d89a" stroke-width="2" d="M1134,-324C1134,-324 967,-324 967,-324 961,-324 955,-318 955,-312 955,-312 955,-300 955,-300 955,-294 961,-288 967,-288 967,-288 1134,-288 1134,-288 1140,-288 1146,-294 1146,-300 1146,-300 1146,-312 1146,-312 1146,-318 1140,-324 1134,-324"/>
<text text-anchor="middle" x="1050.5" y="-303.5" font-family="sans" font-size="10.00" fill="#000000">counts_to_cells_ratio_Omicron_BA2</text>
</g>
<!-- 9&#45;&gt;12 -->
<g id="edge60" class="edge">
<title>9&#45;&gt;12</title>
<path fill="none" stroke="#c0c0c0" stroke-width="2" d="M1050.5,-359.8314C1050.5,-352.131 1050.5,-342.9743 1050.5,-334.4166"/>
<polygon fill="#c0c0c0" stroke="#c0c0c0" stroke-width="2" points="1054.0001,-334.4132 1050.5,-324.4133 1047.0001,-334.4133 1054.0001,-334.4132"/>
</g>
<!-- 14 -->
<g id="node15" class="node">
<title>14</title>
<path fill="none" stroke="#56d8a2" stroke-width="2" d="M1404.5,-324C1404.5,-324 1256.5,-324 1256.5,-324 1250.5,-324 1244.5,-318 1244.5,-312 1244.5,-312 1244.5,-300 1244.5,-300 1244.5,-294 1250.5,-288 1256.5,-288 1256.5,-288 1404.5,-288 1404.5,-288 1410.5,-288 1416.5,-294 1416.5,-300 1416.5,-300 1416.5,-312 1416.5,-312 1416.5,-318 1410.5,-324 1404.5,-324"/>
<text text-anchor="middle" x="1330.5" y="-303.5" font-family="sans" font-size="10.00" fill="#000000">counts_to_scores_Omicron_BA2</text>
</g>
<!-- 9&#45;&gt;14 -->
<g id="edge62" class="edge">
<title>9&#45;&gt;14</title>
<path fill="none" stroke="#c0c0c0" stroke-width="2" d="M1120.7944,-359.9243C1160.1538,-349.8033 1209.3818,-337.1447 1250.2487,-326.6361"/>
<polygon fill="#c0c0c0" stroke="#c0c0c0" stroke-width="2" points="1251.3634,-329.9634 1260.1767,-324.0831 1249.6201,-323.1839 1251.3634,-329.9634"/>
</g>
<!-- 10 -->
<g id="node11" class="node">
<title>10</title>
<path fill="none" stroke="#68d856" stroke-width="2" d="M1118.5,-468C1118.5,-468 982.5,-468 982.5,-468 976.5,-468 970.5,-462 970.5,-456 970.5,-456 970.5,-444 970.5,-444 970.5,-438 976.5,-432 982.5,-432 982.5,-432 1118.5,-432 1118.5,-432 1124.5,-432 1130.5,-438 1130.5,-444 1130.5,-444 1130.5,-456 1130.5,-456 1130.5,-462 1124.5,-468 1118.5,-468"/>
<text text-anchor="middle" x="1050.5" y="-447.5" font-family="sans" font-size="10.00" fill="#000000">count_variants_Omicron_BA2</text>
</g>
<!-- 10&#45;&gt;9 -->
<g id="edge58" class="edge">
<title>10&#45;&gt;9</title>
<path fill="none" stroke="#c0c0c0" stroke-width="2" d="M1050.5,-431.8314C1050.5,-424.131 1050.5,-414.9743 1050.5,-406.4166"/>
<polygon fill="#c0c0c0" stroke="#c0c0c0" stroke-width="2" points="1054.0001,-406.4132 1050.5,-396.4133 1047.0001,-406.4133 1054.0001,-406.4132"/>
</g>
<!-- 11&#45;&gt;0 -->
<g id="edge50" class="edge">
<title>11&#45;&gt;0</title>
<path fill="none" stroke="#c0c0c0" stroke-width="2" d="M927.4275,-143.7735C946.4409,-122.0966 981.5407,-86.9688 1020.5,-72 1083.3525,-47.8511 2093.8838,-24.7043 2349.2426,-19.2205"/>
<polygon fill="#c0c0c0" stroke="#c0c0c0" stroke-width="2" points="2349.4988,-22.716 2359.4216,-19.0027 2349.349,-15.7176 2349.4988,-22.716"/>
</g>
<!-- 12&#45;&gt;0 -->
<g id="edge32" class="edge">
<title>12&#45;&gt;0</title>
<path fill="none" stroke="#c0c0c0" stroke-width="2" d="M1016.9003,-287.8076C1003.9596,-278.8793 990.592,-266.8246 983.5,-252 976.5952,-237.5666 975.3769,-229.7846 983.5,-216 1000.2659,-187.5487 1023.4082,-201.4701 1048.5,-180 1094.7037,-140.4652 1078.4516,-99.8667 1132.5,-72 1187.1601,-43.8179 2106.3334,-23.8966 2349.0941,-19.1097"/>
<polygon fill="#c0c0c0" stroke="#c0c0c0" stroke-width="2" points="2349.2022,-22.6084 2359.1316,-18.9128 2349.0649,-15.6097 2349.2022,-22.6084"/>
</g>
<!-- 13&#45;&gt;0 -->
<g id="edge52" class="edge">
<title>13&#45;&gt;0</title>
<path fill="none" stroke="#c0c0c0" stroke-width="2" d="M552.1521,-287.9405C534.6223,-279.8841 517.8201,-268.3697 507.5,-252 459.8939,-176.4876 523.0186,-118.6577 610.5,-72 688.8769,-30.1982 2049.1902,-20.0382 2349.2501,-18.3017"/>
<polygon fill="#c0c0c0" stroke="#c0c0c0" stroke-width="2" points="2349.4932,-21.8005 2359.473,-18.2434 2349.4532,-14.8006 2349.4932,-21.8005"/>
</g>
<!-- 15 -->
<g id="node16" class="node">
<title>15</title>
<path fill="none" stroke="#56d8d8" stroke-width="2" d="M712,-252C712,-252 529,-252 529,-252 523,-252 517,-246 517,-240 517,-240 517,-228 517,-228 517,-222 523,-216 529,-216 529,-216 712,-216 712,-216 718,-216 724,-222 724,-228 724,-228 724,-240 724,-240 724,-246 718,-252 712,-252"/>
<text text-anchor="middle" x="620.5" y="-231.5" font-family="sans" font-size="10.00" fill="#000000">call_strong_escape_sites_Wuhan_Hu_1</text>
</g>
<!-- 13&#45;&gt;15 -->
<g id="edge63" class="edge">
<title>13&#45;&gt;15</title>
<path fill="none" stroke="#c0c0c0" stroke-width="2" d="M620.5,-287.8314C620.5,-280.131 620.5,-270.9743 620.5,-262.4166"/>
<polygon fill="#c0c0c0" stroke="#c0c0c0" stroke-width="2" points="624.0001,-262.4132 620.5,-252.4133 617.0001,-262.4133 624.0001,-262.4132"/>
</g>
<!-- 13&#45;&gt;17 -->
<g id="edge66" class="edge">
<title>13&#45;&gt;17</title>
<path fill="none" stroke="#c0c0c0" stroke-width="2" d="M687.9644,-287.9482C705.445,-279.8823 722.225,-268.361 732.5,-252 745.872,-230.7077 729.3657,-205.7873 711.6613,-187.5751"/>
<polygon fill="#c0c0c0" stroke="#c0c0c0" stroke-width="2" points="713.6944,-184.6704 704.0839,-180.2106 708.8157,-189.6902 713.6944,-184.6704"/>
</g>
<!-- 19 -->
<g id="node20" class="node">
<title>19</title>
<path fill="none" stroke="#56d8c1" stroke-width="2" d="M511.5,-108C511.5,-108 389.5,-108 389.5,-108 383.5,-108 377.5,-102 377.5,-96 377.5,-96 377.5,-84 377.5,-84 377.5,-78 383.5,-72 389.5,-72 389.5,-72 511.5,-72 511.5,-72 517.5,-72 523.5,-78 523.5,-84 523.5,-84 523.5,-96 523.5,-96 523.5,-102 517.5,-108 511.5,-108"/>
<text text-anchor="middle" x="450.5" y="-87.5" font-family="sans" font-size="10.00" fill="#000000">output_pdbs_Wuhan_Hu_1</text>
</g>
<!-- 13&#45;&gt;19 -->
<g id="edge71" class="edge">
<title>13&#45;&gt;19</title>
<path fill="none" stroke="#c0c0c0" stroke-width="2" d="M535.2824,-291.1517C512.4238,-283.1658 489.8282,-270.8851 474.5,-252 443.5667,-213.8886 443.44,-153.505 446.6373,-118.2214"/>
<polygon fill="#c0c0c0" stroke="#c0c0c0" stroke-width="2" points="450.1334,-118.4426 447.7059,-108.1296 443.1723,-117.7054 450.1334,-118.4426"/>
</g>
<!-- 21 -->
<g id="node22" class="node">
<title>21</title>
<path fill="none" stroke="#d8bc56" stroke-width="2" d="M867,-108C867,-108 722,-108 722,-108 716,-108 710,-102 710,-96 710,-96 710,-84 710,-84 710,-78 716,-72 722,-72 722,-72 867,-72 867,-72 873,-72 879,-78 879,-84 879,-84 879,-96 879,-96 879,-102 873,-108 867,-108"/>
<text text-anchor="middle" x="794.5" y="-87.5" font-family="sans" font-size="10.00" fill="#000000">make_supp_data_Wuhan_Hu_1</text>
</g>
<!-- 13&#45;&gt;21 -->
<g id="edge74" class="edge">
<title>13&#45;&gt;21</title>
<path fill="none" stroke="#c0c0c0" stroke-width="2" d="M694.5168,-287.8861C714.6779,-279.8084 734.9433,-268.2963 749.5,-252 783.0712,-214.4169 791.8284,-153.849 793.9719,-118.3894"/>
<polygon fill="#c0c0c0" stroke="#c0c0c0" stroke-width="2" points="797.4753,-118.3963 794.445,-108.2441 790.4829,-118.0702 797.4753,-118.3963"/>
</g>
<!-- 14&#45;&gt;0 -->
<g id="edge33" class="edge">
<title>14&#45;&gt;0</title>
<path fill="none" stroke="#c0c0c0" stroke-width="2" d="M1349.9779,-287.9371C1360.5892,-277.7543 1373.7165,-264.5847 1384.5,-252 1403.8481,-229.4201 1439.0046,-160.8574 1463.5,-144 1513.5934,-109.5264 1538.4678,-129.0976 1595.5,-108 1630.5541,-95.0327 1635.3596,-81.5293 1671.5,-72 1799.1375,-38.3453 2198.1331,-23.8833 2348.962,-19.5212"/>
<polygon fill="#c0c0c0" stroke="#c0c0c0" stroke-width="2" points="2349.4893,-23.0077 2359.3856,-19.2245 2349.29,-16.0106 2349.4893,-23.0077"/>
</g>
<!-- 16 -->
<g id="node17" class="node">
<title>16</title>
<path fill="none" stroke="#56a2d8" stroke-width="2" d="M1290,-252C1290,-252 1105,-252 1105,-252 1099,-252 1093,-246 1093,-240 1093,-240 1093,-228 1093,-228 1093,-222 1099,-216 1105,-216 1105,-216 1290,-216 1290,-216 1296,-216 1302,-222 1302,-228 1302,-228 1302,-240 1302,-240 1302,-246 1296,-252 1290,-252"/>
<text text-anchor="middle" x="1197.5" y="-231.5" font-family="sans" font-size="10.00" fill="#000000">call_strong_escape_sites_Omicron_BA2</text>
</g>
<!-- 14&#45;&gt;16 -->
<g id="edge64" class="edge">
<title>14&#45;&gt;16</title>
<path fill="none" stroke="#c0c0c0" stroke-width="2" d="M1296.9385,-287.8314C1279.6119,-278.4516 1258.2942,-266.9112 1239.8464,-256.9244"/>
<polygon fill="#c0c0c0" stroke="#c0c0c0" stroke-width="2" points="1241.5111,-253.8457 1231.0508,-252.1628 1238.1786,-260.0015 1241.5111,-253.8457"/>
</g>
<!-- 14&#45;&gt;18 -->
<g id="edge68" class="edge">
<title>14&#45;&gt;18</title>
<path fill="none" stroke="#c0c0c0" stroke-width="2" d="M1329.6398,-287.7307C1328.0842,-268.7853 1323.7222,-238.8013 1311.5,-216 1305.7881,-205.344 1297.3326,-195.3703 1288.8446,-186.9655"/>
<polygon fill="#c0c0c0" stroke="#c0c0c0" stroke-width="2" points="1291.1274,-184.3077 1281.4452,-180.0057 1286.3314,-189.4066 1291.1274,-184.3077"/>
</g>
<!-- 20 -->
<g id="node21" class="node">
<title>20</title>
<path fill="none" stroke="#56d86b" stroke-width="2" d="M1574.5,-108C1574.5,-108 1450.5,-108 1450.5,-108 1444.5,-108 1438.5,-102 1438.5,-96 1438.5,-96 1438.5,-84 1438.5,-84 1438.5,-78 1444.5,-72 1450.5,-72 1450.5,-72 1574.5,-72 1574.5,-72 1580.5,-72 1586.5,-78 1586.5,-84 1586.5,-84 1586.5,-96 1586.5,-96 1586.5,-102 1580.5,-108 1574.5,-108"/>
<text text-anchor="middle" x="1512.5" y="-87.5" font-family="sans" font-size="10.00" fill="#000000">output_pdbs_Omicron_BA2</text>
</g>
<!-- 14&#45;&gt;20 -->
<g id="edge72" class="edge">
<title>14&#45;&gt;20</title>
<path fill="none" stroke="#c0c0c0" stroke-width="2" d="M1340.3723,-287.8736C1360.8278,-250.6984 1407.8194,-167.3556 1430.5,-144 1441.8,-132.3638 1456.0289,-121.9171 1469.4481,-113.3835"/>
<polygon fill="#c0c0c0" stroke="#c0c0c0" stroke-width="2" points="1471.4243,-116.2771 1478.1106,-108.0586 1467.7585,-110.3137 1471.4243,-116.2771"/>
</g>
<!-- 22 -->
<g id="node23" class="node">
<title>22</title>
<path fill="none" stroke="#5692d8" stroke-width="2" d="M1408,-108C1408,-108 1261,-108 1261,-108 1255,-108 1249,-102 1249,-96 1249,-96 1249,-84 1249,-84 1249,-78 1255,-72 1261,-72 1261,-72 1408,-72 1408,-72 1414,-72 1420,-78 1420,-84 1420,-84 1420,-96 1420,-96 1420,-102 1414,-108 1408,-108"/>
<text text-anchor="middle" x="1334.5" y="-87.5" font-family="sans" font-size="10.00" fill="#000000">make_supp_data_Omicron_BA2</text>
</g>
<!-- 14&#45;&gt;22 -->
<g id="edge75" class="edge">
<title>14&#45;&gt;22</title>
<path fill="none" stroke="#c0c0c0" stroke-width="2" d="M1335.5805,-287.9928C1343.3603,-258.0592 1356.6137,-196.1885 1349.5,-144 1348.3228,-135.3639 1346.1329,-126.1599 1343.783,-117.8427"/>
<polygon fill="#c0c0c0" stroke="#c0c0c0" stroke-width="2" points="1347.1257,-116.8042 1340.8948,-108.2353 1340.422,-118.8195 1347.1257,-116.8042"/>
</g>
<!-- 59 -->
<g id="node60" class="node">
<title>59</title>
<path fill="none" stroke="#a7d856" stroke-width="2" d="M1062.5,-252C1062.5,-252 1004.5,-252 1004.5,-252 998.5,-252 992.5,-246 992.5,-240 992.5,-240 992.5,-228 992.5,-228 992.5,-222 998.5,-216 1004.5,-216 1004.5,-216 1062.5,-216 1062.5,-216 1068.5,-216 1074.5,-222 1074.5,-228 1074.5,-228 1074.5,-240 1074.5,-240 1074.5,-246 1068.5,-252 1062.5,-252"/>
<text text-anchor="middle" x="1033.5" y="-231.5" font-family="sans" font-size="10.00" fill="#000000">custom_plots</text>
</g>
<!-- 14&#45;&gt;59 -->
<g id="edge121" class="edge">
<title>14&#45;&gt;59</title>
<path fill="none" stroke="#c0c0c0" stroke-width="2" d="M1244.3648,-290.0365C1199.1106,-280.9721 1142.6519,-268.602 1084.3196,-252.0629"/>
<polygon fill="#c0c0c0" stroke="#c0c0c0" stroke-width="2" points="1085.1392,-248.6569 1074.5617,-249.2618 1083.2078,-255.3852 1085.1392,-248.6569"/>
</g>
<!-- 15&#45;&gt;0 -->
<g id="edge39" class="edge">
<title>15&#45;&gt;0</title>
<path fill="none" stroke="#c0c0c0" stroke-width="2" d="M606.8631,-215.9102C594.6702,-197.3706 580.3169,-167.9475 591.5,-144 612.5922,-98.833 630.9189,-89.7523 677.5,-72 757.1559,-41.6427 2055.1745,-22.6711 2348.7841,-18.7557"/>
<polygon fill="#c0c0c0" stroke="#c0c0c0" stroke-width="2" points="2349.2523,-22.2499 2359.2049,-18.6175 2349.1593,-15.2505 2349.2523,-22.2499"/>
</g>
<!-- 15&#45;&gt;17 -->
<g id="edge67" class="edge">
<title>15&#45;&gt;17</title>
<path fill="none" stroke="#c0c0c0" stroke-width="2" d="M635.8929,-215.8314C642.9904,-207.454 651.548,-197.3531 659.324,-188.1749"/>
<polygon fill="#c0c0c0" stroke="#c0c0c0" stroke-width="2" points="662.1061,-190.3056 665.8999,-180.4133 656.7652,-185.7807 662.1061,-190.3056"/>
</g>
<!-- 16&#45;&gt;0 -->
<g id="edge45" class="edge">
<title>16&#45;&gt;0</title>
<path fill="none" stroke="#c0c0c0" stroke-width="2" d="M1184.2232,-215.9768C1172.4905,-197.74 1158.529,-168.7783 1167.5,-144 1181.6803,-104.8333 1190.1918,-90.5259 1227.5,-72 1278.1511,-46.8485 2117.7988,-24.9443 2348.9844,-19.3687"/>
<polygon fill="#c0c0c0" stroke="#c0c0c0" stroke-width="2" points="2349.2946,-22.8623 2359.2076,-19.1232 2349.1265,-15.8644 2349.2946,-22.8623"/>
</g>
<!-- 16&#45;&gt;18 -->
<g id="edge70" class="edge">
<title>16&#45;&gt;18</title>
<path fill="none" stroke="#c0c0c0" stroke-width="2" d="M1212.8929,-215.8314C1219.9904,-207.454 1228.548,-197.3531 1236.324,-188.1749"/>
<polygon fill="#c0c0c0" stroke="#c0c0c0" stroke-width="2" points="1239.1061,-190.3056 1242.8999,-180.4133 1233.7652,-185.7807 1239.1061,-190.3056"/>
</g>
<!-- 17&#45;&gt;0 -->
<g id="edge11" class="edge">
<title>17&#45;&gt;0</title>
<path fill="none" stroke="#c0c0c0" stroke-width="2" d="M679.4227,-143.8855C678.1565,-123.0002 679.8093,-89.3281 700.5,-72 732.7936,-44.9547 2053.5082,-23.3643 2349.1831,-18.8639"/>
<polygon fill="#c0c0c0" stroke="#c0c0c0" stroke-width="2" points="2349.3191,-22.3623 2359.2649,-18.711 2349.213,-15.3631 2349.3191,-22.3623"/>
</g>
<!-- 17&#45;&gt;21 -->
<g id="edge73" class="edge">
<title>17&#45;&gt;21</title>
<path fill="none" stroke="#c0c0c0" stroke-width="2" d="M710.0147,-143.8314C724.3342,-134.7074 741.8624,-123.539 757.2338,-113.7449"/>
<polygon fill="#c0c0c0" stroke="#c0c0c0" stroke-width="2" points="759.4417,-116.4882 765.9945,-108.1628 755.6801,-110.5847 759.4417,-116.4882"/>
</g>
<!-- 18&#45;&gt;0 -->
<g id="edge37" class="edge">
<title>18&#45;&gt;0</title>
<path fill="none" stroke="#c0c0c0" stroke-width="2" d="M1246.5295,-143.9238C1234.7798,-123.7111 1221.0829,-91.2883 1239.5,-72 1278.1576,-31.5138 2117.5713,-20.7044 2348.9213,-18.4895"/>
<polygon fill="#c0c0c0" stroke="#c0c0c0" stroke-width="2" points="2349.1858,-21.9872 2359.1524,-18.3934 2349.12,-14.9875 2349.1858,-21.9872"/>
</g>
<!-- 18&#45;&gt;22 -->
<g id="edge76" class="edge">
<title>18&#45;&gt;22</title>
<path fill="none" stroke="#c0c0c0" stroke-width="2" d="M1277.678,-143.8314C1286.8588,-135.1337 1298.0006,-124.5783 1307.9776,-115.1265"/>
<polygon fill="#c0c0c0" stroke="#c0c0c0" stroke-width="2" points="1310.4757,-117.5811 1315.3281,-108.1628 1305.6615,-112.4995 1310.4757,-117.5811"/>
</g>
<!-- 19&#45;&gt;0 -->
<g id="edge38" class="edge">
<title>19&#45;&gt;0</title>
<path fill="none" stroke="#c0c0c0" stroke-width="2" d="M523.9242,-73.8664C528.5047,-73.1526 533.0573,-72.5197 537.5,-72 900.9805,-29.4827 2073.5876,-19.9754 2349.1415,-18.3084"/>
<polygon fill="#c0c0c0" stroke="#c0c0c0" stroke-width="2" points="2349.3436,-21.8074 2359.3226,-18.2479 2349.302,-14.8075 2349.3436,-21.8074"/>
</g>
<!-- 20&#45;&gt;0 -->
<g id="edge28" class="edge">
<title>20&#45;&gt;0</title>
<path fill="none" stroke="#c0c0c0" stroke-width="2" d="M1586.7968,-74.0688C1591.4229,-73.3047 1596.0184,-72.6055 1600.5,-72 1879.1993,-34.3473 2215.7612,-22.5579 2349.0629,-19.2096"/>
<polygon fill="#c0c0c0" stroke="#c0c0c0" stroke-width="2" points="2349.1515,-22.7086 2359.0628,-18.9648 2348.9801,-15.7107 2349.1515,-22.7086"/>
</g>
<!-- 21&#45;&gt;0 -->
<g id="edge12" class="edge">
<title>21&#45;&gt;0</title>
<path fill="none" stroke="#c0c0c0" stroke-width="2" d="M879.2974,-78.296C899.3322,-75.8774 920.6428,-73.5866 940.5,-72 1487.0903,-28.3273 2151.1157,-19.9209 2349.1138,-18.3501"/>
<polygon fill="#c0c0c0" stroke="#c0c0c0" stroke-width="2" points="2349.3181,-21.8487 2359.291,-18.2721 2349.2645,-14.8489 2349.3181,-21.8487"/>
</g>
<!-- 22&#45;&gt;0 -->
<g id="edge47" class="edge">
<title>22&#45;&gt;0</title>
<path fill="none" stroke="#c0c0c0" stroke-width="2" d="M1420.1235,-73.238C1423.284,-72.7907 1426.4173,-72.3755 1429.5,-72 1776.8487,-29.6918 2197.6771,-20.5092 2349.4415,-18.5345"/>
<polygon fill="#c0c0c0" stroke="#c0c0c0" stroke-width="2" points="2349.5169,-22.034 2359.4725,-18.4095 2349.4296,-15.0345 2349.5169,-22.034"/>
</g>
<!-- 23&#45;&gt;0 -->
<g id="edge13" class="edge">
<title>23&#45;&gt;0</title>
<path fill="none" stroke="#c0c0c0" stroke-width="2" d="M1595.2156,-143.9328C1637.6689,-122.76 1712.3092,-88.4791 1780.5,-72 1887.6262,-46.1117 2215.3022,-27.4903 2349.3837,-20.76"/>
<polygon fill="#c0c0c0" stroke="#c0c0c0" stroke-width="2" points="2349.6479,-24.2513 2359.4615,-20.2583 2349.2998,-17.2599 2349.6479,-24.2513"/>
</g>
<!-- 24&#45;&gt;0 -->
<g id="edge15" class="edge">
<title>24&#45;&gt;0</title>
<path fill="none" stroke="#c0c0c0" stroke-width="2" d="M1764.7513,-143.8584C1774.2978,-122.6124 1793.2513,-88.2594 1821.5,-72 1866.5283,-46.0825 2209.9656,-27.2591 2349.1707,-20.6191"/>
<polygon fill="#c0c0c0" stroke="#c0c0c0" stroke-width="2" points="2349.4064,-24.112 2359.2299,-20.1436 2349.0758,-17.1198 2349.4064,-24.112"/>
</g>
<!-- 25 -->
<g id="node26" class="node">
<title>25</title>
<path fill="none" stroke="#d89556" stroke-width="2" d="M2412,-396C2412,-396 2215,-396 2215,-396 2209,-396 2203,-390 2203,-384 2203,-384 2203,-372 2203,-372 2203,-366 2209,-360 2215,-360 2215,-360 2412,-360 2412,-360 2418,-360 2424,-366 2424,-372 2424,-372 2424,-384 2424,-384 2424,-390 2418,-396 2412,-396"/>
<text text-anchor="middle" x="2313.5" y="-375.5" font-family="sans" font-size="10.00" fill="#000000">aggregate_variant_counts_Omicron_BQ11</text>
</g>
<!-- 25&#45;&gt;0 -->
<g id="edge8" class="edge">
<title>25&#45;&gt;0</title>
<path fill="none" stroke="#c0c0c0" stroke-width="2" d="M2257.6233,-359.902C2241.1378,-351.6643 2224.9852,-340.0564 2215.5,-324 2207.362,-310.2242 2209.6438,-302.8898 2215.5,-288 2231.4991,-247.3214 2248.3387,-243.2713 2282.5,-216 2307.402,-196.1204 2323.783,-204.2098 2344.5,-180 2378.2835,-140.5208 2395.1222,-80.8607 2402.5268,-46.0278"/>
<polygon fill="#c0c0c0" stroke="#c0c0c0" stroke-width="2" points="2405.9901,-46.5582 2404.5302,-36.0644 2399.1275,-45.1782 2405.9901,-46.5582"/>
</g>
<!-- 29 -->
<g id="node30" class="node">
<title>29</title>
<path fill="none" stroke="#97d856" stroke-width="2" d="M2680,-324C2680,-324 2507,-324 2507,-324 2501,-324 2495,-318 2495,-312 2495,-312 2495,-300 2495,-300 2495,-294 2501,-288 2507,-288 2507,-288 2680,-288 2680,-288 2686,-288 2692,-294 2692,-300 2692,-300 2692,-312 2692,-312 2692,-318 2686,-324 2680,-324"/>
<text text-anchor="middle" x="2593.5" y="-303.5" font-family="sans" font-size="10.00" fill="#000000">counts_to_cells_ratio_Omicron_BQ11</text>
</g>
<!-- 25&#45;&gt;29 -->
<g id="edge81" class="edge">
<title>25&#45;&gt;29</title>
<path fill="none" stroke="#c0c0c0" stroke-width="2" d="M2383.7944,-359.9243C2423.1538,-349.8033 2472.3818,-337.1447 2513.2487,-326.6361"/>
<polygon fill="#c0c0c0" stroke="#c0c0c0" stroke-width="2" points="2514.3634,-329.9634 2523.1767,-324.0831 2512.6201,-323.1839 2514.3634,-329.9634"/>
</g>
<!-- 31 -->
<g id="node32" class="node">
<title>31</title>
<path fill="none" stroke="#afd856" stroke-width="2" d="M2391,-324C2391,-324 2236,-324 2236,-324 2230,-324 2224,-318 2224,-312 2224,-312 2224,-300 2224,-300 2224,-294 2230,-288 2236,-288 2236,-288 2391,-288 2391,-288 2397,-288 2403,-294 2403,-300 2403,-300 2403,-312 2403,-312 2403,-318 2397,-324 2391,-324"/>
<text text-anchor="middle" x="2313.5" y="-303.5" font-family="sans" font-size="10.00" fill="#000000">counts_to_scores_Omicron_BQ11</text>
</g>
<!-- 25&#45;&gt;31 -->
<g id="edge83" class="edge">
<title>25&#45;&gt;31</title>
<path fill="none" stroke="#c0c0c0" stroke-width="2" d="M2313.5,-359.8314C2313.5,-352.131 2313.5,-342.9743 2313.5,-334.4166"/>
<polygon fill="#c0c0c0" stroke="#c0c0c0" stroke-width="2" points="2317.0001,-334.4132 2313.5,-324.4133 2310.0001,-334.4133 2317.0001,-334.4132"/>
</g>
<!-- 26 -->
<g id="node27" class="node">
<title>26</title>
<path fill="none" stroke="#56d882" stroke-width="2" d="M2385,-468C2385,-468 2242,-468 2242,-468 2236,-468 2230,-462 2230,-456 2230,-456 2230,-444 2230,-444 2230,-438 2236,-432 2242,-432 2242,-432 2385,-432 2385,-432 2391,-432 2397,-438 2397,-444 2397,-444 2397,-456 2397,-456 2397,-462 2391,-468 2385,-468"/>
<text text-anchor="middle" x="2313.5" y="-447.5" font-family="sans" font-size="10.00" fill="#000000">count_variants_Omicron_BQ11</text>
</g>
<!-- 26&#45;&gt;25 -->
<g id="edge79" class="edge">
<title>26&#45;&gt;25</title>
<path fill="none" stroke="#c0c0c0" stroke-width="2" d="M2313.5,-431.8314C2313.5,-424.131 2313.5,-414.9743 2313.5,-406.4166"/>
<polygon fill="#c0c0c0" stroke="#c0c0c0" stroke-width="2" points="2317.0001,-406.4132 2313.5,-396.4133 2310.0001,-406.4133 2317.0001,-406.4132"/>
</g>
<!-- 27 -->
<g id="node28" class="node">
<title>27</title>
<path fill="none" stroke="#d89c56" stroke-width="2" d="M3025,-396C3025,-396 2822,-396 2822,-396 2816,-396 2810,-390 2810,-384 2810,-384 2810,-372 2810,-372 2810,-366 2816,-360 2822,-360 2822,-360 3025,-360 3025,-360 3031,-360 3037,-366 3037,-372 3037,-372 3037,-384 3037,-384 3037,-390 3031,-396 3025,-396"/>
<text text-anchor="middle" x="2923.5" y="-375.5" font-family="sans" font-size="10.00" fill="#000000">aggregate_variant_counts_Omicron_XBB15</text>
</g>
<!-- 27&#45;&gt;0 -->
<g id="edge9" class="edge">
<title>27&#45;&gt;0</title>
<path fill="none" stroke="#c0c0c0" stroke-width="2" d="M2863.1024,-359.8966C2844.753,-351.6585 2826.1274,-340.0518 2813.5,-324 2788.1653,-291.7949 2793.5,-274.9758 2793.5,-234 2793.5,-234 2793.5,-234 2793.5,-162 2793.5,-109.646 2762.9078,-98.0591 2717.5,-72 2675.5552,-47.9283 2543.3506,-31.3237 2465.7973,-23.3715"/>
<polygon fill="#c0c0c0" stroke="#c0c0c0" stroke-width="2" points="2465.9956,-19.8738 2455.6949,-22.3528 2465.2933,-26.8385 2465.9956,-19.8738"/>
</g>
<!-- 30 -->
<g id="node31" class="node">
<title>30</title>
<path fill="none" stroke="#5673d8" stroke-width="2" d="M3013,-324C3013,-324 2834,-324 2834,-324 2828,-324 2822,-318 2822,-312 2822,-312 2822,-300 2822,-300 2822,-294 2828,-288 2834,-288 2834,-288 3013,-288 3013,-288 3019,-288 3025,-294 3025,-300 3025,-300 3025,-312 3025,-312 3025,-318 3019,-324 3013,-324"/>
<text text-anchor="middle" x="2923.5" y="-303.5" font-family="sans" font-size="10.00" fill="#000000">counts_to_cells_ratio_Omicron_XBB15</text>
</g>
<!-- 27&#45;&gt;30 -->
<g id="edge82" class="edge">
<title>27&#45;&gt;30</title>
<path fill="none" stroke="#c0c0c0" stroke-width="2" d="M2923.5,-359.8314C2923.5,-352.131 2923.5,-342.9743 2923.5,-334.4166"/>
<polygon fill="#c0c0c0" stroke="#c0c0c0" stroke-width="2" points="2927.0001,-334.4132 2923.5,-324.4133 2920.0001,-334.4133 2927.0001,-334.4132"/>
</g>
<!-- 32 -->
<g id="node33" class="node">
<title>32</title>
<path fill="none" stroke="#56b9d8" stroke-width="2" d="M3222,-324C3222,-324 3061,-324 3061,-324 3055,-324 3049,-318 3049,-312 3049,-312 3049,-300 3049,-300 3049,-294 3055,-288 3061,-288 3061,-288 3222,-288 3222,-288 3228,-288 3234,-294 3234,-300 3234,-300 3234,-312 3234,-312 3234,-318 3228,-324 3222,-324"/>
<text text-anchor="middle" x="3141.5" y="-303.5" font-family="sans" font-size="10.00" fill="#000000">counts_to_scores_Omicron_XBB15</text>
</g>
<!-- 27&#45;&gt;32 -->
<g id="edge84" class="edge">
<title>27&#45;&gt;32</title>
<path fill="none" stroke="#c0c0c0" stroke-width="2" d="M2978.2292,-359.9243C3008.2902,-349.9959 3045.745,-337.6255 3077.1954,-327.2382"/>
<polygon fill="#c0c0c0" stroke="#c0c0c0" stroke-width="2" points="3078.3504,-330.5428 3086.7483,-324.0831 3076.1551,-323.8959 3078.3504,-330.5428"/>
</g>
<!-- 28 -->
<g id="node29" class="node">
<title>28</title>
<path fill="none" stroke="#569ad8" stroke-width="2" d="M2998,-468C2998,-468 2849,-468 2849,-468 2843,-468 2837,-462 2837,-456 2837,-456 2837,-444 2837,-444 2837,-438 2843,-432 2849,-432 2849,-432 2998,-432 2998,-432 3004,-432 3010,-438 3010,-444 3010,-444 3010,-456 3010,-456 3010,-462 3004,-468 2998,-468"/>
<text text-anchor="middle" x="2923.5" y="-447.5" font-family="sans" font-size="10.00" fill="#000000">count_variants_Omicron_XBB15</text>
</g>
<!-- 28&#45;&gt;27 -->
<g id="edge80" class="edge">
<title>28&#45;&gt;27</title>
<path fill="none" stroke="#c0c0c0" stroke-width="2" d="M2923.5,-431.8314C2923.5,-424.131 2923.5,-414.9743 2923.5,-406.4166"/>
<polygon fill="#c0c0c0" stroke="#c0c0c0" stroke-width="2" points="2927.0001,-406.4132 2923.5,-396.4133 2920.0001,-406.4133 2927.0001,-406.4132"/>
</g>
<!-- 29&#45;&gt;0 -->
<g id="edge21" class="edge">
<title>29&#45;&gt;0</title>
<path fill="none" stroke="#c0c0c0" stroke-width="2" d="M2662.8499,-287.9268C2694.6556,-278.0984 2727.3325,-265.2612 2736.5,-252 2771.7584,-200.9971 2763.8785,-139.0344 2686.5,-72 2654.2017,-44.0194 2537.8612,-29.1802 2466.0074,-22.5096"/>
<polygon fill="#c0c0c0" stroke="#c0c0c0" stroke-width="2" points="2466.0181,-18.9965 2455.7442,-21.5841 2465.3894,-25.9682 2466.0181,-18.9965"/>
</g>
<!-- 30&#45;&gt;0 -->
<g id="edge51" class="edge">
<title>30&#45;&gt;0</title>
<path fill="none" stroke="#c0c0c0" stroke-width="2" d="M2889.4352,-287.9438C2875.4277,-278.9047 2860.2378,-266.7278 2850.5,-252 2805.136,-183.3899 2868.5028,-127.1715 2807.5,-72 2782.603,-49.483 2570.8692,-30.4199 2465.9469,-22.2557"/>
<polygon fill="#c0c0c0" stroke="#c0c0c0" stroke-width="2" points="2466.0707,-18.755 2455.8314,-21.4767 2465.5331,-25.7343 2466.0707,-18.755"/>
</g>
<!-- 31&#45;&gt;0 -->
<g id="edge18" class="edge">
<title>31&#45;&gt;0</title>
<path fill="none" stroke="#c0c0c0" stroke-width="2" d="M2302.1082,-287.8143C2291.5494,-268.3897 2279.5459,-237.5007 2294.5,-216 2320.7566,-178.2487 2363.4177,-216.4137 2391.5,-180 2421.2965,-141.3636 2418.1814,-81.1631 2412.9933,-46.0544"/>
<polygon fill="#c0c0c0" stroke="#c0c0c0" stroke-width="2" points="2416.4197,-45.3194 2411.3509,-36.0158 2409.5116,-46.4498 2416.4197,-45.3194"/>
</g>
<!-- 33 -->
<g id="node34" class="node">
<title>33</title>
<path fill="none" stroke="#56d85b" stroke-width="2" d="M2541.5,-252C2541.5,-252 2349.5,-252 2349.5,-252 2343.5,-252 2337.5,-246 2337.5,-240 2337.5,-240 2337.5,-228 2337.5,-228 2337.5,-222 2343.5,-216 2349.5,-216 2349.5,-216 2541.5,-216 2541.5,-216 2547.5,-216 2553.5,-222 2553.5,-228 2553.5,-228 2553.5,-240 2553.5,-240 2553.5,-246 2547.5,-252 2541.5,-252"/>
<text text-anchor="middle" x="2445.5" y="-231.5" font-family="sans" font-size="10.00" fill="#000000">call_strong_escape_sites_Omicron_BQ11</text>
</g>
<!-- 31&#45;&gt;33 -->
<g id="edge85" class="edge">
<title>31&#45;&gt;33</title>
<path fill="none" stroke="#c0c0c0" stroke-width="2" d="M2346.8092,-287.8314C2363.9273,-278.4942 2384.9706,-267.016 2403.2222,-257.0606"/>
<polygon fill="#c0c0c0" stroke="#c0c0c0" stroke-width="2" points="2405.0985,-260.024 2412.2015,-252.1628 2401.7465,-253.8788 2405.0985,-260.024"/>
</g>
<!-- 31&#45;&gt;35 -->
<g id="edge87" class="edge">
<title>31&#45;&gt;35</title>
<path fill="none" stroke="#c0c0c0" stroke-width="2" d="M2311.0952,-287.9062C2309.4929,-267.6774 2310.3443,-235.2398 2328.5,-216 2333.6927,-210.4972 2407.2044,-194.3201 2471.169,-181.0955"/>
<polygon fill="#c0c0c0" stroke="#c0c0c0" stroke-width="2" points="2472.2527,-184.4459 2481.341,-179.0005 2470.8405,-177.5898 2472.2527,-184.4459"/>
</g>
<!-- 37 -->
<g id="node38" class="node">
<title>37</title>
<path fill="none" stroke="#d8a456" stroke-width="2" d="M2715,-252C2715,-252 2584,-252 2584,-252 2578,-252 2572,-246 2572,-240 2572,-240 2572,-228 2572,-228 2572,-222 2578,-216 2584,-216 2584,-216 2715,-216 2715,-216 2721,-216 2727,-222 2727,-228 2727,-228 2727,-240 2727,-240 2727,-246 2721,-252 2715,-252"/>
<text text-anchor="middle" x="2649.5" y="-231.5" font-family="sans" font-size="10.00" fill="#000000">output_pdbs_Omicron_BQ11</text>
</g>
<!-- 31&#45;&gt;37 -->
<g id="edge93" class="edge">
<title>31&#45;&gt;37</title>
<path fill="none" stroke="#c0c0c0" stroke-width="2" d="M2397.8533,-287.9243C2447.8794,-277.2044 2511.1906,-263.6377 2561.794,-252.7941"/>
<polygon fill="#c0c0c0" stroke="#c0c0c0" stroke-width="2" points="2562.6929,-256.1811 2571.7375,-250.6634 2561.2261,-249.3364 2562.6929,-256.1811"/>
</g>
<!-- 39 -->
<g id="node40" class="node">
<title>39</title>
<path fill="none" stroke="#56d8b1" stroke-width="2" d="M2601.5,-108C2601.5,-108 2447.5,-108 2447.5,-108 2441.5,-108 2435.5,-102 2435.5,-96 2435.5,-96 2435.5,-84 2435.5,-84 2435.5,-78 2441.5,-72 2447.5,-72 2447.5,-72 2601.5,-72 2601.5,-72 2607.5,-72 2613.5,-78 2613.5,-84 2613.5,-84 2613.5,-96 2613.5,-96 2613.5,-102 2607.5,-108 2601.5,-108"/>
<text text-anchor="middle" x="2524.5" y="-87.5" font-family="sans" font-size="10.00" fill="#000000">make_supp_data_Omicron_BQ11</text>
</g>
<!-- 31&#45;&gt;39 -->
<g id="edge95" class="edge">
<title>31&#45;&gt;39</title>
<path fill="none" stroke="#c0c0c0" stroke-width="2" d="M2306.2021,-287.8145C2299.6024,-268.1032 2293.0631,-236.6985 2308.5,-216 2342.0435,-171.0235 2380.9146,-208.0625 2429.5,-180 2445.0331,-171.0282 2477.5497,-138.8808 2500.1876,-115.5626"/>
<polygon fill="#c0c0c0" stroke="#c0c0c0" stroke-width="2" points="2502.7299,-117.9684 2507.1564,-108.3426 2497.6933,-113.1071 2502.7299,-117.9684"/>
</g>
<!-- 32&#45;&gt;0 -->
<g id="edge43" class="edge">
<title>32&#45;&gt;0</title>
<path fill="none" stroke="#c0c0c0" stroke-width="2" d="M3234.054,-292.8368C3281.4705,-283.9985 3332.2055,-270.5475 3346.5,-252 3386.5988,-199.9707 3295.3938,-122.8119 3164.5,-72 3099.9845,-46.9556 2631.4804,-26.6472 2465.5556,-20.17"/>
<polygon fill="#c0c0c0" stroke="#c0c0c0" stroke-width="2" points="2465.6662,-16.6717 2455.538,-19.7814 2465.3948,-23.6664 2465.6662,-16.6717"/>
</g>
<!-- 34 -->
<g id="node35" class="node">
<title>34</title>
<path fill="none" stroke="#80d856" stroke-width="2" d="M3069.5,-252C3069.5,-252 2871.5,-252 2871.5,-252 2865.5,-252 2859.5,-246 2859.5,-240 2859.5,-240 2859.5,-228 2859.5,-228 2859.5,-222 2865.5,-216 2871.5,-216 2871.5,-216 3069.5,-216 3069.5,-216 3075.5,-216 3081.5,-222 3081.5,-228 3081.5,-228 3081.5,-240 3081.5,-240 3081.5,-246 3075.5,-252 3069.5,-252"/>
<text text-anchor="middle" x="2970.5" y="-231.5" font-family="sans" font-size="10.00" fill="#000000">call_strong_escape_sites_Omicron_XBB15</text>
</g>
<!-- 32&#45;&gt;34 -->
<g id="edge86" class="edge">
<title>32&#45;&gt;34</title>
<path fill="none" stroke="#c0c0c0" stroke-width="2" d="M3098.3495,-287.8314C3075.3776,-278.159 3046.9491,-266.1891 3022.7368,-255.9944"/>
<polygon fill="#c0c0c0" stroke="#c0c0c0" stroke-width="2" points="3023.9148,-252.6929 3013.3402,-252.038 3021.1984,-259.1443 3023.9148,-252.6929"/>
</g>
<!-- 32&#45;&gt;36 -->
<g id="edge92" class="edge">
<title>32&#45;&gt;36</title>
<path fill="none" stroke="#c0c0c0" stroke-width="2" d="M3134.851,-287.7486C3126.882,-267.9796 3111.874,-236.5246 3090.5,-216 3077.0891,-203.122 3060.0002,-192.5907 3043.5232,-184.3598"/>
<polygon fill="#c0c0c0" stroke="#c0c0c0" stroke-width="2" points="3044.9908,-181.1821 3034.4595,-180.0235 3041.9697,-187.4966 3044.9908,-181.1821"/>
</g>
<!-- 38 -->
<g id="node39" class="node">
<title>38</title>
<path fill="none" stroke="#c6d856" stroke-width="2" d="M3325,-252C3325,-252 3188,-252 3188,-252 3182,-252 3176,-246 3176,-240 3176,-240 3176,-228 3176,-228 3176,-222 3182,-216 3188,-216 3188,-216 3325,-216 3325,-216 3331,-216 3337,-222 3337,-228 3337,-228 3337,-240 3337,-240 3337,-246 3331,-252 3325,-252"/>
<text text-anchor="middle" x="3256.5" y="-231.5" font-family="sans" font-size="10.00" fill="#000000">output_pdbs_Omicron_XBB15</text>
</g>
<!-- 32&#45;&gt;38 -->
<g id="edge94" class="edge">
<title>32&#45;&gt;38</title>
<path fill="none" stroke="#c0c0c0" stroke-width="2" d="M3170.5194,-287.8314C3185.2286,-278.6221 3203.2644,-267.3301 3219.0122,-257.4706"/>
<polygon fill="#c0c0c0" stroke="#c0c0c0" stroke-width="2" points="3220.8714,-260.436 3227.4899,-252.1628 3217.1567,-254.5029 3220.8714,-260.436"/>
</g>
<!-- 40 -->
<g id="node41" class="node">
<title>40</title>
<path fill="none" stroke="#d87d56" stroke-width="2" d="M3107.5,-108C3107.5,-108 2947.5,-108 2947.5,-108 2941.5,-108 2935.5,-102 2935.5,-96 2935.5,-96 2935.5,-84 2935.5,-84 2935.5,-78 2941.5,-72 2947.5,-72 2947.5,-72 3107.5,-72 3107.5,-72 3113.5,-72 3119.5,-78 3119.5,-84 3119.5,-84 3119.5,-96 3119.5,-96 3119.5,-102 3113.5,-108 3107.5,-108"/>
<text text-anchor="middle" x="3027.5" y="-87.5" font-family="sans" font-size="10.00" fill="#000000">make_supp_data_Omicron_XBB15</text>
</g>
<!-- 32&#45;&gt;40 -->
<g id="edge98" class="edge">
<title>32&#45;&gt;40</title>
<path fill="none" stroke="#c0c0c0" stroke-width="2" d="M3138.2793,-287.9563C3131.9488,-256.3392 3115.5323,-189.9265 3082.5,-144 3075.0528,-133.6457 3065.527,-123.5162 3056.5027,-114.8793"/>
<polygon fill="#c0c0c0" stroke="#c0c0c0" stroke-width="2" points="3058.8067,-112.2424 3049.0969,-108.0032 3054.0438,-117.3723 3058.8067,-112.2424"/>
</g>
<!-- 33&#45;&gt;0 -->
<g id="edge26" class="edge">
<title>33&#45;&gt;0</title>
<path fill="none" stroke="#c0c0c0" stroke-width="2" d="M2539.4406,-215.9506C2593.5982,-204.5921 2652.5416,-190.2044 2660.5,-180 2670.3397,-167.3833 2662.7627,-159.8392 2660.5,-144 2655.786,-111.0017 2663.7106,-94.9119 2639.5,-72 2614.7973,-48.6224 2526.0623,-32.9931 2465.7766,-24.8062"/>
<polygon fill="#c0c0c0" stroke="#c0c0c0" stroke-width="2" points="2465.9905,-21.304 2455.6174,-23.46 2465.0709,-28.2434 2465.9905,-21.304"/>
</g>
<!-- 33&#45;&gt;35 -->
<g id="edge89" class="edge">
<title>33&#45;&gt;35</title>
<path fill="none" stroke="#c0c0c0" stroke-width="2" d="M2476.0334,-215.8314C2491.5101,-206.6221 2510.4869,-195.3301 2527.0563,-185.4706"/>
<polygon fill="#c0c0c0" stroke="#c0c0c0" stroke-width="2" points="2529.1724,-188.2843 2535.9764,-180.1628 2525.5929,-182.2687 2529.1724,-188.2843"/>
</g>
<!-- 34&#45;&gt;0 -->
<g id="edge24" class="edge">
<title>34&#45;&gt;0</title>
<path fill="none" stroke="#c0c0c0" stroke-width="2" d="M2932.8825,-215.7703C2917.4548,-206.7688 2900.4513,-194.6684 2888.5,-180 2855.8662,-139.9467 2886.4007,-103.5652 2845.5,-72 2815.9804,-49.2182 2578.0748,-29.8583 2465.7836,-21.89"/>
<polygon fill="#c0c0c0" stroke="#c0c0c0" stroke-width="2" points="2465.8651,-18.3871 2455.6443,-21.1772 2465.3742,-25.3699 2465.8651,-18.3871"/>
</g>
<!-- 34&#45;&gt;36 -->
<g id="edge91" class="edge">
<title>34&#45;&gt;36</title>
<path fill="none" stroke="#c0c0c0" stroke-width="2" d="M2974.2851,-215.8314C2975.8894,-208.131 2977.797,-198.9743 2979.5799,-190.4166"/>
<polygon fill="#c0c0c0" stroke="#c0c0c0" stroke-width="2" points="2983.0507,-190.9169 2981.6639,-180.4133 2976.1979,-189.4892 2983.0507,-190.9169"/>
</g>
<!-- 35&#45;&gt;0 -->
<g id="edge2" class="edge">
<title>35&#45;&gt;0</title>
<path fill="none" stroke="#c0c0c0" stroke-width="2" d="M2591.4394,-143.6689C2613.8741,-124.937 2640.7209,-95.3633 2622.5,-72 2603.3542,-47.4509 2522.5379,-32.3634 2465.6465,-24.5833"/>
<polygon fill="#c0c0c0" stroke="#c0c0c0" stroke-width="2" points="2466.0498,-21.1062 2455.6763,-23.2604 2465.129,-28.0454 2466.0498,-21.1062"/>
</g>
<!-- 35&#45;&gt;39 -->
<g id="edge96" class="edge">
<title>35&#45;&gt;39</title>
<path fill="none" stroke="#c0c0c0" stroke-width="2" d="M2555.9016,-143.8314C2551.2123,-135.7925 2545.5972,-126.1666 2540.4202,-117.2918"/>
<polygon fill="#c0c0c0" stroke="#c0c0c0" stroke-width="2" points="2543.3031,-115.2875 2535.2411,-108.4133 2537.2566,-118.8146 2543.3031,-115.2875"/>
</g>
<!-- 36&#45;&gt;0 -->
<g id="edge7" class="edge">
<title>36&#45;&gt;0</title>
<path fill="none" stroke="#c0c0c0" stroke-width="2" d="M2965.6229,-143.9104C2937.3504,-118.2612 2888.3832,-74.1688 2883.5,-72 2810.0501,-39.3779 2576.2097,-25.2347 2466.0126,-20.262"/>
<polygon fill="#c0c0c0" stroke="#c0c0c0" stroke-width="2" points="2465.8884,-16.7532 2455.7438,-19.8091 2465.5799,-23.7464 2465.8884,-16.7532"/>
</g>
<!-- 36&#45;&gt;40 -->
<g id="edge97" class="edge">
<title>36&#45;&gt;40</title>
<path fill="none" stroke="#c0c0c0" stroke-width="2" d="M2996.0984,-143.8314C3000.7877,-135.7925 3006.4028,-126.1666 3011.5798,-117.2918"/>
<polygon fill="#c0c0c0" stroke="#c0c0c0" stroke-width="2" points="3014.7434,-118.8146 3016.7589,-108.4133 3008.6969,-115.2875 3014.7434,-118.8146"/>
</g>
<!-- 37&#45;&gt;0 -->
<g id="edge10" class="edge">
<title>37&#45;&gt;0</title>
<path fill="none" stroke="#c0c0c0" stroke-width="2" d="M2661.2508,-215.8241C2667.0858,-205.7142 2673.5139,-192.6495 2676.5,-180 2687.6204,-132.8932 2696.4393,-106.5086 2662.5,-72 2635.618,-44.6671 2532.616,-29.8602 2466.031,-22.9717"/>
<polygon fill="#c0c0c0" stroke="#c0c0c0" stroke-width="2" points="2465.9737,-19.4485 2455.6744,-21.9335 2465.2753,-26.4136 2465.9737,-19.4485"/>
</g>
<!-- 38&#45;&gt;0 -->
<g id="edge16" class="edge">
<title>38&#45;&gt;0</title>
<path fill="none" stroke="#c0c0c0" stroke-width="2" d="M3248.4187,-215.8381C3231.7521,-180.8387 3189.9076,-104.6305 3128.5,-72 3070.6067,-41.2369 2627.0423,-24.7212 2465.8284,-19.6864"/>
<polygon fill="#c0c0c0" stroke="#c0c0c0" stroke-width="2" points="2465.7282,-16.1817 2455.6249,-19.3713 2465.5121,-23.1784 2465.7282,-16.1817"/>
</g>
<!-- 39&#45;&gt;0 -->
<g id="edge35" class="edge">
<title>39&#45;&gt;0</title>
<path fill="none" stroke="#c0c0c0" stroke-width="2" d="M2494.976,-71.8314C2480.0109,-62.6221 2461.6614,-51.3301 2445.6397,-41.4706"/>
<polygon fill="#c0c0c0" stroke="#c0c0c0" stroke-width="2" points="2447.3655,-38.423 2437.0146,-36.1628 2443.6968,-44.3847 2447.3655,-38.423"/>
</g>
<!-- 40&#45;&gt;0 -->
<g id="edge6" class="edge">
<title>40&#45;&gt;0</title>
<path fill="none" stroke="#c0c0c0" stroke-width="2" d="M2935.3418,-73.9891C2930.6651,-73.2899 2926.0307,-72.622 2921.5,-72 2756.8251,-49.3912 2561.3253,-31.2265 2465.8435,-22.9131"/>
<polygon fill="#c0c0c0" stroke="#c0c0c0" stroke-width="2" points="2466.0757,-19.4202 2455.8109,-22.0439 2465.4714,-26.3941 2466.0757,-19.4202"/>
</g>
<!-- 41&#45;&gt;0 -->
<g id="edge41" class="edge">
<title>41&#45;&gt;0</title>
<path fill="none" stroke="#c0c0c0" stroke-width="2" d="M2091.2314,-143.9125C2123.1995,-134.2676 2162.2959,-121.598 2196.5,-108 2230.8588,-94.3405 2237.6305,-86.8314 2271.5,-72 2297.0771,-60.7999 2325.7606,-49.2632 2350.1687,-39.7434"/>
<polygon fill="#c0c0c0" stroke="#c0c0c0" stroke-width="2" points="2351.5898,-42.9463 2359.6454,-36.0645 2349.0565,-36.4207 2351.5898,-42.9463"/>
</g>
<!-- 42 -->
<g id="node43" class="node">
<title>42</title>
<path fill="none" stroke="#56b1d8" stroke-width="2" d="M3623,-396C3623,-396 3432,-396 3432,-396 3426,-396 3420,-390 3420,-384 3420,-384 3420,-372 3420,-372 3420,-366 3426,-360 3432,-360 3432,-360 3623,-360 3623,-360 3629,-360 3635,-366 3635,-372 3635,-372 3635,-384 3635,-384 3635,-390 3629,-396 3623,-396"/>
<text text-anchor="middle" x="3527.5" y="-375.5" font-family="sans" font-size="10.00" fill="#000000">aggregate_variant_counts_Omicron_EG5</text>
</g>
<!-- 42&#45;&gt;0 -->
<g id="edge44" class="edge">
<title>42&#45;&gt;0</title>
<path fill="none" stroke="#c0c0c0" stroke-width="2" d="M3471.7083,-359.8735C3453.9225,-351.5449 3435.7115,-339.8887 3423.5,-324 3398.5303,-291.5112 3403.5,-274.9758 3403.5,-234 3403.5,-234 3403.5,-234 3403.5,-162 3403.5,-69.7641 3305.6923,-95.4986 3216.5,-72 3074.4812,-34.5837 2626.48,-22.2864 2465.6739,-19.0181"/>
<polygon fill="#c0c0c0" stroke="#c0c0c0" stroke-width="2" points="2465.5712,-15.5155 2455.5035,-18.8157 2465.4319,-22.5141 2465.5712,-15.5155"/>
</g>
<!-- 44 -->
<g id="node45" class="node">
<title>44</title>
<path fill="none" stroke="#56d873" stroke-width="2" d="M3611,-324C3611,-324 3444,-324 3444,-324 3438,-324 3432,-318 3432,-312 3432,-312 3432,-300 3432,-300 3432,-294 3438,-288 3444,-288 3444,-288 3611,-288 3611,-288 3617,-288 3623,-294 3623,-300 3623,-300 3623,-312 3623,-312 3623,-318 3617,-324 3611,-324"/>
<text text-anchor="middle" x="3527.5" y="-303.5" font-family="sans" font-size="10.00" fill="#000000">counts_to_cells_ratio_Omicron_EG5</text>
</g>
<!-- 42&#45;&gt;44 -->
<g id="edge101" class="edge">
<title>42&#45;&gt;44</title>
<path fill="none" stroke="#c0c0c0" stroke-width="2" d="M3527.5,-359.8314C3527.5,-352.131 3527.5,-342.9743 3527.5,-334.4166"/>
<polygon fill="#c0c0c0" stroke="#c0c0c0" stroke-width="2" points="3531.0001,-334.4132 3527.5,-324.4133 3524.0001,-334.4133 3531.0001,-334.4132"/>
</g>
<!-- 45 -->
<g id="node46" class="node">
<title>45</title>
<path fill="none" stroke="#5682d8" stroke-width="2" d="M3810.5,-324C3810.5,-324 3662.5,-324 3662.5,-324 3656.5,-324 3650.5,-318 3650.5,-312 3650.5,-312 3650.5,-300 3650.5,-300 3650.5,-294 3656.5,-288 3662.5,-288 3662.5,-288 3810.5,-288 3810.5,-288 3816.5,-288 3822.5,-294 3822.5,-300 3822.5,-300 3822.5,-312 3822.5,-312 3822.5,-318 3816.5,-324 3810.5,-324"/>
<text text-anchor="middle" x="3736.5" y="-303.5" font-family="sans" font-size="10.00" fill="#000000">counts_to_scores_Omicron_EG5</text>
</g>
<!-- 42&#45;&gt;45 -->
<g id="edge102" class="edge">
<title>42&#45;&gt;45</title>
<path fill="none" stroke="#c0c0c0" stroke-width="2" d="M3579.9698,-359.9243C3608.6655,-350.0387 3644.3888,-337.7321 3674.46,-327.3726"/>
<polygon fill="#c0c0c0" stroke="#c0c0c0" stroke-width="2" points="3675.694,-330.6495 3684.0087,-324.0831 3673.4139,-324.0312 3675.694,-330.6495"/>
</g>
<!-- 43 -->
<g id="node44" class="node">
<title>43</title>
<path fill="none" stroke="#d8c356" stroke-width="2" d="M3595.5,-468C3595.5,-468 3459.5,-468 3459.5,-468 3453.5,-468 3447.5,-462 3447.5,-456 3447.5,-456 3447.5,-444 3447.5,-444 3447.5,-438 3453.5,-432 3459.5,-432 3459.5,-432 3595.5,-432 3595.5,-432 3601.5,-432 3607.5,-438 3607.5,-444 3607.5,-444 3607.5,-456 3607.5,-456 3607.5,-462 3601.5,-468 3595.5,-468"/>
<text text-anchor="middle" x="3527.5" y="-447.5" font-family="sans" font-size="10.00" fill="#000000">count_variants_Omicron_EG5</text>
</g>
<!-- 43&#45;&gt;42 -->
<g id="edge100" class="edge">
<title>43&#45;&gt;42</title>
<path fill="none" stroke="#c0c0c0" stroke-width="2" d="M3527.5,-431.8314C3527.5,-424.131 3527.5,-414.9743 3527.5,-406.4166"/>
<polygon fill="#c0c0c0" stroke="#c0c0c0" stroke-width="2" points="3531.0001,-406.4132 3527.5,-396.4133 3524.0001,-406.4133 3531.0001,-406.4132"/>
</g>
<!-- 44&#45;&gt;0 -->
<g id="edge30" class="edge">
<title>44&#45;&gt;0</title>
<path fill="none" stroke="#c0c0c0" stroke-width="2" d="M3497.4144,-287.7671C3484.5718,-278.548 3470.4995,-266.278 3461.5,-252 3417.5862,-182.3293 3480.899,-124.5641 3417.5,-72 3380.6937,-41.4839 2675.3024,-23.8034 2465.7311,-19.2086"/>
<polygon fill="#c0c0c0" stroke="#c0c0c0" stroke-width="2" points="2465.6206,-15.7055 2455.5468,-18.9871 2465.4683,-22.7038 2465.6206,-15.7055"/>
</g>
<!-- 45&#45;&gt;0 -->
<g id="edge49" class="edge">
<title>45&#45;&gt;0</title>
<path fill="none" stroke="#c0c0c0" stroke-width="2" d="M3822.5561,-292.5213C3867.8955,-283.4751 3916.8857,-269.9214 3930.5,-252 4005.685,-153.0289 3988.4661,-160.7451 3762.5,-72 3701.373,-47.9932 2717.1898,-24.8071 2465.6664,-19.2529"/>
<polygon fill="#c0c0c0" stroke="#c0c0c0" stroke-width="2" points="2465.7083,-15.7531 2455.6337,-19.0322 2465.5543,-22.7514 2465.7083,-15.7531"/>
</g>
<!-- 46 -->
<g id="node47" class="node">
<title>46</title>
<path fill="none" stroke="#d8d356" stroke-width="2" d="M3667,-252C3667,-252 3482,-252 3482,-252 3476,-252 3470,-246 3470,-240 3470,-240 3470,-228 3470,-228 3470,-222 3476,-216 3482,-216 3482,-216 3667,-216 3667,-216 3673,-216 3679,-222 3679,-228 3679,-228 3679,-240 3679,-240 3679,-246 3673,-252 3667,-252"/>
<text text-anchor="middle" x="3574.5" y="-231.5" font-family="sans" font-size="10.00" fill="#000000">call_strong_escape_sites_Omicron_EG5</text>
</g>
<!-- 45&#45;&gt;46 -->
<g id="edge103" class="edge">
<title>45&#45;&gt;46</title>
<path fill="none" stroke="#c0c0c0" stroke-width="2" d="M3695.6206,-287.8314C3673.954,-278.2018 3647.1637,-266.295 3624.2922,-256.1299"/>
<polygon fill="#c0c0c0" stroke="#c0c0c0" stroke-width="2" points="3625.6451,-252.9011 3615.0855,-252.038 3622.8021,-259.2978 3625.6451,-252.9011"/>
</g>
<!-- 45&#45;&gt;47 -->
<g id="edge106" class="edge">
<title>45&#45;&gt;47</title>
<path fill="none" stroke="#c0c0c0" stroke-width="2" d="M3730.4115,-287.8369C3723.0596,-268.1452 3709.0636,-236.7575 3688.5,-216 3676.0029,-203.385 3659.9342,-192.9305 3644.3934,-184.6891"/>
<polygon fill="#c0c0c0" stroke="#c0c0c0" stroke-width="2" points="3645.8366,-181.4967 3635.3352,-180.0929 3642.6691,-187.7391 3645.8366,-181.4967"/>
</g>
<!-- 48 -->
<g id="node49" class="node">
<title>48</title>
<path fill="none" stroke="#568ad8" stroke-width="2" d="M3909.5,-252C3909.5,-252 3785.5,-252 3785.5,-252 3779.5,-252 3773.5,-246 3773.5,-240 3773.5,-240 3773.5,-228 3773.5,-228 3773.5,-222 3779.5,-216 3785.5,-216 3785.5,-216 3909.5,-216 3909.5,-216 3915.5,-216 3921.5,-222 3921.5,-228 3921.5,-228 3921.5,-240 3921.5,-240 3921.5,-246 3915.5,-252 3909.5,-252"/>
<text text-anchor="middle" x="3847.5" y="-231.5" font-family="sans" font-size="10.00" fill="#000000">output_pdbs_Omicron_EG5</text>
</g>
<!-- 45&#45;&gt;48 -->
<g id="edge107" class="edge">
<title>45&#45;&gt;48</title>
<path fill="none" stroke="#c0c0c0" stroke-width="2" d="M3764.51,-287.8314C3778.5761,-278.7074 3795.794,-267.539 3810.8933,-257.7449"/>
<polygon fill="#c0c0c0" stroke="#c0c0c0" stroke-width="2" points="3813.014,-260.5412 3819.499,-252.1628 3809.2047,-254.6684 3813.014,-260.5412"/>
</g>
<!-- 49 -->
<g id="node50" class="node">
<title>49</title>
<path fill="none" stroke="#59d856" stroke-width="2" d="M3705,-108C3705,-108 3558,-108 3558,-108 3552,-108 3546,-102 3546,-96 3546,-96 3546,-84 3546,-84 3546,-78 3552,-72 3558,-72 3558,-72 3705,-72 3705,-72 3711,-72 3717,-78 3717,-84 3717,-84 3717,-96 3717,-96 3717,-102 3711,-108 3705,-108"/>
<text text-anchor="middle" x="3631.5" y="-87.5" font-family="sans" font-size="10.00" fill="#000000">make_supp_data_Omicron_EG5</text>
</g>
<!-- 45&#45;&gt;49 -->
<g id="edge109" class="edge">
<title>45&#45;&gt;49</title>
<path fill="none" stroke="#c0c0c0" stroke-width="2" d="M3733.1646,-287.7576C3729.5391,-269.3504 3723.0938,-240.2588 3714.5,-216 3702.683,-182.6428 3700.1604,-173.4247 3680.5,-144 3673.9307,-134.1681 3665.632,-124.322 3657.7404,-115.7809"/>
<polygon fill="#c0c0c0" stroke="#c0c0c0" stroke-width="2" points="3660.0953,-113.1781 3650.6687,-108.3417 3655.0218,-118.001 3660.0953,-113.1781"/>
</g>
<!-- 46&#45;&gt;0 -->
<g id="edge14" class="edge">
<title>46&#45;&gt;0</title>
<path fill="none" stroke="#c0c0c0" stroke-width="2" d="M3540.8132,-215.9803C3526.218,-206.8043 3509.9001,-194.509 3498.5,-180 3466.5803,-139.3753 3497.4981,-102.0897 3455.5,-72 3415.0421,-43.0137 2679.8848,-24.1634 2465.636,-19.2681"/>
<polygon fill="#c0c0c0" stroke="#c0c0c0" stroke-width="2" points="2465.611,-15.7667 2455.5341,-19.0388 2465.4521,-22.7649 2465.611,-15.7667"/>
</g>
<!-- 46&#45;&gt;47 -->
<g id="edge105" class="edge">
<title>46&#45;&gt;47</title>
<path fill="none" stroke="#c0c0c0" stroke-width="2" d="M3578.2851,-215.8314C3579.8894,-208.131 3581.797,-198.9743 3583.5799,-190.4166"/>
<polygon fill="#c0c0c0" stroke="#c0c0c0" stroke-width="2" points="3587.0507,-190.9169 3585.6639,-180.4133 3580.1979,-189.4892 3587.0507,-190.9169"/>
</g>
<!-- 47&#45;&gt;0 -->
<g id="edge46" class="edge">
<title>47&#45;&gt;0</title>
<path fill="none" stroke="#c0c0c0" stroke-width="2" d="M3571.643,-143.9754C3546.5798,-118.8796 3502.9633,-76.0168 3493.5,-72 3398.8197,-31.8116 2678.2217,-20.9129 2466.0805,-18.5608"/>
<polygon fill="#c0c0c0" stroke="#c0c0c0" stroke-width="2" points="2465.8141,-15.0578 2455.7767,-18.4489 2465.738,-22.0574 2465.8141,-15.0578"/>
</g>
<!-- 47&#45;&gt;49 -->
<g id="edge108" class="edge">
<title>47&#45;&gt;49</title>
<path fill="none" stroke="#c0c0c0" stroke-width="2" d="M3600.0984,-143.8314C3604.7877,-135.7925 3610.4028,-126.1666 3615.5798,-117.2918"/>
<polygon fill="#c0c0c0" stroke="#c0c0c0" stroke-width="2" points="3618.7434,-118.8146 3620.7589,-108.4133 3612.6969,-115.2875 3618.7434,-118.8146"/>
</g>
<!-- 48&#45;&gt;0 -->
<g id="edge48" class="edge">
<title>48&#45;&gt;0</title>
<path fill="none" stroke="#c0c0c0" stroke-width="2" d="M3840.3632,-215.9561C3825.3671,-180.8104 3786.9006,-103.8374 3726.5,-72 3670.0671,-42.254 2713.8465,-23.3993 2465.8609,-18.9947"/>
<polygon fill="#c0c0c0" stroke="#c0c0c0" stroke-width="2" points="2465.6784,-15.491 2455.6182,-18.8138 2465.5548,-22.4899 2465.6784,-15.491"/>
</g>
<!-- 49&#45;&gt;0 -->
<g id="edge27" class="edge">
<title>49&#45;&gt;0</title>
<path fill="none" stroke="#c0c0c0" stroke-width="2" d="M3545.9629,-73.8482C3541.079,-73.1615 3536.2324,-72.5373 3531.5,-72 3321.844,-48.197 2665.7333,-26.1165 2465.866,-19.7989"/>
<polygon fill="#c0c0c0" stroke="#c0c0c0" stroke-width="2" points="2465.6862,-16.2916 2455.5809,-19.475 2465.4658,-23.2881 2465.6862,-16.2916"/>
</g>
<!-- 50&#45;&gt;0 -->
<g id="edge17" class="edge">
<title>50&#45;&gt;0</title>
<path fill="none" stroke="#c0c0c0" stroke-width="2" d="M2237.7492,-143.9005C2256.4216,-124.826 2287.5596,-94.4881 2317.5,-72 2332.237,-60.9311 2349.3787,-50.179 2364.7242,-41.2213"/>
<polygon fill="#c0c0c0" stroke="#c0c0c0" stroke-width="2" points="2366.5942,-44.1835 2373.52,-36.1657 2363.1059,-38.1145 2366.5942,-44.1835"/>
</g>
<!-- 51 -->
<g id="node52" class="node">
<title>51</title>
<path fill="none" stroke="#56d8a9" stroke-width="2" d="M4219,-396C4219,-396 4016,-396 4016,-396 4010,-396 4004,-390 4004,-384 4004,-384 4004,-372 4004,-372 4004,-366 4010,-360 4016,-360 4016,-360 4219,-360 4219,-360 4225,-360 4231,-366 4231,-372 4231,-372 4231,-384 4231,-384 4231,-390 4225,-396 4219,-396"/>
<text text-anchor="middle" x="4117.5" y="-375.5" font-family="sans" font-size="10.00" fill="#000000">aggregate_variant_counts_Omicron_BA286</text>
</g>
<!-- 51&#45;&gt;0 -->
<g id="edge34" class="edge">
<title>51&#45;&gt;0</title>
<path fill="none" stroke="#c0c0c0" stroke-width="2" d="M4057.1024,-359.8966C4038.753,-351.6585 4020.1274,-340.0518 4007.5,-324 3982.1653,-291.7949 3987.5,-274.9758 3987.5,-234 3987.5,-234 3987.5,-234 3987.5,-162 3987.5,-112.82 4103.5843,-142.6698 3821.5,-72 3688.7667,-38.7467 2716.0484,-22.473 2465.9805,-18.8112"/>
<polygon fill="#c0c0c0" stroke="#c0c0c0" stroke-width="2" points="2465.7067,-15.307 2455.6568,-18.6613 2465.6049,-22.3063 2465.7067,-15.307"/>
</g>
<!-- 53 -->
<g id="node54" class="node">
<title>53</title>
<path fill="none" stroke="#d86e56" stroke-width="2" d="M4207,-324C4207,-324 4028,-324 4028,-324 4022,-324 4016,-318 4016,-312 4016,-312 4016,-300 4016,-300 4016,-294 4022,-288 4028,-288 4028,-288 4207,-288 4207,-288 4213,-288 4219,-294 4219,-300 4219,-300 4219,-312 4219,-312 4219,-318 4213,-324 4207,-324"/>
<text text-anchor="middle" x="4117.5" y="-303.5" font-family="sans" font-size="10.00" fill="#000000">counts_to_cells_ratio_Omicron_BA286</text>
</g>
<!-- 51&#45;&gt;53 -->
<g id="edge112" class="edge">
<title>51&#45;&gt;53</title>
<path fill="none" stroke="#c0c0c0" stroke-width="2" d="M4117.5,-359.8314C4117.5,-352.131 4117.5,-342.9743 4117.5,-334.4166"/>
<polygon fill="#c0c0c0" stroke="#c0c0c0" stroke-width="2" points="4121.0001,-334.4132 4117.5,-324.4133 4114.0001,-334.4133 4121.0001,-334.4132"/>
</g>
<!-- 54 -->
<g id="node55" class="node">
<title>54</title>
<path fill="none" stroke="#d87556" stroke-width="2" d="M4415.5,-324C4415.5,-324 4255.5,-324 4255.5,-324 4249.5,-324 4243.5,-318 4243.5,-312 4243.5,-312 4243.5,-300 4243.5,-300 4243.5,-294 4249.5,-288 4255.5,-288 4255.5,-288 4415.5,-288 4415.5,-288 4421.5,-288 4427.5,-294 4427.5,-300 4427.5,-300 4427.5,-312 4427.5,-312 4427.5,-318 4421.5,-324 4415.5,-324"/>
<text text-anchor="middle" x="4335.5" y="-303.5" font-family="sans" font-size="10.00" fill="#000000">counts_to_scores_Omicron_BA286</text>
</g>
<!-- 51&#45;&gt;54 -->
<g id="edge113" class="edge">
<title>51&#45;&gt;54</title>
<path fill="none" stroke="#c0c0c0" stroke-width="2" d="M4172.2292,-359.9243C4202.2902,-349.9959 4239.745,-337.6255 4271.1954,-327.2382"/>
<polygon fill="#c0c0c0" stroke="#c0c0c0" stroke-width="2" points="4272.3504,-330.5428 4280.7483,-324.0831 4270.1551,-323.8959 4272.3504,-330.5428"/>
</g>
<!-- 52 -->
<g id="node53" class="node">
<title>52</title>
<path fill="none" stroke="#8fd856" stroke-width="2" d="M4191.5,-468C4191.5,-468 4043.5,-468 4043.5,-468 4037.5,-468 4031.5,-462 4031.5,-456 4031.5,-456 4031.5,-444 4031.5,-444 4031.5,-438 4037.5,-432 4043.5,-432 4043.5,-432 4191.5,-432 4191.5,-432 4197.5,-432 4203.5,-438 4203.5,-444 4203.5,-444 4203.5,-456 4203.5,-456 4203.5,-462 4197.5,-468 4191.5,-468"/>
<text text-anchor="middle" x="4117.5" y="-447.5" font-family="sans" font-size="10.00" fill="#000000">count_variants_Omicron_BA286</text>
</g>
<!-- 52&#45;&gt;51 -->
<g id="edge111" class="edge">
<title>52&#45;&gt;51</title>
<path fill="none" stroke="#c0c0c0" stroke-width="2" d="M4117.5,-431.8314C4117.5,-424.131 4117.5,-414.9743 4117.5,-406.4166"/>
<polygon fill="#c0c0c0" stroke="#c0c0c0" stroke-width="2" points="4121.0001,-406.4132 4117.5,-396.4133 4114.0001,-406.4133 4121.0001,-406.4132"/>
</g>
<!-- 53&#45;&gt;0 -->
<g id="edge4" class="edge">
<title>53&#45;&gt;0</title>
<path fill="none" stroke="#c0c0c0" stroke-width="2" d="M4083.9374,-287.8265C4070.1284,-278.7657 4055.1419,-266.6043 4045.5,-252 4000.1251,-183.272 4065.4098,-123.9418 4001.5,-72 3971.1211,-47.31 2749.8818,-24.0912 2466.0173,-19.0208"/>
<polygon fill="#c0c0c0" stroke="#c0c0c0" stroke-width="2" points="2465.9876,-15.5199 2455.9269,-18.8412 2465.863,-22.5188 2465.9876,-15.5199"/>
</g>
<!-- 54&#45;&gt;0 -->
<g id="edge5" class="edge">
<title>54&#45;&gt;0</title>
<path fill="none" stroke="#c0c0c0" stroke-width="2" d="M4427.7147,-292.6167C4474.5125,-283.7398 4524.4137,-270.3233 4538.5,-252 4618.1564,-148.3841 4616.6905,-166.6283 4359.5,-72 4268.5138,-38.5234 2781.2321,-21.7543 2465.9412,-18.5664"/>
<polygon fill="#c0c0c0" stroke="#c0c0c0" stroke-width="2" points="2465.69,-15.0638 2455.6553,-18.463 2465.6196,-22.0634 2465.69,-15.0638"/>
</g>
<!-- 55 -->
<g id="node56" class="node">
<title>55</title>
<path fill="none" stroke="#565bd8" stroke-width="2" d="M4263,-252C4263,-252 4066,-252 4066,-252 4060,-252 4054,-246 4054,-240 4054,-240 4054,-228 4054,-228 4054,-222 4060,-216 4066,-216 4066,-216 4263,-216 4263,-216 4269,-216 4275,-222 4275,-228 4275,-228 4275,-240 4275,-240 4275,-246 4269,-252 4263,-252"/>
<text text-anchor="middle" x="4164.5" y="-231.5" font-family="sans" font-size="10.00" fill="#000000">call_strong_escape_sites_Omicron_BA286</text>
</g>
<!-- 54&#45;&gt;55 -->
<g id="edge114" class="edge">
<title>54&#45;&gt;55</title>
<path fill="none" stroke="#c0c0c0" stroke-width="2" d="M4292.3495,-287.8314C4269.3776,-278.159 4240.9491,-266.1891 4216.7368,-255.9944"/>
<polygon fill="#c0c0c0" stroke="#c0c0c0" stroke-width="2" points="4217.9148,-252.6929 4207.3402,-252.038 4215.1984,-259.1443 4217.9148,-252.6929"/>
</g>
<!-- 54&#45;&gt;56 -->
<g id="edge116" class="edge">
<title>54&#45;&gt;56</title>
<path fill="none" stroke="#c0c0c0" stroke-width="2" d="M4328.851,-287.7486C4320.882,-267.9796 4305.874,-236.5246 4284.5,-216 4271.0891,-203.122 4254.0002,-192.5907 4237.5232,-184.3598"/>
<polygon fill="#c0c0c0" stroke="#c0c0c0" stroke-width="2" points="4238.9908,-181.1821 4228.4595,-180.0235 4235.9697,-187.4966 4238.9908,-181.1821"/>
</g>
<!-- 57 -->
<g id="node58" class="node">
<title>57</title>
<path fill="none" stroke="#56d8d0" stroke-width="2" d="M4517.5,-252C4517.5,-252 4381.5,-252 4381.5,-252 4375.5,-252 4369.5,-246 4369.5,-240 4369.5,-240 4369.5,-228 4369.5,-228 4369.5,-222 4375.5,-216 4381.5,-216 4381.5,-216 4517.5,-216 4517.5,-216 4523.5,-216 4529.5,-222 4529.5,-228 4529.5,-228 4529.5,-240 4529.5,-240 4529.5,-246 4523.5,-252 4517.5,-252"/>
<text text-anchor="middle" x="4449.5" y="-231.5" font-family="sans" font-size="10.00" fill="#000000">output_pdbs_Omicron_BA286</text>
</g>
<!-- 54&#45;&gt;57 -->
<g id="edge118" class="edge">
<title>54&#45;&gt;57</title>
<path fill="none" stroke="#c0c0c0" stroke-width="2" d="M4364.267,-287.8314C4378.7133,-278.7074 4396.3965,-267.539 4411.904,-257.7449"/>
<polygon fill="#c0c0c0" stroke="#c0c0c0" stroke-width="2" points="4414.1563,-260.462 4420.7422,-252.1628 4410.4183,-254.5436 4414.1563,-260.462"/>
</g>
<!-- 58 -->
<g id="node59" class="node">
<title>58</title>
<path fill="none" stroke="#56d0d8" stroke-width="2" d="M4301,-108C4301,-108 4142,-108 4142,-108 4136,-108 4130,-102 4130,-96 4130,-96 4130,-84 4130,-84 4130,-78 4136,-72 4142,-72 4142,-72 4301,-72 4301,-72 4307,-72 4313,-78 4313,-84 4313,-84 4313,-96 4313,-96 4313,-102 4307,-108 4301,-108"/>
<text text-anchor="middle" x="4221.5" y="-87.5" font-family="sans" font-size="10.00" fill="#000000">make_supp_data_Omicron_BA286</text>
</g>
<!-- 54&#45;&gt;58 -->
<g id="edge120" class="edge">
<title>54&#45;&gt;58</title>
<path fill="none" stroke="#c0c0c0" stroke-width="2" d="M4332.2793,-287.9563C4325.9488,-256.3392 4309.5323,-189.9265 4276.5,-144 4269.0528,-133.6457 4259.527,-123.5162 4250.5027,-114.8793"/>
<polygon fill="#c0c0c0" stroke="#c0c0c0" stroke-width="2" points="4252.8067,-112.2424 4243.0969,-108.0032 4248.0438,-117.3723 4252.8067,-112.2424"/>
</g>
<!-- 55&#45;&gt;0 -->
<g id="edge53" class="edge">
<title>55&#45;&gt;0</title>
<path fill="none" stroke="#c0c0c0" stroke-width="2" d="M4126.8825,-215.7703C4111.4548,-206.7688 4094.4513,-194.6684 4082.5,-180 4049.8662,-139.9467 4081.7732,-101.702 4039.5,-72 3973.9128,-25.9172 2750.0169,-19.1114 2466.0109,-18.1515"/>
<polygon fill="#c0c0c0" stroke="#c0c0c0" stroke-width="2" points="2465.9278,-14.6513 2455.9164,-18.1185 2465.9048,-21.6512 2465.9278,-14.6513"/>
</g>
<!-- 55&#45;&gt;56 -->
<g id="edge117" class="edge">
<title>55&#45;&gt;56</title>
<path fill="none" stroke="#c0c0c0" stroke-width="2" d="M4168.2851,-215.8314C4169.8894,-208.131 4171.797,-198.9743 4173.5799,-190.4166"/>
<polygon fill="#c0c0c0" stroke="#c0c0c0" stroke-width="2" points="4177.0507,-190.9169 4175.6639,-180.4133 4170.1979,-189.4892 4177.0507,-190.9169"/>
</g>
<!-- 56&#45;&gt;0 -->
<g id="edge20" class="edge">
<title>56&#45;&gt;0</title>
<path fill="none" stroke="#c0c0c0" stroke-width="2" d="M4159.6444,-143.8593C4131.3993,-118.1448 4082.4667,-73.9702 4077.5,-72 4001.1743,-41.7222 2753.1467,-22.7568 2466.0597,-18.782"/>
<polygon fill="#c0c0c0" stroke="#c0c0c0" stroke-width="2" points="2465.9079,-15.2797 2455.8606,-18.6416 2465.8114,-22.2791 2465.9079,-15.2797"/>
</g>
<!-- 56&#45;&gt;58 -->
<g id="edge119" class="edge">
<title>56&#45;&gt;58</title>
<path fill="none" stroke="#c0c0c0" stroke-width="2" d="M4190.0984,-143.8314C4194.7877,-135.7925 4200.4028,-126.1666 4205.5798,-117.2918"/>
<polygon fill="#c0c0c0" stroke="#c0c0c0" stroke-width="2" points="4208.7434,-118.8146 4210.7589,-108.4133 4202.6969,-115.2875 4208.7434,-118.8146"/>
</g>
<!-- 57&#45;&gt;0 -->
<g id="edge40" class="edge">
<title>57&#45;&gt;0</title>
<path fill="none" stroke="#c0c0c0" stroke-width="2" d="M4441.7788,-215.8625C4425.63,-180.5508 4384.5646,-103.2971 4322.5,-72 4237.6654,-29.2208 2778.2289,-19.7863 2465.9897,-18.2542"/>
<polygon fill="#c0c0c0" stroke="#c0c0c0" stroke-width="2" points="2465.8149,-14.7534 2455.7981,-18.205 2465.7811,-21.7533 2465.8149,-14.7534"/>
</g>
<!-- 58&#45;&gt;0 -->
<g id="edge42" class="edge">
<title>58&#45;&gt;0</title>
<path fill="none" stroke="#c0c0c0" stroke-width="2" d="M4129.9645,-73.6549C4125.0805,-73.0335 4120.2362,-72.4748 4115.5,-72 3785.0511,-38.8759 2726.2551,-22.388 2465.7971,-18.7724"/>
<polygon fill="#c0c0c0" stroke="#c0c0c0" stroke-width="2" points="2465.8366,-15.2727 2455.7893,-18.6344 2465.74,-22.2721 2465.8366,-15.2727"/>
</g>
<!-- 59&#45;&gt;0 -->
<g id="edge19" class="edge">
<title>59&#45;&gt;0</title>
<path fill="none" stroke="#c0c0c0" stroke-width="2" d="M1051.9293,-215.7699C1062.2502,-205.4254 1075.2649,-192.1541 1086.5,-180 1129.6953,-133.2715 1123.1806,-99.6381 1180.5,-72 1233.6385,-46.3778 2112.0894,-24.6952 2349.0202,-19.2929"/>
<polygon fill="#c0c0c0" stroke="#c0c0c0" stroke-width="2" points="2349.2389,-22.7889 2359.1568,-19.0628 2349.0799,-15.7907 2349.2389,-22.7889"/>
</g>
</g>
</svg>
