<?xml version="1.0" encoding="UTF-8" standalone="no"?>
<!DOCTYPE svg PUBLIC "-//W3C//DTD SVG 1.1//EN"
 "http://www.w3.org/Graphics/SVG/1.1/DTD/svg11.dtd">
<!-- Generated by graphviz version 2.40.1 (0)
 -->
<!-- Title: snakemake_dag Pages: 1 -->
<svg width="5372pt" height="476pt"
 viewBox="0.00 0.00 5371.89 476.00" xmlns="http://www.w3.org/2000/svg" xmlns:xlink="http://www.w3.org/1999/xlink">
<g id="graph0" class="graph" transform="scale(1 1) rotate(0) translate(4 472)">
<title>snakemake_dag</title>
<polygon fill="#ffffff" stroke="transparent" points="-4,4 -4,-472 5367.887,-472 5367.887,4 -4,4"/>
<!-- 0 -->
<g id="node1" class="node">
<title>0</title>
<path fill="none" stroke="#56d89a" stroke-width="2" d="M2899,-36C2899,-36 2827,-36 2827,-36 2821,-36 2815,-30 2815,-24 2815,-24 2815,-12 2815,-12 2815,-6 2821,0 2827,0 2827,0 2899,0 2899,0 2905,0 2911,-6 2911,-12 2911,-12 2911,-24 2911,-24 2911,-30 2905,-36 2899,-36"/>
<text text-anchor="middle" x="2863" y="-15.5" font-family="sans" font-size="10.00" fill="#000000">make_summary</text>
</g>
<!-- 1 -->
<g id="node2" class="node">
<title>1</title>
<path fill="none" stroke="#d6d856" stroke-width="2" d="M84,-180C84,-180 12,-180 12,-180 6,-180 0,-174 0,-168 0,-168 0,-156 0,-156 0,-150 6,-144 12,-144 12,-144 84,-144 84,-144 90,-144 96,-150 96,-156 96,-156 96,-168 96,-168 96,-174 90,-180 84,-180"/>
<text text-anchor="middle" x="48" y="-159.5" font-family="sans" font-size="10.00" fill="#000000">make_rulegraph</text>
</g>
<!-- 1&#45;&gt;0 -->
<g id="edge19" class="edge">
<title>1&#45;&gt;0</title>
<path fill="none" stroke="#c0c0c0" stroke-width="2" d="M35.3461,-143.865C22.8887,-123.5984 8.2345,-91.1262 27,-72 52.225,-46.2901 2401.8391,-22.4544 2804.5816,-18.5559"/>
<polygon fill="#c0c0c0" stroke="#c0c0c0" stroke-width="2" points="2804.8671,-22.0534 2814.8328,-18.4569 2804.7994,-15.0537 2804.8671,-22.0534"/>
</g>
<!-- 2 -->
<g id="node3" class="node">
<title>2</title>
<path fill="none" stroke="#565bd8" stroke-width="2" d="M125.5,-108C125.5,-108 48.5,-108 48.5,-108 42.5,-108 36.5,-102 36.5,-96 36.5,-96 36.5,-84 36.5,-84 36.5,-78 42.5,-72 48.5,-72 48.5,-72 125.5,-72 125.5,-72 131.5,-72 137.5,-78 137.5,-84 137.5,-84 137.5,-96 137.5,-96 137.5,-102 131.5,-108 125.5,-108"/>
<text text-anchor="middle" x="87" y="-87.5" font-family="sans" font-size="10.00" fill="#000000">save_pinned_env</text>
</g>
<!-- 1&#45;&gt;2 -->
<g id="edge63" class="edge">
<title>1&#45;&gt;2</title>
<path fill="none" stroke="#c0c0c0" stroke-width="2" d="M57.8413,-143.8314C62.1957,-135.7925 67.4098,-126.1666 72.2169,-117.2918"/>
<polygon fill="#c0c0c0" stroke="#c0c0c0" stroke-width="2" points="75.3408,-118.8732 77.0261,-108.4133 69.1857,-115.5392 75.3408,-118.8732"/>
</g>
<!-- 2&#45;&gt;0 -->
<g id="edge62" class="edge">
<title>2&#45;&gt;0</title>
<path fill="none" stroke="#c0c0c0" stroke-width="2" d="M137.8369,-74.6268C142.5922,-73.5818 147.3654,-72.6769 152,-72 422.5534,-32.4829 2434.8693,-20.2166 2804.6913,-18.2861"/>
<polygon fill="#c0c0c0" stroke="#c0c0c0" stroke-width="2" points="2804.9166,-21.7851 2814.8983,-18.2333 2804.8803,-14.7852 2804.9166,-21.7851"/>
</g>
<!-- 3 -->
<g id="node4" class="node">
<title>3</title>
<path fill="none" stroke="#c6d856" stroke-width="2" d="M2757,-252C2757,-252 2671,-252 2671,-252 2665,-252 2659,-246 2659,-240 2659,-240 2659,-228 2659,-228 2659,-222 2665,-216 2671,-216 2671,-216 2757,-216 2757,-216 2763,-216 2769,-222 2769,-228 2769,-228 2769,-240 2769,-240 2769,-246 2763,-252 2757,-252"/>
<text text-anchor="middle" x="2714" y="-231.5" font-family="sans" font-size="10.00" fill="#000000">get_mut_bind_expr</text>
</g>
<!-- 3&#45;&gt;0 -->
<g id="edge20" class="edge">
<title>3&#45;&gt;0</title>
<path fill="none" stroke="#c0c0c0" stroke-width="2" d="M2769.2645,-227.7819C2850.8672,-218.0387 2995.6581,-198.3829 3011,-180 3071.7921,-107.1581 2935.3181,-138.4494 2902,-108 2884.1237,-91.6629 2874.0733,-65.7033 2868.6705,-45.8535"/>
<polygon fill="#c0c0c0" stroke="#c0c0c0" stroke-width="2" points="2872.0588,-44.9755 2866.252,-36.1137 2865.2651,-46.6624 2872.0588,-44.9755"/>
</g>
<!-- 5 -->
<g id="node6" class="node">
<title>5</title>
<path fill="none" stroke="#d8a456" stroke-width="2" d="M3065.5,-108C3065.5,-108 2922.5,-108 2922.5,-108 2916.5,-108 2910.5,-102 2910.5,-96 2910.5,-96 2910.5,-84 2910.5,-84 2910.5,-78 2916.5,-72 2922.5,-72 2922.5,-72 3065.5,-72 3065.5,-72 3071.5,-72 3077.5,-78 3077.5,-84 3077.5,-84 3077.5,-96 3077.5,-96 3077.5,-102 3071.5,-108 3065.5,-108"/>
<text text-anchor="middle" x="2994" y="-87.5" font-family="sans" font-size="10.00" fill="#000000">bind_expr_filters_Wuhan_Hu_1</text>
</g>
<!-- 3&#45;&gt;5 -->
<g id="edge64" class="edge">
<title>3&#45;&gt;5</title>
<path fill="none" stroke="#c0c0c0" stroke-width="2" d="M2769.1675,-228.8535C2858.444,-219.9627 3026.4268,-200.6825 3044,-180 3060.728,-160.3122 3042.6289,-134.1669 3023.6966,-115.1315"/>
<polygon fill="#c0c0c0" stroke="#c0c0c0" stroke-width="2" points="3026.1141,-112.6005 3016.4707,-108.2124 3021.2728,-117.6564 3026.1141,-112.6005"/>
</g>
<!-- 6 -->
<g id="node7" class="node">
<title>6</title>
<path fill="none" stroke="#9fd856" stroke-width="2" d="M2196.5,-108C2196.5,-108 2051.5,-108 2051.5,-108 2045.5,-108 2039.5,-102 2039.5,-96 2039.5,-96 2039.5,-84 2039.5,-84 2039.5,-78 2045.5,-72 2051.5,-72 2051.5,-72 2196.5,-72 2196.5,-72 2202.5,-72 2208.5,-78 2208.5,-84 2208.5,-84 2208.5,-96 2208.5,-96 2208.5,-102 2202.5,-108 2196.5,-108"/>
<text text-anchor="middle" x="2124" y="-87.5" font-family="sans" font-size="10.00" fill="#000000">bind_expr_filters_Omicron_BA2</text>
</g>
<!-- 3&#45;&gt;6 -->
<g id="edge65" class="edge">
<title>3&#45;&gt;6</title>
<path fill="none" stroke="#c0c0c0" stroke-width="2" d="M2658.8883,-231.5768C2502.3165,-224.4282 2064.7724,-202.514 2044,-180 2033.1503,-168.2406 2036.4908,-158.1284 2044,-144 2050.5815,-131.617 2061.4093,-121.5593 2073.0037,-113.63"/>
<polygon fill="#c0c0c0" stroke="#c0c0c0" stroke-width="2" points="2074.956,-116.5365 2081.532,-108.2295 2071.211,-110.6225 2074.956,-116.5365"/>
</g>
<!-- 17 -->
<g id="node18" class="node">
<title>17</title>
<path fill="none" stroke="#568ad8" stroke-width="2" d="M773.5,-180C773.5,-180 636.5,-180 636.5,-180 630.5,-180 624.5,-174 624.5,-168 624.5,-168 624.5,-156 624.5,-156 624.5,-150 630.5,-144 636.5,-144 636.5,-144 773.5,-144 773.5,-144 779.5,-144 785.5,-150 785.5,-156 785.5,-156 785.5,-168 785.5,-168 785.5,-174 779.5,-180 773.5,-180"/>
<text text-anchor="middle" x="705" y="-159.5" font-family="sans" font-size="10.00" fill="#000000">escape_profiles_Wuhan_Hu_1</text>
</g>
<!-- 3&#45;&gt;17 -->
<g id="edge75" class="edge">
<title>3&#45;&gt;17</title>
<path fill="none" stroke="#c0c0c0" stroke-width="2" d="M2658.9603,-232.0274C2382.2439,-222.1103 1142.6322,-177.6842 795.5665,-165.2458"/>
<polygon fill="#c0c0c0" stroke="#c0c0c0" stroke-width="2" points="795.6795,-161.7477 785.5605,-164.8872 795.4287,-168.7432 795.6795,-161.7477"/>
</g>
<!-- 18 -->
<g id="node19" class="node">
<title>18</title>
<path fill="none" stroke="#d8b456" stroke-width="2" d="M1568,-180C1568,-180 1428,-180 1428,-180 1422,-180 1416,-174 1416,-168 1416,-168 1416,-156 1416,-156 1416,-150 1422,-144 1428,-144 1428,-144 1568,-144 1568,-144 1574,-144 1580,-150 1580,-156 1580,-156 1580,-168 1580,-168 1580,-174 1574,-180 1568,-180"/>
<text text-anchor="middle" x="1498" y="-159.5" font-family="sans" font-size="10.00" fill="#000000">escape_profiles_Omicron_BA2</text>
</g>
<!-- 3&#45;&gt;18 -->
<g id="edge77" class="edge">
<title>3&#45;&gt;18</title>
<path fill="none" stroke="#c0c0c0" stroke-width="2" d="M2658.8894,-231.7201C2506.6509,-225.2786 2067.4771,-205.7277 1703,-180 1666.1844,-177.4013 1625.7001,-173.9688 1590.5027,-170.7987"/>
<polygon fill="#c0c0c0" stroke="#c0c0c0" stroke-width="2" points="1590.5178,-167.2858 1580.2426,-169.8687 1589.8857,-174.2572 1590.5178,-167.2858"/>
</g>
<!-- 23 -->
<g id="node24" class="node">
<title>23</title>
<path fill="none" stroke="#56d882" stroke-width="2" d="M2790,-180C2790,-180 2638,-180 2638,-180 2632,-180 2626,-174 2626,-168 2626,-168 2626,-156 2626,-156 2626,-150 2632,-144 2638,-144 2638,-144 2790,-144 2790,-144 2796,-144 2802,-150 2802,-156 2802,-156 2802,-168 2802,-168 2802,-174 2796,-180 2790,-180"/>
<text text-anchor="middle" x="2714" y="-159.5" font-family="sans" font-size="10.00" fill="#000000">bind_expr_filters_Omicron_BQ11</text>
</g>
<!-- 3&#45;&gt;23 -->
<g id="edge86" class="edge">
<title>3&#45;&gt;23</title>
<path fill="none" stroke="#c0c0c0" stroke-width="2" d="M2714,-215.8314C2714,-208.131 2714,-198.9743 2714,-190.4166"/>
<polygon fill="#c0c0c0" stroke="#c0c0c0" stroke-width="2" points="2717.5001,-190.4132 2714,-180.4133 2710.5001,-190.4133 2717.5001,-190.4132"/>
</g>
<!-- 24 -->
<g id="node25" class="node">
<title>24</title>
<path fill="none" stroke="#d85e56" stroke-width="2" d="M2990,-180C2990,-180 2832,-180 2832,-180 2826,-180 2820,-174 2820,-168 2820,-168 2820,-156 2820,-156 2820,-150 2826,-144 2832,-144 2832,-144 2990,-144 2990,-144 2996,-144 3002,-150 3002,-156 3002,-156 3002,-168 3002,-168 3002,-174 2996,-180 2990,-180"/>
<text text-anchor="middle" x="2911" y="-159.5" font-family="sans" font-size="10.00" fill="#000000">bind_expr_filters_Omicron_XBB15</text>
</g>
<!-- 3&#45;&gt;24 -->
<g id="edge87" class="edge">
<title>3&#45;&gt;24</title>
<path fill="none" stroke="#c0c0c0" stroke-width="2" d="M2763.4571,-215.9243C2790.2711,-206.1243 2823.5949,-193.945 2851.7847,-183.6422"/>
<polygon fill="#c0c0c0" stroke="#c0c0c0" stroke-width="2" points="2853.3316,-186.8033 2861.5225,-180.0831 2850.9287,-180.2286 2853.3316,-186.8033"/>
</g>
<!-- 35 -->
<g id="node36" class="node">
<title>35</title>
<path fill="none" stroke="#d8d356" stroke-width="2" d="M1870,-180C1870,-180 1724,-180 1724,-180 1718,-180 1712,-174 1712,-168 1712,-168 1712,-156 1712,-156 1712,-150 1718,-144 1724,-144 1724,-144 1870,-144 1870,-144 1876,-144 1882,-150 1882,-156 1882,-156 1882,-168 1882,-168 1882,-174 1876,-180 1870,-180"/>
<text text-anchor="middle" x="1797" y="-159.5" font-family="sans" font-size="10.00" fill="#000000">escape_profiles_Omicron_BQ11</text>
</g>
<!-- 3&#45;&gt;35 -->
<g id="edge96" class="edge">
<title>3&#45;&gt;35</title>
<path fill="none" stroke="#c0c0c0" stroke-width="2" d="M2658.7694,-229.9099C2540.0302,-221.0846 2251.6208,-199.4757 2010,-180 1971.5388,-176.8998 1929.1835,-173.3487 1892.4418,-170.2243"/>
<polygon fill="#c0c0c0" stroke="#c0c0c0" stroke-width="2" points="1892.4965,-166.7164 1882.2355,-169.3551 1891.9025,-173.6911 1892.4965,-166.7164"/>
</g>
<!-- 36 -->
<g id="node37" class="node">
<title>36</title>
<path fill="none" stroke="#56d873" stroke-width="2" d="M3374,-180C3374,-180 3222,-180 3222,-180 3216,-180 3210,-174 3210,-168 3210,-168 3210,-156 3210,-156 3210,-150 3216,-144 3222,-144 3222,-144 3374,-144 3374,-144 3380,-144 3386,-150 3386,-156 3386,-156 3386,-168 3386,-168 3386,-174 3380,-180 3374,-180"/>
<text text-anchor="middle" x="3298" y="-159.5" font-family="sans" font-size="10.00" fill="#000000">escape_profiles_Omicron_XBB15</text>
</g>
<!-- 3&#45;&gt;36 -->
<g id="edge100" class="edge">
<title>3&#45;&gt;36</title>
<path fill="none" stroke="#c0c0c0" stroke-width="2" d="M2769.2043,-227.194C2867.9352,-215.0217 3075.9697,-189.3736 3199.6367,-174.127"/>
<polygon fill="#c0c0c0" stroke="#c0c0c0" stroke-width="2" points="3200.3656,-177.5637 3209.8622,-172.8663 3199.509,-170.6163 3200.3656,-177.5637"/>
</g>
<!-- 41 -->
<g id="node42" class="node">
<title>41</title>
<path fill="none" stroke="#56d8d0" stroke-width="2" d="M2209.5,-180C2209.5,-180 2064.5,-180 2064.5,-180 2058.5,-180 2052.5,-174 2052.5,-168 2052.5,-168 2052.5,-156 2052.5,-156 2052.5,-150 2058.5,-144 2064.5,-144 2064.5,-144 2209.5,-144 2209.5,-144 2215.5,-144 2221.5,-150 2221.5,-156 2221.5,-156 2221.5,-168 2221.5,-168 2221.5,-174 2215.5,-180 2209.5,-180"/>
<text text-anchor="middle" x="2137" y="-159.5" font-family="sans" font-size="10.00" fill="#000000">bind_expr_filters_Omicron_EG5</text>
</g>
<!-- 3&#45;&gt;41 -->
<g id="edge108" class="edge">
<title>3&#45;&gt;41</title>
<path fill="none" stroke="#c0c0c0" stroke-width="2" d="M2658.7661,-229.2355C2570.6913,-221.3282 2392.825,-204.0941 2231.8391,-180.0618"/>
<polygon fill="#c0c0c0" stroke="#c0c0c0" stroke-width="2" points="2232.1601,-176.5707 2221.7505,-178.5434 2231.1182,-183.4928 2232.1601,-176.5707"/>
</g>
<!-- 42 -->
<g id="node43" class="node">
<title>42</title>
<path fill="none" stroke="#d89c56" stroke-width="2" d="M2396.5,-180C2396.5,-180 2251.5,-180 2251.5,-180 2245.5,-180 2239.5,-174 2239.5,-168 2239.5,-168 2239.5,-156 2239.5,-156 2239.5,-150 2245.5,-144 2251.5,-144 2251.5,-144 2396.5,-144 2396.5,-144 2402.5,-144 2408.5,-150 2408.5,-156 2408.5,-156 2408.5,-168 2408.5,-168 2408.5,-174 2402.5,-180 2396.5,-180"/>
<text text-anchor="middle" x="2324" y="-159.5" font-family="sans" font-size="10.00" fill="#000000">bind_expr_filters_Omicron_FLip</text>
</g>
<!-- 3&#45;&gt;42 -->
<g id="edge109" class="edge">
<title>3&#45;&gt;42</title>
<path fill="none" stroke="#c0c0c0" stroke-width="2" d="M2658.8739,-224.092C2601.4986,-213.7462 2508.7583,-196.9297 2418.4092,-180.0685"/>
<polygon fill="#c0c0c0" stroke="#c0c0c0" stroke-width="2" points="2419.0171,-176.6216 2408.5443,-178.2255 2417.7315,-183.5025 2419.0171,-176.6216"/>
</g>
<!-- 53 -->
<g id="node54" class="node">
<title>53</title>
<path fill="none" stroke="#d86e56" stroke-width="2" d="M3754,-180C3754,-180 3614,-180 3614,-180 3608,-180 3602,-174 3602,-168 3602,-168 3602,-156 3602,-156 3602,-150 3608,-144 3614,-144 3614,-144 3754,-144 3754,-144 3760,-144 3766,-150 3766,-156 3766,-156 3766,-168 3766,-168 3766,-174 3760,-180 3754,-180"/>
<text text-anchor="middle" x="3684" y="-159.5" font-family="sans" font-size="10.00" fill="#000000">escape_profiles_Omicron_EG5</text>
</g>
<!-- 3&#45;&gt;53 -->
<g id="edge118" class="edge">
<title>3&#45;&gt;53</title>
<path fill="none" stroke="#c0c0c0" stroke-width="2" d="M2769.2825,-229.8966C2929.0805,-218.0353 3392.813,-183.6139 3591.6763,-168.8529"/>
<polygon fill="#c0c0c0" stroke="#c0c0c0" stroke-width="2" points="3592.0925,-172.3317 3601.806,-168.101 3591.5743,-165.3509 3592.0925,-172.3317"/>
</g>
<!-- 54 -->
<g id="node55" class="node">
<title>54</title>
<path fill="none" stroke="#b6d856" stroke-width="2" d="M4414,-180C4414,-180 4274,-180 4274,-180 4268,-180 4262,-174 4262,-168 4262,-168 4262,-156 4262,-156 4262,-150 4268,-144 4274,-144 4274,-144 4414,-144 4414,-144 4420,-144 4426,-150 4426,-156 4426,-156 4426,-168 4426,-168 4426,-174 4420,-180 4414,-180"/>
<text text-anchor="middle" x="4344" y="-159.5" font-family="sans" font-size="10.00" fill="#000000">escape_profiles_Omicron_FLip</text>
</g>
<!-- 3&#45;&gt;54 -->
<g id="edge121" class="edge">
<title>3&#45;&gt;54</title>
<path fill="none" stroke="#c0c0c0" stroke-width="2" d="M2769.262,-230.944C2837.3849,-227.2167 2956.7022,-220.818 3059,-216 3505.847,-194.9547 4040.2964,-173.7768 4251.5615,-165.5631"/>
<polygon fill="#c0c0c0" stroke="#c0c0c0" stroke-width="2" points="4251.8229,-169.0557 4261.6795,-165.17 4251.5511,-162.0609 4251.8229,-169.0557"/>
</g>
<!-- 59 -->
<g id="node60" class="node">
<title>59</title>
<path fill="none" stroke="#566bd8" stroke-width="2" d="M2595.5,-180C2595.5,-180 2438.5,-180 2438.5,-180 2432.5,-180 2426.5,-174 2426.5,-168 2426.5,-168 2426.5,-156 2426.5,-156 2426.5,-150 2432.5,-144 2438.5,-144 2438.5,-144 2595.5,-144 2595.5,-144 2601.5,-144 2607.5,-150 2607.5,-156 2607.5,-156 2607.5,-168 2607.5,-168 2607.5,-174 2601.5,-180 2595.5,-180"/>
<text text-anchor="middle" x="2517" y="-159.5" font-family="sans" font-size="10.00" fill="#000000">bind_expr_filters_Omicron_BA286</text>
</g>
<!-- 3&#45;&gt;59 -->
<g id="edge130" class="edge">
<title>3&#45;&gt;59</title>
<path fill="none" stroke="#c0c0c0" stroke-width="2" d="M2664.5429,-215.9243C2637.7289,-206.1243 2604.4051,-193.945 2576.2153,-183.6422"/>
<polygon fill="#c0c0c0" stroke="#c0c0c0" stroke-width="2" points="2577.0713,-180.2286 2566.4775,-180.0831 2574.6684,-186.8033 2577.0713,-180.2286"/>
</g>
<!-- 65 -->
<g id="node66" class="node">
<title>65</title>
<path fill="none" stroke="#56c1d8" stroke-width="2" d="M5014,-180C5014,-180 4862,-180 4862,-180 4856,-180 4850,-174 4850,-168 4850,-168 4850,-156 4850,-156 4850,-150 4856,-144 4862,-144 4862,-144 5014,-144 5014,-144 5020,-144 5026,-150 5026,-156 5026,-156 5026,-168 5026,-168 5026,-174 5020,-180 5014,-180"/>
<text text-anchor="middle" x="4938" y="-159.5" font-family="sans" font-size="10.00" fill="#000000">escape_profiles_Omicron_BA286</text>
</g>
<!-- 3&#45;&gt;65 -->
<g id="edge135" class="edge">
<title>3&#45;&gt;65</title>
<path fill="none" stroke="#c0c0c0" stroke-width="2" d="M2769.2504,-230.6744C2837.3616,-226.6769 2956.6672,-220.0075 3059,-216 3670.2962,-192.0606 3823.5284,-198.9393 4435,-180 4575.5933,-175.6454 4738.2558,-169.6502 4839.6452,-165.7993"/>
<polygon fill="#c0c0c0" stroke="#c0c0c0" stroke-width="2" points="4840.0115,-169.288 4849.8712,-165.4103 4839.7453,-162.2931 4840.0115,-169.288"/>
</g>
<!-- 4 -->
<g id="node5" class="node">
<title>4</title>
<path fill="none" stroke="#d8cb56" stroke-width="2" d="M346,-108C346,-108 206,-108 206,-108 200,-108 194,-102 194,-96 194,-96 194,-84 194,-84 194,-78 200,-72 206,-72 206,-72 346,-72 346,-72 352,-72 358,-78 358,-84 358,-84 358,-96 358,-96 358,-102 352,-108 346,-108"/>
<text text-anchor="middle" x="276" y="-87.5" font-family="sans" font-size="10.00" fill="#000000">get_early2020_mut_bind_expr</text>
</g>
<!-- 4&#45;&gt;0 -->
<g id="edge14" class="edge">
<title>4&#45;&gt;0</title>
<path fill="none" stroke="#c0c0c0" stroke-width="2" d="M358.2412,-73.0681C361.1917,-72.6724 364.1182,-72.3138 367,-72 616.1464,-44.872 2452.4513,-22.6851 2804.6729,-18.6541"/>
<polygon fill="#c0c0c0" stroke="#c0c0c0" stroke-width="2" points="2804.9391,-22.1514 2814.8985,-18.5374 2804.8592,-15.1519 2804.9391,-22.1514"/>
</g>
<!-- 5&#45;&gt;0 -->
<g id="edge11" class="edge">
<title>5&#45;&gt;0</title>
<path fill="none" stroke="#c0c0c0" stroke-width="2" d="M2960.9432,-71.8314C2944.0323,-62.5368 2923.2615,-51.1208 2905.2059,-41.1971"/>
<polygon fill="#c0c0c0" stroke="#c0c0c0" stroke-width="2" points="2906.4957,-37.9122 2896.0463,-36.1628 2903.124,-44.0468 2906.4957,-37.9122"/>
</g>
<!-- 6&#45;&gt;0 -->
<g id="edge25" class="edge">
<title>6&#45;&gt;0</title>
<path fill="none" stroke="#c0c0c0" stroke-width="2" d="M2208.7727,-81.7407C2360.4841,-66.9596 2674.6841,-36.3474 2804.708,-23.6793"/>
<polygon fill="#c0c0c0" stroke="#c0c0c0" stroke-width="2" points="2805.246,-27.1436 2814.8595,-22.6903 2804.5672,-20.1766 2805.246,-27.1436"/>
</g>
<!-- 7 -->
<g id="node8" class="node">
<title>7</title>
<path fill="none" stroke="#56d88a" stroke-width="2" d="M726,-396C726,-396 538,-396 538,-396 532,-396 526,-390 526,-384 526,-384 526,-372 526,-372 526,-366 532,-360 538,-360 538,-360 726,-360 726,-360 732,-360 738,-366 738,-372 738,-372 738,-384 738,-384 738,-390 732,-396 726,-396"/>
<text text-anchor="middle" x="632" y="-375.5" font-family="sans" font-size="10.00" fill="#000000">aggregate_variant_counts_Wuhan_Hu_1</text>
</g>
<!-- 7&#45;&gt;0 -->
<g id="edge39" class="edge">
<title>7&#45;&gt;0</title>
<path fill="none" stroke="#c0c0c0" stroke-width="2" d="M525.966,-366.6962C388.4533,-349.0331 166,-308.8866 166,-234 166,-234 166,-234 166,-162 166,-121.1184 153.508,-98.0684 185,-72 237.2352,-28.7608 2418.5938,-19.4833 2804.8507,-18.1784"/>
<polygon fill="#c0c0c0" stroke="#c0c0c0" stroke-width="2" points="2804.9748,-21.6781 2814.9631,-18.1447 2804.9514,-14.6781 2804.9748,-21.6781"/>
</g>
<!-- 11 -->
<g id="node12" class="node">
<title>11</title>
<path fill="none" stroke="#56d892" stroke-width="2" d="M1018,-108C1018,-108 854,-108 854,-108 848,-108 842,-102 842,-96 842,-96 842,-84 842,-84 842,-78 848,-72 854,-72 854,-72 1018,-72 1018,-72 1024,-72 1030,-78 1030,-84 1030,-84 1030,-96 1030,-96 1030,-102 1024,-108 1018,-108"/>
<text text-anchor="middle" x="936" y="-87.5" font-family="sans" font-size="10.00" fill="#000000">counts_to_cells_ratio_Wuhan_Hu_1</text>
</g>
<!-- 7&#45;&gt;11 -->
<g id="edge68" class="edge">
<title>7&#45;&gt;11</title>
<path fill="none" stroke="#c0c0c0" stroke-width="2" d="M665.0734,-359.9936C683.2928,-349.8278 706.1689,-336.6566 726,-324 772.7752,-294.1472 789.2893,-291.7567 828,-252 868.7379,-210.1613 903.6765,-151.0158 922.0909,-116.9755"/>
<polygon fill="#c0c0c0" stroke="#c0c0c0" stroke-width="2" points="925.2199,-118.546 926.8375,-108.0753 919.0434,-115.2518 925.2199,-118.546"/>
</g>
<!-- 13 -->
<g id="node14" class="node">
<title>13</title>
<path fill="none" stroke="#59d856" stroke-width="2" d="M705,-324C705,-324 559,-324 559,-324 553,-324 547,-318 547,-312 547,-312 547,-300 547,-300 547,-294 553,-288 559,-288 559,-288 705,-288 705,-288 711,-288 717,-294 717,-300 717,-300 717,-312 717,-312 717,-318 711,-324 705,-324"/>
<text text-anchor="middle" x="632" y="-303.5" font-family="sans" font-size="10.00" fill="#000000">counts_to_scores_Wuhan_Hu_1</text>
</g>
<!-- 7&#45;&gt;13 -->
<g id="edge70" class="edge">
<title>7&#45;&gt;13</title>
<path fill="none" stroke="#c0c0c0" stroke-width="2" d="M632,-359.8314C632,-352.131 632,-342.9743 632,-334.4166"/>
<polygon fill="#c0c0c0" stroke="#c0c0c0" stroke-width="2" points="635.5001,-334.4132 632,-324.4133 628.5001,-334.4133 635.5001,-334.4132"/>
</g>
<!-- 8 -->
<g id="node9" class="node">
<title>8</title>
<path fill="none" stroke="#a7d856" stroke-width="2" d="M699,-468C699,-468 565,-468 565,-468 559,-468 553,-462 553,-456 553,-456 553,-444 553,-444 553,-438 559,-432 565,-432 565,-432 699,-432 699,-432 705,-432 711,-438 711,-444 711,-444 711,-456 711,-456 711,-462 705,-468 699,-468"/>
<text text-anchor="middle" x="632" y="-447.5" font-family="sans" font-size="10.00" fill="#000000">count_variants_Wuhan_Hu_1</text>
</g>
<!-- 8&#45;&gt;7 -->
<g id="edge66" class="edge">
<title>8&#45;&gt;7</title>
<path fill="none" stroke="#c0c0c0" stroke-width="2" d="M632,-431.8314C632,-424.131 632,-414.9743 632,-406.4166"/>
<polygon fill="#c0c0c0" stroke="#c0c0c0" stroke-width="2" points="635.5001,-406.4132 632,-396.4133 628.5001,-406.4133 635.5001,-406.4132"/>
</g>
<!-- 9 -->
<g id="node10" class="node">
<title>9</title>
<path fill="none" stroke="#80d856" stroke-width="2" d="M1197.5,-396C1197.5,-396 1006.5,-396 1006.5,-396 1000.5,-396 994.5,-390 994.5,-384 994.5,-384 994.5,-372 994.5,-372 994.5,-366 1000.5,-360 1006.5,-360 1006.5,-360 1197.5,-360 1197.5,-360 1203.5,-360 1209.5,-366 1209.5,-372 1209.5,-372 1209.5,-384 1209.5,-384 1209.5,-390 1203.5,-396 1197.5,-396"/>
<text text-anchor="middle" x="1102" y="-375.5" font-family="sans" font-size="10.00" fill="#000000">aggregate_variant_counts_Omicron_BA2</text>
</g>
<!-- 9&#45;&gt;0 -->
<g id="edge26" class="edge">
<title>9&#45;&gt;0</title>
<path fill="none" stroke="#c0c0c0" stroke-width="2" d="M1040.5808,-359.9938C1023.5025,-351.8495 1006.9301,-340.2732 997,-324 966.3604,-273.7883 1028.4365,-103.6775 1078,-72 1152.3067,-24.5083 2504.8381,-18.7796 2804.5232,-18.0929"/>
<polygon fill="#c0c0c0" stroke="#c0c0c0" stroke-width="2" points="2804.7436,-21.5925 2814.7359,-18.0705 2804.7282,-14.5925 2804.7436,-21.5925"/>
</g>
<!-- 12 -->
<g id="node13" class="node">
<title>12</title>
<path fill="none" stroke="#d8c356" stroke-width="2" d="M1185.5,-324C1185.5,-324 1018.5,-324 1018.5,-324 1012.5,-324 1006.5,-318 1006.5,-312 1006.5,-312 1006.5,-300 1006.5,-300 1006.5,-294 1012.5,-288 1018.5,-288 1018.5,-288 1185.5,-288 1185.5,-288 1191.5,-288 1197.5,-294 1197.5,-300 1197.5,-300 1197.5,-312 1197.5,-312 1197.5,-318 1191.5,-324 1185.5,-324"/>
<text text-anchor="middle" x="1102" y="-303.5" font-family="sans" font-size="10.00" fill="#000000">counts_to_cells_ratio_Omicron_BA2</text>
</g>
<!-- 9&#45;&gt;12 -->
<g id="edge69" class="edge">
<title>9&#45;&gt;12</title>
<path fill="none" stroke="#c0c0c0" stroke-width="2" d="M1102,-359.8314C1102,-352.131 1102,-342.9743 1102,-334.4166"/>
<polygon fill="#c0c0c0" stroke="#c0c0c0" stroke-width="2" points="1105.5001,-334.4132 1102,-324.4133 1098.5001,-334.4133 1105.5001,-334.4132"/>
</g>
<!-- 14 -->
<g id="node15" class="node">
<title>14</title>
<path fill="none" stroke="#56d8a9" stroke-width="2" d="M1376,-324C1376,-324 1228,-324 1228,-324 1222,-324 1216,-318 1216,-312 1216,-312 1216,-300 1216,-300 1216,-294 1222,-288 1228,-288 1228,-288 1376,-288 1376,-288 1382,-288 1388,-294 1388,-300 1388,-300 1388,-312 1388,-312 1388,-318 1382,-324 1376,-324"/>
<text text-anchor="middle" x="1302" y="-303.5" font-family="sans" font-size="10.00" fill="#000000">counts_to_scores_Omicron_BA2</text>
</g>
<!-- 9&#45;&gt;14 -->
<g id="edge71" class="edge">
<title>9&#45;&gt;14</title>
<path fill="none" stroke="#c0c0c0" stroke-width="2" d="M1152.2103,-359.9243C1179.5515,-350.0815 1213.5594,-337.8386 1242.2575,-327.5073"/>
<polygon fill="#c0c0c0" stroke="#c0c0c0" stroke-width="2" points="1243.5457,-330.7635 1251.7691,-324.0831 1241.1746,-324.1773 1243.5457,-330.7635"/>
</g>
<!-- 10 -->
<g id="node11" class="node">
<title>10</title>
<path fill="none" stroke="#97d856" stroke-width="2" d="M1170,-468C1170,-468 1034,-468 1034,-468 1028,-468 1022,-462 1022,-456 1022,-456 1022,-444 1022,-444 1022,-438 1028,-432 1034,-432 1034,-432 1170,-432 1170,-432 1176,-432 1182,-438 1182,-444 1182,-444 1182,-456 1182,-456 1182,-462 1176,-468 1170,-468"/>
<text text-anchor="middle" x="1102" y="-447.5" font-family="sans" font-size="10.00" fill="#000000">count_variants_Omicron_BA2</text>
</g>
<!-- 10&#45;&gt;9 -->
<g id="edge67" class="edge">
<title>10&#45;&gt;9</title>
<path fill="none" stroke="#c0c0c0" stroke-width="2" d="M1102,-431.8314C1102,-424.131 1102,-414.9743 1102,-406.4166"/>
<polygon fill="#c0c0c0" stroke="#c0c0c0" stroke-width="2" points="1105.5001,-406.4132 1102,-396.4133 1098.5001,-406.4133 1105.5001,-406.4132"/>
</g>
<!-- 11&#45;&gt;0 -->
<g id="edge40" class="edge">
<title>11&#45;&gt;0</title>
<path fill="none" stroke="#c0c0c0" stroke-width="2" d="M1030.1433,-73.5382C1034.8212,-72.9624 1039.4596,-72.4437 1044,-72 1397.5417,-37.451 2533.5011,-21.932 2804.5354,-18.6686"/>
<polygon fill="#c0c0c0" stroke="#c0c0c0" stroke-width="2" points="2804.9738,-22.1637 2814.9312,-18.5444 2804.89,-15.1642 2804.9738,-22.1637"/>
</g>
<!-- 12&#45;&gt;0 -->
<g id="edge15" class="edge">
<title>12&#45;&gt;0</title>
<path fill="none" stroke="#c0c0c0" stroke-width="2" d="M1068.4003,-287.8076C1055.4596,-278.8793 1042.092,-266.8246 1035,-252 1028.0952,-237.5666 1030.4751,-231.3468 1035,-216 1056.5463,-142.9233 1061.6664,-109.474 1128,-72 1202.5114,-29.9061 2511.1329,-19.9963 2804.8212,-18.2986"/>
<polygon fill="#c0c0c0" stroke="#c0c0c0" stroke-width="2" points="2804.8568,-21.7985 2814.8367,-18.2416 2804.8169,-14.7986 2804.8568,-21.7985"/>
</g>
<!-- 13&#45;&gt;0 -->
<g id="edge30" class="edge">
<title>13&#45;&gt;0</title>
<path fill="none" stroke="#c0c0c0" stroke-width="2" d="M700.8847,-287.9464C722.1502,-279.7276 744.3339,-268.1198 761,-252 781.2301,-232.433 831.6673,-72.9624 833,-72 874.0431,-42.3615 2476.5237,-22.4275 2804.6619,-18.6518"/>
<polygon fill="#c0c0c0" stroke="#c0c0c0" stroke-width="2" points="2804.9379,-22.1489 2814.8971,-18.5345 2804.8576,-15.1494 2804.9379,-22.1489"/>
</g>
<!-- 15 -->
<g id="node16" class="node">
<title>15</title>
<path fill="none" stroke="#5692d8" stroke-width="2" d="M723.5,-252C723.5,-252 540.5,-252 540.5,-252 534.5,-252 528.5,-246 528.5,-240 528.5,-240 528.5,-228 528.5,-228 528.5,-222 534.5,-216 540.5,-216 540.5,-216 723.5,-216 723.5,-216 729.5,-216 735.5,-222 735.5,-228 735.5,-228 735.5,-240 735.5,-240 735.5,-246 729.5,-252 723.5,-252"/>
<text text-anchor="middle" x="632" y="-231.5" font-family="sans" font-size="10.00" fill="#000000">call_strong_escape_sites_Wuhan_Hu_1</text>
</g>
<!-- 13&#45;&gt;15 -->
<g id="edge72" class="edge">
<title>13&#45;&gt;15</title>
<path fill="none" stroke="#c0c0c0" stroke-width="2" d="M632,-287.8314C632,-280.131 632,-270.9743 632,-262.4166"/>
<polygon fill="#c0c0c0" stroke="#c0c0c0" stroke-width="2" points="635.5001,-262.4132 632,-252.4133 628.5001,-262.4133 635.5001,-262.4132"/>
</g>
<!-- 13&#45;&gt;17 -->
<g id="edge74" class="edge">
<title>13&#45;&gt;17</title>
<path fill="none" stroke="#c0c0c0" stroke-width="2" d="M699.4644,-287.9482C716.945,-279.8823 733.725,-268.361 744,-252 756.7804,-231.6496 743.62,-206.3873 729.2344,-187.8121"/>
<polygon fill="#c0c0c0" stroke="#c0c0c0" stroke-width="2" points="731.9016,-185.545 722.8476,-180.0426 726.4941,-189.9902 731.9016,-185.545"/>
</g>
<!-- 19 -->
<g id="node20" class="node">
<title>19</title>
<path fill="none" stroke="#56b9d8" stroke-width="2" d="M510,-108C510,-108 388,-108 388,-108 382,-108 376,-102 376,-96 376,-96 376,-84 376,-84 376,-78 382,-72 388,-72 388,-72 510,-72 510,-72 516,-72 522,-78 522,-84 522,-84 522,-96 522,-96 522,-102 516,-108 510,-108"/>
<text text-anchor="middle" x="449" y="-87.5" font-family="sans" font-size="10.00" fill="#000000">output_pdbs_Wuhan_Hu_1</text>
</g>
<!-- 13&#45;&gt;19 -->
<g id="edge80" class="edge">
<title>13&#45;&gt;19</title>
<path fill="none" stroke="#c0c0c0" stroke-width="2" d="M566.1822,-287.8966C546.0283,-279.6746 525.1927,-268.0776 510,-252 474.3654,-214.2899 459.0512,-153.7663 452.8563,-118.349"/>
<polygon fill="#c0c0c0" stroke="#c0c0c0" stroke-width="2" points="456.269,-117.5278 451.2141,-108.2166 449.3591,-118.6477 456.269,-117.5278"/>
</g>
<!-- 21 -->
<g id="node22" class="node">
<title>21</title>
<path fill="none" stroke="#56a9d8" stroke-width="2" d="M735.5,-108C735.5,-108 590.5,-108 590.5,-108 584.5,-108 578.5,-102 578.5,-96 578.5,-96 578.5,-84 578.5,-84 578.5,-78 584.5,-72 590.5,-72 590.5,-72 735.5,-72 735.5,-72 741.5,-72 747.5,-78 747.5,-84 747.5,-84 747.5,-96 747.5,-96 747.5,-102 741.5,-108 735.5,-108"/>
<text text-anchor="middle" x="663" y="-87.5" font-family="sans" font-size="10.00" fill="#000000">make_supp_data_Wuhan_Hu_1</text>
</g>
<!-- 13&#45;&gt;21 -->
<g id="edge82" class="edge">
<title>13&#45;&gt;21</title>
<path fill="none" stroke="#c0c0c0" stroke-width="2" d="M563.6521,-287.9405C546.1223,-279.8841 529.3201,-268.3697 519,-252 510.4671,-238.4652 512.3885,-230.5701 519,-216 539.6021,-170.5977 585.5434,-135.123 620.0307,-113.5411"/>
<polygon fill="#c0c0c0" stroke="#c0c0c0" stroke-width="2" points="622.257,-116.2832 628.9755,-108.091 618.6147,-110.3054 622.257,-116.2832"/>
</g>
<!-- 14&#45;&gt;0 -->
<g id="edge42" class="edge">
<title>14&#45;&gt;0</title>
<path fill="none" stroke="#c0c0c0" stroke-width="2" d="M1287.2628,-287.9657C1253.6298,-244.5839 1178.5565,-133.4517 1238,-72 1265.7916,-43.2696 2517.2981,-23.0956 2804.6307,-18.8375"/>
<polygon fill="#c0c0c0" stroke="#c0c0c0" stroke-width="2" points="2804.89,-22.3342 2814.8373,-18.687 2804.7867,-15.335 2804.89,-22.3342"/>
</g>
<!-- 16 -->
<g id="node17" class="node">
<title>16</title>
<path fill="none" stroke="#d86656" stroke-width="2" d="M1483.5,-252C1483.5,-252 1298.5,-252 1298.5,-252 1292.5,-252 1286.5,-246 1286.5,-240 1286.5,-240 1286.5,-228 1286.5,-228 1286.5,-222 1292.5,-216 1298.5,-216 1298.5,-216 1483.5,-216 1483.5,-216 1489.5,-216 1495.5,-222 1495.5,-228 1495.5,-228 1495.5,-240 1495.5,-240 1495.5,-246 1489.5,-252 1483.5,-252"/>
<text text-anchor="middle" x="1391" y="-231.5" font-family="sans" font-size="10.00" fill="#000000">call_strong_escape_sites_Omicron_BA2</text>
</g>
<!-- 14&#45;&gt;16 -->
<g id="edge73" class="edge">
<title>14&#45;&gt;16</title>
<path fill="none" stroke="#c0c0c0" stroke-width="2" d="M1324.4585,-287.8314C1335.4205,-278.9632 1348.7699,-268.1637 1360.6265,-258.5718"/>
<polygon fill="#c0c0c0" stroke="#c0c0c0" stroke-width="2" points="1362.9755,-261.1734 1368.5487,-252.1628 1358.5729,-255.7313 1362.9755,-261.1734"/>
</g>
<!-- 14&#45;&gt;18 -->
<g id="edge78" class="edge">
<title>14&#45;&gt;18</title>
<path fill="none" stroke="#c0c0c0" stroke-width="2" d="M1388.1434,-293.7466C1436.6144,-284.8949 1490.3025,-271.1183 1505,-252 1518.4211,-234.542 1515.0009,-209.1358 1509.1834,-189.7655"/>
<polygon fill="#c0c0c0" stroke="#c0c0c0" stroke-width="2" points="1512.4944,-188.6306 1505.9991,-180.2603 1505.857,-190.8542 1512.4944,-188.6306"/>
</g>
<!-- 20 -->
<g id="node21" class="node">
<title>20</title>
<path fill="none" stroke="#5673d8" stroke-width="2" d="M1180,-252C1180,-252 1056,-252 1056,-252 1050,-252 1044,-246 1044,-240 1044,-240 1044,-228 1044,-228 1044,-222 1050,-216 1056,-216 1056,-216 1180,-216 1180,-216 1186,-216 1192,-222 1192,-228 1192,-228 1192,-240 1192,-240 1192,-246 1186,-252 1180,-252"/>
<text text-anchor="middle" x="1118" y="-231.5" font-family="sans" font-size="10.00" fill="#000000">output_pdbs_Omicron_BA2</text>
</g>
<!-- 14&#45;&gt;20 -->
<g id="edge81" class="edge">
<title>14&#45;&gt;20</title>
<path fill="none" stroke="#c0c0c0" stroke-width="2" d="M1255.569,-287.8314C1230.632,-278.0734 1199.7191,-265.977 1173.5174,-255.7242"/>
<polygon fill="#c0c0c0" stroke="#c0c0c0" stroke-width="2" points="1174.6849,-252.4227 1164.0971,-252.038 1172.1341,-258.9414 1174.6849,-252.4227"/>
</g>
<!-- 22 -->
<g id="node23" class="node">
<title>22</title>
<path fill="none" stroke="#d8ac56" stroke-width="2" d="M1605.5,-108C1605.5,-108 1458.5,-108 1458.5,-108 1452.5,-108 1446.5,-102 1446.5,-96 1446.5,-96 1446.5,-84 1446.5,-84 1446.5,-78 1452.5,-72 1458.5,-72 1458.5,-72 1605.5,-72 1605.5,-72 1611.5,-72 1617.5,-78 1617.5,-84 1617.5,-84 1617.5,-96 1617.5,-96 1617.5,-102 1611.5,-108 1605.5,-108"/>
<text text-anchor="middle" x="1532" y="-87.5" font-family="sans" font-size="10.00" fill="#000000">make_supp_data_Omicron_BA2</text>
</g>
<!-- 14&#45;&gt;22 -->
<g id="edge85" class="edge">
<title>14&#45;&gt;22</title>
<path fill="none" stroke="#c0c0c0" stroke-width="2" d="M1388.0411,-296.9519C1430.8864,-289.5632 1482.1234,-276.1842 1523,-252 1571.4146,-223.3561 1611.2274,-195.6758 1589,-144 1584.2509,-132.9589 1576.0115,-123.1176 1567.2494,-114.9593"/>
<polygon fill="#c0c0c0" stroke="#c0c0c0" stroke-width="2" points="1569.339,-112.1388 1559.4894,-108.2354 1564.755,-117.4291 1569.339,-112.1388"/>
</g>
<!-- 69 -->
<g id="node70" class="node">
<title>69</title>
<path fill="none" stroke="#70d856" stroke-width="2" d="M1340,-108C1340,-108 1282,-108 1282,-108 1276,-108 1270,-102 1270,-96 1270,-96 1270,-84 1270,-84 1270,-78 1276,-72 1282,-72 1282,-72 1340,-72 1340,-72 1346,-72 1352,-78 1352,-84 1352,-84 1352,-96 1352,-96 1352,-102 1346,-108 1340,-108"/>
<text text-anchor="middle" x="1311" y="-87.5" font-family="sans" font-size="10.00" fill="#000000">custom_plots</text>
</g>
<!-- 14&#45;&gt;69 -->
<g id="edge142" class="edge">
<title>14&#45;&gt;69</title>
<path fill="none" stroke="#c0c0c0" stroke-width="2" d="M1291.5561,-287.5967C1275.6644,-257.0935 1249.0584,-194.4226 1267,-144 1270.5878,-133.9169 1276.9535,-124.3517 1283.7476,-116.1515"/>
<polygon fill="#c0c0c0" stroke="#c0c0c0" stroke-width="2" points="1286.5747,-118.2389 1290.5974,-108.4375 1281.3404,-113.591 1286.5747,-118.2389"/>
</g>
<!-- 15&#45;&gt;0 -->
<g id="edge55" class="edge">
<title>15&#45;&gt;0</title>
<path fill="none" stroke="#c0c0c0" stroke-width="2" d="M614.0888,-215.9466C583.6178,-183.1168 528.7263,-113.2329 569,-72 609.2693,-30.7716 2452.1129,-19.9519 2804.9459,-18.2568"/>
<polygon fill="#c0c0c0" stroke="#c0c0c0" stroke-width="2" points="2804.9636,-21.7569 2814.9469,-18.2093 2804.9303,-14.757 2804.9636,-21.7569"/>
</g>
<!-- 15&#45;&gt;17 -->
<g id="edge76" class="edge">
<title>15&#45;&gt;17</title>
<path fill="none" stroke="#c0c0c0" stroke-width="2" d="M650.421,-215.8314C659.1529,-207.219 669.7317,-196.7851 679.2423,-187.4048"/>
<polygon fill="#c0c0c0" stroke="#c0c0c0" stroke-width="2" points="681.923,-189.6769 686.5849,-180.1628 677.0075,-184.6931 681.923,-189.6769"/>
</g>
<!-- 16&#45;&gt;0 -->
<g id="edge3" class="edge">
<title>16&#45;&gt;0</title>
<path fill="none" stroke="#c0c0c0" stroke-width="2" d="M1315.1365,-215.9051C1296.6119,-207.8965 1278.7594,-196.4159 1267,-180 1239.0043,-140.9186 1227.584,-106.5613 1261,-72 1288.362,-43.7001 2519.5016,-23.2321 2804.527,-18.8676"/>
<polygon fill="#c0c0c0" stroke="#c0c0c0" stroke-width="2" points="2804.7109,-22.3653 2814.6564,-18.7132 2804.6041,-15.3661 2804.7109,-22.3653"/>
</g>
<!-- 16&#45;&gt;18 -->
<g id="edge79" class="edge">
<title>16&#45;&gt;18</title>
<path fill="none" stroke="#c0c0c0" stroke-width="2" d="M1418.0006,-215.8314C1431.4331,-206.7927 1447.8473,-195.7476 1462.3039,-186.0198"/>
<polygon fill="#c0c0c0" stroke="#c0c0c0" stroke-width="2" points="1464.6654,-188.6494 1471.008,-180.1628 1460.7575,-182.8418 1464.6654,-188.6494"/>
</g>
<!-- 17&#45;&gt;0 -->
<g id="edge56" class="edge">
<title>17&#45;&gt;0</title>
<path fill="none" stroke="#c0c0c0" stroke-width="2" d="M722.6492,-143.9467C747.4242,-118.8152 790.5529,-75.9084 800,-72 894.9784,-32.706 2477.7712,-20.4654 2804.345,-18.3528"/>
<polygon fill="#c0c0c0" stroke="#c0c0c0" stroke-width="2" points="2804.5584,-21.8516 2814.5357,-18.2875 2804.5135,-14.8517 2804.5584,-21.8516"/>
</g>
<!-- 17&#45;&gt;21 -->
<g id="edge83" class="edge">
<title>17&#45;&gt;21</title>
<path fill="none" stroke="#c0c0c0" stroke-width="2" d="M694.4016,-143.8314C689.7123,-135.7925 684.0972,-126.1666 678.9202,-117.2918"/>
<polygon fill="#c0c0c0" stroke="#c0c0c0" stroke-width="2" points="681.8031,-115.2875 673.7411,-108.4133 675.7566,-118.8146 681.8031,-115.2875"/>
</g>
<!-- 18&#45;&gt;0 -->
<g id="edge13" class="edge">
<title>18&#45;&gt;0</title>
<path fill="none" stroke="#c0c0c0" stroke-width="2" d="M1471.2489,-143.7721C1446.225,-124.5903 1415.6597,-94.1637 1437,-72 1461.111,-46.9587 2539.6013,-24.3088 2804.6398,-19.1141"/>
<polygon fill="#c0c0c0" stroke="#c0c0c0" stroke-width="2" points="2804.8926,-22.6099 2814.8223,-18.9153 2804.7559,-15.6113 2804.8926,-22.6099"/>
</g>
<!-- 18&#45;&gt;22 -->
<g id="edge84" class="edge">
<title>18&#45;&gt;22</title>
<path fill="none" stroke="#c0c0c0" stroke-width="2" d="M1506.5796,-143.8314C1510.3358,-135.8771 1514.8257,-126.369 1518.9798,-117.5723"/>
<polygon fill="#c0c0c0" stroke="#c0c0c0" stroke-width="2" points="1522.1996,-118.9503 1523.3048,-108.4133 1515.8699,-115.9612 1522.1996,-118.9503"/>
</g>
<!-- 19&#45;&gt;0 -->
<g id="edge51" class="edge">
<title>19&#45;&gt;0</title>
<path fill="none" stroke="#c0c0c0" stroke-width="2" d="M522.4207,-73.8367C527.0022,-73.1303 531.5559,-72.5071 536,-72 767.2875,-45.6098 2467.4952,-22.9776 2804.8929,-18.719"/>
<polygon fill="#c0c0c0" stroke="#c0c0c0" stroke-width="2" points="2804.9822,-22.2182 2814.9374,-18.5926 2804.8941,-15.2188 2804.9822,-22.2182"/>
</g>
<!-- 20&#45;&gt;0 -->
<g id="edge59" class="edge">
<title>20&#45;&gt;0</title>
<path fill="none" stroke="#c0c0c0" stroke-width="2" d="M1116.1775,-215.7847C1113.8704,-181.3845 1114.5316,-107.1651 1158,-72 1190.7101,-45.5382 2509.5248,-23.4951 2804.7685,-18.8859"/>
<polygon fill="#c0c0c0" stroke="#c0c0c0" stroke-width="2" points="2804.8913,-22.3845 2814.8356,-18.7293 2804.7824,-15.3854 2804.8913,-22.3845"/>
</g>
<!-- 21&#45;&gt;0 -->
<g id="edge53" class="edge">
<title>21&#45;&gt;0</title>
<path fill="none" stroke="#c0c0c0" stroke-width="2" d="M747.6656,-73.7201C752.5048,-73.066 757.3082,-72.4839 762,-72 1174.2793,-29.4782 2509.4148,-19.9 2804.7921,-18.2823"/>
<polygon fill="#c0c0c0" stroke="#c0c0c0" stroke-width="2" points="2804.8768,-21.782 2814.8578,-18.2281 2804.839,-14.7821 2804.8768,-21.782"/>
</g>
<!-- 22&#45;&gt;0 -->
<g id="edge16" class="edge">
<title>22&#45;&gt;0</title>
<path fill="none" stroke="#c0c0c0" stroke-width="2" d="M1617.5344,-73.8246C1622.419,-73.1438 1627.2665,-72.5274 1632,-72 1863.5512,-46.1998 2592.2817,-25.2099 2804.4831,-19.5233"/>
<polygon fill="#c0c0c0" stroke="#c0c0c0" stroke-width="2" points="2804.8806,-23.014 2814.7836,-19.2484 2804.6938,-16.0165 2804.8806,-23.014"/>
</g>
<!-- 23&#45;&gt;0 -->
<g id="edge35" class="edge">
<title>23&#45;&gt;0</title>
<path fill="none" stroke="#c0c0c0" stroke-width="2" d="M2732.871,-143.7623C2759.1807,-118.3354 2806.9954,-72.1253 2836.7627,-43.3569"/>
<polygon fill="#c0c0c0" stroke="#c0c0c0" stroke-width="2" points="2839.5239,-45.5558 2844.2823,-36.0896 2834.6593,-40.5223 2839.5239,-45.5558"/>
</g>
<!-- 24&#45;&gt;0 -->
<g id="edge1" class="edge">
<title>24&#45;&gt;0</title>
<path fill="none" stroke="#c0c0c0" stroke-width="2" d="M2891.8218,-143.8505C2882.8879,-134.144 2873.1197,-121.4389 2868,-108 2860.502,-88.3184 2859.5059,-64.4561 2860.2475,-46.2487"/>
<polygon fill="#c0c0c0" stroke="#c0c0c0" stroke-width="2" points="2863.7418,-46.4486 2860.849,-36.2563 2856.7544,-46.0279 2863.7418,-46.4486"/>
</g>
<!-- 25 -->
<g id="node26" class="node">
<title>25</title>
<path fill="none" stroke="#56b1d8" stroke-width="2" d="M2008.5,-396C2008.5,-396 1811.5,-396 1811.5,-396 1805.5,-396 1799.5,-390 1799.5,-384 1799.5,-384 1799.5,-372 1799.5,-372 1799.5,-366 1805.5,-360 1811.5,-360 1811.5,-360 2008.5,-360 2008.5,-360 2014.5,-360 2020.5,-366 2020.5,-372 2020.5,-372 2020.5,-384 2020.5,-384 2020.5,-390 2014.5,-396 2008.5,-396"/>
<text text-anchor="middle" x="1910" y="-375.5" font-family="sans" font-size="10.00" fill="#000000">aggregate_variant_counts_Omicron_BQ11</text>
</g>
<!-- 25&#45;&gt;0 -->
<g id="edge52" class="edge">
<title>25&#45;&gt;0</title>
<path fill="none" stroke="#c0c0c0" stroke-width="2" d="M1799.3959,-360.7063C1735.0126,-344.344 1658.8913,-312.7427 1619,-252 1598.1295,-220.2204 1655.0052,-97.3927 1695,-72 1742.2315,-42.0127 2574.5195,-23.6231 2804.5297,-19.098"/>
<polygon fill="#c0c0c0" stroke="#c0c0c0" stroke-width="2" points="2804.7735,-22.594 2814.7032,-18.8992 2804.6367,-15.5954 2804.7735,-22.594"/>
</g>
<!-- 29 -->
<g id="node30" class="node">
<title>29</title>
<path fill="none" stroke="#56d87b" stroke-width="2" d="M2563.5,-324C2563.5,-324 2390.5,-324 2390.5,-324 2384.5,-324 2378.5,-318 2378.5,-312 2378.5,-312 2378.5,-300 2378.5,-300 2378.5,-294 2384.5,-288 2390.5,-288 2390.5,-288 2563.5,-288 2563.5,-288 2569.5,-288 2575.5,-294 2575.5,-300 2575.5,-300 2575.5,-312 2575.5,-312 2575.5,-318 2569.5,-324 2563.5,-324"/>
<text text-anchor="middle" x="2477" y="-303.5" font-family="sans" font-size="10.00" fill="#000000">counts_to_cells_ratio_Omicron_BQ11</text>
</g>
<!-- 25&#45;&gt;29 -->
<g id="edge90" class="edge">
<title>25&#45;&gt;29</title>
<path fill="none" stroke="#c0c0c0" stroke-width="2" d="M2020.6693,-363.9468C2121.1536,-351.1868 2268.4813,-332.4786 2368.3362,-319.7986"/>
<polygon fill="#c0c0c0" stroke="#c0c0c0" stroke-width="2" points="2368.9731,-323.2459 2378.4525,-318.514 2368.0912,-316.3017 2368.9731,-323.2459"/>
</g>
<!-- 31 -->
<g id="node32" class="node">
<title>31</title>
<path fill="none" stroke="#d85656" stroke-width="2" d="M1987.5,-324C1987.5,-324 1832.5,-324 1832.5,-324 1826.5,-324 1820.5,-318 1820.5,-312 1820.5,-312 1820.5,-300 1820.5,-300 1820.5,-294 1826.5,-288 1832.5,-288 1832.5,-288 1987.5,-288 1987.5,-288 1993.5,-288 1999.5,-294 1999.5,-300 1999.5,-300 1999.5,-312 1999.5,-312 1999.5,-318 1993.5,-324 1987.5,-324"/>
<text text-anchor="middle" x="1910" y="-303.5" font-family="sans" font-size="10.00" fill="#000000">counts_to_scores_Omicron_BQ11</text>
</g>
<!-- 25&#45;&gt;31 -->
<g id="edge92" class="edge">
<title>25&#45;&gt;31</title>
<path fill="none" stroke="#c0c0c0" stroke-width="2" d="M1910,-359.8314C1910,-352.131 1910,-342.9743 1910,-334.4166"/>
<polygon fill="#c0c0c0" stroke="#c0c0c0" stroke-width="2" points="1913.5001,-334.4132 1910,-324.4133 1906.5001,-334.4133 1913.5001,-334.4132"/>
</g>
<!-- 26 -->
<g id="node27" class="node">
<title>26</title>
<path fill="none" stroke="#56d863" stroke-width="2" d="M1981.5,-468C1981.5,-468 1838.5,-468 1838.5,-468 1832.5,-468 1826.5,-462 1826.5,-456 1826.5,-456 1826.5,-444 1826.5,-444 1826.5,-438 1832.5,-432 1838.5,-432 1838.5,-432 1981.5,-432 1981.5,-432 1987.5,-432 1993.5,-438 1993.5,-444 1993.5,-444 1993.5,-456 1993.5,-456 1993.5,-462 1987.5,-468 1981.5,-468"/>
<text text-anchor="middle" x="1910" y="-447.5" font-family="sans" font-size="10.00" fill="#000000">count_variants_Omicron_BQ11</text>
</g>
<!-- 26&#45;&gt;25 -->
<g id="edge88" class="edge">
<title>26&#45;&gt;25</title>
<path fill="none" stroke="#c0c0c0" stroke-width="2" d="M1910,-431.8314C1910,-424.131 1910,-414.9743 1910,-406.4166"/>
<polygon fill="#c0c0c0" stroke="#c0c0c0" stroke-width="2" points="1913.5001,-406.4132 1910,-396.4133 1906.5001,-406.4133 1913.5001,-406.4132"/>
</g>
<!-- 27 -->
<g id="node28" class="node">
<title>27</title>
<path fill="none" stroke="#56d85b" stroke-width="2" d="M3195.5,-396C3195.5,-396 2992.5,-396 2992.5,-396 2986.5,-396 2980.5,-390 2980.5,-384 2980.5,-384 2980.5,-372 2980.5,-372 2980.5,-366 2986.5,-360 2992.5,-360 2992.5,-360 3195.5,-360 3195.5,-360 3201.5,-360 3207.5,-366 3207.5,-372 3207.5,-372 3207.5,-384 3207.5,-384 3207.5,-390 3201.5,-396 3195.5,-396"/>
<text text-anchor="middle" x="3094" y="-375.5" font-family="sans" font-size="10.00" fill="#000000">aggregate_variant_counts_Omicron_XBB15</text>
</g>
<!-- 27&#45;&gt;0 -->
<g id="edge31" class="edge">
<title>27&#45;&gt;0</title>
<path fill="none" stroke="#c0c0c0" stroke-width="2" d="M3028.2877,-359.9626C3010.9117,-351.8766 2994.1817,-340.3407 2984,-324 2975.5387,-310.4204 2979.0083,-303.2014 2984,-288 2996.3965,-250.2483 3008.3759,-243.5595 3037,-216 3057.5132,-196.2497 3073.6975,-203.3473 3090,-180 3117.8593,-140.1019 3138.482,-109.9321 3108,-72 3085.0157,-43.3981 2986.1611,-29.0541 2921.2602,-22.5897"/>
<polygon fill="#c0c0c0" stroke="#c0c0c0" stroke-width="2" points="2921.4412,-19.091 2911.1524,-21.6188 2920.7719,-26.059 2921.4412,-19.091"/>
</g>
<!-- 30 -->
<g id="node31" class="node">
<title>30</title>
<path fill="none" stroke="#88d856" stroke-width="2" d="M3183.5,-324C3183.5,-324 3004.5,-324 3004.5,-324 2998.5,-324 2992.5,-318 2992.5,-312 2992.5,-312 2992.5,-300 2992.5,-300 2992.5,-294 2998.5,-288 3004.5,-288 3004.5,-288 3183.5,-288 3183.5,-288 3189.5,-288 3195.5,-294 3195.5,-300 3195.5,-300 3195.5,-312 3195.5,-312 3195.5,-318 3189.5,-324 3183.5,-324"/>
<text text-anchor="middle" x="3094" y="-303.5" font-family="sans" font-size="10.00" fill="#000000">counts_to_cells_ratio_Omicron_XBB15</text>
</g>
<!-- 27&#45;&gt;30 -->
<g id="edge91" class="edge">
<title>27&#45;&gt;30</title>
<path fill="none" stroke="#c0c0c0" stroke-width="2" d="M3094,-359.8314C3094,-352.131 3094,-342.9743 3094,-334.4166"/>
<polygon fill="#c0c0c0" stroke="#c0c0c0" stroke-width="2" points="3097.5001,-334.4132 3094,-324.4133 3090.5001,-334.4133 3097.5001,-334.4132"/>
</g>
<!-- 32 -->
<g id="node33" class="node">
<title>32</title>
<path fill="none" stroke="#afd856" stroke-width="2" d="M3392.5,-324C3392.5,-324 3231.5,-324 3231.5,-324 3225.5,-324 3219.5,-318 3219.5,-312 3219.5,-312 3219.5,-300 3219.5,-300 3219.5,-294 3225.5,-288 3231.5,-288 3231.5,-288 3392.5,-288 3392.5,-288 3398.5,-288 3404.5,-294 3404.5,-300 3404.5,-300 3404.5,-312 3404.5,-312 3404.5,-318 3398.5,-324 3392.5,-324"/>
<text text-anchor="middle" x="3312" y="-303.5" font-family="sans" font-size="10.00" fill="#000000">counts_to_scores_Omicron_XBB15</text>
</g>
<!-- 27&#45;&gt;32 -->
<g id="edge93" class="edge">
<title>27&#45;&gt;32</title>
<path fill="none" stroke="#c0c0c0" stroke-width="2" d="M3148.7292,-359.9243C3178.7902,-349.9959 3216.245,-337.6255 3247.6954,-327.2382"/>
<polygon fill="#c0c0c0" stroke="#c0c0c0" stroke-width="2" points="3248.8504,-330.5428 3257.2483,-324.0831 3246.6551,-323.8959 3248.8504,-330.5428"/>
</g>
<!-- 28 -->
<g id="node29" class="node">
<title>28</title>
<path fill="none" stroke="#569ad8" stroke-width="2" d="M3168.5,-468C3168.5,-468 3019.5,-468 3019.5,-468 3013.5,-468 3007.5,-462 3007.5,-456 3007.5,-456 3007.5,-444 3007.5,-444 3007.5,-438 3013.5,-432 3019.5,-432 3019.5,-432 3168.5,-432 3168.5,-432 3174.5,-432 3180.5,-438 3180.5,-444 3180.5,-444 3180.5,-456 3180.5,-456 3180.5,-462 3174.5,-468 3168.5,-468"/>
<text text-anchor="middle" x="3094" y="-447.5" font-family="sans" font-size="10.00" fill="#000000">count_variants_Omicron_XBB15</text>
</g>
<!-- 28&#45;&gt;27 -->
<g id="edge89" class="edge">
<title>28&#45;&gt;27</title>
<path fill="none" stroke="#c0c0c0" stroke-width="2" d="M3094,-431.8314C3094,-424.131 3094,-414.9743 3094,-406.4166"/>
<polygon fill="#c0c0c0" stroke="#c0c0c0" stroke-width="2" points="3097.5001,-406.4132 3094,-396.4133 3090.5001,-406.4133 3097.5001,-406.4132"/>
</g>
<!-- 29&#45;&gt;0 -->
<g id="edge36" class="edge">
<title>29&#45;&gt;0</title>
<path fill="none" stroke="#c0c0c0" stroke-width="2" d="M2575.6328,-290.1369C2634.5687,-280.2033 2710.8053,-266.5556 2778,-252 2809.7107,-245.1309 3036.9673,-201.7987 3061,-180 3097.569,-146.8302 3117.5473,-110.7865 3087,-72 3066.7029,-46.2283 2980.4705,-31.3142 2921.1195,-23.9236"/>
<polygon fill="#c0c0c0" stroke="#c0c0c0" stroke-width="2" points="2921.454,-20.4386 2911.1068,-22.7158 2920.6157,-27.3883 2921.454,-20.4386"/>
</g>
<!-- 30&#45;&gt;0 -->
<g id="edge27" class="edge">
<title>30&#45;&gt;0</title>
<path fill="none" stroke="#c0c0c0" stroke-width="2" d="M3072.8514,-287.8507C3053.4902,-269.0032 3030.2089,-239.098 3047,-216 3077.4956,-174.0501 3127.5044,-221.9499 3158,-180 3186.2241,-141.1748 3188.7339,-108.8704 3158,-72 3128.448,-36.5474 2998.3427,-24.3005 2921.1318,-20.121"/>
<polygon fill="#c0c0c0" stroke="#c0c0c0" stroke-width="2" points="2921.2317,-16.6216 2911.0657,-19.6054 2920.8736,-23.6124 2921.2317,-16.6216"/>
</g>
<!-- 31&#45;&gt;0 -->
<g id="edge2" class="edge">
<title>31&#45;&gt;0</title>
<path fill="none" stroke="#c0c0c0" stroke-width="2" d="M1999.5673,-291.6609C2043.5342,-282.6057 2089.857,-269.325 2103,-252 2112.6701,-239.2529 2111.3342,-229.658 2103,-216 2084.777,-186.1366 2051.6359,-209.6075 2033,-180 2007.4264,-139.3702 1998.1708,-107.029 2031,-72 2057.4571,-43.7701 2620.2001,-25.0244 2804.8691,-19.6149"/>
<polygon fill="#c0c0c0" stroke="#c0c0c0" stroke-width="2" points="2805.0373,-23.1116 2814.9313,-19.3224 2804.8338,-16.1145 2805.0373,-23.1116"/>
</g>
<!-- 33 -->
<g id="node34" class="node">
<title>33</title>
<path fill="none" stroke="#5682d8" stroke-width="2" d="M1832,-252C1832,-252 1640,-252 1640,-252 1634,-252 1628,-246 1628,-240 1628,-240 1628,-228 1628,-228 1628,-222 1634,-216 1640,-216 1640,-216 1832,-216 1832,-216 1838,-216 1844,-222 1844,-228 1844,-228 1844,-240 1844,-240 1844,-246 1838,-252 1832,-252"/>
<text text-anchor="middle" x="1736" y="-231.5" font-family="sans" font-size="10.00" fill="#000000">call_strong_escape_sites_Omicron_BQ11</text>
</g>
<!-- 31&#45;&gt;33 -->
<g id="edge94" class="edge">
<title>31&#45;&gt;33</title>
<path fill="none" stroke="#c0c0c0" stroke-width="2" d="M1866.0925,-287.8314C1842.7176,-278.159 1813.7903,-266.1891 1789.1532,-255.9944"/>
<polygon fill="#c0c0c0" stroke="#c0c0c0" stroke-width="2" points="1790.1702,-252.6275 1779.5918,-252.038 1787.4937,-259.0956 1790.1702,-252.6275"/>
</g>
<!-- 31&#45;&gt;35 -->
<g id="edge97" class="edge">
<title>31&#45;&gt;35</title>
<path fill="none" stroke="#c0c0c0" stroke-width="2" d="M1900.2471,-287.9003C1889.7309,-269.0934 1871.9347,-239.2207 1853,-216 1844.7982,-205.9417 1834.8634,-195.8258 1825.6522,-187.1129"/>
<polygon fill="#c0c0c0" stroke="#c0c0c0" stroke-width="2" points="1827.8545,-184.3821 1818.1389,-180.1561 1823.0986,-189.5184 1827.8545,-184.3821"/>
</g>
<!-- 37 -->
<g id="node38" class="node">
<title>37</title>
<path fill="none" stroke="#d88556" stroke-width="2" d="M2081.5,-252C2081.5,-252 1950.5,-252 1950.5,-252 1944.5,-252 1938.5,-246 1938.5,-240 1938.5,-240 1938.5,-228 1938.5,-228 1938.5,-222 1944.5,-216 1950.5,-216 1950.5,-216 2081.5,-216 2081.5,-216 2087.5,-216 2093.5,-222 2093.5,-228 2093.5,-228 2093.5,-240 2093.5,-240 2093.5,-246 2087.5,-252 2081.5,-252"/>
<text text-anchor="middle" x="2016" y="-231.5" font-family="sans" font-size="10.00" fill="#000000">output_pdbs_Omicron_BQ11</text>
</g>
<!-- 31&#45;&gt;37 -->
<g id="edge102" class="edge">
<title>31&#45;&gt;37</title>
<path fill="none" stroke="#c0c0c0" stroke-width="2" d="M1936.7483,-287.8314C1950.0553,-278.7927 1966.316,-267.7476 1980.6375,-258.0198"/>
<polygon fill="#c0c0c0" stroke="#c0c0c0" stroke-width="2" points="1982.9547,-260.677 1989.2603,-252.1628 1979.0215,-254.8864 1982.9547,-260.677"/>
</g>
<!-- 39 -->
<g id="node40" class="node">
<title>39</title>
<path fill="none" stroke="#d87d56" stroke-width="2" d="M1916,-108C1916,-108 1762,-108 1762,-108 1756,-108 1750,-102 1750,-96 1750,-96 1750,-84 1750,-84 1750,-78 1756,-72 1762,-72 1762,-72 1916,-72 1916,-72 1922,-72 1928,-78 1928,-84 1928,-84 1928,-96 1928,-96 1928,-102 1922,-108 1916,-108"/>
<text text-anchor="middle" x="1839" y="-87.5" font-family="sans" font-size="10.00" fill="#000000">make_supp_data_Omicron_BQ11</text>
</g>
<!-- 31&#45;&gt;39 -->
<g id="edge105" class="edge">
<title>31&#45;&gt;39</title>
<path fill="none" stroke="#c0c0c0" stroke-width="2" d="M1911.507,-287.9693C1913.3354,-256.9364 1913.755,-192.1294 1891,-144 1885.9229,-133.2614 1877.8569,-123.3164 1869.5782,-114.9639"/>
<polygon fill="#c0c0c0" stroke="#c0c0c0" stroke-width="2" points="1871.9747,-112.4129 1862.3182,-108.0539 1867.1487,-117.4834 1871.9747,-112.4129"/>
</g>
<!-- 32&#45;&gt;0 -->
<g id="edge24" class="edge">
<title>32&#45;&gt;0</title>
<path fill="none" stroke="#c0c0c0" stroke-width="2" d="M3404.554,-292.8368C3451.9705,-283.9985 3502.7055,-270.5475 3517,-252 3546.4582,-213.7772 3594.1087,-163.0585 3500,-72 3458.9119,-32.2436 3071.277,-21.5024 2921.5867,-18.8245"/>
<polygon fill="#c0c0c0" stroke="#c0c0c0" stroke-width="2" points="2921.2873,-15.3189 2911.2282,-18.6453 2921.1662,-22.3178 2921.2873,-15.3189"/>
</g>
<!-- 34 -->
<g id="node35" class="node">
<title>34</title>
<path fill="none" stroke="#d8a456" stroke-width="2" d="M3278,-252C3278,-252 3080,-252 3080,-252 3074,-252 3068,-246 3068,-240 3068,-240 3068,-228 3068,-228 3068,-222 3074,-216 3080,-216 3080,-216 3278,-216 3278,-216 3284,-216 3290,-222 3290,-228 3290,-228 3290,-240 3290,-240 3290,-246 3284,-252 3278,-252"/>
<text text-anchor="middle" x="3179" y="-231.5" font-family="sans" font-size="10.00" fill="#000000">call_strong_escape_sites_Omicron_XBB15</text>
</g>
<!-- 32&#45;&gt;34 -->
<g id="edge95" class="edge">
<title>32&#45;&gt;34</title>
<path fill="none" stroke="#c0c0c0" stroke-width="2" d="M3278.4385,-287.8314C3261.1119,-278.4516 3239.7942,-266.9112 3221.3464,-256.9244"/>
<polygon fill="#c0c0c0" stroke="#c0c0c0" stroke-width="2" points="3223.0111,-253.8457 3212.5508,-252.1628 3219.6786,-260.0015 3223.0111,-253.8457"/>
</g>
<!-- 32&#45;&gt;36 -->
<g id="edge101" class="edge">
<title>32&#45;&gt;36</title>
<path fill="none" stroke="#c0c0c0" stroke-width="2" d="M3219.4613,-289.0599C3149.3896,-275.7871 3064.2704,-258.514 3059,-252 3048.9361,-239.5614 3049.0105,-228.4984 3059,-216 3063.6875,-210.1352 3135.9093,-194.3127 3199.7426,-181.301"/>
<polygon fill="#c0c0c0" stroke="#c0c0c0" stroke-width="2" points="3200.7998,-184.6579 3209.9038,-179.2388 3199.4074,-177.7977 3200.7998,-184.6579"/>
</g>
<!-- 38 -->
<g id="node39" class="node">
<title>38</title>
<path fill="none" stroke="#56d8b9" stroke-width="2" d="M3495.5,-252C3495.5,-252 3358.5,-252 3358.5,-252 3352.5,-252 3346.5,-246 3346.5,-240 3346.5,-240 3346.5,-228 3346.5,-228 3346.5,-222 3352.5,-216 3358.5,-216 3358.5,-216 3495.5,-216 3495.5,-216 3501.5,-216 3507.5,-222 3507.5,-228 3507.5,-228 3507.5,-240 3507.5,-240 3507.5,-246 3501.5,-252 3495.5,-252"/>
<text text-anchor="middle" x="3427" y="-231.5" font-family="sans" font-size="10.00" fill="#000000">output_pdbs_Omicron_XBB15</text>
</g>
<!-- 32&#45;&gt;38 -->
<g id="edge103" class="edge">
<title>32&#45;&gt;38</title>
<path fill="none" stroke="#c0c0c0" stroke-width="2" d="M3341.0194,-287.8314C3355.7286,-278.6221 3373.7644,-267.3301 3389.5122,-257.4706"/>
<polygon fill="#c0c0c0" stroke="#c0c0c0" stroke-width="2" points="3391.3714,-260.436 3397.9899,-252.1628 3387.6567,-254.5029 3391.3714,-260.436"/>
</g>
<!-- 40 -->
<g id="node41" class="node">
<title>40</title>
<path fill="none" stroke="#567bd8" stroke-width="2" d="M3458,-108C3458,-108 3298,-108 3298,-108 3292,-108 3286,-102 3286,-96 3286,-96 3286,-84 3286,-84 3286,-78 3292,-72 3298,-72 3298,-72 3458,-72 3458,-72 3464,-72 3470,-78 3470,-84 3470,-84 3470,-96 3470,-96 3470,-102 3464,-108 3458,-108"/>
<text text-anchor="middle" x="3378" y="-87.5" font-family="sans" font-size="10.00" fill="#000000">make_supp_data_Omicron_XBB15</text>
</g>
<!-- 32&#45;&gt;40 -->
<g id="edge107" class="edge">
<title>32&#45;&gt;40</title>
<path fill="none" stroke="#c0c0c0" stroke-width="2" d="M3312.6624,-287.8714C3314.3272,-267.9149 3319.8802,-236.0143 3338,-216 3366.9141,-184.0629 3403.8474,-215.6742 3428,-180 3442.1169,-159.1489 3425.5558,-133.9922 3407.8056,-115.5828"/>
<polygon fill="#c0c0c0" stroke="#c0c0c0" stroke-width="2" points="3409.8028,-112.6393 3400.2115,-108.1383 3404.9025,-117.6381 3409.8028,-112.6393"/>
</g>
<!-- 33&#45;&gt;0 -->
<g id="edge57" class="edge">
<title>33&#45;&gt;0</title>
<path fill="none" stroke="#c0c0c0" stroke-width="2" d="M1721.3248,-215.7088C1714.2954,-205.772 1706.6305,-192.9031 1703,-180 1689.6278,-132.4741 1689.2795,-101.3225 1729,-72 1772.6084,-39.8073 2578.8095,-23.0646 2804.6423,-18.993"/>
<polygon fill="#c0c0c0" stroke="#c0c0c0" stroke-width="2" points="2805.0164,-22.487 2814.9522,-18.8087 2804.8912,-15.4881 2805.0164,-22.487"/>
</g>
<!-- 33&#45;&gt;35 -->
<g id="edge98" class="edge">
<title>33&#45;&gt;35</title>
<path fill="none" stroke="#c0c0c0" stroke-width="2" d="M1751.3929,-215.8314C1758.4904,-207.454 1767.048,-197.3531 1774.824,-188.1749"/>
<polygon fill="#c0c0c0" stroke="#c0c0c0" stroke-width="2" points="1777.6061,-190.3056 1781.3999,-180.4133 1772.2652,-185.7807 1777.6061,-190.3056"/>
</g>
<!-- 34&#45;&gt;0 -->
<g id="edge12" class="edge">
<title>34&#45;&gt;0</title>
<path fill="none" stroke="#c0c0c0" stroke-width="2" d="M3290.06,-219.013C3335.7563,-210.3602 3381.2326,-197.633 3395,-180 3404.8466,-167.3887 3404.521,-156.8589 3395,-144 3362.3724,-99.9335 3325.4965,-133.5834 3277,-108 3254.3464,-96.0495 3255.4895,-82.21 3232,-72 3177.3982,-48.2667 3010.8051,-30.7639 2921.3117,-22.7885"/>
<polygon fill="#c0c0c0" stroke="#c0c0c0" stroke-width="2" points="2921.5873,-19.2993 2911.319,-21.909 2920.9736,-26.2723 2921.5873,-19.2993"/>
</g>
<!-- 34&#45;&gt;36 -->
<g id="edge99" class="edge">
<title>34&#45;&gt;36</title>
<path fill="none" stroke="#c0c0c0" stroke-width="2" d="M3209.0287,-215.8314C3224.2496,-206.6221 3242.9128,-195.3301 3259.2083,-185.4706"/>
<polygon fill="#c0c0c0" stroke="#c0c0c0" stroke-width="2" points="3261.2369,-188.3341 3267.9809,-180.1628 3257.6132,-182.345 3261.2369,-188.3341"/>
</g>
<!-- 35&#45;&gt;0 -->
<g id="edge18" class="edge">
<title>35&#45;&gt;0</title>
<path fill="none" stroke="#c0c0c0" stroke-width="2" d="M1772.4337,-143.9488C1749.0169,-124.6391 1720.1784,-93.8478 1741,-72 1777.9798,-33.1976 2579.1915,-21.2133 2804.5176,-18.6042"/>
<polygon fill="#c0c0c0" stroke="#c0c0c0" stroke-width="2" points="2804.8474,-22.1007 2814.8068,-18.4869 2804.7676,-15.1012 2804.8474,-22.1007"/>
</g>
<!-- 35&#45;&gt;39 -->
<g id="edge104" class="edge">
<title>35&#45;&gt;39</title>
<path fill="none" stroke="#c0c0c0" stroke-width="2" d="M1807.5984,-143.8314C1812.2877,-135.7925 1817.9028,-126.1666 1823.0798,-117.2918"/>
<polygon fill="#c0c0c0" stroke="#c0c0c0" stroke-width="2" points="1826.2434,-118.8146 1828.2589,-108.4133 1820.1969,-115.2875 1826.2434,-118.8146"/>
</g>
<!-- 36&#45;&gt;0 -->
<g id="edge37" class="edge">
<title>36&#45;&gt;0</title>
<path fill="none" stroke="#c0c0c0" stroke-width="2" d="M3279.8465,-143.7296C3255.9523,-120.0935 3214.7862,-80.8872 3196,-72 3148.4022,-49.483 3003.386,-31.9567 2921.283,-23.5189"/>
<polygon fill="#c0c0c0" stroke="#c0c0c0" stroke-width="2" points="2921.4084,-20.0137 2911.1062,-22.4864 2920.7018,-26.978 2921.4084,-20.0137"/>
</g>
<!-- 36&#45;&gt;40 -->
<g id="edge106" class="edge">
<title>36&#45;&gt;40</title>
<path fill="none" stroke="#c0c0c0" stroke-width="2" d="M3318.1874,-143.8314C3327.8514,-135.1337 3339.5796,-124.5783 3350.0816,-115.1265"/>
<polygon fill="#c0c0c0" stroke="#c0c0c0" stroke-width="2" points="3352.7275,-117.454 3357.8191,-108.1628 3348.0447,-112.251 3352.7275,-117.454"/>
</g>
<!-- 37&#45;&gt;0 -->
<g id="edge5" class="edge">
<title>37&#45;&gt;0</title>
<path fill="none" stroke="#c0c0c0" stroke-width="2" d="M1995.5974,-215.5625C1986.5059,-205.9675 1976.7838,-193.4441 1972,-180 1963.9011,-157.2391 1976.1361,-75.6769 1980,-72 2009.907,-43.5401 2612.6343,-24.79 2804.7252,-19.5189"/>
<polygon fill="#c0c0c0" stroke="#c0c0c0" stroke-width="2" points="2805.0038,-23.0127 2814.9048,-19.2417 2804.8132,-16.0153 2805.0038,-23.0127"/>
</g>
<!-- 38&#45;&gt;0 -->
<g id="edge44" class="edge">
<title>38&#45;&gt;0</title>
<path fill="none" stroke="#c0c0c0" stroke-width="2" d="M3442.9357,-215.7597C3469.6569,-182.9381 3517.0123,-113.4903 3479,-72 3441.7746,-31.3686 3068.0084,-21.1767 2921.4858,-18.7338"/>
<polygon fill="#c0c0c0" stroke="#c0c0c0" stroke-width="2" points="2921.3915,-15.232 2911.3367,-18.571 2921.2792,-22.2311 2921.3915,-15.232"/>
</g>
<!-- 39&#45;&gt;0 -->
<g id="edge6" class="edge">
<title>39&#45;&gt;0</title>
<path fill="none" stroke="#c0c0c0" stroke-width="2" d="M1928.2338,-73.7621C1932.8825,-73.1179 1937.4922,-72.5243 1942,-72 2266.7214,-34.2324 2659.0869,-22.3622 2804.8284,-19.1015"/>
<polygon fill="#c0c0c0" stroke="#c0c0c0" stroke-width="2" points="2804.9703,-22.5994 2814.8913,-18.8814 2804.8171,-15.6011 2804.9703,-22.5994"/>
</g>
<!-- 40&#45;&gt;0 -->
<g id="edge58" class="edge">
<title>40&#45;&gt;0</title>
<path fill="none" stroke="#c0c0c0" stroke-width="2" d="M3285.8205,-74.1367C3281.1494,-73.3987 3276.5221,-72.6822 3272,-72 3147.4569,-53.2105 3001.0221,-34.7539 2921.5406,-25.0392"/>
<polygon fill="#c0c0c0" stroke="#c0c0c0" stroke-width="2" points="2921.5979,-21.5204 2911.2478,-23.7843 2920.7507,-28.4689 2921.5979,-21.5204"/>
</g>
<!-- 41&#45;&gt;0 -->
<g id="edge45" class="edge">
<title>41&#45;&gt;0</title>
<path fill="none" stroke="#c0c0c0" stroke-width="2" d="M2205.803,-143.9361C2281.4712,-124.4746 2406.8332,-93.4215 2516,-72 2616.8658,-52.2074 2735.3774,-35.0637 2804.5451,-25.6644"/>
<polygon fill="#c0c0c0" stroke="#c0c0c0" stroke-width="2" points="2805.3568,-29.0865 2814.798,-24.2787 2804.4193,-22.1496 2805.3568,-29.0865"/>
</g>
<!-- 42&#45;&gt;0 -->
<g id="edge7" class="edge">
<title>42&#45;&gt;0</title>
<path fill="none" stroke="#c0c0c0" stroke-width="2" d="M2385.7813,-143.9826C2450.1118,-125.3726 2553.8806,-95.777 2644,-72 2698.2722,-57.6809 2760.4246,-42.4679 2804.619,-31.8509"/>
<polygon fill="#c0c0c0" stroke="#c0c0c0" stroke-width="2" points="2805.6991,-35.1912 2814.6075,-29.4561 2804.067,-28.3841 2805.6991,-35.1912"/>
</g>
<!-- 43 -->
<g id="node44" class="node">
<title>43</title>
<path fill="none" stroke="#56d8c9" stroke-width="2" d="M3929.5,-396C3929.5,-396 3738.5,-396 3738.5,-396 3732.5,-396 3726.5,-390 3726.5,-384 3726.5,-384 3726.5,-372 3726.5,-372 3726.5,-366 3732.5,-360 3738.5,-360 3738.5,-360 3929.5,-360 3929.5,-360 3935.5,-360 3941.5,-366 3941.5,-372 3941.5,-372 3941.5,-384 3941.5,-384 3941.5,-390 3935.5,-396 3929.5,-396"/>
<text text-anchor="middle" x="3834" y="-375.5" font-family="sans" font-size="10.00" fill="#000000">aggregate_variant_counts_Omicron_EG5</text>
</g>
<!-- 43&#45;&gt;0 -->
<g id="edge46" class="edge">
<title>43&#45;&gt;0</title>
<path fill="none" stroke="#c0c0c0" stroke-width="2" d="M3726.3712,-361.6357C3654.8436,-343.9454 3574,-307.6584 3574,-234 3574,-234 3574,-234 3574,-162 3574,-117.2786 3566.0603,-97.0306 3529,-72 3479.2531,-38.4008 3074.5329,-23.8318 2921.4046,-19.4852"/>
<polygon fill="#c0c0c0" stroke="#c0c0c0" stroke-width="2" points="2921.349,-15.9823 2911.2552,-19.2016 2921.1535,-22.9796 2921.349,-15.9823"/>
</g>
<!-- 47 -->
<g id="node48" class="node">
<title>47</title>
<path fill="none" stroke="#ced856" stroke-width="2" d="M4117.5,-324C4117.5,-324 3950.5,-324 3950.5,-324 3944.5,-324 3938.5,-318 3938.5,-312 3938.5,-312 3938.5,-300 3938.5,-300 3938.5,-294 3944.5,-288 3950.5,-288 3950.5,-288 4117.5,-288 4117.5,-288 4123.5,-288 4129.5,-294 4129.5,-300 4129.5,-300 4129.5,-312 4129.5,-312 4129.5,-318 4123.5,-324 4117.5,-324"/>
<text text-anchor="middle" x="4034" y="-303.5" font-family="sans" font-size="10.00" fill="#000000">counts_to_cells_ratio_Omicron_EG5</text>
</g>
<!-- 43&#45;&gt;47 -->
<g id="edge112" class="edge">
<title>43&#45;&gt;47</title>
<path fill="none" stroke="#c0c0c0" stroke-width="2" d="M3884.2103,-359.9243C3911.5515,-350.0815 3945.5594,-337.8386 3974.2575,-327.5073"/>
<polygon fill="#c0c0c0" stroke="#c0c0c0" stroke-width="2" points="3975.5457,-330.7635 3983.7691,-324.0831 3973.1746,-324.1773 3975.5457,-330.7635"/>
</g>
<!-- 49 -->
<g id="node50" class="node">
<title>49</title>
<path fill="none" stroke="#d89556" stroke-width="2" d="M3908,-324C3908,-324 3760,-324 3760,-324 3754,-324 3748,-318 3748,-312 3748,-312 3748,-300 3748,-300 3748,-294 3754,-288 3760,-288 3760,-288 3908,-288 3908,-288 3914,-288 3920,-294 3920,-300 3920,-300 3920,-312 3920,-312 3920,-318 3914,-324 3908,-324"/>
<text text-anchor="middle" x="3834" y="-303.5" font-family="sans" font-size="10.00" fill="#000000">counts_to_scores_Omicron_EG5</text>
</g>
<!-- 43&#45;&gt;49 -->
<g id="edge114" class="edge">
<title>43&#45;&gt;49</title>
<path fill="none" stroke="#c0c0c0" stroke-width="2" d="M3834,-359.8314C3834,-352.131 3834,-342.9743 3834,-334.4166"/>
<polygon fill="#c0c0c0" stroke="#c0c0c0" stroke-width="2" points="3837.5001,-334.4132 3834,-324.4133 3830.5001,-334.4133 3837.5001,-334.4132"/>
</g>
<!-- 44 -->
<g id="node45" class="node">
<title>44</title>
<path fill="none" stroke="#8fd856" stroke-width="2" d="M3902,-468C3902,-468 3766,-468 3766,-468 3760,-468 3754,-462 3754,-456 3754,-456 3754,-444 3754,-444 3754,-438 3760,-432 3766,-432 3766,-432 3902,-432 3902,-432 3908,-432 3914,-438 3914,-444 3914,-444 3914,-456 3914,-456 3914,-462 3908,-468 3902,-468"/>
<text text-anchor="middle" x="3834" y="-447.5" font-family="sans" font-size="10.00" fill="#000000">count_variants_Omicron_EG5</text>
</g>
<!-- 44&#45;&gt;43 -->
<g id="edge110" class="edge">
<title>44&#45;&gt;43</title>
<path fill="none" stroke="#c0c0c0" stroke-width="2" d="M3834,-431.8314C3834,-424.131 3834,-414.9743 3834,-406.4166"/>
<polygon fill="#c0c0c0" stroke="#c0c0c0" stroke-width="2" points="3837.5001,-406.4132 3834,-396.4133 3830.5001,-406.4133 3837.5001,-406.4132"/>
</g>
<!-- 45 -->
<g id="node46" class="node">
<title>45</title>
<path fill="none" stroke="#70d856" stroke-width="2" d="M4377.5,-396C4377.5,-396 4186.5,-396 4186.5,-396 4180.5,-396 4174.5,-390 4174.5,-384 4174.5,-384 4174.5,-372 4174.5,-372 4174.5,-366 4180.5,-360 4186.5,-360 4186.5,-360 4377.5,-360 4377.5,-360 4383.5,-360 4389.5,-366 4389.5,-372 4389.5,-372 4389.5,-384 4389.5,-384 4389.5,-390 4383.5,-396 4377.5,-396"/>
<text text-anchor="middle" x="4282" y="-375.5" font-family="sans" font-size="10.00" fill="#000000">aggregate_variant_counts_Omicron_FLip</text>
</g>
<!-- 45&#45;&gt;0 -->
<g id="edge29" class="edge">
<title>45&#45;&gt;0</title>
<path fill="none" stroke="#c0c0c0" stroke-width="2" d="M4226.2083,-359.8735C4208.4225,-351.5449 4190.2115,-339.8887 4178,-324 4153.0303,-291.5112 4158,-274.9758 4158,-234 4158,-234 4158,-234 4158,-162 4158,-76.5094 4070.4517,-94.5913 3988,-72 3884.905,-43.7525 3137.1154,-24.3624 2921.215,-19.308"/>
<polygon fill="#c0c0c0" stroke="#c0c0c0" stroke-width="2" points="2921.1194,-15.8049 2911.0406,-19.0712 2920.9565,-22.803 2921.1194,-15.8049"/>
</g>
<!-- 48 -->
<g id="node49" class="node">
<title>48</title>
<path fill="none" stroke="#56c9d8" stroke-width="2" d="M4365.5,-324C4365.5,-324 4198.5,-324 4198.5,-324 4192.5,-324 4186.5,-318 4186.5,-312 4186.5,-312 4186.5,-300 4186.5,-300 4186.5,-294 4192.5,-288 4198.5,-288 4198.5,-288 4365.5,-288 4365.5,-288 4371.5,-288 4377.5,-294 4377.5,-300 4377.5,-300 4377.5,-312 4377.5,-312 4377.5,-318 4371.5,-324 4365.5,-324"/>
<text text-anchor="middle" x="4282" y="-303.5" font-family="sans" font-size="10.00" fill="#000000">counts_to_cells_ratio_Omicron_FLip</text>
</g>
<!-- 45&#45;&gt;48 -->
<g id="edge113" class="edge">
<title>45&#45;&gt;48</title>
<path fill="none" stroke="#c0c0c0" stroke-width="2" d="M4282,-359.8314C4282,-352.131 4282,-342.9743 4282,-334.4166"/>
<polygon fill="#c0c0c0" stroke="#c0c0c0" stroke-width="2" points="4285.5001,-334.4132 4282,-324.4133 4278.5001,-334.4133 4285.5001,-334.4132"/>
</g>
<!-- 50 -->
<g id="node51" class="node">
<title>50</title>
<path fill="none" stroke="#56d8b1" stroke-width="2" d="M4556,-324C4556,-324 4408,-324 4408,-324 4402,-324 4396,-318 4396,-312 4396,-312 4396,-300 4396,-300 4396,-294 4402,-288 4408,-288 4408,-288 4556,-288 4556,-288 4562,-288 4568,-294 4568,-300 4568,-300 4568,-312 4568,-312 4568,-318 4562,-324 4556,-324"/>
<text text-anchor="middle" x="4482" y="-303.5" font-family="sans" font-size="10.00" fill="#000000">counts_to_scores_Omicron_FLip</text>
</g>
<!-- 45&#45;&gt;50 -->
<g id="edge115" class="edge">
<title>45&#45;&gt;50</title>
<path fill="none" stroke="#c0c0c0" stroke-width="2" d="M4332.2103,-359.9243C4359.5515,-350.0815 4393.5594,-337.8386 4422.2575,-327.5073"/>
<polygon fill="#c0c0c0" stroke="#c0c0c0" stroke-width="2" points="4423.5457,-330.7635 4431.7691,-324.0831 4421.1746,-324.1773 4423.5457,-330.7635"/>
</g>
<!-- 46 -->
<g id="node47" class="node">
<title>46</title>
<path fill="none" stroke="#56d8d8" stroke-width="2" d="M4350,-468C4350,-468 4214,-468 4214,-468 4208,-468 4202,-462 4202,-456 4202,-456 4202,-444 4202,-444 4202,-438 4208,-432 4214,-432 4214,-432 4350,-432 4350,-432 4356,-432 4362,-438 4362,-444 4362,-444 4362,-456 4362,-456 4362,-462 4356,-468 4350,-468"/>
<text text-anchor="middle" x="4282" y="-447.5" font-family="sans" font-size="10.00" fill="#000000">count_variants_Omicron_FLip</text>
</g>
<!-- 46&#45;&gt;45 -->
<g id="edge111" class="edge">
<title>46&#45;&gt;45</title>
<path fill="none" stroke="#c0c0c0" stroke-width="2" d="M4282,-431.8314C4282,-424.131 4282,-414.9743 4282,-406.4166"/>
<polygon fill="#c0c0c0" stroke="#c0c0c0" stroke-width="2" points="4285.5001,-406.4132 4282,-396.4133 4278.5001,-406.4133 4285.5001,-406.4132"/>
</g>
<!-- 47&#45;&gt;0 -->
<g id="edge21" class="edge">
<title>47&#45;&gt;0</title>
<path fill="none" stroke="#c0c0c0" stroke-width="2" d="M4056.2213,-287.9032C4066.1308,-278.3888 4076.74,-265.8349 4082,-252 4087.6861,-237.0445 4085.3215,-231.6514 4082,-216 4062.882,-125.9118 4020.9528,-99.3072 3933,-72 3836.3219,-41.9838 3130.2875,-23.9677 2921.1918,-19.2488"/>
<polygon fill="#c0c0c0" stroke="#c0c0c0" stroke-width="2" points="2921.1081,-15.7462 2911.0322,-19.0212 2920.9513,-22.7444 2921.1081,-15.7462"/>
</g>
<!-- 48&#45;&gt;0 -->
<g id="edge48" class="edge">
<title>48&#45;&gt;0</title>
<path fill="none" stroke="#c0c0c0" stroke-width="2" d="M4269.5952,-287.9422C4262.7921,-277.6517 4254.4548,-264.3769 4248,-252 4207.8444,-175.0035 4243.3629,-121.4801 4172,-72 4120.0016,-35.9464 3169.1128,-21.7677 2921.5313,-18.6782"/>
<polygon fill="#c0c0c0" stroke="#c0c0c0" stroke-width="2" points="2921.3454,-15.1757 2911.3029,-18.5519 2921.2589,-22.1752 2921.3454,-15.1757"/>
</g>
<!-- 49&#45;&gt;0 -->
<g id="edge8" class="edge">
<title>49&#45;&gt;0</title>
<path fill="none" stroke="#c0c0c0" stroke-width="2" d="M3920.0183,-288.3043C3983.0156,-274.932 4058.3255,-257.905 4063,-252 4104.2344,-199.9113 4018.4336,-124.0863 3880,-72 3790.3861,-38.2824 3124.3181,-22.9632 2921.4617,-19.0472"/>
<polygon fill="#c0c0c0" stroke="#c0c0c0" stroke-width="2" points="2921.3711,-15.5449 2911.3061,-18.8532 2921.2374,-22.5436 2921.3711,-15.5449"/>
</g>
<!-- 51 -->
<g id="node52" class="node">
<title>51</title>
<path fill="none" stroke="#bed856" stroke-width="2" d="M3837.5,-252C3837.5,-252 3652.5,-252 3652.5,-252 3646.5,-252 3640.5,-246 3640.5,-240 3640.5,-240 3640.5,-228 3640.5,-228 3640.5,-222 3646.5,-216 3652.5,-216 3652.5,-216 3837.5,-216 3837.5,-216 3843.5,-216 3849.5,-222 3849.5,-228 3849.5,-228 3849.5,-240 3849.5,-240 3849.5,-246 3843.5,-252 3837.5,-252"/>
<text text-anchor="middle" x="3745" y="-231.5" font-family="sans" font-size="10.00" fill="#000000">call_strong_escape_sites_Omicron_EG5</text>
</g>
<!-- 49&#45;&gt;51 -->
<g id="edge116" class="edge">
<title>49&#45;&gt;51</title>
<path fill="none" stroke="#c0c0c0" stroke-width="2" d="M3811.5415,-287.8314C3800.5795,-278.9632 3787.2301,-268.1637 3775.3735,-258.5718"/>
<polygon fill="#c0c0c0" stroke="#c0c0c0" stroke-width="2" points="3777.4271,-255.7313 3767.4513,-252.1628 3773.0245,-261.1734 3777.4271,-255.7313"/>
</g>
<!-- 49&#45;&gt;53 -->
<g id="edge120" class="edge">
<title>49&#45;&gt;53</title>
<path fill="none" stroke="#c0c0c0" stroke-width="2" d="M3747.7288,-293.5904C3699.6386,-284.7143 3646.563,-270.9674 3632,-252 3616.2832,-231.5298 3634.3559,-205.8425 3653.3699,-187.156"/>
<polygon fill="#c0c0c0" stroke="#c0c0c0" stroke-width="2" points="3655.9929,-189.4954 3660.9147,-180.1131 3651.2163,-184.3783 3655.9929,-189.4954"/>
</g>
<!-- 55 -->
<g id="node56" class="node">
<title>55</title>
<path fill="none" stroke="#d88d56" stroke-width="2" d="M4042,-252C4042,-252 3918,-252 3918,-252 3912,-252 3906,-246 3906,-240 3906,-240 3906,-228 3906,-228 3906,-222 3912,-216 3918,-216 3918,-216 4042,-216 4042,-216 4048,-216 4054,-222 4054,-228 4054,-228 4054,-240 4054,-240 4054,-246 4048,-252 4042,-252"/>
<text text-anchor="middle" x="3980" y="-231.5" font-family="sans" font-size="10.00" fill="#000000">output_pdbs_Omicron_EG5</text>
</g>
<!-- 49&#45;&gt;55 -->
<g id="edge124" class="edge">
<title>49&#45;&gt;55</title>
<path fill="none" stroke="#c0c0c0" stroke-width="2" d="M3870.842,-287.8314C3890.1082,-278.3302 3913.8699,-266.6121 3934.2992,-256.5374"/>
<polygon fill="#c0c0c0" stroke="#c0c0c0" stroke-width="2" points="3936.0023,-259.6 3943.423,-252.038 3932.9062,-253.3219 3936.0023,-259.6"/>
</g>
<!-- 57 -->
<g id="node58" class="node">
<title>57</title>
<path fill="none" stroke="#68d856" stroke-width="2" d="M3799.5,-108C3799.5,-108 3652.5,-108 3652.5,-108 3646.5,-108 3640.5,-102 3640.5,-96 3640.5,-96 3640.5,-84 3640.5,-84 3640.5,-78 3646.5,-72 3652.5,-72 3652.5,-72 3799.5,-72 3799.5,-72 3805.5,-72 3811.5,-78 3811.5,-84 3811.5,-84 3811.5,-96 3811.5,-96 3811.5,-102 3805.5,-108 3799.5,-108"/>
<text text-anchor="middle" x="3726" y="-87.5" font-family="sans" font-size="10.00" fill="#000000">make_supp_data_Omicron_EG5</text>
</g>
<!-- 49&#45;&gt;57 -->
<g id="edge127" class="edge">
<title>49&#45;&gt;57</title>
<path fill="none" stroke="#c0c0c0" stroke-width="2" d="M3846.0351,-287.9254C3856.7686,-269.3978 3869.3163,-239.9842 3859,-216 3840.0451,-171.9324 3797.2618,-136.0559 3765.3056,-114.0143"/>
<polygon fill="#c0c0c0" stroke="#c0c0c0" stroke-width="2" points="3766.8603,-110.8422 3756.6083,-108.169 3762.9557,-116.652 3766.8603,-110.8422"/>
</g>
<!-- 50&#45;&gt;0 -->
<g id="edge43" class="edge">
<title>50&#45;&gt;0</title>
<path fill="none" stroke="#c0c0c0" stroke-width="2" d="M4568.1434,-293.7466C4616.6144,-284.8949 4670.3025,-271.1183 4685,-252 4727.7639,-196.3733 4640.0746,-124.4656 4488,-72 4412.5907,-45.9839 3203.0078,-23.8034 2921.3084,-18.9743"/>
<polygon fill="#c0c0c0" stroke="#c0c0c0" stroke-width="2" points="2921.3521,-15.4746 2911.2938,-18.8032 2921.2325,-22.4736 2921.3521,-15.4746"/>
</g>
<!-- 52 -->
<g id="node53" class="node">
<title>52</title>
<path fill="none" stroke="#d8bc56" stroke-width="2" d="M4497.5,-252C4497.5,-252 4312.5,-252 4312.5,-252 4306.5,-252 4300.5,-246 4300.5,-240 4300.5,-240 4300.5,-228 4300.5,-228 4300.5,-222 4306.5,-216 4312.5,-216 4312.5,-216 4497.5,-216 4497.5,-216 4503.5,-216 4509.5,-222 4509.5,-228 4509.5,-228 4509.5,-240 4509.5,-240 4509.5,-246 4503.5,-252 4497.5,-252"/>
<text text-anchor="middle" x="4405" y="-231.5" font-family="sans" font-size="10.00" fill="#000000">call_strong_escape_sites_Omicron_FLip</text>
</g>
<!-- 50&#45;&gt;52 -->
<g id="edge117" class="edge">
<title>50&#45;&gt;52</title>
<path fill="none" stroke="#c0c0c0" stroke-width="2" d="M4462.5696,-287.8314C4453.268,-279.1337 4441.9796,-268.5783 4431.8714,-259.1265"/>
<polygon fill="#c0c0c0" stroke="#c0c0c0" stroke-width="2" points="4434.1189,-256.4363 4424.4241,-252.1628 4429.3379,-261.5493 4434.1189,-256.4363"/>
</g>
<!-- 50&#45;&gt;54 -->
<g id="edge123" class="edge">
<title>50&#45;&gt;54</title>
<path fill="none" stroke="#c0c0c0" stroke-width="2" d="M4401.8582,-287.9824C4353.1931,-276.2321 4299.0923,-261.3889 4292,-252 4276.4443,-231.4071 4294.498,-205.7343 4313.464,-187.0843"/>
<polygon fill="#c0c0c0" stroke="#c0c0c0" stroke-width="2" points="4316.0691,-189.4404 4320.9885,-180.0569 4311.2912,-184.3245 4316.0691,-189.4404"/>
</g>
<!-- 56 -->
<g id="node57" class="node">
<title>56</title>
<path fill="none" stroke="#56a2d8" stroke-width="2" d="M4664,-252C4664,-252 4540,-252 4540,-252 4534,-252 4528,-246 4528,-240 4528,-240 4528,-228 4528,-228 4528,-222 4534,-216 4540,-216 4540,-216 4664,-216 4664,-216 4670,-216 4676,-222 4676,-228 4676,-228 4676,-240 4676,-240 4676,-246 4670,-252 4664,-252"/>
<text text-anchor="middle" x="4602" y="-231.5" font-family="sans" font-size="10.00" fill="#000000">output_pdbs_Omicron_FLip</text>
</g>
<!-- 50&#45;&gt;56 -->
<g id="edge125" class="edge">
<title>50&#45;&gt;56</title>
<path fill="none" stroke="#c0c0c0" stroke-width="2" d="M4512.2811,-287.8314C4527.6298,-278.6221 4546.4498,-267.3301 4562.8823,-257.4706"/>
<polygon fill="#c0c0c0" stroke="#c0c0c0" stroke-width="2" points="4564.9544,-260.3091 4571.7286,-252.1628 4561.3529,-254.3066 4564.9544,-260.3091"/>
</g>
<!-- 58 -->
<g id="node59" class="node">
<title>58</title>
<path fill="none" stroke="#56d8c1" stroke-width="2" d="M4383.5,-108C4383.5,-108 4236.5,-108 4236.5,-108 4230.5,-108 4224.5,-102 4224.5,-96 4224.5,-96 4224.5,-84 4224.5,-84 4224.5,-78 4230.5,-72 4236.5,-72 4236.5,-72 4383.5,-72 4383.5,-72 4389.5,-72 4395.5,-78 4395.5,-84 4395.5,-84 4395.5,-96 4395.5,-96 4395.5,-102 4389.5,-108 4383.5,-108"/>
<text text-anchor="middle" x="4310" y="-87.5" font-family="sans" font-size="10.00" fill="#000000">make_supp_data_Omicron_FLip</text>
</g>
<!-- 50&#45;&gt;58 -->
<g id="edge129" class="edge">
<title>50&#45;&gt;58</title>
<path fill="none" stroke="#c0c0c0" stroke-width="2" d="M4402.0965,-287.9976C4350.5577,-275.7766 4291.4322,-260.37 4282,-252 4244.8259,-219.012 4233.3619,-189.656 4253,-144 4257.7491,-132.9589 4265.9885,-123.1176 4274.7506,-114.9593"/>
<polygon fill="#c0c0c0" stroke="#c0c0c0" stroke-width="2" points="4277.245,-117.4291 4282.5106,-108.2354 4272.661,-112.1388 4277.245,-117.4291"/>
</g>
<!-- 51&#45;&gt;0 -->
<g id="edge22" class="edge">
<title>51&#45;&gt;0</title>
<path fill="none" stroke="#c0c0c0" stroke-width="2" d="M3765.6348,-215.8025C3800.0426,-183.3547 3861.5461,-114.8959 3821,-72 3789.9817,-39.1841 3124.0931,-23.216 2921.1737,-19.0998"/>
<polygon fill="#c0c0c0" stroke="#c0c0c0" stroke-width="2" points="2921.0832,-15.5974 2911.0149,-18.8959 2920.9426,-22.596 2921.0832,-15.5974"/>
</g>
<!-- 51&#45;&gt;53 -->
<g id="edge119" class="edge">
<title>51&#45;&gt;53</title>
<path fill="none" stroke="#c0c0c0" stroke-width="2" d="M3729.6071,-215.8314C3722.5096,-207.454 3713.952,-197.3531 3706.176,-188.1749"/>
<polygon fill="#c0c0c0" stroke="#c0c0c0" stroke-width="2" points="3708.7348,-185.7807 3699.6001,-180.4133 3703.3939,-190.3056 3708.7348,-185.7807"/>
</g>
<!-- 52&#45;&gt;0 -->
<g id="edge17" class="edge">
<title>52&#45;&gt;0</title>
<path fill="none" stroke="#c0c0c0" stroke-width="2" d="M4418.3562,-215.5137C4424.7508,-205.5235 4431.718,-192.6657 4435,-180 4447.1273,-133.1992 4458.5569,-103.6381 4422,-72 4393.0944,-46.9837 3201.8274,-24.0787 2921.5914,-19.0299"/>
<polygon fill="#c0c0c0" stroke="#c0c0c0" stroke-width="2" points="2921.2987,-15.5242 2911.2375,-18.844 2921.173,-22.523 2921.2987,-15.5242"/>
</g>
<!-- 52&#45;&gt;54 -->
<g id="edge122" class="edge">
<title>52&#45;&gt;54</title>
<path fill="none" stroke="#c0c0c0" stroke-width="2" d="M4389.6071,-215.8314C4382.5096,-207.454 4373.952,-197.3531 4366.176,-188.1749"/>
<polygon fill="#c0c0c0" stroke="#c0c0c0" stroke-width="2" points="4368.7348,-185.7807 4359.6001,-180.4133 4363.3939,-190.3056 4368.7348,-185.7807"/>
</g>
<!-- 53&#45;&gt;0 -->
<g id="edge4" class="edge">
<title>53&#45;&gt;0</title>
<path fill="none" stroke="#c0c0c0" stroke-width="2" d="M3665.71,-143.5869C3640.5661,-118.4742 3597.3607,-76.1102 3588,-72 3527.6416,-45.4969 3082.9716,-26.2883 2921.4344,-20.1187"/>
<polygon fill="#c0c0c0" stroke="#c0c0c0" stroke-width="2" points="2921.3362,-16.6126 2911.2108,-19.7313 2921.071,-23.6076 2921.3362,-16.6126"/>
</g>
<!-- 53&#45;&gt;57 -->
<g id="edge126" class="edge">
<title>53&#45;&gt;57</title>
<path fill="none" stroke="#c0c0c0" stroke-width="2" d="M3694.5984,-143.8314C3699.2877,-135.7925 3704.9028,-126.1666 3710.0798,-117.2918"/>
<polygon fill="#c0c0c0" stroke="#c0c0c0" stroke-width="2" points="3713.2434,-118.8146 3715.2589,-108.4133 3707.1969,-115.2875 3713.2434,-118.8146"/>
</g>
<!-- 54&#45;&gt;0 -->
<g id="edge23" class="edge">
<title>54&#45;&gt;0</title>
<path fill="none" stroke="#c0c0c0" stroke-width="2" d="M4370.7635,-143.7601C4395.7979,-124.5682 4426.3718,-94.1333 4405,-72 4378.7498,-44.8145 3199.9699,-23.5874 2921.5053,-18.9466"/>
<polygon fill="#c0c0c0" stroke="#c0c0c0" stroke-width="2" points="2921.271,-15.4423 2911.2143,-18.7758 2921.1548,-22.4413 2921.271,-15.4423"/>
</g>
<!-- 54&#45;&gt;58 -->
<g id="edge128" class="edge">
<title>54&#45;&gt;58</title>
<path fill="none" stroke="#c0c0c0" stroke-width="2" d="M4335.4204,-143.8314C4331.6642,-135.8771 4327.1743,-126.369 4323.0202,-117.5723"/>
<polygon fill="#c0c0c0" stroke="#c0c0c0" stroke-width="2" points="4326.1301,-115.9612 4318.6952,-108.4133 4319.8004,-118.9503 4326.1301,-115.9612"/>
</g>
<!-- 55&#45;&gt;0 -->
<g id="edge9" class="edge">
<title>55&#45;&gt;0</title>
<path fill="none" stroke="#c0c0c0" stroke-width="2" d="M3970.9795,-215.9664C3952.2934,-180.839 3905.638,-103.8969 3841,-72 3758.6963,-31.3856 3119.6826,-20.869 2921.4484,-18.5704"/>
<polygon fill="#c0c0c0" stroke="#c0c0c0" stroke-width="2" points="2921.2757,-15.0684 2911.2367,-18.4548 2921.1964,-22.0679 2921.2757,-15.0684"/>
</g>
<!-- 56&#45;&gt;0 -->
<g id="edge54" class="edge">
<title>56&#45;&gt;0</title>
<path fill="none" stroke="#c0c0c0" stroke-width="2" d="M4591.4263,-215.7981C4569.6756,-180.3719 4516.105,-102.9248 4447,-72 4411.5112,-56.1186 3203.3155,-26.1723 2921.3951,-19.3896"/>
<polygon fill="#c0c0c0" stroke="#c0c0c0" stroke-width="2" points="2921.4528,-15.89 2911.3716,-19.1488 2921.2846,-22.888 2921.4528,-15.89"/>
</g>
<!-- 57&#45;&gt;0 -->
<g id="edge32" class="edge">
<title>57&#45;&gt;0</title>
<path fill="none" stroke="#c0c0c0" stroke-width="2" d="M3640.4476,-73.9768C3635.5675,-73.2573 3630.726,-72.5908 3626,-72 3364.5379,-39.3121 3050.0088,-24.8551 2921.7509,-20.0055"/>
<polygon fill="#c0c0c0" stroke="#c0c0c0" stroke-width="2" points="2921.5044,-16.494 2911.3809,-19.6191 2921.2436,-23.4892 2921.5044,-16.494"/>
</g>
<!-- 58&#45;&gt;0 -->
<g id="edge47" class="edge">
<title>58&#45;&gt;0</title>
<path fill="none" stroke="#c0c0c0" stroke-width="2" d="M4224.468,-73.8031C4219.5827,-73.1279 4214.7345,-72.5185 4210,-72 3954.5042,-44.0194 3145.8919,-24.302 2921.3415,-19.2653"/>
<polygon fill="#c0c0c0" stroke="#c0c0c0" stroke-width="2" points="2921.1703,-15.7607 2911.0947,-19.0366 2921.014,-22.759 2921.1703,-15.7607"/>
</g>
<!-- 59&#45;&gt;0 -->
<g id="edge60" class="edge">
<title>59&#45;&gt;0</title>
<path fill="none" stroke="#c0c0c0" stroke-width="2" d="M2560.4708,-143.9081C2624.0027,-117.4671 2742.0668,-68.3306 2810.4051,-39.8892"/>
<polygon fill="#c0c0c0" stroke="#c0c0c0" stroke-width="2" points="2811.8195,-43.0916 2819.707,-36.0179 2809.1298,-36.629 2811.8195,-43.0916"/>
</g>
<!-- 60 -->
<g id="node61" class="node">
<title>60</title>
<path fill="none" stroke="#78d856" stroke-width="2" d="M4973.5,-396C4973.5,-396 4770.5,-396 4770.5,-396 4764.5,-396 4758.5,-390 4758.5,-384 4758.5,-384 4758.5,-372 4758.5,-372 4758.5,-366 4764.5,-360 4770.5,-360 4770.5,-360 4973.5,-360 4973.5,-360 4979.5,-360 4985.5,-366 4985.5,-372 4985.5,-372 4985.5,-384 4985.5,-384 4985.5,-390 4979.5,-396 4973.5,-396"/>
<text text-anchor="middle" x="4872" y="-375.5" font-family="sans" font-size="10.00" fill="#000000">aggregate_variant_counts_Omicron_BA286</text>
</g>
<!-- 60&#45;&gt;0 -->
<g id="edge28" class="edge">
<title>60&#45;&gt;0</title>
<path fill="none" stroke="#c0c0c0" stroke-width="2" d="M4811.6024,-359.8966C4793.253,-351.6585 4774.6274,-340.0518 4762,-324 4736.6653,-291.7949 4742,-274.9758 4742,-234 4742,-234 4742,-234 4742,-162 4742,-65.7401 4638.7181,-93.9747 4545,-72 4384.4833,-34.3626 3199.3678,-21.1151 2921.2827,-18.508"/>
<polygon fill="#c0c0c0" stroke="#c0c0c0" stroke-width="2" points="2921.0414,-15.0057 2911.0094,-18.4126 2920.9764,-22.0054 2921.0414,-15.0057"/>
</g>
<!-- 62 -->
<g id="node63" class="node">
<title>62</title>
<path fill="none" stroke="#5663d8" stroke-width="2" d="M4961.5,-324C4961.5,-324 4782.5,-324 4782.5,-324 4776.5,-324 4770.5,-318 4770.5,-312 4770.5,-312 4770.5,-300 4770.5,-300 4770.5,-294 4776.5,-288 4782.5,-288 4782.5,-288 4961.5,-288 4961.5,-288 4967.5,-288 4973.5,-294 4973.5,-300 4973.5,-300 4973.5,-312 4973.5,-312 4973.5,-318 4967.5,-324 4961.5,-324"/>
<text text-anchor="middle" x="4872" y="-303.5" font-family="sans" font-size="10.00" fill="#000000">counts_to_cells_ratio_Omicron_BA286</text>
</g>
<!-- 60&#45;&gt;62 -->
<g id="edge132" class="edge">
<title>60&#45;&gt;62</title>
<path fill="none" stroke="#c0c0c0" stroke-width="2" d="M4872,-359.8314C4872,-352.131 4872,-342.9743 4872,-334.4166"/>
<polygon fill="#c0c0c0" stroke="#c0c0c0" stroke-width="2" points="4875.5001,-334.4132 4872,-324.4133 4868.5001,-334.4133 4875.5001,-334.4132"/>
</g>
<!-- 63 -->
<g id="node64" class="node">
<title>63</title>
<path fill="none" stroke="#56d8a2" stroke-width="2" d="M5164,-324C5164,-324 5004,-324 5004,-324 4998,-324 4992,-318 4992,-312 4992,-312 4992,-300 4992,-300 4992,-294 4998,-288 5004,-288 5004,-288 5164,-288 5164,-288 5170,-288 5176,-294 5176,-300 5176,-300 5176,-312 5176,-312 5176,-318 5170,-324 5164,-324"/>
<text text-anchor="middle" x="5084" y="-303.5" font-family="sans" font-size="10.00" fill="#000000">counts_to_scores_Omicron_BA286</text>
</g>
<!-- 60&#45;&gt;63 -->
<g id="edge133" class="edge">
<title>60&#45;&gt;63</title>
<path fill="none" stroke="#c0c0c0" stroke-width="2" d="M4925.2229,-359.9243C4954.3306,-350.0387 4990.5666,-337.7321 5021.0694,-327.3726"/>
<polygon fill="#c0c0c0" stroke="#c0c0c0" stroke-width="2" points="5022.4119,-330.6131 5030.7552,-324.0831 5020.1608,-323.9849 5022.4119,-330.6131"/>
</g>
<!-- 61 -->
<g id="node62" class="node">
<title>61</title>
<path fill="none" stroke="#56d8d8" stroke-width="2" d="M4946,-468C4946,-468 4798,-468 4798,-468 4792,-468 4786,-462 4786,-456 4786,-456 4786,-444 4786,-444 4786,-438 4792,-432 4798,-432 4798,-432 4946,-432 4946,-432 4952,-432 4958,-438 4958,-444 4958,-444 4958,-456 4958,-456 4958,-462 4952,-468 4946,-468"/>
<text text-anchor="middle" x="4872" y="-447.5" font-family="sans" font-size="10.00" fill="#000000">count_variants_Omicron_BA286</text>
</g>
<!-- 61&#45;&gt;60 -->
<g id="edge131" class="edge">
<title>61&#45;&gt;60</title>
<path fill="none" stroke="#c0c0c0" stroke-width="2" d="M4872,-431.8314C4872,-424.131 4872,-414.9743 4872,-406.4166"/>
<polygon fill="#c0c0c0" stroke="#c0c0c0" stroke-width="2" points="4875.5001,-406.4132 4872,-396.4133 4868.5001,-406.4133 4875.5001,-406.4132"/>
</g>
<!-- 62&#45;&gt;0 -->
<g id="edge61" class="edge">
<title>62&#45;&gt;0</title>
<path fill="none" stroke="#c0c0c0" stroke-width="2" d="M4858.8737,-287.9893C4851.673,-277.7134 4842.8451,-264.4377 4836,-252 4793.7895,-175.3027 4828.7185,-120.7465 4756,-72 4716.9512,-45.8238 3235.8972,-23.307 2921.3435,-18.8141"/>
<polygon fill="#c0c0c0" stroke="#c0c0c0" stroke-width="2" points="2921.1295,-15.3108 2911.0806,-18.668 2921.0298,-22.31 2921.1295,-15.3108"/>
</g>
<!-- 63&#45;&gt;0 -->
<g id="edge41" class="edge">
<title>63&#45;&gt;0</title>
<path fill="none" stroke="#c0c0c0" stroke-width="2" d="M5176.0698,-294.0049C5226.4506,-285.3466 5281.6842,-271.6832 5297,-252 5388.198,-134.7962 5438.5882,-185.5557 5086,-72 4980.0735,-37.885 3261.0622,-21.4131 2921.1333,-18.4814"/>
<polygon fill="#c0c0c0" stroke="#c0c0c0" stroke-width="2" points="2921.0452,-14.9806 2911.0156,-18.3946 2920.9851,-21.9804 2921.0452,-14.9806"/>
</g>
<!-- 64 -->
<g id="node65" class="node">
<title>64</title>
<path fill="none" stroke="#56d0d8" stroke-width="2" d="M5097.5,-252C5097.5,-252 4900.5,-252 4900.5,-252 4894.5,-252 4888.5,-246 4888.5,-240 4888.5,-240 4888.5,-228 4888.5,-228 4888.5,-222 4894.5,-216 4900.5,-216 4900.5,-216 5097.5,-216 5097.5,-216 5103.5,-216 5109.5,-222 5109.5,-228 5109.5,-228 5109.5,-240 5109.5,-240 5109.5,-246 5103.5,-252 5097.5,-252"/>
<text text-anchor="middle" x="4999" y="-231.5" font-family="sans" font-size="10.00" fill="#000000">call_strong_escape_sites_Omicron_BA286</text>
</g>
<!-- 63&#45;&gt;64 -->
<g id="edge134" class="edge">
<title>63&#45;&gt;64</title>
<path fill="none" stroke="#c0c0c0" stroke-width="2" d="M5062.5509,-287.8314C5052.1822,-279.0485 5039.5771,-268.3712 5028.3354,-258.8489"/>
<polygon fill="#c0c0c0" stroke="#c0c0c0" stroke-width="2" points="5030.3349,-255.9556 5020.4422,-252.1628 5025.8105,-261.297 5030.3349,-255.9556"/>
</g>
<!-- 63&#45;&gt;65 -->
<g id="edge137" class="edge">
<title>63&#45;&gt;65</title>
<path fill="none" stroke="#c0c0c0" stroke-width="2" d="M4996.2724,-287.9709C4944.4875,-276.4404 4887.584,-261.8527 4880,-252 4863.7419,-230.8784 4883.8934,-205.182 4904.7676,-186.6622"/>
<polygon fill="#c0c0c0" stroke="#c0c0c0" stroke-width="2" points="4907.05,-189.3159 4912.4248,-180.1856 4902.5294,-183.9713 4907.05,-189.3159"/>
</g>
<!-- 66 -->
<g id="node67" class="node">
<title>66</title>
<path fill="none" stroke="#56d86b" stroke-width="2" d="M5276,-252C5276,-252 5140,-252 5140,-252 5134,-252 5128,-246 5128,-240 5128,-240 5128,-228 5128,-228 5128,-222 5134,-216 5140,-216 5140,-216 5276,-216 5276,-216 5282,-216 5288,-222 5288,-228 5288,-228 5288,-240 5288,-240 5288,-246 5282,-252 5276,-252"/>
<text text-anchor="middle" x="5208" y="-231.5" font-family="sans" font-size="10.00" fill="#000000">output_pdbs_Omicron_BA286</text>
</g>
<!-- 63&#45;&gt;66 -->
<g id="edge138" class="edge">
<title>63&#45;&gt;66</title>
<path fill="none" stroke="#c0c0c0" stroke-width="2" d="M5115.2904,-287.8314C5131.2977,-278.5368 5150.9586,-267.1208 5168.0494,-257.1971"/>
<polygon fill="#c0c0c0" stroke="#c0c0c0" stroke-width="2" points="5169.8292,-260.211 5176.7196,-252.1628 5166.3142,-254.1575 5169.8292,-260.211"/>
</g>
<!-- 67 -->
<g id="node68" class="node">
<title>67</title>
<path fill="none" stroke="#d87556" stroke-width="2" d="M4979.5,-108C4979.5,-108 4820.5,-108 4820.5,-108 4814.5,-108 4808.5,-102 4808.5,-96 4808.5,-96 4808.5,-84 4808.5,-84 4808.5,-78 4814.5,-72 4820.5,-72 4820.5,-72 4979.5,-72 4979.5,-72 4985.5,-72 4991.5,-78 4991.5,-84 4991.5,-84 4991.5,-96 4991.5,-96 4991.5,-102 4985.5,-108 4979.5,-108"/>
<text text-anchor="middle" x="4900" y="-87.5" font-family="sans" font-size="10.00" fill="#000000">make_supp_data_Omicron_BA286</text>
</g>
<!-- 63&#45;&gt;67 -->
<g id="edge139" class="edge">
<title>63&#45;&gt;67</title>
<path fill="none" stroke="#c0c0c0" stroke-width="2" d="M4997.0455,-287.9582C4942.2604,-275.9228 4880.0321,-260.7552 4870,-252 4832.5544,-219.3205 4820.97,-189.4854 4841,-144 4845.984,-132.6819 4854.6412,-122.7031 4863.8125,-114.5015"/>
<polygon fill="#c0c0c0" stroke="#c0c0c0" stroke-width="2" points="4866.1256,-117.13 4871.568,-108.0399 4861.6448,-111.752 4866.1256,-117.13"/>
</g>
<!-- 64&#45;&gt;0 -->
<g id="edge49" class="edge">
<title>64&#45;&gt;0</title>
<path fill="none" stroke="#c0c0c0" stroke-width="2" d="M5014.9905,-215.9169C5022.6538,-206.0371 5031.0166,-193.1563 5035,-180 5049.0809,-133.4939 5055.7221,-102.6289 5018,-72 4976.1244,-37.9986 3260.9477,-21.4356 2921.1494,-18.4848"/>
<polygon fill="#c0c0c0" stroke="#c0c0c0" stroke-width="2" points="2921.0645,-14.984 2911.0346,-18.3974 2921.004,-21.9837 2921.0645,-14.984"/>
</g>
<!-- 64&#45;&gt;65 -->
<g id="edge136" class="edge">
<title>64&#45;&gt;65</title>
<path fill="none" stroke="#c0c0c0" stroke-width="2" d="M4983.6071,-215.8314C4976.5096,-207.454 4967.952,-197.3531 4960.176,-188.1749"/>
<polygon fill="#c0c0c0" stroke="#c0c0c0" stroke-width="2" points="4962.7348,-185.7807 4953.6001,-180.4133 4957.3939,-190.3056 4962.7348,-185.7807"/>
</g>
<!-- 65&#45;&gt;0 -->
<g id="edge50" class="edge">
<title>65&#45;&gt;0</title>
<path fill="none" stroke="#c0c0c0" stroke-width="2" d="M4965.495,-143.8097C4991.2282,-124.6593 5022.7036,-94.2587 5001,-72 4963.6493,-33.694 3259.553,-20.5868 2921.0863,-18.3592"/>
<polygon fill="#c0c0c0" stroke="#c0c0c0" stroke-width="2" points="2921.0324,-14.8589 2911.0098,-18.2935 2920.9867,-21.8588 2921.0324,-14.8589"/>
</g>
<!-- 65&#45;&gt;67 -->
<g id="edge140" class="edge">
<title>65&#45;&gt;67</title>
<path fill="none" stroke="#c0c0c0" stroke-width="2" d="M4928.411,-143.8314C4924.1683,-135.7925 4919.0879,-126.1666 4914.404,-117.2918"/>
<polygon fill="#c0c0c0" stroke="#c0c0c0" stroke-width="2" points="4917.4811,-115.6235 4909.7181,-108.4133 4911.2904,-118.8908 4917.4811,-115.6235"/>
</g>
<!-- 66&#45;&gt;0 -->
<g id="edge38" class="edge">
<title>66&#45;&gt;0</title>
<path fill="none" stroke="#c0c0c0" stroke-width="2" d="M5196.7361,-215.9905C5173.3817,-180.5467 5115.8193,-102.5349 5044,-72 4943.629,-29.326 3257.8483,-19.7269 2921.2167,-18.2323"/>
<polygon fill="#c0c0c0" stroke="#c0c0c0" stroke-width="2" points="2921.207,-14.7323 2911.1918,-18.1884 2921.1763,-21.7322 2921.207,-14.7323"/>
</g>
<!-- 67&#45;&gt;0 -->
<g id="edge10" class="edge">
<title>67&#45;&gt;0</title>
<path fill="none" stroke="#c0c0c0" stroke-width="2" d="M4808.4666,-73.6338C4803.5821,-73.018 4798.737,-72.4661 4794,-72 4417.1058,-34.9144 3202.3227,-21.2355 2921.375,-18.5275"/>
<polygon fill="#c0c0c0" stroke="#c0c0c0" stroke-width="2" points="2921.0372,-15.0242 2911.0042,-18.4285 2920.9703,-22.0239 2921.0372,-15.0242"/>
</g>
<!-- 68 -->
<g id="node69" class="node">
<title>68</title>
<path fill="none" stroke="#61d856" stroke-width="2" d="M1386,-180C1386,-180 1288,-180 1288,-180 1282,-180 1276,-174 1276,-168 1276,-168 1276,-156 1276,-156 1276,-150 1282,-144 1288,-144 1288,-144 1386,-144 1386,-144 1392,-144 1398,-150 1398,-156 1398,-156 1398,-168 1398,-168 1398,-174 1392,-180 1386,-180"/>
<text text-anchor="middle" x="1337" y="-159.5" font-family="sans" font-size="10.00" fill="#000000">gisaid_rbd_mutations</text>
</g>
<!-- 68&#45;&gt;0 -->
<g id="edge33" class="edge">
<title>68&#45;&gt;0</title>
<path fill="none" stroke="#c0c0c0" stroke-width="2" d="M1348.5431,-143.8253C1363.4473,-122.2007 1391.602,-87.1255 1426,-72 1490.0276,-43.8457 2543.4287,-23.5982 2804.7113,-18.9933"/>
<polygon fill="#c0c0c0" stroke="#c0c0c0" stroke-width="2" points="2804.8178,-22.492 2814.7549,-18.8171 2804.695,-15.4931 2804.8178,-22.492"/>
</g>
<!-- 68&#45;&gt;69 -->
<g id="edge141" class="edge">
<title>68&#45;&gt;69</title>
<path fill="none" stroke="#c0c0c0" stroke-width="2" d="M1330.4391,-143.8314C1327.5973,-135.9617 1324.2063,-126.5712 1321.0581,-117.8533"/>
<polygon fill="#c0c0c0" stroke="#c0c0c0" stroke-width="2" points="1324.3377,-116.63 1317.6492,-108.4133 1317.7538,-119.0076 1324.3377,-116.63"/>
</g>
<!-- 69&#45;&gt;0 -->
<g id="edge34" class="edge">
<title>69&#45;&gt;0</title>
<path fill="none" stroke="#c0c0c0" stroke-width="2" d="M1352.1253,-75.1698C1356.7592,-73.9101 1361.4499,-72.81 1366,-72 1509.237,-46.5014 2545.8838,-24.3201 2804.6125,-19.1396"/>
<polygon fill="#c0c0c0" stroke="#c0c0c0" stroke-width="2" points="2804.9905,-22.6328 2814.9187,-18.934 2804.8508,-15.6342 2804.9905,-22.6328"/>
</g>
</g>
</svg>
