<?xml version="1.0" encoding="UTF-8" standalone="no"?>
<!DOCTYPE svg PUBLIC "-//W3C//DTD SVG 1.1//EN"
 "http://www.w3.org/Graphics/SVG/1.1/DTD/svg11.dtd">
<!-- Generated by graphviz version 2.40.1 (0)
 -->
<!-- Title: snakemake_dag Pages: 1 -->
<svg width="5272pt" height="476pt"
 viewBox="0.00 0.00 5271.51 476.00" xmlns="http://www.w3.org/2000/svg" xmlns:xlink="http://www.w3.org/1999/xlink">
<g id="graph0" class="graph" transform="scale(1 1) rotate(0) translate(4 472)">
<title>snakemake_dag</title>
<polygon fill="#ffffff" stroke="transparent" points="-4,4 -4,-472 5267.5126,-472 5267.5126,4 -4,4"/>
<!-- 0 -->
<g id="node1" class="node">
<title>0</title>
<path fill="none" stroke="#61d856" stroke-width="2" d="M2752.5,-36C2752.5,-36 2680.5,-36 2680.5,-36 2674.5,-36 2668.5,-30 2668.5,-24 2668.5,-24 2668.5,-12 2668.5,-12 2668.5,-6 2674.5,0 2680.5,0 2680.5,0 2752.5,0 2752.5,0 2758.5,0 2764.5,-6 2764.5,-12 2764.5,-12 2764.5,-24 2764.5,-24 2764.5,-30 2758.5,-36 2752.5,-36"/>
<text text-anchor="middle" x="2716.5" y="-15.5" font-family="sans" font-size="10.00" fill="#000000">make_summary</text>
</g>
<!-- 1 -->
<g id="node2" class="node">
<title>1</title>
<path fill="none" stroke="#56d8c1" stroke-width="2" d="M107.5,-180C107.5,-180 35.5,-180 35.5,-180 29.5,-180 23.5,-174 23.5,-168 23.5,-168 23.5,-156 23.5,-156 23.5,-150 29.5,-144 35.5,-144 35.5,-144 107.5,-144 107.5,-144 113.5,-144 119.5,-150 119.5,-156 119.5,-156 119.5,-168 119.5,-168 119.5,-174 113.5,-180 107.5,-180"/>
<text text-anchor="middle" x="71.5" y="-159.5" font-family="sans" font-size="10.00" fill="#000000">make_rulegraph</text>
</g>
<!-- 1&#45;&gt;0 -->
<g id="edge41" class="edge">
<title>1&#45;&gt;0</title>
<path fill="none" stroke="#c0c0c0" stroke-width="2" d="M85.2414,-143.7884C103.7889,-119.7998 136.4686,-79.7383 153.5,-72 212.4303,-45.2246 2281.8413,-22.5091 2658.1154,-18.5953"/>
<polygon fill="#c0c0c0" stroke="#c0c0c0" stroke-width="2" points="2658.2743,-22.094 2668.2375,-18.4903 2658.2017,-15.0944 2658.2743,-22.094"/>
</g>
<!-- 2 -->
<g id="node3" class="node">
<title>2</title>
<path fill="none" stroke="#567bd8" stroke-width="2" d="M89,-108C89,-108 12,-108 12,-108 6,-108 0,-102 0,-96 0,-96 0,-84 0,-84 0,-78 6,-72 12,-72 12,-72 89,-72 89,-72 95,-72 101,-78 101,-84 101,-84 101,-96 101,-96 101,-102 95,-108 89,-108"/>
<text text-anchor="middle" x="50.5" y="-87.5" font-family="sans" font-size="10.00" fill="#000000">save_pinned_env</text>
</g>
<!-- 1&#45;&gt;2 -->
<g id="edge62" class="edge">
<title>1&#45;&gt;2</title>
<path fill="none" stroke="#c0c0c0" stroke-width="2" d="M66.2008,-143.8314C63.9302,-136.0463 61.2254,-126.7729 58.706,-118.1347"/>
<polygon fill="#c0c0c0" stroke="#c0c0c0" stroke-width="2" points="62.0306,-117.0332 55.8705,-108.4133 55.3106,-118.9933 62.0306,-117.0332"/>
</g>
<!-- 2&#45;&gt;0 -->
<g id="edge57" class="edge">
<title>2&#45;&gt;0</title>
<path fill="none" stroke="#c0c0c0" stroke-width="2" d="M101.3375,-74.6309C106.0927,-73.5851 110.8657,-72.6789 115.5,-72 374.4469,-34.0668 2296.5675,-20.5571 2657.9994,-18.3401"/>
<polygon fill="#c0c0c0" stroke="#c0c0c0" stroke-width="2" points="2658.2557,-21.8387 2668.2342,-18.2777 2658.213,-14.8388 2658.2557,-21.8387"/>
</g>
<!-- 3 -->
<g id="node4" class="node">
<title>3</title>
<path fill="none" stroke="#56b1d8" stroke-width="2" d="M2379.5,-252C2379.5,-252 2293.5,-252 2293.5,-252 2287.5,-252 2281.5,-246 2281.5,-240 2281.5,-240 2281.5,-228 2281.5,-228 2281.5,-222 2287.5,-216 2293.5,-216 2293.5,-216 2379.5,-216 2379.5,-216 2385.5,-216 2391.5,-222 2391.5,-228 2391.5,-228 2391.5,-240 2391.5,-240 2391.5,-246 2385.5,-252 2379.5,-252"/>
<text text-anchor="middle" x="2336.5" y="-231.5" font-family="sans" font-size="10.00" fill="#000000">get_mut_bind_expr</text>
</g>
<!-- 3&#45;&gt;0 -->
<g id="edge50" class="edge">
<title>3&#45;&gt;0</title>
<path fill="none" stroke="#c0c0c0" stroke-width="2" d="M2281.3914,-223.5871C2253.6301,-215.793 2221.3226,-202.4631 2199.5,-180 2165.0977,-144.588 2140.3615,-108.5975 2173.5,-72 2205.571,-36.5814 2524.3206,-23.4506 2657.9897,-19.4758"/>
<polygon fill="#c0c0c0" stroke="#c0c0c0" stroke-width="2" points="2658.1575,-22.9725 2668.0516,-19.1835 2657.9542,-15.9754 2658.1575,-22.9725"/>
</g>
<!-- 5 -->
<g id="node6" class="node">
<title>5</title>
<path fill="none" stroke="#5673d8" stroke-width="2" d="M2337,-108C2337,-108 2194,-108 2194,-108 2188,-108 2182,-102 2182,-96 2182,-96 2182,-84 2182,-84 2182,-78 2188,-72 2194,-72 2194,-72 2337,-72 2337,-72 2343,-72 2349,-78 2349,-84 2349,-84 2349,-96 2349,-96 2349,-102 2343,-108 2337,-108"/>
<text text-anchor="middle" x="2265.5" y="-87.5" font-family="sans" font-size="10.00" fill="#000000">bind_expr_filters_Wuhan_Hu_1</text>
</g>
<!-- 3&#45;&gt;5 -->
<g id="edge63" class="edge">
<title>3&#45;&gt;5</title>
<path fill="none" stroke="#c0c0c0" stroke-width="2" d="M2281.4662,-225.0511C2254.9823,-217.6761 2225.5595,-204.2794 2209.5,-180 2200.6731,-166.6551 2203.243,-158.7258 2209.5,-144 2214.1979,-132.9437 2222.3914,-123.0516 2231.0843,-114.8494"/>
<polygon fill="#c0c0c0" stroke="#c0c0c0" stroke-width="2" points="2233.5754,-117.3197 2238.7769,-108.0896 2228.9547,-112.0614 2233.5754,-117.3197"/>
</g>
<!-- 6 -->
<g id="node7" class="node">
<title>6</title>
<path fill="none" stroke="#d8bc56" stroke-width="2" d="M2565,-108C2565,-108 2420,-108 2420,-108 2414,-108 2408,-102 2408,-96 2408,-96 2408,-84 2408,-84 2408,-78 2414,-72 2420,-72 2420,-72 2565,-72 2565,-72 2571,-72 2577,-78 2577,-84 2577,-84 2577,-96 2577,-96 2577,-102 2571,-108 2565,-108"/>
<text text-anchor="middle" x="2492.5" y="-87.5" font-family="sans" font-size="10.00" fill="#000000">bind_expr_filters_Omicron_BA2</text>
</g>
<!-- 3&#45;&gt;6 -->
<g id="edge64" class="edge">
<title>3&#45;&gt;6</title>
<path fill="none" stroke="#c0c0c0" stroke-width="2" d="M2284.3838,-215.8022C2268.3972,-207.4867 2252.6289,-195.8568 2243.5,-180 2235.5171,-166.1337 2233.4565,-156.4551 2243.5,-144 2253.5361,-131.5541 2331.6553,-115.9427 2397.7555,-104.7108"/>
<polygon fill="#c0c0c0" stroke="#c0c0c0" stroke-width="2" points="2398.5483,-108.1268 2407.8294,-103.0167 2397.3874,-101.2237 2398.5483,-108.1268"/>
</g>
<!-- 17 -->
<g id="node18" class="node">
<title>17</title>
<path fill="none" stroke="#d87556" stroke-width="2" d="M611,-180C611,-180 474,-180 474,-180 468,-180 462,-174 462,-168 462,-168 462,-156 462,-156 462,-150 468,-144 474,-144 474,-144 611,-144 611,-144 617,-144 623,-150 623,-156 623,-156 623,-168 623,-168 623,-174 617,-180 611,-180"/>
<text text-anchor="middle" x="542.5" y="-159.5" font-family="sans" font-size="10.00" fill="#000000">escape_profiles_Wuhan_Hu_1</text>
</g>
<!-- 3&#45;&gt;17 -->
<g id="edge75" class="edge">
<title>3&#45;&gt;17</title>
<path fill="none" stroke="#c0c0c0" stroke-width="2" d="M2281.285,-228.8963C2235.5569,-224.8394 2168.8562,-219.3131 2110.5,-216 1639.8752,-189.2805 1521.5992,-196.346 1050.5,-180 904.478,-174.9334 734.8522,-168.8915 633.2292,-165.255"/>
<polygon fill="#c0c0c0" stroke="#c0c0c0" stroke-width="2" points="633.1221,-161.749 623.0033,-164.889 632.8717,-168.7446 633.1221,-161.749"/>
</g>
<!-- 18 -->
<g id="node19" class="node">
<title>18</title>
<path fill="none" stroke="#8fd856" stroke-width="2" d="M1491.5,-180C1491.5,-180 1351.5,-180 1351.5,-180 1345.5,-180 1339.5,-174 1339.5,-168 1339.5,-168 1339.5,-156 1339.5,-156 1339.5,-150 1345.5,-144 1351.5,-144 1351.5,-144 1491.5,-144 1491.5,-144 1497.5,-144 1503.5,-150 1503.5,-156 1503.5,-156 1503.5,-168 1503.5,-168 1503.5,-174 1497.5,-180 1491.5,-180"/>
<text text-anchor="middle" x="1421.5" y="-159.5" font-family="sans" font-size="10.00" fill="#000000">escape_profiles_Omicron_BA2</text>
</g>
<!-- 3&#45;&gt;18 -->
<g id="edge77" class="edge">
<title>3&#45;&gt;18</title>
<path fill="none" stroke="#c0c0c0" stroke-width="2" d="M2281.2386,-229.5791C2235.4834,-225.9233 2168.7685,-220.6038 2110.5,-216 1896.8762,-199.1215 1645.9772,-179.5112 1513.7854,-169.1956"/>
<polygon fill="#c0c0c0" stroke="#c0c0c0" stroke-width="2" points="1513.9402,-165.6971 1503.6982,-168.4085 1513.3956,-172.6759 1513.9402,-165.6971"/>
</g>
<!-- 23 -->
<g id="node24" class="node">
<title>23</title>
<path fill="none" stroke="#56d8a9" stroke-width="2" d="M2989.5,-180C2989.5,-180 2837.5,-180 2837.5,-180 2831.5,-180 2825.5,-174 2825.5,-168 2825.5,-168 2825.5,-156 2825.5,-156 2825.5,-150 2831.5,-144 2837.5,-144 2837.5,-144 2989.5,-144 2989.5,-144 2995.5,-144 3001.5,-150 3001.5,-156 3001.5,-156 3001.5,-168 3001.5,-168 3001.5,-174 2995.5,-180 2989.5,-180"/>
<text text-anchor="middle" x="2913.5" y="-159.5" font-family="sans" font-size="10.00" fill="#000000">bind_expr_filters_Omicron_BQ11</text>
</g>
<!-- 3&#45;&gt;23 -->
<g id="edge85" class="edge">
<title>3&#45;&gt;23</title>
<path fill="none" stroke="#c0c0c0" stroke-width="2" d="M2391.7374,-229.0799C2479.3704,-220.9898 2655.8305,-203.543 2815.266,-180.13"/>
<polygon fill="#c0c0c0" stroke="#c0c0c0" stroke-width="2" points="2815.8771,-183.5778 2825.257,-178.6516 2814.8524,-176.6532 2815.8771,-183.5778"/>
</g>
<!-- 24 -->
<g id="node25" class="node">
<title>24</title>
<path fill="none" stroke="#70d856" stroke-width="2" d="M2107.5,-180C2107.5,-180 1949.5,-180 1949.5,-180 1943.5,-180 1937.5,-174 1937.5,-168 1937.5,-168 1937.5,-156 1937.5,-156 1937.5,-150 1943.5,-144 1949.5,-144 1949.5,-144 2107.5,-144 2107.5,-144 2113.5,-144 2119.5,-150 2119.5,-156 2119.5,-156 2119.5,-168 2119.5,-168 2119.5,-174 2113.5,-180 2107.5,-180"/>
<text text-anchor="middle" x="2028.5" y="-159.5" font-family="sans" font-size="10.00" fill="#000000">bind_expr_filters_Omicron_XBB15</text>
</g>
<!-- 3&#45;&gt;24 -->
<g id="edge86" class="edge">
<title>3&#45;&gt;24</title>
<path fill="none" stroke="#c0c0c0" stroke-width="2" d="M2281.4358,-221.1278C2235.3373,-210.3516 2168.728,-194.7806 2115.4351,-182.3225"/>
<polygon fill="#c0c0c0" stroke="#c0c0c0" stroke-width="2" points="2116.1812,-178.9026 2105.647,-180.0344 2114.5878,-185.7189 2116.1812,-178.9026"/>
</g>
<!-- 35 -->
<g id="node36" class="node">
<title>35</title>
<path fill="none" stroke="#68d856" stroke-width="2" d="M1831.5,-180C1831.5,-180 1685.5,-180 1685.5,-180 1679.5,-180 1673.5,-174 1673.5,-168 1673.5,-168 1673.5,-156 1673.5,-156 1673.5,-150 1679.5,-144 1685.5,-144 1685.5,-144 1831.5,-144 1831.5,-144 1837.5,-144 1843.5,-150 1843.5,-156 1843.5,-156 1843.5,-168 1843.5,-168 1843.5,-174 1837.5,-180 1831.5,-180"/>
<text text-anchor="middle" x="1758.5" y="-159.5" font-family="sans" font-size="10.00" fill="#000000">escape_profiles_Omicron_BQ11</text>
</g>
<!-- 3&#45;&gt;35 -->
<g id="edge96" class="edge">
<title>3&#45;&gt;35</title>
<path fill="none" stroke="#c0c0c0" stroke-width="2" d="M2281.3408,-227.129C2182.8096,-214.8552 1975.4896,-189.0298 1853.5976,-173.8461"/>
<polygon fill="#c0c0c0" stroke="#c0c0c0" stroke-width="2" points="1853.8804,-170.3543 1843.5244,-172.5913 1853.0151,-177.3006 1853.8804,-170.3543"/>
</g>
<!-- 36 -->
<g id="node37" class="node">
<title>36</title>
<path fill="none" stroke="#d8b456" stroke-width="2" d="M3335.5,-180C3335.5,-180 3183.5,-180 3183.5,-180 3177.5,-180 3171.5,-174 3171.5,-168 3171.5,-168 3171.5,-156 3171.5,-156 3171.5,-150 3177.5,-144 3183.5,-144 3183.5,-144 3335.5,-144 3335.5,-144 3341.5,-144 3347.5,-150 3347.5,-156 3347.5,-156 3347.5,-168 3347.5,-168 3347.5,-174 3341.5,-180 3335.5,-180"/>
<text text-anchor="middle" x="3259.5" y="-159.5" font-family="sans" font-size="10.00" fill="#000000">escape_profiles_Omicron_XBB15</text>
</g>
<!-- 3&#45;&gt;36 -->
<g id="edge100" class="edge">
<title>3&#45;&gt;36</title>
<path fill="none" stroke="#c0c0c0" stroke-width="2" d="M2391.816,-229.685C2543.5053,-217.8522 2967.5918,-184.7707 3161.0504,-169.6797"/>
<polygon fill="#c0c0c0" stroke="#c0c0c0" stroke-width="2" points="3161.513,-173.1543 3171.2105,-168.8872 3160.9685,-166.1755 3161.513,-173.1543"/>
</g>
<!-- 41 -->
<g id="node42" class="node">
<title>41</title>
<path fill="none" stroke="#5663d8" stroke-width="2" d="M2409,-180C2409,-180 2264,-180 2264,-180 2258,-180 2252,-174 2252,-168 2252,-168 2252,-156 2252,-156 2252,-150 2258,-144 2264,-144 2264,-144 2409,-144 2409,-144 2415,-144 2421,-150 2421,-156 2421,-156 2421,-168 2421,-168 2421,-174 2415,-180 2409,-180"/>
<text text-anchor="middle" x="2336.5" y="-159.5" font-family="sans" font-size="10.00" fill="#000000">bind_expr_filters_Omicron_EG5</text>
</g>
<!-- 3&#45;&gt;41 -->
<g id="edge107" class="edge">
<title>3&#45;&gt;41</title>
<path fill="none" stroke="#c0c0c0" stroke-width="2" d="M2336.5,-215.8314C2336.5,-208.131 2336.5,-198.9743 2336.5,-190.4166"/>
<polygon fill="#c0c0c0" stroke="#c0c0c0" stroke-width="2" points="2340.0001,-190.4132 2336.5,-180.4133 2333.0001,-190.4133 2340.0001,-190.4132"/>
</g>
<!-- 42 -->
<g id="node43" class="node">
<title>42</title>
<path fill="none" stroke="#d6d856" stroke-width="2" d="M2596,-180C2596,-180 2451,-180 2451,-180 2445,-180 2439,-174 2439,-168 2439,-168 2439,-156 2439,-156 2439,-150 2445,-144 2451,-144 2451,-144 2596,-144 2596,-144 2602,-144 2608,-150 2608,-156 2608,-156 2608,-168 2608,-168 2608,-174 2602,-180 2596,-180"/>
<text text-anchor="middle" x="2523.5" y="-159.5" font-family="sans" font-size="10.00" fill="#000000">bind_expr_filters_Omicron_FLip</text>
</g>
<!-- 3&#45;&gt;42 -->
<g id="edge108" class="edge">
<title>3&#45;&gt;42</title>
<path fill="none" stroke="#c0c0c0" stroke-width="2" d="M2383.688,-215.8314C2409.0316,-206.0734 2440.4485,-193.977 2467.0774,-183.7242"/>
<polygon fill="#c0c0c0" stroke="#c0c0c0" stroke-width="2" points="2468.5768,-186.8974 2476.6513,-180.038 2466.0615,-180.3649 2468.5768,-186.8974"/>
</g>
<!-- 53 -->
<g id="node54" class="node">
<title>53</title>
<path fill="none" stroke="#569ad8" stroke-width="2" d="M3677.5,-180C3677.5,-180 3537.5,-180 3537.5,-180 3531.5,-180 3525.5,-174 3525.5,-168 3525.5,-168 3525.5,-156 3525.5,-156 3525.5,-150 3531.5,-144 3537.5,-144 3537.5,-144 3677.5,-144 3677.5,-144 3683.5,-144 3689.5,-150 3689.5,-156 3689.5,-156 3689.5,-168 3689.5,-168 3689.5,-174 3683.5,-180 3677.5,-180"/>
<text text-anchor="middle" x="3607.5" y="-159.5" font-family="sans" font-size="10.00" fill="#000000">escape_profiles_Omicron_EG5</text>
</g>
<!-- 3&#45;&gt;53 -->
<g id="edge117" class="edge">
<title>3&#45;&gt;53</title>
<path fill="none" stroke="#c0c0c0" stroke-width="2" d="M2391.5281,-231.4493C2544.5572,-224.2776 2988.1438,-202.9566 3356.5,-180 3409.0052,-176.7278 3467.6498,-172.5514 3515.0416,-169.0454"/>
<polygon fill="#c0c0c0" stroke="#c0c0c0" stroke-width="2" points="3515.5717,-172.5158 3525.2851,-168.2851 3515.0535,-165.535 3515.5717,-172.5158"/>
</g>
<!-- 54 -->
<g id="node55" class="node">
<title>54</title>
<path fill="none" stroke="#568ad8" stroke-width="2" d="M4337.5,-180C4337.5,-180 4197.5,-180 4197.5,-180 4191.5,-180 4185.5,-174 4185.5,-168 4185.5,-168 4185.5,-156 4185.5,-156 4185.5,-150 4191.5,-144 4197.5,-144 4197.5,-144 4337.5,-144 4337.5,-144 4343.5,-144 4349.5,-150 4349.5,-156 4349.5,-156 4349.5,-168 4349.5,-168 4349.5,-174 4343.5,-180 4337.5,-180"/>
<text text-anchor="middle" x="4267.5" y="-159.5" font-family="sans" font-size="10.00" fill="#000000">escape_profiles_Omicron_FLip</text>
</g>
<!-- 3&#45;&gt;54 -->
<g id="edge121" class="edge">
<title>3&#45;&gt;54</title>
<path fill="none" stroke="#c0c0c0" stroke-width="2" d="M2391.6935,-231.942C2660.7373,-221.9104 3835.508,-178.1074 4175.1946,-165.4417"/>
<polygon fill="#c0c0c0" stroke="#c0c0c0" stroke-width="2" points="4175.3777,-168.9374 4185.2403,-165.0672 4175.1168,-161.9423 4175.3777,-168.9374"/>
</g>
<!-- 59 -->
<g id="node60" class="node">
<title>59</title>
<path fill="none" stroke="#5682d8" stroke-width="2" d="M2795,-180C2795,-180 2638,-180 2638,-180 2632,-180 2626,-174 2626,-168 2626,-168 2626,-156 2626,-156 2626,-150 2632,-144 2638,-144 2638,-144 2795,-144 2795,-144 2801,-144 2807,-150 2807,-156 2807,-156 2807,-168 2807,-168 2807,-174 2801,-180 2795,-180"/>
<text text-anchor="middle" x="2716.5" y="-159.5" font-family="sans" font-size="10.00" fill="#000000">bind_expr_filters_Omicron_BA286</text>
</g>
<!-- 3&#45;&gt;59 -->
<g id="edge129" class="edge">
<title>3&#45;&gt;59</title>
<path fill="none" stroke="#c0c0c0" stroke-width="2" d="M2391.7553,-223.5306C2450.3412,-212.4301 2544.1419,-194.6573 2615.903,-181.0605"/>
<polygon fill="#c0c0c0" stroke="#c0c0c0" stroke-width="2" points="2616.703,-184.4713 2625.8766,-179.1707 2615.3998,-177.5936 2616.703,-184.4713"/>
</g>
<!-- 65 -->
<g id="node66" class="node">
<title>65</title>
<path fill="none" stroke="#97d856" stroke-width="2" d="M4933.5,-180C4933.5,-180 4781.5,-180 4781.5,-180 4775.5,-180 4769.5,-174 4769.5,-168 4769.5,-168 4769.5,-156 4769.5,-156 4769.5,-150 4775.5,-144 4781.5,-144 4781.5,-144 4933.5,-144 4933.5,-144 4939.5,-144 4945.5,-150 4945.5,-156 4945.5,-156 4945.5,-168 4945.5,-168 4945.5,-174 4939.5,-180 4933.5,-180"/>
<text text-anchor="middle" x="4857.5" y="-159.5" font-family="sans" font-size="10.00" fill="#000000">escape_profiles_Omicron_BA286</text>
</g>
<!-- 3&#45;&gt;65 -->
<g id="edge135" class="edge">
<title>3&#45;&gt;65</title>
<path fill="none" stroke="#c0c0c0" stroke-width="2" d="M2391.8264,-232.2853C2498.6528,-228.9916 2740.7657,-221.6093 2944.5,-216 3572.91,-198.6984 3730.1492,-199.3312 4358.5,-180 4497.5588,-175.7219 4658.377,-169.7335 4759.0205,-165.8606"/>
<polygon fill="#c0c0c0" stroke="#c0c0c0" stroke-width="2" points="4759.3159,-169.3519 4769.1736,-165.4692 4759.0461,-162.3571 4759.3159,-169.3519"/>
</g>
<!-- 4 -->
<g id="node5" class="node">
<title>4</title>
<path fill="none" stroke="#9fd856" stroke-width="2" d="M347.5,-108C347.5,-108 207.5,-108 207.5,-108 201.5,-108 195.5,-102 195.5,-96 195.5,-96 195.5,-84 195.5,-84 195.5,-78 201.5,-72 207.5,-72 207.5,-72 347.5,-72 347.5,-72 353.5,-72 359.5,-78 359.5,-84 359.5,-84 359.5,-96 359.5,-96 359.5,-102 353.5,-108 347.5,-108"/>
<text text-anchor="middle" x="277.5" y="-87.5" font-family="sans" font-size="10.00" fill="#000000">get_early2020_mut_bind_expr</text>
</g>
<!-- 4&#45;&gt;0 -->
<g id="edge24" class="edge">
<title>4&#45;&gt;0</title>
<path fill="none" stroke="#c0c0c0" stroke-width="2" d="M359.5905,-73.7016C364.2855,-73.0522 368.9464,-72.4762 373.5,-72 606.6793,-47.6154 2319.2427,-23.3666 2658.2738,-18.7755"/>
<polygon fill="#c0c0c0" stroke="#c0c0c0" stroke-width="2" points="2658.4138,-22.2741 2668.3656,-18.6392 2658.3192,-15.2747 2658.4138,-22.2741"/>
</g>
<!-- 5&#45;&gt;0 -->
<g id="edge58" class="edge">
<title>5&#45;&gt;0</title>
<path fill="none" stroke="#c0c0c0" stroke-width="2" d="M2349.0092,-76.6682C2438.8082,-62.3322 2579.2547,-39.9106 2657.9718,-27.3437"/>
<polygon fill="#c0c0c0" stroke="#c0c0c0" stroke-width="2" points="2658.8679,-30.7451 2668.191,-25.7123 2657.7643,-23.8326 2658.8679,-30.7451"/>
</g>
<!-- 6&#45;&gt;0 -->
<g id="edge14" class="edge">
<title>6&#45;&gt;0</title>
<path fill="none" stroke="#c0c0c0" stroke-width="2" d="M2548.7355,-71.9243C2582.2341,-61.1569 2624.6681,-47.5174 2658.4774,-36.6501"/>
<polygon fill="#c0c0c0" stroke="#c0c0c0" stroke-width="2" points="2659.7714,-39.9106 2668.2206,-33.5184 2657.6293,-33.2464 2659.7714,-39.9106"/>
</g>
<!-- 7 -->
<g id="node8" class="node">
<title>7</title>
<path fill="none" stroke="#56b9d8" stroke-width="2" d="M570.5,-396C570.5,-396 382.5,-396 382.5,-396 376.5,-396 370.5,-390 370.5,-384 370.5,-384 370.5,-372 370.5,-372 370.5,-366 376.5,-360 382.5,-360 382.5,-360 570.5,-360 570.5,-360 576.5,-360 582.5,-366 582.5,-372 582.5,-372 582.5,-384 582.5,-384 582.5,-390 576.5,-396 570.5,-396"/>
<text text-anchor="middle" x="476.5" y="-375.5" font-family="sans" font-size="10.00" fill="#000000">aggregate_variant_counts_Wuhan_Hu_1</text>
</g>
<!-- 7&#45;&gt;0 -->
<g id="edge49" class="edge">
<title>7&#45;&gt;0</title>
<path fill="none" stroke="#c0c0c0" stroke-width="2" d="M405.2212,-359.9677C313.966,-334.7522 167.5,-286.1569 167.5,-234 167.5,-234 167.5,-234 167.5,-162 167.5,-121.1184 155.0234,-98.087 186.5,-72 235.6825,-31.2389 2284.7127,-19.9669 2658.346,-18.2488"/>
<polygon fill="#c0c0c0" stroke="#c0c0c0" stroke-width="2" points="2658.4146,-21.7486 2668.3986,-18.203 2658.3827,-14.7486 2658.4146,-21.7486"/>
</g>
<!-- 11 -->
<g id="node12" class="node">
<title>11</title>
<path fill="none" stroke="#56d8b1" stroke-width="2" d="M1019.5,-108C1019.5,-108 855.5,-108 855.5,-108 849.5,-108 843.5,-102 843.5,-96 843.5,-96 843.5,-84 843.5,-84 843.5,-78 849.5,-72 855.5,-72 855.5,-72 1019.5,-72 1019.5,-72 1025.5,-72 1031.5,-78 1031.5,-84 1031.5,-84 1031.5,-96 1031.5,-96 1031.5,-102 1025.5,-108 1019.5,-108"/>
<text text-anchor="middle" x="937.5" y="-87.5" font-family="sans" font-size="10.00" fill="#000000">counts_to_cells_ratio_Wuhan_Hu_1</text>
</g>
<!-- 7&#45;&gt;11 -->
<g id="edge67" class="edge">
<title>7&#45;&gt;11</title>
<path fill="none" stroke="#c0c0c0" stroke-width="2" d="M524.6344,-359.9347C580.0403,-338.1428 672.7503,-298.5741 745.5,-252 810.2112,-210.5721 876.787,-149.4411 912.0137,-115.3461"/>
<polygon fill="#c0c0c0" stroke="#c0c0c0" stroke-width="2" points="914.7357,-117.5806 919.454,-108.0945 909.8498,-112.5677 914.7357,-117.5806"/>
</g>
<!-- 13 -->
<g id="node14" class="node">
<title>13</title>
<path fill="none" stroke="#d8a456" stroke-width="2" d="M549.5,-324C549.5,-324 403.5,-324 403.5,-324 397.5,-324 391.5,-318 391.5,-312 391.5,-312 391.5,-300 391.5,-300 391.5,-294 397.5,-288 403.5,-288 403.5,-288 549.5,-288 549.5,-288 555.5,-288 561.5,-294 561.5,-300 561.5,-300 561.5,-312 561.5,-312 561.5,-318 555.5,-324 549.5,-324"/>
<text text-anchor="middle" x="476.5" y="-303.5" font-family="sans" font-size="10.00" fill="#000000">counts_to_scores_Wuhan_Hu_1</text>
</g>
<!-- 7&#45;&gt;13 -->
<g id="edge69" class="edge">
<title>7&#45;&gt;13</title>
<path fill="none" stroke="#c0c0c0" stroke-width="2" d="M476.5,-359.8314C476.5,-352.131 476.5,-342.9743 476.5,-334.4166"/>
<polygon fill="#c0c0c0" stroke="#c0c0c0" stroke-width="2" points="480.0001,-334.4132 476.5,-324.4133 473.0001,-334.4133 480.0001,-334.4132"/>
</g>
<!-- 8 -->
<g id="node9" class="node">
<title>8</title>
<path fill="none" stroke="#d8a456" stroke-width="2" d="M543.5,-468C543.5,-468 409.5,-468 409.5,-468 403.5,-468 397.5,-462 397.5,-456 397.5,-456 397.5,-444 397.5,-444 397.5,-438 403.5,-432 409.5,-432 409.5,-432 543.5,-432 543.5,-432 549.5,-432 555.5,-438 555.5,-444 555.5,-444 555.5,-456 555.5,-456 555.5,-462 549.5,-468 543.5,-468"/>
<text text-anchor="middle" x="476.5" y="-447.5" font-family="sans" font-size="10.00" fill="#000000">count_variants_Wuhan_Hu_1</text>
</g>
<!-- 8&#45;&gt;7 -->
<g id="edge65" class="edge">
<title>8&#45;&gt;7</title>
<path fill="none" stroke="#c0c0c0" stroke-width="2" d="M476.5,-431.8314C476.5,-424.131 476.5,-414.9743 476.5,-406.4166"/>
<polygon fill="#c0c0c0" stroke="#c0c0c0" stroke-width="2" points="480.0001,-406.4132 476.5,-396.4133 473.0001,-406.4133 480.0001,-406.4132"/>
</g>
<!-- 9 -->
<g id="node10" class="node">
<title>9</title>
<path fill="none" stroke="#5692d8" stroke-width="2" d="M1213,-396C1213,-396 1022,-396 1022,-396 1016,-396 1010,-390 1010,-384 1010,-384 1010,-372 1010,-372 1010,-366 1016,-360 1022,-360 1022,-360 1213,-360 1213,-360 1219,-360 1225,-366 1225,-372 1225,-372 1225,-384 1225,-384 1225,-390 1219,-396 1213,-396"/>
<text text-anchor="middle" x="1117.5" y="-375.5" font-family="sans" font-size="10.00" fill="#000000">aggregate_variant_counts_Omicron_BA2</text>
</g>
<!-- 9&#45;&gt;0 -->
<g id="edge54" class="edge">
<title>9&#45;&gt;0</title>
<path fill="none" stroke="#c0c0c0" stroke-width="2" d="M1056.0808,-359.9938C1039.0025,-351.8495 1022.4301,-340.2732 1012.5,-324 982.3755,-274.6325 1029.1654,-103.7555 1077.5,-72 1144.8168,-27.7733 2374.1836,-19.5401 2658.2613,-18.2257"/>
<polygon fill="#c0c0c0" stroke="#c0c0c0" stroke-width="2" points="2658.3719,-21.7254 2668.356,-18.1801 2658.3403,-14.7254 2658.3719,-21.7254"/>
</g>
<!-- 12 -->
<g id="node13" class="node">
<title>12</title>
<path fill="none" stroke="#d87d56" stroke-width="2" d="M1201,-324C1201,-324 1034,-324 1034,-324 1028,-324 1022,-318 1022,-312 1022,-312 1022,-300 1022,-300 1022,-294 1028,-288 1034,-288 1034,-288 1201,-288 1201,-288 1207,-288 1213,-294 1213,-300 1213,-300 1213,-312 1213,-312 1213,-318 1207,-324 1201,-324"/>
<text text-anchor="middle" x="1117.5" y="-303.5" font-family="sans" font-size="10.00" fill="#000000">counts_to_cells_ratio_Omicron_BA2</text>
</g>
<!-- 9&#45;&gt;12 -->
<g id="edge68" class="edge">
<title>9&#45;&gt;12</title>
<path fill="none" stroke="#c0c0c0" stroke-width="2" d="M1117.5,-359.8314C1117.5,-352.131 1117.5,-342.9743 1117.5,-334.4166"/>
<polygon fill="#c0c0c0" stroke="#c0c0c0" stroke-width="2" points="1121.0001,-334.4132 1117.5,-324.4133 1114.0001,-334.4133 1121.0001,-334.4132"/>
</g>
<!-- 14 -->
<g id="node15" class="node">
<title>14</title>
<path fill="none" stroke="#56d88a" stroke-width="2" d="M1391.5,-324C1391.5,-324 1243.5,-324 1243.5,-324 1237.5,-324 1231.5,-318 1231.5,-312 1231.5,-312 1231.5,-300 1231.5,-300 1231.5,-294 1237.5,-288 1243.5,-288 1243.5,-288 1391.5,-288 1391.5,-288 1397.5,-288 1403.5,-294 1403.5,-300 1403.5,-300 1403.5,-312 1403.5,-312 1403.5,-318 1397.5,-324 1391.5,-324"/>
<text text-anchor="middle" x="1317.5" y="-303.5" font-family="sans" font-size="10.00" fill="#000000">counts_to_scores_Omicron_BA2</text>
</g>
<!-- 9&#45;&gt;14 -->
<g id="edge70" class="edge">
<title>9&#45;&gt;14</title>
<path fill="none" stroke="#c0c0c0" stroke-width="2" d="M1167.7103,-359.9243C1195.0515,-350.0815 1229.0594,-337.8386 1257.7575,-327.5073"/>
<polygon fill="#c0c0c0" stroke="#c0c0c0" stroke-width="2" points="1259.0457,-330.7635 1267.2691,-324.0831 1256.6746,-324.1773 1259.0457,-330.7635"/>
</g>
<!-- 10 -->
<g id="node11" class="node">
<title>10</title>
<path fill="none" stroke="#88d856" stroke-width="2" d="M1185.5,-468C1185.5,-468 1049.5,-468 1049.5,-468 1043.5,-468 1037.5,-462 1037.5,-456 1037.5,-456 1037.5,-444 1037.5,-444 1037.5,-438 1043.5,-432 1049.5,-432 1049.5,-432 1185.5,-432 1185.5,-432 1191.5,-432 1197.5,-438 1197.5,-444 1197.5,-444 1197.5,-456 1197.5,-456 1197.5,-462 1191.5,-468 1185.5,-468"/>
<text text-anchor="middle" x="1117.5" y="-447.5" font-family="sans" font-size="10.00" fill="#000000">count_variants_Omicron_BA2</text>
</g>
<!-- 10&#45;&gt;9 -->
<g id="edge66" class="edge">
<title>10&#45;&gt;9</title>
<path fill="none" stroke="#c0c0c0" stroke-width="2" d="M1117.5,-431.8314C1117.5,-424.131 1117.5,-414.9743 1117.5,-406.4166"/>
<polygon fill="#c0c0c0" stroke="#c0c0c0" stroke-width="2" points="1121.0001,-406.4132 1117.5,-396.4133 1114.0001,-406.4133 1121.0001,-406.4132"/>
</g>
<!-- 11&#45;&gt;0 -->
<g id="edge40" class="edge">
<title>11&#45;&gt;0</title>
<path fill="none" stroke="#c0c0c0" stroke-width="2" d="M1031.6447,-73.5529C1036.3223,-72.9732 1040.9601,-72.4497 1045.5,-72 1368.3196,-40.0251 2401.3564,-22.7188 2658.2418,-18.8428"/>
<polygon fill="#c0c0c0" stroke="#c0c0c0" stroke-width="2" points="2658.5264,-22.339 2668.4728,-18.6893 2658.4214,-15.3398 2658.5264,-22.339"/>
</g>
<!-- 12&#45;&gt;0 -->
<g id="edge6" class="edge">
<title>12&#45;&gt;0</title>
<path fill="none" stroke="#c0c0c0" stroke-width="2" d="M1104.2083,-287.9689C1087.8217,-264.509 1060.8697,-221.588 1050.5,-180 1046.629,-164.4753 1043.9455,-158.5958 1050.5,-144 1060.3658,-122.0304 1109.1379,-80.9408 1131.5,-72 1203.5949,-43.1752 2379.5269,-23.2178 2657.8021,-18.8842"/>
<polygon fill="#c0c0c0" stroke="#c0c0c0" stroke-width="2" points="2658.1427,-22.3795 2668.0873,-18.7248 2658.0342,-15.3803 2658.1427,-22.3795"/>
</g>
<!-- 13&#45;&gt;0 -->
<g id="edge11" class="edge">
<title>13&#45;&gt;0</title>
<path fill="none" stroke="#c0c0c0" stroke-width="2" d="M461.0066,-287.9815C425.6092,-244.6348 346.3479,-133.5747 406.5,-72 447.0643,-30.4764 2303.7402,-19.8918 2658.3258,-18.2477"/>
<polygon fill="#c0c0c0" stroke="#c0c0c0" stroke-width="2" points="2658.3912,-21.7475 2668.375,-18.2016 2658.359,-14.7476 2658.3912,-21.7475"/>
</g>
<!-- 15 -->
<g id="node16" class="node">
<title>15</title>
<path fill="none" stroke="#56d8d8" stroke-width="2" d="M700,-252C700,-252 517,-252 517,-252 511,-252 505,-246 505,-240 505,-240 505,-228 505,-228 505,-222 511,-216 517,-216 517,-216 700,-216 700,-216 706,-216 712,-222 712,-228 712,-228 712,-240 712,-240 712,-246 706,-252 700,-252"/>
<text text-anchor="middle" x="608.5" y="-231.5" font-family="sans" font-size="10.00" fill="#000000">call_strong_escape_sites_Wuhan_Hu_1</text>
</g>
<!-- 13&#45;&gt;15 -->
<g id="edge71" class="edge">
<title>13&#45;&gt;15</title>
<path fill="none" stroke="#c0c0c0" stroke-width="2" d="M509.8092,-287.8314C526.9273,-278.4942 547.9706,-267.016 566.2222,-257.0606"/>
<polygon fill="#c0c0c0" stroke="#c0c0c0" stroke-width="2" points="568.0985,-260.024 575.2015,-252.1628 564.7465,-253.8788 568.0985,-260.024"/>
</g>
<!-- 13&#45;&gt;17 -->
<g id="edge74" class="edge">
<title>13&#45;&gt;17</title>
<path fill="none" stroke="#c0c0c0" stroke-width="2" d="M477.6384,-287.8744C479.4208,-269.0464 483.9656,-239.1567 495.5,-216 500.5911,-205.7789 508.0816,-195.9391 515.5934,-187.5233"/>
<polygon fill="#c0c0c0" stroke="#c0c0c0" stroke-width="2" points="518.148,-189.9159 522.4299,-180.2248 513.0392,-185.1305 518.148,-189.9159"/>
</g>
<!-- 19 -->
<g id="node20" class="node">
<title>19</title>
<path fill="none" stroke="#56d0d8" stroke-width="2" d="M813.5,-108C813.5,-108 691.5,-108 691.5,-108 685.5,-108 679.5,-102 679.5,-96 679.5,-96 679.5,-84 679.5,-84 679.5,-78 685.5,-72 691.5,-72 691.5,-72 813.5,-72 813.5,-72 819.5,-72 825.5,-78 825.5,-84 825.5,-84 825.5,-96 825.5,-96 825.5,-102 819.5,-108 813.5,-108"/>
<text text-anchor="middle" x="752.5" y="-87.5" font-family="sans" font-size="10.00" fill="#000000">output_pdbs_Wuhan_Hu_1</text>
</g>
<!-- 13&#45;&gt;19 -->
<g id="edge79" class="edge">
<title>13&#45;&gt;19</title>
<path fill="none" stroke="#c0c0c0" stroke-width="2" d="M561.6207,-297.0764C622.8938,-288.8799 698.4749,-274.5327 720.5,-252 755.2778,-216.4208 757.609,-154.6304 755.5029,-118.5181"/>
<polygon fill="#c0c0c0" stroke="#c0c0c0" stroke-width="2" points="758.9672,-117.9067 754.7378,-108.1927 751.9864,-118.424 758.9672,-117.9067"/>
</g>
<!-- 21 -->
<g id="node22" class="node">
<title>21</title>
<path fill="none" stroke="#d89c56" stroke-width="2" d="M573,-108C573,-108 428,-108 428,-108 422,-108 416,-102 416,-96 416,-96 416,-84 416,-84 416,-78 422,-72 428,-72 428,-72 573,-72 573,-72 579,-72 585,-78 585,-84 585,-84 585,-96 585,-96 585,-102 579,-108 573,-108"/>
<text text-anchor="middle" x="500.5" y="-87.5" font-family="sans" font-size="10.00" fill="#000000">make_supp_data_Wuhan_Hu_1</text>
</g>
<!-- 13&#45;&gt;21 -->
<g id="edge81" class="edge">
<title>13&#45;&gt;21</title>
<path fill="none" stroke="#c0c0c0" stroke-width="2" d="M468.0913,-287.8687C455.1206,-257.2305 433.6052,-193.6971 452.5,-144 456.5272,-133.4076 463.69,-123.5662 471.2737,-115.2649"/>
<polygon fill="#c0c0c0" stroke="#c0c0c0" stroke-width="2" points="473.7926,-117.695 478.2787,-108.0968 468.7862,-112.8025 473.7926,-117.695"/>
</g>
<!-- 14&#45;&gt;0 -->
<g id="edge36" class="edge">
<title>14&#45;&gt;0</title>
<path fill="none" stroke="#c0c0c0" stroke-width="2" d="M1281.5709,-287.9923C1267.9828,-279.158 1253.9983,-267.1235 1246.5,-252 1212.1121,-182.642 1279.6861,-99.8826 1324.5,-72 1381.9071,-36.2821 2401.43,-21.7582 2658.1825,-18.6579"/>
<polygon fill="#c0c0c0" stroke="#c0c0c0" stroke-width="2" points="2658.4577,-22.1549 2668.4151,-18.5355 2658.3739,-15.1554 2658.4577,-22.1549"/>
</g>
<!-- 16 -->
<g id="node17" class="node">
<title>16</title>
<path fill="none" stroke="#56a9d8" stroke-width="2" d="M1453,-252C1453,-252 1268,-252 1268,-252 1262,-252 1256,-246 1256,-240 1256,-240 1256,-228 1256,-228 1256,-222 1262,-216 1268,-216 1268,-216 1453,-216 1453,-216 1459,-216 1465,-222 1465,-228 1465,-228 1465,-240 1465,-240 1465,-246 1459,-252 1453,-252"/>
<text text-anchor="middle" x="1360.5" y="-231.5" font-family="sans" font-size="10.00" fill="#000000">call_strong_escape_sites_Omicron_BA2</text>
</g>
<!-- 14&#45;&gt;16 -->
<g id="edge72" class="edge">
<title>14&#45;&gt;16</title>
<path fill="none" stroke="#c0c0c0" stroke-width="2" d="M1328.3507,-287.8314C1333.2023,-279.7079 1339.0217,-269.9637 1344.368,-261.0118"/>
<polygon fill="#c0c0c0" stroke="#c0c0c0" stroke-width="2" points="1347.3806,-262.7933 1349.5032,-252.4133 1341.3708,-259.2041 1347.3806,-262.7933"/>
</g>
<!-- 14&#45;&gt;18 -->
<g id="edge76" class="edge">
<title>14&#45;&gt;18</title>
<path fill="none" stroke="#c0c0c0" stroke-width="2" d="M1396.5693,-287.9106C1430.4936,-278.3979 1464.6221,-265.8434 1474.5,-252 1489.47,-231.0204 1471.4796,-205.5939 1452.514,-187.1255"/>
<polygon fill="#c0c0c0" stroke="#c0c0c0" stroke-width="2" points="1454.7036,-184.3833 1444.9845,-180.1653 1449.952,-189.5235 1454.7036,-184.3833"/>
</g>
<!-- 20 -->
<g id="node21" class="node">
<title>20</title>
<path fill="none" stroke="#56d8c9" stroke-width="2" d="M1195.5,-180C1195.5,-180 1071.5,-180 1071.5,-180 1065.5,-180 1059.5,-174 1059.5,-168 1059.5,-168 1059.5,-156 1059.5,-156 1059.5,-150 1065.5,-144 1071.5,-144 1071.5,-144 1195.5,-144 1195.5,-144 1201.5,-144 1207.5,-150 1207.5,-156 1207.5,-156 1207.5,-168 1207.5,-168 1207.5,-174 1201.5,-180 1195.5,-180"/>
<text text-anchor="middle" x="1133.5" y="-159.5" font-family="sans" font-size="10.00" fill="#000000">output_pdbs_Omicron_BA2</text>
</g>
<!-- 14&#45;&gt;20 -->
<g id="edge80" class="edge">
<title>14&#45;&gt;20</title>
<path fill="none" stroke="#c0c0c0" stroke-width="2" d="M1238.4834,-287.9816C1216.1065,-279.8852 1193.0815,-268.3389 1175.5,-252 1157.6455,-235.4074 1146.7028,-209.6974 1140.4828,-189.9983"/>
<polygon fill="#c0c0c0" stroke="#c0c0c0" stroke-width="2" points="1143.8192,-188.9376 1137.6489,-180.3249 1137.1015,-190.9056 1143.8192,-188.9376"/>
</g>
<!-- 22 -->
<g id="node23" class="node">
<title>22</title>
<path fill="none" stroke="#80d856" stroke-width="2" d="M1537,-108C1537,-108 1390,-108 1390,-108 1384,-108 1378,-102 1378,-96 1378,-96 1378,-84 1378,-84 1378,-78 1384,-72 1390,-72 1390,-72 1537,-72 1537,-72 1543,-72 1549,-78 1549,-84 1549,-84 1549,-96 1549,-96 1549,-102 1543,-108 1537,-108"/>
<text text-anchor="middle" x="1463.5" y="-87.5" font-family="sans" font-size="10.00" fill="#000000">make_supp_data_Omicron_BA2</text>
</g>
<!-- 14&#45;&gt;22 -->
<g id="edge83" class="edge">
<title>14&#45;&gt;22</title>
<path fill="none" stroke="#c0c0c0" stroke-width="2" d="M1400.3616,-287.9296C1438.0225,-278.1969 1477.1357,-265.4448 1490.5,-252 1525.0339,-217.2579 1530.143,-189.6982 1512.5,-144 1508.3808,-133.3306 1501.0664,-123.4665 1493.3251,-115.1681"/>
<polygon fill="#c0c0c0" stroke="#c0c0c0" stroke-width="2" points="1495.7181,-112.6113 1486.175,-108.0091 1490.7652,-117.558 1495.7181,-112.6113"/>
</g>
<!-- 68 -->
<g id="node69" class="node">
<title>68</title>
<path fill="none" stroke="#565bd8" stroke-width="2" d="M1233.5,-108C1233.5,-108 1175.5,-108 1175.5,-108 1169.5,-108 1163.5,-102 1163.5,-96 1163.5,-96 1163.5,-84 1163.5,-84 1163.5,-78 1169.5,-72 1175.5,-72 1175.5,-72 1233.5,-72 1233.5,-72 1239.5,-72 1245.5,-78 1245.5,-84 1245.5,-84 1245.5,-96 1245.5,-96 1245.5,-102 1239.5,-108 1233.5,-108"/>
<text text-anchor="middle" x="1204.5" y="-87.5" font-family="sans" font-size="10.00" fill="#000000">custom_plots</text>
</g>
<!-- 14&#45;&gt;68 -->
<g id="edge140" class="edge">
<title>14&#45;&gt;68</title>
<path fill="none" stroke="#c0c0c0" stroke-width="2" d="M1256.9244,-287.9994C1239.9119,-279.8421 1223.3767,-268.2569 1213.5,-252 1205.1924,-238.3258 1212.8351,-231.9862 1213.5,-216 1214.831,-183.9999 1219.9948,-175.8365 1216.5,-144 1215.5716,-135.5425 1213.8486,-126.4715 1211.9922,-118.2246"/>
<polygon fill="#c0c0c0" stroke="#c0c0c0" stroke-width="2" points="1215.3544,-117.2356 1209.6191,-108.3273 1208.5473,-118.8678 1215.3544,-117.2356"/>
</g>
<!-- 15&#45;&gt;0 -->
<g id="edge45" class="edge">
<title>15&#45;&gt;0</title>
<path fill="none" stroke="#c0c0c0" stroke-width="2" d="M616.6351,-215.6112C621.157,-205.2171 626.8021,-191.949 631.5,-180 650.1731,-132.5052 629.1231,-101.873 670.5,-72 711.8694,-42.1323 2326.9782,-22.3805 2657.7022,-18.6445"/>
<polygon fill="#c0c0c0" stroke="#c0c0c0" stroke-width="2" points="2658.058,-22.1408 2668.018,-18.5285 2657.9792,-15.1413 2658.058,-22.1408"/>
</g>
<!-- 15&#45;&gt;17 -->
<g id="edge73" class="edge">
<title>15&#45;&gt;17</title>
<path fill="none" stroke="#c0c0c0" stroke-width="2" d="M591.8454,-215.8314C584.0886,-207.3694 574.7198,-197.1489 566.239,-187.8971"/>
<polygon fill="#c0c0c0" stroke="#c0c0c0" stroke-width="2" points="568.7162,-185.4198 559.3788,-180.4133 563.5561,-190.1499 568.7162,-185.4198"/>
</g>
<!-- 16&#45;&gt;0 -->
<g id="edge51" class="edge">
<title>16&#45;&gt;0</title>
<path fill="none" stroke="#c0c0c0" stroke-width="2" d="M1347.1438,-215.5137C1340.7492,-205.5235 1333.782,-192.6657 1330.5,-180 1318.0891,-132.1046 1317.401,-100.9839 1357.5,-72 1410.9106,-33.3944 2404.9596,-21.053 2658.1907,-18.5289"/>
<polygon fill="#c0c0c0" stroke="#c0c0c0" stroke-width="2" points="2658.3245,-22.0279 2668.2896,-18.4296 2658.2556,-15.0282 2658.3245,-22.0279"/>
</g>
<!-- 16&#45;&gt;18 -->
<g id="edge78" class="edge">
<title>16&#45;&gt;18</title>
<path fill="none" stroke="#c0c0c0" stroke-width="2" d="M1375.8929,-215.8314C1382.9904,-207.454 1391.548,-197.3531 1399.324,-188.1749"/>
<polygon fill="#c0c0c0" stroke="#c0c0c0" stroke-width="2" points="1402.1061,-190.3056 1405.8999,-180.4133 1396.7652,-185.7807 1402.1061,-190.3056"/>
</g>
<!-- 17&#45;&gt;0 -->
<g id="edge5" class="edge">
<title>17&#45;&gt;0</title>
<path fill="none" stroke="#c0c0c0" stroke-width="2" d="M560.1491,-143.9465C584.924,-118.8147 628.0525,-75.9074 637.5,-72 733.2701,-32.3898 2330.0034,-20.3914 2657.921,-18.34"/>
<polygon fill="#c0c0c0" stroke="#c0c0c0" stroke-width="2" points="2658.173,-21.8386 2668.1511,-18.2766 2658.1296,-14.8387 2658.173,-21.8386"/>
</g>
<!-- 17&#45;&gt;21 -->
<g id="edge82" class="edge">
<title>17&#45;&gt;21</title>
<path fill="none" stroke="#c0c0c0" stroke-width="2" d="M531.9016,-143.8314C527.2123,-135.7925 521.5972,-126.1666 516.4202,-117.2918"/>
<polygon fill="#c0c0c0" stroke="#c0c0c0" stroke-width="2" points="519.3031,-115.2875 511.2411,-108.4133 513.2566,-118.8146 519.3031,-115.2875"/>
</g>
<!-- 18&#45;&gt;0 -->
<g id="edge26" class="edge">
<title>18&#45;&gt;0</title>
<path fill="none" stroke="#c0c0c0" stroke-width="2" d="M1397.9023,-143.7926C1375.4429,-124.3495 1347.8971,-93.4448 1368.5,-72 1391.1694,-48.4043 2401.9561,-24.8446 2658.0262,-19.2472"/>
<polygon fill="#c0c0c0" stroke="#c0c0c0" stroke-width="2" points="2658.3137,-22.7419 2668.235,-19.0249 2658.1612,-15.7436 2658.3137,-22.7419"/>
</g>
<!-- 18&#45;&gt;22 -->
<g id="edge84" class="edge">
<title>18&#45;&gt;22</title>
<path fill="none" stroke="#c0c0c0" stroke-width="2" d="M1432.0984,-143.8314C1436.7877,-135.7925 1442.4028,-126.1666 1447.5798,-117.2918"/>
<polygon fill="#c0c0c0" stroke="#c0c0c0" stroke-width="2" points="1450.7434,-118.8146 1452.7589,-108.4133 1444.6969,-115.2875 1450.7434,-118.8146"/>
</g>
<!-- 19&#45;&gt;0 -->
<g id="edge47" class="edge">
<title>19&#45;&gt;0</title>
<path fill="none" stroke="#c0c0c0" stroke-width="2" d="M825.7003,-73.2197C828.6652,-72.766 831.6068,-72.3559 834.5,-72 1200.2506,-27.0128 2381.675,-19.3816 2658.2106,-18.2013"/>
<polygon fill="#c0c0c0" stroke="#c0c0c0" stroke-width="2" points="2658.4403,-21.7005 2668.4257,-18.1589 2658.4112,-14.7006 2658.4403,-21.7005"/>
</g>
<!-- 20&#45;&gt;0 -->
<g id="edge43" class="edge">
<title>20&#45;&gt;0</title>
<path fill="none" stroke="#c0c0c0" stroke-width="2" d="M1131.8701,-143.8479C1131.1112,-122.9264 1133.5538,-89.2195 1154.5,-72 1184.0867,-47.6773 2377.168,-24.2421 2657.8218,-19.0588"/>
<polygon fill="#c0c0c0" stroke="#c0c0c0" stroke-width="2" points="2658.2574,-22.5514 2668.1912,-18.8679 2658.1285,-15.5526 2658.2574,-22.5514"/>
</g>
<!-- 21&#45;&gt;0 -->
<g id="edge10" class="edge">
<title>21&#45;&gt;0</title>
<path fill="none" stroke="#c0c0c0" stroke-width="2" d="M585.1655,-73.719C590.0047,-73.0651 594.8081,-72.4835 599.5,-72 1015.147,-29.1716 2361.6859,-19.826 2658.3335,-18.269"/>
<polygon fill="#c0c0c0" stroke="#c0c0c0" stroke-width="2" points="2658.4583,-21.7685 2668.44,-18.2168 2658.4221,-14.7686 2658.4583,-21.7685"/>
</g>
<!-- 22&#45;&gt;0 -->
<g id="edge27" class="edge">
<title>22&#45;&gt;0</title>
<path fill="none" stroke="#c0c0c0" stroke-width="2" d="M1549.0363,-73.8414C1553.9204,-73.1564 1558.7672,-72.5344 1563.5,-72 1779.1638,-47.6466 2455.3399,-25.845 2658.3225,-19.7123"/>
<polygon fill="#c0c0c0" stroke="#c0c0c0" stroke-width="2" points="2658.5861,-23.2061 2668.4762,-19.4067 2658.3754,-16.2092 2658.5861,-23.2061"/>
</g>
<!-- 23&#45;&gt;0 -->
<g id="edge38" class="edge">
<title>23&#45;&gt;0</title>
<path fill="none" stroke="#c0c0c0" stroke-width="2" d="M2888.5498,-143.7623C2853.3204,-118.0108 2788.9277,-70.942 2749.6941,-42.2637"/>
<polygon fill="#c0c0c0" stroke="#c0c0c0" stroke-width="2" points="2751.3862,-39.1652 2741.2476,-36.0896 2747.2553,-44.8165 2751.3862,-39.1652"/>
</g>
<!-- 24&#45;&gt;0 -->
<g id="edge28" class="edge">
<title>24&#45;&gt;0</title>
<path fill="none" stroke="#c0c0c0" stroke-width="2" d="M2043.3624,-143.7411C2061.9442,-122.3796 2095.9141,-87.9129 2133.5,-72 2227.0292,-32.4021 2529.7965,-21.7202 2658.1387,-18.9391"/>
<polygon fill="#c0c0c0" stroke="#c0c0c0" stroke-width="2" points="2658.2493,-22.4377 2668.1743,-18.7302 2658.1035,-15.4392 2658.2493,-22.4377"/>
</g>
<!-- 25 -->
<g id="node26" class="node">
<title>25</title>
<path fill="none" stroke="#56d85b" stroke-width="2" d="M1786,-396C1786,-396 1589,-396 1589,-396 1583,-396 1577,-390 1577,-384 1577,-384 1577,-372 1577,-372 1577,-366 1583,-360 1589,-360 1589,-360 1786,-360 1786,-360 1792,-360 1798,-366 1798,-372 1798,-372 1798,-384 1798,-384 1798,-390 1792,-396 1786,-396"/>
<text text-anchor="middle" x="1687.5" y="-375.5" font-family="sans" font-size="10.00" fill="#000000">aggregate_variant_counts_Omicron_BQ11</text>
</g>
<!-- 25&#45;&gt;0 -->
<g id="edge31" class="edge">
<title>25&#45;&gt;0</title>
<path fill="none" stroke="#c0c0c0" stroke-width="2" d="M1631.6233,-359.902C1615.1378,-351.6643 1598.9852,-340.0564 1589.5,-324 1570.8462,-292.4232 1512.8237,-165.0845 1610.5,-72 1648.7083,-35.5879 2435.4822,-21.9068 2658.2125,-18.755"/>
<polygon fill="#c0c0c0" stroke="#c0c0c0" stroke-width="2" points="2658.437,-22.2523 2668.3871,-18.6128 2658.3391,-15.253 2658.437,-22.2523"/>
</g>
<!-- 29 -->
<g id="node30" class="node">
<title>29</title>
<path fill="none" stroke="#56a2d8" stroke-width="2" d="M2414,-324C2414,-324 2241,-324 2241,-324 2235,-324 2229,-318 2229,-312 2229,-312 2229,-300 2229,-300 2229,-294 2235,-288 2241,-288 2241,-288 2414,-288 2414,-288 2420,-288 2426,-294 2426,-300 2426,-300 2426,-312 2426,-312 2426,-318 2420,-324 2414,-324"/>
<text text-anchor="middle" x="2327.5" y="-303.5" font-family="sans" font-size="10.00" fill="#000000">counts_to_cells_ratio_Omicron_BQ11</text>
</g>
<!-- 25&#45;&gt;29 -->
<g id="edge89" class="edge">
<title>25&#45;&gt;29</title>
<path fill="none" stroke="#c0c0c0" stroke-width="2" d="M1798.2488,-365.5408C1916.1838,-352.2731 2101.6434,-331.4089 2218.7921,-318.2296"/>
<polygon fill="#c0c0c0" stroke="#c0c0c0" stroke-width="2" points="2219.3118,-321.6933 2228.8578,-317.0972 2218.5292,-314.7372 2219.3118,-321.6933"/>
</g>
<!-- 31 -->
<g id="node32" class="node">
<title>31</title>
<path fill="none" stroke="#d8ac56" stroke-width="2" d="M1765,-324C1765,-324 1610,-324 1610,-324 1604,-324 1598,-318 1598,-312 1598,-312 1598,-300 1598,-300 1598,-294 1604,-288 1610,-288 1610,-288 1765,-288 1765,-288 1771,-288 1777,-294 1777,-300 1777,-300 1777,-312 1777,-312 1777,-318 1771,-324 1765,-324"/>
<text text-anchor="middle" x="1687.5" y="-303.5" font-family="sans" font-size="10.00" fill="#000000">counts_to_scores_Omicron_BQ11</text>
</g>
<!-- 25&#45;&gt;31 -->
<g id="edge91" class="edge">
<title>25&#45;&gt;31</title>
<path fill="none" stroke="#c0c0c0" stroke-width="2" d="M1687.5,-359.8314C1687.5,-352.131 1687.5,-342.9743 1687.5,-334.4166"/>
<polygon fill="#c0c0c0" stroke="#c0c0c0" stroke-width="2" points="1691.0001,-334.4132 1687.5,-324.4133 1684.0001,-334.4133 1691.0001,-334.4132"/>
</g>
<!-- 26 -->
<g id="node27" class="node">
<title>26</title>
<path fill="none" stroke="#56d873" stroke-width="2" d="M1759,-468C1759,-468 1616,-468 1616,-468 1610,-468 1604,-462 1604,-456 1604,-456 1604,-444 1604,-444 1604,-438 1610,-432 1616,-432 1616,-432 1759,-432 1759,-432 1765,-432 1771,-438 1771,-444 1771,-444 1771,-456 1771,-456 1771,-462 1765,-468 1759,-468"/>
<text text-anchor="middle" x="1687.5" y="-447.5" font-family="sans" font-size="10.00" fill="#000000">count_variants_Omicron_BQ11</text>
</g>
<!-- 26&#45;&gt;25 -->
<g id="edge87" class="edge">
<title>26&#45;&gt;25</title>
<path fill="none" stroke="#c0c0c0" stroke-width="2" d="M1687.5,-431.8314C1687.5,-424.131 1687.5,-414.9743 1687.5,-406.4166"/>
<polygon fill="#c0c0c0" stroke="#c0c0c0" stroke-width="2" points="1691.0001,-406.4132 1687.5,-396.4133 1684.0001,-406.4133 1691.0001,-406.4132"/>
</g>
<!-- 27 -->
<g id="node28" class="node">
<title>27</title>
<path fill="none" stroke="#56d8d0" stroke-width="2" d="M3119,-396C3119,-396 2916,-396 2916,-396 2910,-396 2904,-390 2904,-384 2904,-384 2904,-372 2904,-372 2904,-366 2910,-360 2916,-360 2916,-360 3119,-360 3119,-360 3125,-360 3131,-366 3131,-372 3131,-372 3131,-384 3131,-384 3131,-390 3125,-396 3119,-396"/>
<text text-anchor="middle" x="3017.5" y="-375.5" font-family="sans" font-size="10.00" fill="#000000">aggregate_variant_counts_Omicron_XBB15</text>
</g>
<!-- 27&#45;&gt;0 -->
<g id="edge42" class="edge">
<title>27&#45;&gt;0</title>
<path fill="none" stroke="#c0c0c0" stroke-width="2" d="M2951.7877,-359.9626C2934.4117,-351.8766 2917.6817,-340.3407 2907.5,-324 2881.3908,-282.0972 2898.6854,-251.0068 2933.5,-216 2966.2203,-183.0991 3004.9419,-218.0494 3031.5,-180 3060.8862,-137.8989 3032.1709,-101.9931 2990.5,-72 2956.6503,-47.6362 2844.5523,-31.6312 2774.6632,-23.7534"/>
<polygon fill="#c0c0c0" stroke="#c0c0c0" stroke-width="2" points="2774.9961,-20.269 2764.6723,-22.6501 2774.2277,-27.2267 2774.9961,-20.269"/>
</g>
<!-- 30 -->
<g id="node31" class="node">
<title>30</title>
<path fill="none" stroke="#566bd8" stroke-width="2" d="M3107,-324C3107,-324 2928,-324 2928,-324 2922,-324 2916,-318 2916,-312 2916,-312 2916,-300 2916,-300 2916,-294 2922,-288 2928,-288 2928,-288 3107,-288 3107,-288 3113,-288 3119,-294 3119,-300 3119,-300 3119,-312 3119,-312 3119,-318 3113,-324 3107,-324"/>
<text text-anchor="middle" x="3017.5" y="-303.5" font-family="sans" font-size="10.00" fill="#000000">counts_to_cells_ratio_Omicron_XBB15</text>
</g>
<!-- 27&#45;&gt;30 -->
<g id="edge90" class="edge">
<title>27&#45;&gt;30</title>
<path fill="none" stroke="#c0c0c0" stroke-width="2" d="M3017.5,-359.8314C3017.5,-352.131 3017.5,-342.9743 3017.5,-334.4166"/>
<polygon fill="#c0c0c0" stroke="#c0c0c0" stroke-width="2" points="3021.0001,-334.4132 3017.5,-324.4133 3014.0001,-334.4133 3021.0001,-334.4132"/>
</g>
<!-- 32 -->
<g id="node33" class="node">
<title>32</title>
<path fill="none" stroke="#b6d856" stroke-width="2" d="M3316,-324C3316,-324 3155,-324 3155,-324 3149,-324 3143,-318 3143,-312 3143,-312 3143,-300 3143,-300 3143,-294 3149,-288 3155,-288 3155,-288 3316,-288 3316,-288 3322,-288 3328,-294 3328,-300 3328,-300 3328,-312 3328,-312 3328,-318 3322,-324 3316,-324"/>
<text text-anchor="middle" x="3235.5" y="-303.5" font-family="sans" font-size="10.00" fill="#000000">counts_to_scores_Omicron_XBB15</text>
</g>
<!-- 27&#45;&gt;32 -->
<g id="edge92" class="edge">
<title>27&#45;&gt;32</title>
<path fill="none" stroke="#c0c0c0" stroke-width="2" d="M3072.2292,-359.9243C3102.2902,-349.9959 3139.745,-337.6255 3171.1954,-327.2382"/>
<polygon fill="#c0c0c0" stroke="#c0c0c0" stroke-width="2" points="3172.3504,-330.5428 3180.7483,-324.0831 3170.1551,-323.8959 3172.3504,-330.5428"/>
</g>
<!-- 28 -->
<g id="node29" class="node">
<title>28</title>
<path fill="none" stroke="#d8cb56" stroke-width="2" d="M3092,-468C3092,-468 2943,-468 2943,-468 2937,-468 2931,-462 2931,-456 2931,-456 2931,-444 2931,-444 2931,-438 2937,-432 2943,-432 2943,-432 3092,-432 3092,-432 3098,-432 3104,-438 3104,-444 3104,-444 3104,-456 3104,-456 3104,-462 3098,-468 3092,-468"/>
<text text-anchor="middle" x="3017.5" y="-447.5" font-family="sans" font-size="10.00" fill="#000000">count_variants_Omicron_XBB15</text>
</g>
<!-- 28&#45;&gt;27 -->
<g id="edge88" class="edge">
<title>28&#45;&gt;27</title>
<path fill="none" stroke="#c0c0c0" stroke-width="2" d="M3017.5,-431.8314C3017.5,-424.131 3017.5,-414.9743 3017.5,-406.4166"/>
<polygon fill="#c0c0c0" stroke="#c0c0c0" stroke-width="2" points="3021.0001,-406.4132 3017.5,-396.4133 3014.0001,-406.4133 3021.0001,-406.4132"/>
</g>
<!-- 29&#45;&gt;0 -->
<g id="edge52" class="edge">
<title>29&#45;&gt;0</title>
<path fill="none" stroke="#c0c0c0" stroke-width="2" d="M2426.2717,-289.4465C2613.237,-257.8878 3001.1407,-191.2438 3010.5,-180 3082.3032,-93.739 2879.6847,-45.582 2774.8988,-27.0173"/>
<polygon fill="#c0c0c0" stroke="#c0c0c0" stroke-width="2" points="2775.221,-23.521 2764.77,-25.2608 2774.0249,-30.4181 2775.221,-23.521"/>
</g>
<!-- 30&#45;&gt;0 -->
<g id="edge59" class="edge">
<title>30&#45;&gt;0</title>
<path fill="none" stroke="#c0c0c0" stroke-width="2" d="M2980.1998,-287.9669C2966.3542,-279.189 2952.1642,-267.2027 2944.5,-252 2937.2973,-237.7129 2934.7292,-228.6701 2944.5,-216 2982.9458,-166.1465 3043.0542,-229.8535 3081.5,-180 3110.8125,-141.9898 3112.8592,-108.34 3081.5,-72 3061.7449,-49.1072 2872.568,-30.608 2774.637,-22.4751"/>
<polygon fill="#c0c0c0" stroke="#c0c0c0" stroke-width="2" points="2774.8471,-18.9806 2764.5943,-21.6508 2774.2744,-25.9572 2774.8471,-18.9806"/>
</g>
<!-- 31&#45;&gt;0 -->
<g id="edge12" class="edge">
<title>31&#45;&gt;0</title>
<path fill="none" stroke="#c0c0c0" stroke-width="2" d="M1674.1313,-287.9414C1643.694,-244.5059 1576.2179,-133.2633 1634.5,-72 1670.0317,-34.6508 2438.4829,-21.6664 2658.2638,-18.7093"/>
<polygon fill="#c0c0c0" stroke="#c0c0c0" stroke-width="2" points="2658.357,-22.2085 2668.3097,-18.576 2658.2641,-15.2091 2658.357,-22.2085"/>
</g>
<!-- 33 -->
<g id="node34" class="node">
<title>33</title>
<path fill="none" stroke="#56d86b" stroke-width="2" d="M1915.5,-252C1915.5,-252 1723.5,-252 1723.5,-252 1717.5,-252 1711.5,-246 1711.5,-240 1711.5,-240 1711.5,-228 1711.5,-228 1711.5,-222 1717.5,-216 1723.5,-216 1723.5,-216 1915.5,-216 1915.5,-216 1921.5,-216 1927.5,-222 1927.5,-228 1927.5,-228 1927.5,-240 1927.5,-240 1927.5,-246 1921.5,-252 1915.5,-252"/>
<text text-anchor="middle" x="1819.5" y="-231.5" font-family="sans" font-size="10.00" fill="#000000">call_strong_escape_sites_Omicron_BQ11</text>
</g>
<!-- 31&#45;&gt;33 -->
<g id="edge93" class="edge">
<title>31&#45;&gt;33</title>
<path fill="none" stroke="#c0c0c0" stroke-width="2" d="M1720.8092,-287.8314C1737.9273,-278.4942 1758.9706,-267.016 1777.2222,-257.0606"/>
<polygon fill="#c0c0c0" stroke="#c0c0c0" stroke-width="2" points="1779.0985,-260.024 1786.2015,-252.1628 1775.7465,-253.8788 1779.0985,-260.024"/>
</g>
<!-- 31&#45;&gt;35 -->
<g id="edge97" class="edge">
<title>31&#45;&gt;35</title>
<path fill="none" stroke="#c0c0c0" stroke-width="2" d="M1687.2488,-287.6937C1687.718,-268.7182 1690.5508,-238.7098 1702.5,-216 1708.1911,-205.184 1716.856,-195.2672 1725.6813,-186.9653"/>
<polygon fill="#c0c0c0" stroke="#c0c0c0" stroke-width="2" points="1728.2547,-189.361 1733.4074,-180.1035 1723.6063,-184.1271 1728.2547,-189.361"/>
</g>
<!-- 37 -->
<g id="node38" class="node">
<title>37</title>
<path fill="none" stroke="#56d892" stroke-width="2" d="M2089,-252C2089,-252 1958,-252 1958,-252 1952,-252 1946,-246 1946,-240 1946,-240 1946,-228 1946,-228 1946,-222 1952,-216 1958,-216 1958,-216 2089,-216 2089,-216 2095,-216 2101,-222 2101,-228 2101,-228 2101,-240 2101,-240 2101,-246 2095,-252 2089,-252"/>
<text text-anchor="middle" x="2023.5" y="-231.5" font-family="sans" font-size="10.00" fill="#000000">output_pdbs_Omicron_BQ11</text>
</g>
<!-- 31&#45;&gt;37 -->
<g id="edge101" class="edge">
<title>31&#45;&gt;37</title>
<path fill="none" stroke="#c0c0c0" stroke-width="2" d="M1771.8533,-287.9243C1821.8794,-277.2044 1885.1906,-263.6377 1935.794,-252.7941"/>
<polygon fill="#c0c0c0" stroke="#c0c0c0" stroke-width="2" points="1936.6929,-256.1811 1945.7375,-250.6634 1935.2261,-249.3364 1936.6929,-256.1811"/>
</g>
<!-- 39 -->
<g id="node40" class="node">
<title>39</title>
<path fill="none" stroke="#56d8d8" stroke-width="2" d="M1809.5,-108C1809.5,-108 1655.5,-108 1655.5,-108 1649.5,-108 1643.5,-102 1643.5,-96 1643.5,-96 1643.5,-84 1643.5,-84 1643.5,-78 1649.5,-72 1655.5,-72 1655.5,-72 1809.5,-72 1809.5,-72 1815.5,-72 1821.5,-78 1821.5,-84 1821.5,-84 1821.5,-96 1821.5,-96 1821.5,-102 1815.5,-108 1809.5,-108"/>
<text text-anchor="middle" x="1732.5" y="-87.5" font-family="sans" font-size="10.00" fill="#000000">make_supp_data_Omicron_BQ11</text>
</g>
<!-- 31&#45;&gt;39 -->
<g id="edge104" class="edge">
<title>31&#45;&gt;39</title>
<path fill="none" stroke="#c0c0c0" stroke-width="2" d="M1678.5785,-287.9615C1664.5679,-256.9169 1641.2789,-192.0926 1664.5,-144 1670.1894,-132.2168 1679.8378,-122.2163 1690.1065,-114.144"/>
<polygon fill="#c0c0c0" stroke="#c0c0c0" stroke-width="2" points="1692.3945,-116.8073 1698.411,-108.0865 1688.2693,-111.152 1692.3945,-116.8073"/>
</g>
<!-- 32&#45;&gt;0 -->
<g id="edge21" class="edge">
<title>32&#45;&gt;0</title>
<path fill="none" stroke="#c0c0c0" stroke-width="2" d="M3328.054,-292.8368C3375.4705,-283.9985 3426.2055,-270.5475 3440.5,-252 3470.0415,-213.6692 3517.9439,-162.6235 3423.5,-72 3400.2095,-49.6517 2940.3836,-27.6708 2775.0644,-20.4606"/>
<polygon fill="#c0c0c0" stroke="#c0c0c0" stroke-width="2" points="2774.751,-16.9439 2764.6087,-20.0072 2774.4477,-23.9373 2774.751,-16.9439"/>
</g>
<!-- 34 -->
<g id="node35" class="node">
<title>34</title>
<path fill="none" stroke="#d8d356" stroke-width="2" d="M3163.5,-252C3163.5,-252 2965.5,-252 2965.5,-252 2959.5,-252 2953.5,-246 2953.5,-240 2953.5,-240 2953.5,-228 2953.5,-228 2953.5,-222 2959.5,-216 2965.5,-216 2965.5,-216 3163.5,-216 3163.5,-216 3169.5,-216 3175.5,-222 3175.5,-228 3175.5,-228 3175.5,-240 3175.5,-240 3175.5,-246 3169.5,-252 3163.5,-252"/>
<text text-anchor="middle" x="3064.5" y="-231.5" font-family="sans" font-size="10.00" fill="#000000">call_strong_escape_sites_Omicron_XBB15</text>
</g>
<!-- 32&#45;&gt;34 -->
<g id="edge94" class="edge">
<title>32&#45;&gt;34</title>
<path fill="none" stroke="#c0c0c0" stroke-width="2" d="M3192.3495,-287.8314C3169.3776,-278.159 3140.9491,-266.1891 3116.7368,-255.9944"/>
<polygon fill="#c0c0c0" stroke="#c0c0c0" stroke-width="2" points="3117.9148,-252.6929 3107.3402,-252.038 3115.1984,-259.1443 3117.9148,-252.6929"/>
</g>
<!-- 32&#45;&gt;36 -->
<g id="edge99" class="edge">
<title>32&#45;&gt;36</title>
<path fill="none" stroke="#c0c0c0" stroke-width="2" d="M3230.1702,-287.7354C3225.6498,-269.3108 3220.8665,-240.2061 3227.5,-216 3230.0805,-206.5837 3234.7742,-197.1443 3239.7859,-188.8513"/>
<polygon fill="#c0c0c0" stroke="#c0c0c0" stroke-width="2" points="3242.7851,-190.6585 3245.2641,-180.3577 3236.9026,-186.8644 3242.7851,-190.6585"/>
</g>
<!-- 38 -->
<g id="node39" class="node">
<title>38</title>
<path fill="none" stroke="#d8c356" stroke-width="2" d="M3419,-252C3419,-252 3282,-252 3282,-252 3276,-252 3270,-246 3270,-240 3270,-240 3270,-228 3270,-228 3270,-222 3276,-216 3282,-216 3282,-216 3419,-216 3419,-216 3425,-216 3431,-222 3431,-228 3431,-228 3431,-240 3431,-240 3431,-246 3425,-252 3419,-252"/>
<text text-anchor="middle" x="3350.5" y="-231.5" font-family="sans" font-size="10.00" fill="#000000">output_pdbs_Omicron_XBB15</text>
</g>
<!-- 32&#45;&gt;38 -->
<g id="edge102" class="edge">
<title>32&#45;&gt;38</title>
<path fill="none" stroke="#c0c0c0" stroke-width="2" d="M3264.5194,-287.8314C3279.2286,-278.6221 3297.2644,-267.3301 3313.0122,-257.4706"/>
<polygon fill="#c0c0c0" stroke="#c0c0c0" stroke-width="2" points="3314.8714,-260.436 3321.4899,-252.1628 3311.1567,-254.5029 3314.8714,-260.436"/>
</g>
<!-- 40 -->
<g id="node41" class="node">
<title>40</title>
<path fill="none" stroke="#d85656" stroke-width="2" d="M3381.5,-108C3381.5,-108 3221.5,-108 3221.5,-108 3215.5,-108 3209.5,-102 3209.5,-96 3209.5,-96 3209.5,-84 3209.5,-84 3209.5,-78 3215.5,-72 3221.5,-72 3221.5,-72 3381.5,-72 3381.5,-72 3387.5,-72 3393.5,-78 3393.5,-84 3393.5,-84 3393.5,-96 3393.5,-96 3393.5,-102 3387.5,-108 3381.5,-108"/>
<text text-anchor="middle" x="3301.5" y="-87.5" font-family="sans" font-size="10.00" fill="#000000">make_supp_data_Omicron_XBB15</text>
</g>
<!-- 32&#45;&gt;40 -->
<g id="edge105" class="edge">
<title>32&#45;&gt;40</title>
<path fill="none" stroke="#c0c0c0" stroke-width="2" d="M3236.0948,-287.8097C3237.6991,-267.7979 3243.198,-235.8478 3261.5,-216 3292.1086,-182.8062 3330.8457,-217.1561 3356.5,-180 3371.1959,-158.7153 3352.9307,-133.5193 3333.6034,-115.208"/>
<polygon fill="#c0c0c0" stroke="#c0c0c0" stroke-width="2" points="3335.7017,-112.388 3325.9252,-108.3051 3331.0218,-117.5936 3335.7017,-112.388"/>
</g>
<!-- 33&#45;&gt;0 -->
<g id="edge33" class="edge">
<title>33&#45;&gt;0</title>
<path fill="none" stroke="#c0c0c0" stroke-width="2" d="M1831.8835,-215.9516C1858.8256,-177.2832 1922.9507,-88.6009 1955.5,-72 2017.5108,-40.3731 2490.854,-24.2746 2658.1524,-19.5286"/>
<polygon fill="#c0c0c0" stroke="#c0c0c0" stroke-width="2" points="2658.3537,-23.0244 2668.2516,-19.2454 2658.1574,-16.0272 2658.3537,-23.0244"/>
</g>
<!-- 33&#45;&gt;35 -->
<g id="edge95" class="edge">
<title>33&#45;&gt;35</title>
<path fill="none" stroke="#c0c0c0" stroke-width="2" d="M1804.1071,-215.8314C1797.0096,-207.454 1788.452,-197.3531 1780.676,-188.1749"/>
<polygon fill="#c0c0c0" stroke="#c0c0c0" stroke-width="2" points="1783.2348,-185.7807 1774.1001,-180.4133 1777.8939,-190.3056 1783.2348,-185.7807"/>
</g>
<!-- 34&#45;&gt;0 -->
<g id="edge16" class="edge">
<title>34&#45;&gt;0</title>
<path fill="none" stroke="#c0c0c0" stroke-width="2" d="M3090.7563,-215.8151C3101.8422,-206.5285 3113.5458,-194.1902 3119.5,-180 3138.072,-135.7385 3151.107,-108.1247 3119.5,-72 3097.1764,-46.4857 2881.4253,-28.8558 2775.1142,-21.6445"/>
<polygon fill="#c0c0c0" stroke="#c0c0c0" stroke-width="2" points="2775.0805,-18.1345 2764.869,-20.9589 2774.613,-25.1189 2775.0805,-18.1345"/>
</g>
<!-- 34&#45;&gt;36 -->
<g id="edge98" class="edge">
<title>34&#45;&gt;36</title>
<path fill="none" stroke="#c0c0c0" stroke-width="2" d="M3113.455,-215.9243C3139.9968,-206.1243 3172.9823,-193.945 3200.8858,-183.6422"/>
<polygon fill="#c0c0c0" stroke="#c0c0c0" stroke-width="2" points="3202.3562,-186.8303 3210.5248,-180.0831 3199.9315,-180.2636 3202.3562,-186.8303"/>
</g>
<!-- 35&#45;&gt;0 -->
<g id="edge30" class="edge">
<title>35&#45;&gt;0</title>
<path fill="none" stroke="#c0c0c0" stroke-width="2" d="M1783.408,-143.8284C1797.3887,-133.5022 1815.0717,-120.2297 1830.5,-108 1850.0324,-92.5171 1850.358,-81.2565 1873.5,-72 1945.8796,-43.0491 2479.5501,-24.9384 2658.3261,-19.6322"/>
<polygon fill="#c0c0c0" stroke="#c0c0c0" stroke-width="2" points="2658.4378,-23.1305 2668.3304,-19.3376 2658.2317,-16.1335 2658.4378,-23.1305"/>
</g>
<!-- 35&#45;&gt;39 -->
<g id="edge103" class="edge">
<title>35&#45;&gt;39</title>
<path fill="none" stroke="#c0c0c0" stroke-width="2" d="M1751.9391,-143.8314C1749.0973,-135.9617 1745.7063,-126.5712 1742.5581,-117.8533"/>
<polygon fill="#c0c0c0" stroke="#c0c0c0" stroke-width="2" points="1745.8377,-116.63 1739.1492,-108.4133 1739.2538,-119.0076 1745.8377,-116.63"/>
</g>
<!-- 36&#45;&gt;0 -->
<g id="edge13" class="edge">
<title>36&#45;&gt;0</title>
<path fill="none" stroke="#c0c0c0" stroke-width="2" d="M3239.6204,-143.916C3211.3447,-118.2739 3162.3735,-74.1905 3157.5,-72 3090.4168,-41.8483 2878.561,-26.6528 2774.8472,-20.8626"/>
<polygon fill="#c0c0c0" stroke="#c0c0c0" stroke-width="2" points="2774.7309,-17.3511 2764.5545,-20.2991 2774.3481,-24.3406 2774.7309,-17.3511"/>
</g>
<!-- 36&#45;&gt;40 -->
<g id="edge106" class="edge">
<title>36&#45;&gt;40</title>
<path fill="none" stroke="#c0c0c0" stroke-width="2" d="M3270.0984,-143.8314C3274.7877,-135.7925 3280.4028,-126.1666 3285.5798,-117.2918"/>
<polygon fill="#c0c0c0" stroke="#c0c0c0" stroke-width="2" points="3288.7434,-118.8146 3290.7589,-108.4133 3282.6969,-115.2875 3288.7434,-118.8146"/>
</g>
<!-- 37&#45;&gt;0 -->
<g id="edge37" class="edge">
<title>37&#45;&gt;0</title>
<path fill="none" stroke="#c0c0c0" stroke-width="2" d="M1969.7916,-215.7905C1953.6351,-207.5107 1937.7546,-195.9057 1928.5,-180 1920.4535,-166.1706 1920.0326,-157.5758 1928.5,-144 1966.9998,-82.2731 2005.3816,-91.3868 2075.5,-72 2184.3414,-41.9068 2521.2349,-25.6603 2657.9513,-20.1632"/>
<polygon fill="#c0c0c0" stroke="#c0c0c0" stroke-width="2" points="2658.3681,-23.6495 2668.2214,-19.7554 2658.0903,-16.655 2658.3681,-23.6495"/>
</g>
<!-- 38&#45;&gt;0 -->
<g id="edge15" class="edge">
<title>38&#45;&gt;0</title>
<path fill="none" stroke="#c0c0c0" stroke-width="2" d="M3366.2614,-215.9846C3393.0013,-183.2167 3440.7965,-113.4295 3402.5,-72 3381.2985,-49.064 2936.8187,-27.5601 2774.8688,-20.4585"/>
<polygon fill="#c0c0c0" stroke="#c0c0c0" stroke-width="2" points="2774.7605,-16.9506 2764.6175,-20.0117 2774.4556,-23.9439 2774.7605,-16.9506"/>
</g>
<!-- 39&#45;&gt;0 -->
<g id="edge46" class="edge">
<title>39&#45;&gt;0</title>
<path fill="none" stroke="#c0c0c0" stroke-width="2" d="M1821.7355,-73.7767C1826.3837,-73.1286 1830.9928,-72.5303 1835.5,-72 2143.9531,-35.7098 2516.211,-23.0348 2657.9035,-19.329"/>
<polygon fill="#c0c0c0" stroke="#c0c0c0" stroke-width="2" points="2658.1964,-22.8228 2668.1033,-19.0675 2658.0169,-15.8251 2658.1964,-22.8228"/>
</g>
<!-- 40&#45;&gt;0 -->
<g id="edge1" class="edge">
<title>40&#45;&gt;0</title>
<path fill="none" stroke="#c0c0c0" stroke-width="2" d="M3209.3359,-74.0312C3204.6608,-73.321 3200.0283,-72.6392 3195.5,-72 3044.0986,-50.6281 2864.8185,-32.2564 2774.5741,-23.4887"/>
<polygon fill="#c0c0c0" stroke="#c0c0c0" stroke-width="2" points="2774.8343,-19.9976 2764.5436,-22.5182 2774.16,-26.9651 2774.8343,-19.9976"/>
</g>
<!-- 41&#45;&gt;0 -->
<g id="edge60" class="edge">
<title>41&#45;&gt;0</title>
<path fill="none" stroke="#c0c0c0" stroke-width="2" d="M2421.0708,-145.4321C2487.4625,-132.1413 2571.172,-114.6463 2586.5,-108 2589.1449,-106.8532 2644.3236,-68.4385 2681.934,-42.1727"/>
<polygon fill="#c0c0c0" stroke="#c0c0c0" stroke-width="2" points="2684.4115,-44.7115 2690.6047,-36.1153 2680.4026,-38.9731 2684.4115,-44.7115"/>
</g>
<!-- 42&#45;&gt;0 -->
<g id="edge17" class="edge">
<title>42&#45;&gt;0</title>
<path fill="none" stroke="#c0c0c0" stroke-width="2" d="M2574.3743,-143.8819C2595.6645,-134.9335 2619.9497,-122.8432 2639.5,-108 2663.0397,-90.1278 2684.419,-63.9542 2698.6435,-44.4344"/>
<polygon fill="#c0c0c0" stroke="#c0c0c0" stroke-width="2" points="2701.5196,-46.4294 2704.4722,-36.2543 2695.8188,-42.3673 2701.5196,-46.4294"/>
</g>
<!-- 43 -->
<g id="node44" class="node">
<title>43</title>
<path fill="none" stroke="#a7d856" stroke-width="2" d="M3853,-396C3853,-396 3662,-396 3662,-396 3656,-396 3650,-390 3650,-384 3650,-384 3650,-372 3650,-372 3650,-366 3656,-360 3662,-360 3662,-360 3853,-360 3853,-360 3859,-360 3865,-366 3865,-372 3865,-372 3865,-384 3865,-384 3865,-390 3859,-396 3853,-396"/>
<text text-anchor="middle" x="3757.5" y="-375.5" font-family="sans" font-size="10.00" fill="#000000">aggregate_variant_counts_Omicron_EG5</text>
</g>
<!-- 43&#45;&gt;0 -->
<g id="edge22" class="edge">
<title>43&#45;&gt;0</title>
<path fill="none" stroke="#c0c0c0" stroke-width="2" d="M3649.8712,-361.6357C3578.3436,-343.9454 3497.5,-307.6584 3497.5,-234 3497.5,-234 3497.5,-234 3497.5,-162 3497.5,-117.2786 3489.656,-96.8884 3452.5,-72 3396.7416,-34.651 2939.2307,-22.2661 2774.9513,-19.0002"/>
<polygon fill="#c0c0c0" stroke="#c0c0c0" stroke-width="2" points="2774.6282,-15.4933 2764.562,-18.7981 2774.492,-22.492 2774.6282,-15.4933"/>
</g>
<!-- 47 -->
<g id="node48" class="node">
<title>47</title>
<path fill="none" stroke="#ced856" stroke-width="2" d="M4041,-324C4041,-324 3874,-324 3874,-324 3868,-324 3862,-318 3862,-312 3862,-312 3862,-300 3862,-300 3862,-294 3868,-288 3874,-288 3874,-288 4041,-288 4041,-288 4047,-288 4053,-294 4053,-300 4053,-300 4053,-312 4053,-312 4053,-318 4047,-324 4041,-324"/>
<text text-anchor="middle" x="3957.5" y="-303.5" font-family="sans" font-size="10.00" fill="#000000">counts_to_cells_ratio_Omicron_EG5</text>
</g>
<!-- 43&#45;&gt;47 -->
<g id="edge111" class="edge">
<title>43&#45;&gt;47</title>
<path fill="none" stroke="#c0c0c0" stroke-width="2" d="M3807.7103,-359.9243C3835.0515,-350.0815 3869.0594,-337.8386 3897.7575,-327.5073"/>
<polygon fill="#c0c0c0" stroke="#c0c0c0" stroke-width="2" points="3899.0457,-330.7635 3907.2691,-324.0831 3896.6746,-324.1773 3899.0457,-330.7635"/>
</g>
<!-- 49 -->
<g id="node50" class="node">
<title>49</title>
<path fill="none" stroke="#56d882" stroke-width="2" d="M3831.5,-324C3831.5,-324 3683.5,-324 3683.5,-324 3677.5,-324 3671.5,-318 3671.5,-312 3671.5,-312 3671.5,-300 3671.5,-300 3671.5,-294 3677.5,-288 3683.5,-288 3683.5,-288 3831.5,-288 3831.5,-288 3837.5,-288 3843.5,-294 3843.5,-300 3843.5,-300 3843.5,-312 3843.5,-312 3843.5,-318 3837.5,-324 3831.5,-324"/>
<text text-anchor="middle" x="3757.5" y="-303.5" font-family="sans" font-size="10.00" fill="#000000">counts_to_scores_Omicron_EG5</text>
</g>
<!-- 43&#45;&gt;49 -->
<g id="edge113" class="edge">
<title>43&#45;&gt;49</title>
<path fill="none" stroke="#c0c0c0" stroke-width="2" d="M3757.5,-359.8314C3757.5,-352.131 3757.5,-342.9743 3757.5,-334.4166"/>
<polygon fill="#c0c0c0" stroke="#c0c0c0" stroke-width="2" points="3761.0001,-334.4132 3757.5,-324.4133 3754.0001,-334.4133 3761.0001,-334.4132"/>
</g>
<!-- 44 -->
<g id="node45" class="node">
<title>44</title>
<path fill="none" stroke="#56c1d8" stroke-width="2" d="M3825.5,-468C3825.5,-468 3689.5,-468 3689.5,-468 3683.5,-468 3677.5,-462 3677.5,-456 3677.5,-456 3677.5,-444 3677.5,-444 3677.5,-438 3683.5,-432 3689.5,-432 3689.5,-432 3825.5,-432 3825.5,-432 3831.5,-432 3837.5,-438 3837.5,-444 3837.5,-444 3837.5,-456 3837.5,-456 3837.5,-462 3831.5,-468 3825.5,-468"/>
<text text-anchor="middle" x="3757.5" y="-447.5" font-family="sans" font-size="10.00" fill="#000000">count_variants_Omicron_EG5</text>
</g>
<!-- 44&#45;&gt;43 -->
<g id="edge109" class="edge">
<title>44&#45;&gt;43</title>
<path fill="none" stroke="#c0c0c0" stroke-width="2" d="M3757.5,-431.8314C3757.5,-424.131 3757.5,-414.9743 3757.5,-406.4166"/>
<polygon fill="#c0c0c0" stroke="#c0c0c0" stroke-width="2" points="3761.0001,-406.4132 3757.5,-396.4133 3754.0001,-406.4133 3761.0001,-406.4132"/>
</g>
<!-- 45 -->
<g id="node46" class="node">
<title>45</title>
<path fill="none" stroke="#56d863" stroke-width="2" d="M4301,-396C4301,-396 4110,-396 4110,-396 4104,-396 4098,-390 4098,-384 4098,-384 4098,-372 4098,-372 4098,-366 4104,-360 4110,-360 4110,-360 4301,-360 4301,-360 4307,-360 4313,-366 4313,-372 4313,-372 4313,-384 4313,-384 4313,-390 4307,-396 4301,-396"/>
<text text-anchor="middle" x="4205.5" y="-375.5" font-family="sans" font-size="10.00" fill="#000000">aggregate_variant_counts_Omicron_FLip</text>
</g>
<!-- 45&#45;&gt;0 -->
<g id="edge32" class="edge">
<title>45&#45;&gt;0</title>
<path fill="none" stroke="#c0c0c0" stroke-width="2" d="M4149.7083,-359.8735C4131.9225,-351.5449 4113.7115,-339.8887 4101.5,-324 4076.5303,-291.5112 4081.5,-274.9758 4081.5,-234 4081.5,-234 4081.5,-234 4081.5,-162 4081.5,-83.8725 4005.3434,-94.4135 3930.5,-72 3819.2836,-38.6938 3001.7988,-22.7403 2774.8131,-18.9223"/>
<polygon fill="#c0c0c0" stroke="#c0c0c0" stroke-width="2" points="2774.8274,-15.4221 2764.7704,-18.7548 2774.7106,-22.4212 2774.8274,-15.4221"/>
</g>
<!-- 48 -->
<g id="node49" class="node">
<title>48</title>
<path fill="none" stroke="#c6d856" stroke-width="2" d="M4289,-324C4289,-324 4122,-324 4122,-324 4116,-324 4110,-318 4110,-312 4110,-312 4110,-300 4110,-300 4110,-294 4116,-288 4122,-288 4122,-288 4289,-288 4289,-288 4295,-288 4301,-294 4301,-300 4301,-300 4301,-312 4301,-312 4301,-318 4295,-324 4289,-324"/>
<text text-anchor="middle" x="4205.5" y="-303.5" font-family="sans" font-size="10.00" fill="#000000">counts_to_cells_ratio_Omicron_FLip</text>
</g>
<!-- 45&#45;&gt;48 -->
<g id="edge112" class="edge">
<title>45&#45;&gt;48</title>
<path fill="none" stroke="#c0c0c0" stroke-width="2" d="M4205.5,-359.8314C4205.5,-352.131 4205.5,-342.9743 4205.5,-334.4166"/>
<polygon fill="#c0c0c0" stroke="#c0c0c0" stroke-width="2" points="4209.0001,-334.4132 4205.5,-324.4133 4202.0001,-334.4133 4209.0001,-334.4132"/>
</g>
<!-- 50 -->
<g id="node51" class="node">
<title>50</title>
<path fill="none" stroke="#70d856" stroke-width="2" d="M4488.5,-324C4488.5,-324 4340.5,-324 4340.5,-324 4334.5,-324 4328.5,-318 4328.5,-312 4328.5,-312 4328.5,-300 4328.5,-300 4328.5,-294 4334.5,-288 4340.5,-288 4340.5,-288 4488.5,-288 4488.5,-288 4494.5,-288 4500.5,-294 4500.5,-300 4500.5,-300 4500.5,-312 4500.5,-312 4500.5,-318 4494.5,-324 4488.5,-324"/>
<text text-anchor="middle" x="4414.5" y="-303.5" font-family="sans" font-size="10.00" fill="#000000">counts_to_scores_Omicron_FLip</text>
</g>
<!-- 45&#45;&gt;50 -->
<g id="edge114" class="edge">
<title>45&#45;&gt;50</title>
<path fill="none" stroke="#c0c0c0" stroke-width="2" d="M4257.9698,-359.9243C4286.6655,-350.0387 4322.3888,-337.7321 4352.46,-327.3726"/>
<polygon fill="#c0c0c0" stroke="#c0c0c0" stroke-width="2" points="4353.694,-330.6495 4362.0087,-324.0831 4351.4139,-324.0312 4353.694,-330.6495"/>
</g>
<!-- 46 -->
<g id="node47" class="node">
<title>46</title>
<path fill="none" stroke="#56d89a" stroke-width="2" d="M4273.5,-468C4273.5,-468 4137.5,-468 4137.5,-468 4131.5,-468 4125.5,-462 4125.5,-456 4125.5,-456 4125.5,-444 4125.5,-444 4125.5,-438 4131.5,-432 4137.5,-432 4137.5,-432 4273.5,-432 4273.5,-432 4279.5,-432 4285.5,-438 4285.5,-444 4285.5,-444 4285.5,-456 4285.5,-456 4285.5,-462 4279.5,-468 4273.5,-468"/>
<text text-anchor="middle" x="4205.5" y="-447.5" font-family="sans" font-size="10.00" fill="#000000">count_variants_Omicron_FLip</text>
</g>
<!-- 46&#45;&gt;45 -->
<g id="edge110" class="edge">
<title>46&#45;&gt;45</title>
<path fill="none" stroke="#c0c0c0" stroke-width="2" d="M4205.5,-431.8314C4205.5,-424.131 4205.5,-414.9743 4205.5,-406.4166"/>
<polygon fill="#c0c0c0" stroke="#c0c0c0" stroke-width="2" points="4209.0001,-406.4132 4205.5,-396.4133 4202.0001,-406.4133 4209.0001,-406.4132"/>
</g>
<!-- 47&#45;&gt;0 -->
<g id="edge18" class="edge">
<title>47&#45;&gt;0</title>
<path fill="none" stroke="#c0c0c0" stroke-width="2" d="M3991.0997,-287.8076C4004.0404,-278.8793 4017.408,-266.8246 4024.5,-252 4031.4048,-237.5666 4030.5187,-230.8248 4024.5,-216 3990.9227,-133.2947 3965.8999,-108.6287 3884.5,-72 3782.9103,-26.2863 2996.74,-19.2651 2774.718,-18.1923"/>
<polygon fill="#c0c0c0" stroke="#c0c0c0" stroke-width="2" points="2774.593,-14.6918 2764.5769,-18.1456 2774.5607,-21.6917 2774.593,-14.6918"/>
</g>
<!-- 48&#45;&gt;0 -->
<g id="edge19" class="edge">
<title>48&#45;&gt;0</title>
<path fill="none" stroke="#c0c0c0" stroke-width="2" d="M4175.4144,-287.7671C4162.5718,-278.548 4148.4995,-266.278 4139.5,-252 4095.5862,-182.3293 4159.2726,-124.1102 4095.5,-72 4043.6611,-29.6412 3031.0095,-20.0844 2774.9356,-18.3415"/>
<polygon fill="#c0c0c0" stroke="#c0c0c0" stroke-width="2" points="2774.7508,-14.8403 2764.7276,-18.2735 2774.704,-21.8401 2774.7508,-14.8403"/>
</g>
<!-- 49&#45;&gt;0 -->
<g id="edge35" class="edge">
<title>49&#45;&gt;0</title>
<path fill="none" stroke="#c0c0c0" stroke-width="2" d="M3774.3712,-287.8881C3782.6408,-278.0003 3791.9839,-265.1212 3797.5,-252 3828.7556,-177.6523 3876.118,-130.4049 3820.5,-72 3784.1677,-33.8472 2997.523,-21.4123 2774.7915,-18.6496"/>
<polygon fill="#c0c0c0" stroke="#c0c0c0" stroke-width="2" points="2774.6588,-15.1479 2764.6167,-18.5253 2774.5732,-22.1473 2774.6588,-15.1479"/>
</g>
<!-- 51 -->
<g id="node52" class="node">
<title>51</title>
<path fill="none" stroke="#bed856" stroke-width="2" d="M3761,-252C3761,-252 3576,-252 3576,-252 3570,-252 3564,-246 3564,-240 3564,-240 3564,-228 3564,-228 3564,-222 3570,-216 3576,-216 3576,-216 3761,-216 3761,-216 3767,-216 3773,-222 3773,-228 3773,-228 3773,-240 3773,-240 3773,-246 3767,-252 3761,-252"/>
<text text-anchor="middle" x="3668.5" y="-231.5" font-family="sans" font-size="10.00" fill="#000000">call_strong_escape_sites_Omicron_EG5</text>
</g>
<!-- 49&#45;&gt;51 -->
<g id="edge115" class="edge">
<title>49&#45;&gt;51</title>
<path fill="none" stroke="#c0c0c0" stroke-width="2" d="M3735.0415,-287.8314C3724.0795,-278.9632 3710.7301,-268.1637 3698.8735,-258.5718"/>
<polygon fill="#c0c0c0" stroke="#c0c0c0" stroke-width="2" points="3700.9271,-255.7313 3690.9513,-252.1628 3696.5245,-261.1734 3700.9271,-255.7313"/>
</g>
<!-- 49&#45;&gt;53 -->
<g id="edge119" class="edge">
<title>49&#45;&gt;53</title>
<path fill="none" stroke="#c0c0c0" stroke-width="2" d="M3671.2288,-293.5904C3623.1386,-284.7143 3570.063,-270.9674 3555.5,-252 3539.7832,-231.5298 3557.8559,-205.8425 3576.8699,-187.156"/>
<polygon fill="#c0c0c0" stroke="#c0c0c0" stroke-width="2" points="3579.4929,-189.4954 3584.4147,-180.1131 3574.7163,-184.3783 3579.4929,-189.4954"/>
</g>
<!-- 55 -->
<g id="node56" class="node">
<title>55</title>
<path fill="none" stroke="#d85e56" stroke-width="2" d="M4003.5,-252C4003.5,-252 3879.5,-252 3879.5,-252 3873.5,-252 3867.5,-246 3867.5,-240 3867.5,-240 3867.5,-228 3867.5,-228 3867.5,-222 3873.5,-216 3879.5,-216 3879.5,-216 4003.5,-216 4003.5,-216 4009.5,-216 4015.5,-222 4015.5,-228 4015.5,-228 4015.5,-240 4015.5,-240 4015.5,-246 4009.5,-252 4003.5,-252"/>
<text text-anchor="middle" x="3941.5" y="-231.5" font-family="sans" font-size="10.00" fill="#000000">output_pdbs_Omicron_EG5</text>
</g>
<!-- 49&#45;&gt;55 -->
<g id="edge123" class="edge">
<title>49&#45;&gt;55</title>
<path fill="none" stroke="#c0c0c0" stroke-width="2" d="M3803.931,-287.8314C3828.868,-278.0734 3859.7809,-265.977 3885.9826,-255.7242"/>
<polygon fill="#c0c0c0" stroke="#c0c0c0" stroke-width="2" points="3887.3659,-258.9414 3895.4029,-252.038 3884.8151,-252.4227 3887.3659,-258.9414"/>
</g>
<!-- 57 -->
<g id="node58" class="node">
<title>57</title>
<path fill="none" stroke="#d88556" stroke-width="2" d="M3799,-108C3799,-108 3652,-108 3652,-108 3646,-108 3640,-102 3640,-96 3640,-96 3640,-84 3640,-84 3640,-78 3646,-72 3652,-72 3652,-72 3799,-72 3799,-72 3805,-72 3811,-78 3811,-84 3811,-84 3811,-96 3811,-96 3811,-102 3805,-108 3799,-108"/>
<text text-anchor="middle" x="3725.5" y="-87.5" font-family="sans" font-size="10.00" fill="#000000">make_supp_data_Omicron_EG5</text>
</g>
<!-- 49&#45;&gt;57 -->
<g id="edge126" class="edge">
<title>49&#45;&gt;57</title>
<path fill="none" stroke="#c0c0c0" stroke-width="2" d="M3768.388,-287.7133C3773.7929,-277.5709 3779.7445,-264.5105 3782.5,-252 3785.9415,-236.3745 3785.8732,-231.6404 3782.5,-216 3774.7353,-179.9971 3755.809,-141.8987 3741.8859,-117.1439"/>
<polygon fill="#c0c0c0" stroke="#c0c0c0" stroke-width="2" points="3744.8452,-115.2689 3736.8284,-108.342 3738.7758,-118.7563 3744.8452,-115.2689"/>
</g>
<!-- 50&#45;&gt;0 -->
<g id="edge29" class="edge">
<title>50&#45;&gt;0</title>
<path fill="none" stroke="#c0c0c0" stroke-width="2" d="M4500.5561,-292.5213C4545.8955,-283.4751 4594.8857,-269.9214 4608.5,-252 4683.7909,-152.8895 4667.117,-159.8884 4440.5,-72 4361.2986,-41.2835 3067.644,-22.5895 2775.0191,-18.7419"/>
<polygon fill="#c0c0c0" stroke="#c0c0c0" stroke-width="2" points="2774.6782,-15.2372 2764.6333,-18.606 2774.5866,-22.2366 2774.6782,-15.2372"/>
</g>
<!-- 52 -->
<g id="node53" class="node">
<title>52</title>
<path fill="none" stroke="#56d87b" stroke-width="2" d="M4345,-252C4345,-252 4160,-252 4160,-252 4154,-252 4148,-246 4148,-240 4148,-240 4148,-228 4148,-228 4148,-222 4154,-216 4160,-216 4160,-216 4345,-216 4345,-216 4351,-216 4357,-222 4357,-228 4357,-228 4357,-240 4357,-240 4357,-246 4351,-252 4345,-252"/>
<text text-anchor="middle" x="4252.5" y="-231.5" font-family="sans" font-size="10.00" fill="#000000">call_strong_escape_sites_Omicron_FLip</text>
</g>
<!-- 50&#45;&gt;52 -->
<g id="edge116" class="edge">
<title>50&#45;&gt;52</title>
<path fill="none" stroke="#c0c0c0" stroke-width="2" d="M4373.6206,-287.8314C4351.954,-278.2018 4325.1637,-266.295 4302.2922,-256.1299"/>
<polygon fill="#c0c0c0" stroke="#c0c0c0" stroke-width="2" points="4303.6451,-252.9011 4293.0855,-252.038 4300.8021,-259.2978 4303.6451,-252.9011"/>
</g>
<!-- 50&#45;&gt;54 -->
<g id="edge120" class="edge">
<title>50&#45;&gt;54</title>
<path fill="none" stroke="#c0c0c0" stroke-width="2" d="M4408.4115,-287.8369C4401.0596,-268.1452 4387.0636,-236.7575 4366.5,-216 4354.0029,-203.385 4337.9342,-192.9305 4322.3934,-184.6891"/>
<polygon fill="#c0c0c0" stroke="#c0c0c0" stroke-width="2" points="4323.8366,-181.4967 4313.3352,-180.0929 4320.6691,-187.7391 4323.8366,-181.4967"/>
</g>
<!-- 56 -->
<g id="node57" class="node">
<title>56</title>
<path fill="none" stroke="#d86656" stroke-width="2" d="M4587.5,-252C4587.5,-252 4463.5,-252 4463.5,-252 4457.5,-252 4451.5,-246 4451.5,-240 4451.5,-240 4451.5,-228 4451.5,-228 4451.5,-222 4457.5,-216 4463.5,-216 4463.5,-216 4587.5,-216 4587.5,-216 4593.5,-216 4599.5,-222 4599.5,-228 4599.5,-228 4599.5,-240 4599.5,-240 4599.5,-246 4593.5,-252 4587.5,-252"/>
<text text-anchor="middle" x="4525.5" y="-231.5" font-family="sans" font-size="10.00" fill="#000000">output_pdbs_Omicron_FLip</text>
</g>
<!-- 50&#45;&gt;56 -->
<g id="edge124" class="edge">
<title>50&#45;&gt;56</title>
<path fill="none" stroke="#c0c0c0" stroke-width="2" d="M4442.51,-287.8314C4456.5761,-278.7074 4473.794,-267.539 4488.8933,-257.7449"/>
<polygon fill="#c0c0c0" stroke="#c0c0c0" stroke-width="2" points="4491.014,-260.5412 4497.499,-252.1628 4487.2047,-254.6684 4491.014,-260.5412"/>
</g>
<!-- 58 -->
<g id="node59" class="node">
<title>58</title>
<path fill="none" stroke="#d88d56" stroke-width="2" d="M4383,-108C4383,-108 4236,-108 4236,-108 4230,-108 4224,-102 4224,-96 4224,-96 4224,-84 4224,-84 4224,-78 4230,-72 4236,-72 4236,-72 4383,-72 4383,-72 4389,-72 4395,-78 4395,-84 4395,-84 4395,-96 4395,-96 4395,-102 4389,-108 4383,-108"/>
<text text-anchor="middle" x="4309.5" y="-87.5" font-family="sans" font-size="10.00" fill="#000000">make_supp_data_Omicron_FLip</text>
</g>
<!-- 50&#45;&gt;58 -->
<g id="edge127" class="edge">
<title>50&#45;&gt;58</title>
<path fill="none" stroke="#c0c0c0" stroke-width="2" d="M4411.1646,-287.7576C4407.5391,-269.3504 4401.0938,-240.2588 4392.5,-216 4380.683,-182.6428 4378.1604,-173.4247 4358.5,-144 4351.9307,-134.1681 4343.632,-124.322 4335.7404,-115.7809"/>
<polygon fill="#c0c0c0" stroke="#c0c0c0" stroke-width="2" points="4338.0953,-113.1781 4328.6687,-108.3417 4333.0218,-118.001 4338.0953,-113.1781"/>
</g>
<!-- 51&#45;&gt;0 -->
<g id="edge20" class="edge">
<title>51&#45;&gt;0</title>
<path fill="none" stroke="#c0c0c0" stroke-width="2" d="M3683.3997,-215.6499C3696.9002,-196.6387 3712.6804,-166.6015 3698.5,-144 3693.6139,-136.2123 3558.3906,-74.3407 3549.5,-72 3402.8513,-33.3908 2939.274,-21.8191 2774.9527,-18.8814"/>
<polygon fill="#c0c0c0" stroke="#c0c0c0" stroke-width="2" points="2774.628,-15.3753 2764.5685,-18.7001 2774.5058,-22.3742 2774.628,-15.3753"/>
</g>
<!-- 51&#45;&gt;53 -->
<g id="edge118" class="edge">
<title>51&#45;&gt;53</title>
<path fill="none" stroke="#c0c0c0" stroke-width="2" d="M3653.1071,-215.8314C3646.0096,-207.454 3637.452,-197.3531 3629.676,-188.1749"/>
<polygon fill="#c0c0c0" stroke="#c0c0c0" stroke-width="2" points="3632.2348,-185.7807 3623.1001,-180.4133 3626.8939,-190.3056 3632.2348,-185.7807"/>
</g>
<!-- 52&#45;&gt;0 -->
<g id="edge34" class="edge">
<title>52&#45;&gt;0</title>
<path fill="none" stroke="#c0c0c0" stroke-width="2" d="M4218.8132,-215.9803C4204.218,-206.8043 4187.9001,-194.509 4176.5,-180 4144.5803,-139.3753 4175.6986,-101.8079 4133.5,-72 4077.2238,-32.2481 3035.4973,-20.7243 2775.1082,-18.4592"/>
<polygon fill="#c0c0c0" stroke="#c0c0c0" stroke-width="2" points="2774.7649,-14.9562 2764.7352,-18.3703 2774.7048,-21.956 2774.7649,-14.9562"/>
</g>
<!-- 52&#45;&gt;54 -->
<g id="edge122" class="edge">
<title>52&#45;&gt;54</title>
<path fill="none" stroke="#c0c0c0" stroke-width="2" d="M4256.2851,-215.8314C4257.8894,-208.131 4259.797,-198.9743 4261.5799,-190.4166"/>
<polygon fill="#c0c0c0" stroke="#c0c0c0" stroke-width="2" points="4265.0507,-190.9169 4263.6639,-180.4133 4258.1979,-189.4892 4265.0507,-190.9169"/>
</g>
<!-- 53&#45;&gt;0 -->
<g id="edge53" class="edge">
<title>53&#45;&gt;0</title>
<path fill="none" stroke="#c0c0c0" stroke-width="2" d="M3594.6247,-143.9787C3578.1206,-122.5088 3547.3205,-87.5894 3511.5,-72 3444.5295,-42.8538 2947.0288,-25.0468 2774.9006,-19.7055"/>
<polygon fill="#c0c0c0" stroke="#c0c0c0" stroke-width="2" points="2774.8684,-16.203 2764.7655,-19.3938 2774.6531,-23.1997 2774.8684,-16.203"/>
</g>
<!-- 53&#45;&gt;57 -->
<g id="edge125" class="edge">
<title>53&#45;&gt;57</title>
<path fill="none" stroke="#c0c0c0" stroke-width="2" d="M3637.2764,-143.8314C3652.3693,-134.6221 3670.8757,-123.3301 3687.0343,-113.4706"/>
<polygon fill="#c0c0c0" stroke="#c0c0c0" stroke-width="2" points="3689.0198,-116.3593 3695.7331,-108.1628 3685.3737,-110.3838 3689.0198,-116.3593"/>
</g>
<!-- 54&#45;&gt;0 -->
<g id="edge55" class="edge">
<title>54&#45;&gt;0</title>
<path fill="none" stroke="#c0c0c0" stroke-width="2" d="M4249.6496,-143.9596C4224.5947,-118.8442 4180.9884,-75.9572 4171.5,-72 4106.0656,-44.7101 3037.5932,-23.7748 2774.6238,-19.0191"/>
<polygon fill="#c0c0c0" stroke="#c0c0c0" stroke-width="2" points="2774.5812,-15.5179 2764.5198,-18.8372 2774.4551,-22.5167 2774.5812,-15.5179"/>
</g>
<!-- 54&#45;&gt;58 -->
<g id="edge128" class="edge">
<title>54&#45;&gt;58</title>
<path fill="none" stroke="#c0c0c0" stroke-width="2" d="M4278.0984,-143.8314C4282.7877,-135.7925 4288.4028,-126.1666 4293.5798,-117.2918"/>
<polygon fill="#c0c0c0" stroke="#c0c0c0" stroke-width="2" points="4296.7434,-118.8146 4298.7589,-108.4133 4290.6969,-115.2875 4296.7434,-118.8146"/>
</g>
<!-- 55&#45;&gt;0 -->
<g id="edge2" class="edge">
<title>55&#45;&gt;0</title>
<path fill="none" stroke="#c0c0c0" stroke-width="2" d="M3937.7707,-215.9031C3929.5138,-181.0176 3906.098,-104.9997 3853.5,-72 3807.4635,-43.1169 3000.792,-23.9952 2774.8749,-19.1893"/>
<polygon fill="#c0c0c0" stroke="#c0c0c0" stroke-width="2" points="2774.6331,-15.6835 2764.5613,-18.9713 2774.4851,-22.6819 2774.6331,-15.6835"/>
</g>
<!-- 56&#45;&gt;0 -->
<g id="edge3" class="edge">
<title>56&#45;&gt;0</title>
<path fill="none" stroke="#c0c0c0" stroke-width="2" d="M4518.3877,-215.9093C4503.4352,-180.6805 4465.0422,-103.5672 4404.5,-72 4330.8267,-33.5862 3063.9343,-20.8605 2774.8849,-18.4506"/>
<polygon fill="#c0c0c0" stroke="#c0c0c0" stroke-width="2" points="2774.6494,-14.9487 2764.6209,-18.366 2774.5916,-21.9484 2774.6494,-14.9487"/>
</g>
<!-- 57&#45;&gt;0 -->
<g id="edge7" class="edge">
<title>57&#45;&gt;0</title>
<path fill="none" stroke="#c0c0c0" stroke-width="2" d="M3639.9554,-73.9126C3635.0734,-73.2094 3630.2293,-72.5641 3625.5,-72 3306.1915,-33.9143 2920.4203,-22.2597 2775.397,-19.0785"/>
<polygon fill="#c0c0c0" stroke="#c0c0c0" stroke-width="2" points="2775.0391,-15.5702 2764.9665,-18.8553 2774.8893,-22.5686 2775.0391,-15.5702"/>
</g>
<!-- 58&#45;&gt;0 -->
<g id="edge8" class="edge">
<title>58&#45;&gt;0</title>
<path fill="none" stroke="#c0c0c0" stroke-width="2" d="M4223.9704,-73.7809C4219.0845,-73.1113 4214.2355,-72.5092 4209.5,-72 3923.9478,-41.2933 3015.1614,-23.3028 2775.114,-19.0069"/>
<polygon fill="#c0c0c0" stroke="#c0c0c0" stroke-width="2" points="2774.9166,-15.503 2764.8559,-18.8244 2774.792,-22.5019 2774.9166,-15.503"/>
</g>
<!-- 59&#45;&gt;0 -->
<g id="edge56" class="edge">
<title>59&#45;&gt;0</title>
<path fill="none" stroke="#c0c0c0" stroke-width="2" d="M2716.5,-143.7623C2716.5,-119.201 2716.5,-75.2474 2716.5,-46.3541"/>
<polygon fill="#c0c0c0" stroke="#c0c0c0" stroke-width="2" points="2720.0001,-46.0896 2716.5,-36.0896 2713.0001,-46.0897 2720.0001,-46.0896"/>
</g>
<!-- 60 -->
<g id="node61" class="node">
<title>60</title>
<path fill="none" stroke="#56c9d8" stroke-width="2" d="M4897,-396C4897,-396 4694,-396 4694,-396 4688,-396 4682,-390 4682,-384 4682,-384 4682,-372 4682,-372 4682,-366 4688,-360 4694,-360 4694,-360 4897,-360 4897,-360 4903,-360 4909,-366 4909,-372 4909,-372 4909,-384 4909,-384 4909,-390 4903,-396 4897,-396"/>
<text text-anchor="middle" x="4795.5" y="-375.5" font-family="sans" font-size="10.00" fill="#000000">aggregate_variant_counts_Omicron_BA286</text>
</g>
<!-- 60&#45;&gt;0 -->
<g id="edge44" class="edge">
<title>60&#45;&gt;0</title>
<path fill="none" stroke="#c0c0c0" stroke-width="2" d="M4735.1024,-359.8966C4716.753,-351.6585 4698.1274,-340.0518 4685.5,-324 4660.1653,-291.7949 4665.5,-274.9758 4665.5,-234 4665.5,-234 4665.5,-234 4665.5,-162 4665.5,-112.6372 4781.5843,-141.4876 4499.5,-72 4329.1715,-30.0419 3063.6692,-20.0548 2775.0024,-18.3133"/>
<polygon fill="#c0c0c0" stroke="#c0c0c0" stroke-width="2" points="2774.7725,-14.8119 2764.7519,-18.2524 2774.7309,-21.8118 2774.7725,-14.8119"/>
</g>
<!-- 62 -->
<g id="node63" class="node">
<title>62</title>
<path fill="none" stroke="#afd856" stroke-width="2" d="M4885,-324C4885,-324 4706,-324 4706,-324 4700,-324 4694,-318 4694,-312 4694,-312 4694,-300 4694,-300 4694,-294 4700,-288 4706,-288 4706,-288 4885,-288 4885,-288 4891,-288 4897,-294 4897,-300 4897,-300 4897,-312 4897,-312 4897,-318 4891,-324 4885,-324"/>
<text text-anchor="middle" x="4795.5" y="-303.5" font-family="sans" font-size="10.00" fill="#000000">counts_to_cells_ratio_Omicron_BA286</text>
</g>
<!-- 60&#45;&gt;62 -->
<g id="edge131" class="edge">
<title>60&#45;&gt;62</title>
<path fill="none" stroke="#c0c0c0" stroke-width="2" d="M4795.5,-359.8314C4795.5,-352.131 4795.5,-342.9743 4795.5,-334.4166"/>
<polygon fill="#c0c0c0" stroke="#c0c0c0" stroke-width="2" points="4799.0001,-334.4132 4795.5,-324.4133 4792.0001,-334.4133 4799.0001,-334.4132"/>
</g>
<!-- 63 -->
<g id="node64" class="node">
<title>63</title>
<path fill="none" stroke="#d86e56" stroke-width="2" d="M5093.5,-324C5093.5,-324 4933.5,-324 4933.5,-324 4927.5,-324 4921.5,-318 4921.5,-312 4921.5,-312 4921.5,-300 4921.5,-300 4921.5,-294 4927.5,-288 4933.5,-288 4933.5,-288 5093.5,-288 5093.5,-288 5099.5,-288 5105.5,-294 5105.5,-300 5105.5,-300 5105.5,-312 5105.5,-312 5105.5,-318 5099.5,-324 5093.5,-324"/>
<text text-anchor="middle" x="5013.5" y="-303.5" font-family="sans" font-size="10.00" fill="#000000">counts_to_scores_Omicron_BA286</text>
</g>
<!-- 60&#45;&gt;63 -->
<g id="edge132" class="edge">
<title>60&#45;&gt;63</title>
<path fill="none" stroke="#c0c0c0" stroke-width="2" d="M4850.2292,-359.9243C4880.2902,-349.9959 4917.745,-337.6255 4949.1954,-327.2382"/>
<polygon fill="#c0c0c0" stroke="#c0c0c0" stroke-width="2" points="4950.3504,-330.5428 4958.7483,-324.0831 4948.1551,-323.8959 4950.3504,-330.5428"/>
</g>
<!-- 61 -->
<g id="node62" class="node">
<title>61</title>
<path fill="none" stroke="#59d856" stroke-width="2" d="M4869.5,-468C4869.5,-468 4721.5,-468 4721.5,-468 4715.5,-468 4709.5,-462 4709.5,-456 4709.5,-456 4709.5,-444 4709.5,-444 4709.5,-438 4715.5,-432 4721.5,-432 4721.5,-432 4869.5,-432 4869.5,-432 4875.5,-432 4881.5,-438 4881.5,-444 4881.5,-444 4881.5,-456 4881.5,-456 4881.5,-462 4875.5,-468 4869.5,-468"/>
<text text-anchor="middle" x="4795.5" y="-447.5" font-family="sans" font-size="10.00" fill="#000000">count_variants_Omicron_BA286</text>
</g>
<!-- 61&#45;&gt;60 -->
<g id="edge130" class="edge">
<title>61&#45;&gt;60</title>
<path fill="none" stroke="#c0c0c0" stroke-width="2" d="M4795.5,-431.8314C4795.5,-424.131 4795.5,-414.9743 4795.5,-406.4166"/>
<polygon fill="#c0c0c0" stroke="#c0c0c0" stroke-width="2" points="4799.0001,-406.4132 4795.5,-396.4133 4792.0001,-406.4133 4799.0001,-406.4132"/>
</g>
<!-- 62&#45;&gt;0 -->
<g id="edge23" class="edge">
<title>62&#45;&gt;0</title>
<path fill="none" stroke="#c0c0c0" stroke-width="2" d="M4761.9374,-287.8265C4748.1284,-278.7657 4733.1419,-266.6043 4723.5,-252 4678.1251,-183.272 4743.5747,-123.7383 4679.5,-72 4641.4928,-41.3104 3097.2191,-22.2805 2775.0314,-18.6399"/>
<polygon fill="#c0c0c0" stroke="#c0c0c0" stroke-width="2" points="2775.0102,-15.1395 2764.9714,-18.5267 2774.9314,-22.1391 2775.0102,-15.1395"/>
</g>
<!-- 63&#45;&gt;0 -->
<g id="edge4" class="edge">
<title>63&#45;&gt;0</title>
<path fill="none" stroke="#c0c0c0" stroke-width="2" d="M5105.7147,-292.6167C5152.5125,-283.7398 5202.4137,-270.3233 5216.5,-252 5296.2167,-148.3056 5295.0754,-166.1277 5037.5,-72 4928.1097,-32.0247 3123.7959,-20.2131 2774.7143,-18.2974"/>
<polygon fill="#c0c0c0" stroke="#c0c0c0" stroke-width="2" points="2774.5941,-14.7968 2764.5752,-18.2423 2774.556,-21.7967 2774.5941,-14.7968"/>
</g>
<!-- 64 -->
<g id="node65" class="node">
<title>64</title>
<path fill="none" stroke="#56d8a2" stroke-width="2" d="M4941,-252C4941,-252 4744,-252 4744,-252 4738,-252 4732,-246 4732,-240 4732,-240 4732,-228 4732,-228 4732,-222 4738,-216 4744,-216 4744,-216 4941,-216 4941,-216 4947,-216 4953,-222 4953,-228 4953,-228 4953,-240 4953,-240 4953,-246 4947,-252 4941,-252"/>
<text text-anchor="middle" x="4842.5" y="-231.5" font-family="sans" font-size="10.00" fill="#000000">call_strong_escape_sites_Omicron_BA286</text>
</g>
<!-- 63&#45;&gt;64 -->
<g id="edge133" class="edge">
<title>63&#45;&gt;64</title>
<path fill="none" stroke="#c0c0c0" stroke-width="2" d="M4970.3495,-287.8314C4947.3776,-278.159 4918.9491,-266.1891 4894.7368,-255.9944"/>
<polygon fill="#c0c0c0" stroke="#c0c0c0" stroke-width="2" points="4895.9148,-252.6929 4885.3402,-252.038 4893.1984,-259.1443 4895.9148,-252.6929"/>
</g>
<!-- 63&#45;&gt;65 -->
<g id="edge134" class="edge">
<title>63&#45;&gt;65</title>
<path fill="none" stroke="#c0c0c0" stroke-width="2" d="M5006.851,-287.7486C4998.882,-267.9796 4983.874,-236.5246 4962.5,-216 4949.0891,-203.122 4932.0002,-192.5907 4915.5232,-184.3598"/>
<polygon fill="#c0c0c0" stroke="#c0c0c0" stroke-width="2" points="4916.9908,-181.1821 4906.4595,-180.0235 4913.9697,-187.4966 4916.9908,-181.1821"/>
</g>
<!-- 66 -->
<g id="node67" class="node">
<title>66</title>
<path fill="none" stroke="#d89556" stroke-width="2" d="M5195.5,-252C5195.5,-252 5059.5,-252 5059.5,-252 5053.5,-252 5047.5,-246 5047.5,-240 5047.5,-240 5047.5,-228 5047.5,-228 5047.5,-222 5053.5,-216 5059.5,-216 5059.5,-216 5195.5,-216 5195.5,-216 5201.5,-216 5207.5,-222 5207.5,-228 5207.5,-228 5207.5,-240 5207.5,-240 5207.5,-246 5201.5,-252 5195.5,-252"/>
<text text-anchor="middle" x="5127.5" y="-231.5" font-family="sans" font-size="10.00" fill="#000000">output_pdbs_Omicron_BA286</text>
</g>
<!-- 63&#45;&gt;66 -->
<g id="edge137" class="edge">
<title>63&#45;&gt;66</title>
<path fill="none" stroke="#c0c0c0" stroke-width="2" d="M5042.267,-287.8314C5056.7133,-278.7074 5074.3965,-267.539 5089.904,-257.7449"/>
<polygon fill="#c0c0c0" stroke="#c0c0c0" stroke-width="2" points="5092.1563,-260.462 5098.7422,-252.1628 5088.4183,-254.5436 5092.1563,-260.462"/>
</g>
<!-- 67 -->
<g id="node68" class="node">
<title>67</title>
<path fill="none" stroke="#56d8b9" stroke-width="2" d="M4979,-108C4979,-108 4820,-108 4820,-108 4814,-108 4808,-102 4808,-96 4808,-96 4808,-84 4808,-84 4808,-78 4814,-72 4820,-72 4820,-72 4979,-72 4979,-72 4985,-72 4991,-78 4991,-84 4991,-84 4991,-96 4991,-96 4991,-102 4985,-108 4979,-108"/>
<text text-anchor="middle" x="4899.5" y="-87.5" font-family="sans" font-size="10.00" fill="#000000">make_supp_data_Omicron_BA286</text>
</g>
<!-- 63&#45;&gt;67 -->
<g id="edge138" class="edge">
<title>63&#45;&gt;67</title>
<path fill="none" stroke="#c0c0c0" stroke-width="2" d="M5010.2793,-287.9563C5003.9488,-256.3392 4987.5323,-189.9265 4954.5,-144 4947.0528,-133.6457 4937.527,-123.5162 4928.5027,-114.8793"/>
<polygon fill="#c0c0c0" stroke="#c0c0c0" stroke-width="2" points="4930.8067,-112.2424 4921.0969,-108.0032 4926.0438,-117.3723 4930.8067,-112.2424"/>
</g>
<!-- 64&#45;&gt;0 -->
<g id="edge39" class="edge">
<title>64&#45;&gt;0</title>
<path fill="none" stroke="#c0c0c0" stroke-width="2" d="M4804.8825,-215.7703C4789.4548,-206.7688 4772.4513,-194.6684 4760.5,-180 4727.8662,-139.9467 4759.8636,-101.573 4717.5,-72 4676.6248,-43.466 3100.7584,-22.6924 2775.0387,-18.6985"/>
<polygon fill="#c0c0c0" stroke="#c0c0c0" stroke-width="2" points="2774.9158,-15.1968 2764.8737,-18.5743 2774.8302,-22.1963 2774.9158,-15.1968"/>
</g>
<!-- 64&#45;&gt;65 -->
<g id="edge136" class="edge">
<title>64&#45;&gt;65</title>
<path fill="none" stroke="#c0c0c0" stroke-width="2" d="M4846.2851,-215.8314C4847.8894,-208.131 4849.797,-198.9743 4851.5799,-190.4166"/>
<polygon fill="#c0c0c0" stroke="#c0c0c0" stroke-width="2" points="4855.0507,-190.9169 4853.6639,-180.4133 4848.1979,-189.4892 4855.0507,-190.9169"/>
</g>
<!-- 65&#45;&gt;0 -->
<g id="edge25" class="edge">
<title>65&#45;&gt;0</title>
<path fill="none" stroke="#c0c0c0" stroke-width="2" d="M4837.6459,-143.8555C4809.4026,-118.1363 4760.4724,-73.9557 4755.5,-72 4661.0098,-34.8358 3098.7938,-20.9171 2774.9738,-18.4246"/>
<polygon fill="#c0c0c0" stroke="#c0c0c0" stroke-width="2" points="2774.8929,-14.924 2764.8664,-18.3474 2774.8394,-21.9238 2774.8929,-14.924"/>
</g>
<!-- 65&#45;&gt;67 -->
<g id="edge139" class="edge">
<title>65&#45;&gt;67</title>
<path fill="none" stroke="#c0c0c0" stroke-width="2" d="M4868.0984,-143.8314C4872.7877,-135.7925 4878.4028,-126.1666 4883.5798,-117.2918"/>
<polygon fill="#c0c0c0" stroke="#c0c0c0" stroke-width="2" points="4886.7434,-118.8146 4888.7589,-108.4133 4880.6969,-115.2875 4886.7434,-118.8146"/>
</g>
<!-- 66&#45;&gt;0 -->
<g id="edge9" class="edge">
<title>66&#45;&gt;0</title>
<path fill="none" stroke="#c0c0c0" stroke-width="2" d="M5119.7911,-215.838C5103.6642,-180.4828 5062.6356,-103.1557 5000.5,-72 4949.2464,-46.3007 3126.3007,-22.9609 2774.8141,-18.6941"/>
<polygon fill="#c0c0c0" stroke="#c0c0c0" stroke-width="2" points="2774.6488,-15.1919 2764.6071,-18.5705 2774.564,-22.1914 2774.6488,-15.1919"/>
</g>
<!-- 67&#45;&gt;0 -->
<g id="edge48" class="edge">
<title>67&#45;&gt;0</title>
<path fill="none" stroke="#c0c0c0" stroke-width="2" d="M4807.9677,-73.6225C4803.0829,-73.0096 4798.2375,-72.4615 4793.5,-72 4386.1182,-32.3184 3068.7308,-20.5546 2774.9461,-18.3954"/>
<polygon fill="#c0c0c0" stroke="#c0c0c0" stroke-width="2" points="2774.5523,-14.8926 2764.5271,-18.3197 2774.5014,-21.8924 2774.5523,-14.8926"/>
</g>
<!-- 68&#45;&gt;0 -->
<g id="edge61" class="edge">
<title>68&#45;&gt;0</title>
<path fill="none" stroke="#c0c0c0" stroke-width="2" d="M1245.6261,-75.1744C1250.2599,-73.9138 1254.9503,-72.8122 1259.5,-72 1398.5952,-47.1677 2403.4124,-24.5739 2657.9964,-19.204"/>
<polygon fill="#c0c0c0" stroke="#c0c0c0" stroke-width="2" points="2658.2221,-22.7001 2668.1463,-18.9906 2658.0749,-15.7016 2658.2221,-22.7001"/>
</g>
</g>
</svg>
