<?xml version="1.0" encoding="UTF-8" standalone="no"?>
<!DOCTYPE svg PUBLIC "-//W3C//DTD SVG 1.1//EN"
 "http://www.w3.org/Graphics/SVG/1.1/DTD/svg11.dtd">
<!-- Generated by graphviz version 2.40.1 (0)
 -->
<!-- Title: snakemake_dag Pages: 1 -->
<svg width="3112pt" height="476pt"
 viewBox="0.00 0.00 3111.50 476.00" xmlns="http://www.w3.org/2000/svg" xmlns:xlink="http://www.w3.org/1999/xlink">
<g id="graph0" class="graph" transform="scale(1 1) rotate(0) translate(4 472)">
<title>snakemake_dag</title>
<polygon fill="#ffffff" stroke="transparent" points="-4,4 -4,-472 3107.5,-472 3107.5,4 -4,4"/>
<!-- 0 -->
<g id="node1" class="node">
<title>0</title>
<path fill="none" stroke="#d89556" stroke-width="2" d="M1665,-36C1665,-36 1593,-36 1593,-36 1587,-36 1581,-30 1581,-24 1581,-24 1581,-12 1581,-12 1581,-6 1587,0 1593,0 1593,0 1665,0 1665,0 1671,0 1677,-6 1677,-12 1677,-12 1677,-24 1677,-24 1677,-30 1671,-36 1665,-36"/>
<text text-anchor="middle" x="1629" y="-15.5" font-family="sans" font-size="10.00" fill="#000000">make_summary</text>
</g>
<!-- 1 -->
<g id="node2" class="node">
<title>1</title>
<path fill="none" stroke="#56d86b" stroke-width="2" d="M84,-180C84,-180 12,-180 12,-180 6,-180 0,-174 0,-168 0,-168 0,-156 0,-156 0,-150 6,-144 12,-144 12,-144 84,-144 84,-144 90,-144 96,-150 96,-156 96,-156 96,-168 96,-168 96,-174 90,-180 84,-180"/>
<text text-anchor="middle" x="48" y="-159.5" font-family="sans" font-size="10.00" fill="#000000">make_rulegraph</text>
</g>
<!-- 1&#45;&gt;0 -->
<g id="edge20" class="edge">
<title>1&#45;&gt;0</title>
<path fill="none" stroke="#c0c0c0" stroke-width="2" d="M35.3971,-143.9147C22.9865,-123.6937 8.3752,-91.2632 27,-72 54.362,-43.7001 1285.5016,-23.2321 1570.527,-18.8676"/>
<polygon fill="#c0c0c0" stroke="#c0c0c0" stroke-width="2" points="1570.7109,-22.3653 1580.6564,-18.7132 1570.6041,-15.3661 1570.7109,-22.3653"/>
</g>
<!-- 2 -->
<g id="node3" class="node">
<title>2</title>
<path fill="none" stroke="#56b9d8" stroke-width="2" d="M125.5,-108C125.5,-108 48.5,-108 48.5,-108 42.5,-108 36.5,-102 36.5,-96 36.5,-96 36.5,-84 36.5,-84 36.5,-78 42.5,-72 48.5,-72 48.5,-72 125.5,-72 125.5,-72 131.5,-72 137.5,-78 137.5,-84 137.5,-84 137.5,-96 137.5,-96 137.5,-102 131.5,-108 125.5,-108"/>
<text text-anchor="middle" x="87" y="-87.5" font-family="sans" font-size="10.00" fill="#000000">save_pinned_env</text>
</g>
<!-- 1&#45;&gt;2 -->
<g id="edge39" class="edge">
<title>1&#45;&gt;2</title>
<path fill="none" stroke="#c0c0c0" stroke-width="2" d="M57.8413,-143.8314C62.1957,-135.7925 67.4098,-126.1666 72.2169,-117.2918"/>
<polygon fill="#c0c0c0" stroke="#c0c0c0" stroke-width="2" points="75.3408,-118.8732 77.0261,-108.4133 69.1857,-115.5392 75.3408,-118.8732"/>
</g>
<!-- 2&#45;&gt;0 -->
<g id="edge31" class="edge">
<title>2&#45;&gt;0</title>
<path fill="none" stroke="#c0c0c0" stroke-width="2" d="M137.8492,-74.709C142.602,-73.6468 147.3712,-72.7154 152,-72 432.6344,-28.6245 1332.0789,-19.8872 1570.5238,-18.3163"/>
<polygon fill="#c0c0c0" stroke="#c0c0c0" stroke-width="2" points="1570.7383,-21.8151 1580.7156,-18.2509 1570.6933,-14.8152 1570.7383,-21.8151"/>
</g>
<!-- 3 -->
<g id="node4" class="node">
<title>3</title>
<path fill="none" stroke="#56d873" stroke-width="2" d="M1193,-252C1193,-252 1107,-252 1107,-252 1101,-252 1095,-246 1095,-240 1095,-240 1095,-228 1095,-228 1095,-222 1101,-216 1107,-216 1107,-216 1193,-216 1193,-216 1199,-216 1205,-222 1205,-228 1205,-228 1205,-240 1205,-240 1205,-246 1199,-252 1193,-252"/>
<text text-anchor="middle" x="1150" y="-231.5" font-family="sans" font-size="10.00" fill="#000000">get_mut_bind_expr</text>
</g>
<!-- 3&#45;&gt;0 -->
<g id="edge19" class="edge">
<title>3&#45;&gt;0</title>
<path fill="none" stroke="#c0c0c0" stroke-width="2" d="M1094.8146,-219.8063C1074.5945,-211.6447 1053.7924,-199.0806 1042,-180 1033.5883,-166.3896 1033.1637,-157.3386 1042,-144 1064.6577,-109.7978 1092.2531,-129.8131 1127,-108 1147.5381,-95.1068 1145.8438,-81.8566 1168,-72 1238.7893,-40.5079 1463.3455,-25.858 1570.7194,-20.5171"/>
<polygon fill="#c0c0c0" stroke="#c0c0c0" stroke-width="2" points="1570.9177,-24.0116 1580.7355,-20.029 1570.577,-17.0199 1570.9177,-24.0116"/>
</g>
<!-- 5 -->
<g id="node6" class="node">
<title>5</title>
<path fill="none" stroke="#97d856" stroke-width="2" d="M1331.5,-108C1331.5,-108 1188.5,-108 1188.5,-108 1182.5,-108 1176.5,-102 1176.5,-96 1176.5,-96 1176.5,-84 1176.5,-84 1176.5,-78 1182.5,-72 1188.5,-72 1188.5,-72 1331.5,-72 1331.5,-72 1337.5,-72 1343.5,-78 1343.5,-84 1343.5,-84 1343.5,-96 1343.5,-96 1343.5,-102 1337.5,-108 1331.5,-108"/>
<text text-anchor="middle" x="1260" y="-87.5" font-family="sans" font-size="10.00" fill="#000000">bind_expr_filters_Wuhan_Hu_1</text>
</g>
<!-- 3&#45;&gt;5 -->
<g id="edge40" class="edge">
<title>3&#45;&gt;5</title>
<path fill="none" stroke="#c0c0c0" stroke-width="2" d="M1094.9344,-215.9074C1078.5278,-207.6534 1062.4252,-196.0344 1053,-180 1044.892,-166.2065 1043.2179,-156.6614 1053,-144 1060.4929,-134.3017 1115.2883,-120.2488 1166.6162,-108.91"/>
<polygon fill="#c0c0c0" stroke="#c0c0c0" stroke-width="2" points="1167.4615,-112.3079 1176.4835,-106.7533 1165.9668,-105.4694 1167.4615,-112.3079"/>
</g>
<!-- 6 -->
<g id="node7" class="node">
<title>6</title>
<path fill="none" stroke="#56d8d8" stroke-width="2" d="M1105.5,-108C1105.5,-108 960.5,-108 960.5,-108 954.5,-108 948.5,-102 948.5,-96 948.5,-96 948.5,-84 948.5,-84 948.5,-78 954.5,-72 960.5,-72 960.5,-72 1105.5,-72 1105.5,-72 1111.5,-72 1117.5,-78 1117.5,-84 1117.5,-84 1117.5,-96 1117.5,-96 1117.5,-102 1111.5,-108 1105.5,-108"/>
<text text-anchor="middle" x="1033" y="-87.5" font-family="sans" font-size="10.00" fill="#000000">bind_expr_filters_Omicron_BA2</text>
</g>
<!-- 3&#45;&gt;6 -->
<g id="edge41" class="edge">
<title>3&#45;&gt;6</title>
<path fill="none" stroke="#c0c0c0" stroke-width="2" d="M1094.8394,-223.5376C1051.2564,-214.018 995.5802,-198.6295 982,-180 966.9635,-159.3727 984.3447,-133.9074 1002.7816,-115.3346"/>
<polygon fill="#c0c0c0" stroke="#c0c0c0" stroke-width="2" points="1005.2979,-117.7711 1010.1062,-108.3302 1000.4599,-112.712 1005.2979,-117.7711"/>
</g>
<!-- 17 -->
<g id="node18" class="node">
<title>17</title>
<path fill="none" stroke="#d87d56" stroke-width="2" d="M639.5,-180C639.5,-180 502.5,-180 502.5,-180 496.5,-180 490.5,-174 490.5,-168 490.5,-168 490.5,-156 490.5,-156 490.5,-150 496.5,-144 502.5,-144 502.5,-144 639.5,-144 639.5,-144 645.5,-144 651.5,-150 651.5,-156 651.5,-156 651.5,-168 651.5,-168 651.5,-174 645.5,-180 639.5,-180"/>
<text text-anchor="middle" x="571" y="-159.5" font-family="sans" font-size="10.00" fill="#000000">escape_profiles_Wuhan_Hu_1</text>
</g>
<!-- 3&#45;&gt;17 -->
<g id="edge51" class="edge">
<title>3&#45;&gt;17</title>
<path fill="none" stroke="#c0c0c0" stroke-width="2" d="M1094.792,-229.488C1005.8525,-221.8717 825.1774,-204.9667 662.1119,-180.0981"/>
<polygon fill="#c0c0c0" stroke="#c0c0c0" stroke-width="2" points="662.3096,-176.5874 651.8936,-178.5256 661.2449,-183.5059 662.3096,-176.5874"/>
</g>
<!-- 18 -->
<g id="node19" class="node">
<title>18</title>
<path fill="none" stroke="#56d882" stroke-width="2" d="M1684,-180C1684,-180 1544,-180 1544,-180 1538,-180 1532,-174 1532,-168 1532,-168 1532,-156 1532,-156 1532,-150 1538,-144 1544,-144 1544,-144 1684,-144 1684,-144 1690,-144 1696,-150 1696,-156 1696,-156 1696,-168 1696,-168 1696,-174 1690,-180 1684,-180"/>
<text text-anchor="middle" x="1614" y="-159.5" font-family="sans" font-size="10.00" fill="#000000">escape_profiles_Omicron_BA2</text>
</g>
<!-- 3&#45;&gt;18 -->
<g id="edge55" class="edge">
<title>3&#45;&gt;18</title>
<path fill="none" stroke="#c0c0c0" stroke-width="2" d="M1205.049,-225.4579C1283.1038,-213.346 1426.9512,-191.0248 1521.5464,-176.3462"/>
<polygon fill="#c0c0c0" stroke="#c0c0c0" stroke-width="2" points="1522.34,-179.7651 1531.685,-174.773 1521.2666,-172.8479 1522.34,-179.7651"/>
</g>
<!-- 23 -->
<g id="node24" class="node">
<title>23</title>
<path fill="none" stroke="#56c1d8" stroke-width="2" d="M1226,-180C1226,-180 1074,-180 1074,-180 1068,-180 1062,-174 1062,-168 1062,-168 1062,-156 1062,-156 1062,-150 1068,-144 1074,-144 1074,-144 1226,-144 1226,-144 1232,-144 1238,-150 1238,-156 1238,-156 1238,-168 1238,-168 1238,-174 1232,-180 1226,-180"/>
<text text-anchor="middle" x="1150" y="-159.5" font-family="sans" font-size="10.00" fill="#000000">bind_expr_filters_Omicron_BQ11</text>
</g>
<!-- 3&#45;&gt;23 -->
<g id="edge62" class="edge">
<title>3&#45;&gt;23</title>
<path fill="none" stroke="#c0c0c0" stroke-width="2" d="M1150,-215.8314C1150,-208.131 1150,-198.9743 1150,-190.4166"/>
<polygon fill="#c0c0c0" stroke="#c0c0c0" stroke-width="2" points="1153.5001,-190.4132 1150,-180.4133 1146.5001,-190.4133 1153.5001,-190.4132"/>
</g>
<!-- 24 -->
<g id="node25" class="node">
<title>24</title>
<path fill="none" stroke="#56d8b1" stroke-width="2" d="M1426,-180C1426,-180 1268,-180 1268,-180 1262,-180 1256,-174 1256,-168 1256,-168 1256,-156 1256,-156 1256,-150 1262,-144 1268,-144 1268,-144 1426,-144 1426,-144 1432,-144 1438,-150 1438,-156 1438,-156 1438,-168 1438,-168 1438,-174 1432,-180 1426,-180"/>
<text text-anchor="middle" x="1347" y="-159.5" font-family="sans" font-size="10.00" fill="#000000">bind_expr_filters_Omicron_XBB15</text>
</g>
<!-- 3&#45;&gt;24 -->
<g id="edge63" class="edge">
<title>3&#45;&gt;24</title>
<path fill="none" stroke="#c0c0c0" stroke-width="2" d="M1199.4571,-215.9243C1226.2711,-206.1243 1259.5949,-193.945 1287.7847,-183.6422"/>
<polygon fill="#c0c0c0" stroke="#c0c0c0" stroke-width="2" points="1289.3316,-186.8033 1297.5225,-180.0831 1286.9287,-180.2286 1289.3316,-186.8033"/>
</g>
<!-- 35 -->
<g id="node36" class="node">
<title>35</title>
<path fill="none" stroke="#80d856" stroke-width="2" d="M2164,-180C2164,-180 2018,-180 2018,-180 2012,-180 2006,-174 2006,-168 2006,-168 2006,-156 2006,-156 2006,-150 2012,-144 2018,-144 2018,-144 2164,-144 2164,-144 2170,-144 2176,-150 2176,-156 2176,-156 2176,-168 2176,-168 2176,-174 2170,-180 2164,-180"/>
<text text-anchor="middle" x="2091" y="-159.5" font-family="sans" font-size="10.00" fill="#000000">escape_profiles_Omicron_BQ11</text>
</g>
<!-- 3&#45;&gt;35 -->
<g id="edge73" class="edge">
<title>3&#45;&gt;35</title>
<path fill="none" stroke="#c0c0c0" stroke-width="2" d="M1205.0122,-230.8244C1362.3043,-221.6657 1812.04,-194.9069 1959,-180 1970.8649,-178.7965 1983.3052,-177.3476 1995.6079,-175.8009"/>
<polygon fill="#c0c0c0" stroke="#c0c0c0" stroke-width="2" points="1996.4205,-179.2254 2005.8941,-174.482 1995.5302,-172.2823 1996.4205,-179.2254"/>
</g>
<!-- 36 -->
<g id="node37" class="node">
<title>36</title>
<path fill="none" stroke="#5663d8" stroke-width="2" d="M2828,-180C2828,-180 2676,-180 2676,-180 2670,-180 2664,-174 2664,-168 2664,-168 2664,-156 2664,-156 2664,-150 2670,-144 2676,-144 2676,-144 2828,-144 2828,-144 2834,-144 2840,-150 2840,-156 2840,-156 2840,-168 2840,-168 2840,-174 2834,-180 2828,-180"/>
<text text-anchor="middle" x="2752" y="-159.5" font-family="sans" font-size="10.00" fill="#000000">escape_profiles_Omicron_XBB15</text>
</g>
<!-- 3&#45;&gt;36 -->
<g id="edge75" class="edge">
<title>3&#45;&gt;36</title>
<path fill="none" stroke="#c0c0c0" stroke-width="2" d="M1205.0233,-230.7202C1269.4736,-226.9302 1379.4672,-220.6229 1474,-216 1913.7412,-194.4956 2438.851,-173.9126 2653.3772,-165.7208"/>
<polygon fill="#c0c0c0" stroke="#c0c0c0" stroke-width="2" points="2653.8063,-169.2071 2663.6656,-165.3284 2653.5394,-162.2122 2653.8063,-169.2071"/>
</g>
<!-- 4 -->
<g id="node5" class="node">
<title>4</title>
<path fill="none" stroke="#c6d856" stroke-width="2" d="M346,-108C346,-108 206,-108 206,-108 200,-108 194,-102 194,-96 194,-96 194,-84 194,-84 194,-78 200,-72 206,-72 206,-72 346,-72 346,-72 352,-72 358,-78 358,-84 358,-84 358,-96 358,-96 358,-102 352,-108 346,-108"/>
<text text-anchor="middle" x="276" y="-87.5" font-family="sans" font-size="10.00" fill="#000000">get_early2020_mut_bind_expr</text>
</g>
<!-- 4&#45;&gt;0 -->
<g id="edge10" class="edge">
<title>4&#45;&gt;0</title>
<path fill="none" stroke="#c0c0c0" stroke-width="2" d="M358.1024,-73.8102C362.7944,-73.1331 367.4514,-72.5214 372,-72 608.8653,-44.8461 1355.7983,-24.7359 1570.6573,-19.4017"/>
<polygon fill="#c0c0c0" stroke="#c0c0c0" stroke-width="2" points="1570.8705,-22.8976 1580.7809,-19.1516 1570.6975,-15.8998 1570.8705,-22.8976"/>
</g>
<!-- 5&#45;&gt;0 -->
<g id="edge14" class="edge">
<title>5&#45;&gt;0</title>
<path fill="none" stroke="#c0c0c0" stroke-width="2" d="M1343.7318,-73.6621C1413.1225,-60.1224 1509.9454,-41.2302 1571.0424,-29.3088"/>
<polygon fill="#c0c0c0" stroke="#c0c0c0" stroke-width="2" points="1571.7586,-32.7351 1580.9032,-27.3847 1570.4179,-25.8647 1571.7586,-32.7351"/>
</g>
<!-- 6&#45;&gt;0 -->
<g id="edge29" class="edge">
<title>6&#45;&gt;0</title>
<path fill="none" stroke="#c0c0c0" stroke-width="2" d="M1117.7231,-74.1837C1122.5477,-73.4115 1127.3321,-72.677 1132,-72 1290.1292,-49.0642 1477.8521,-31.1899 1570.8276,-22.9586"/>
<polygon fill="#c0c0c0" stroke="#c0c0c0" stroke-width="2" points="1571.2233,-26.4374 1580.8778,-22.0738 1570.6094,-19.4644 1571.2233,-26.4374"/>
</g>
<!-- 7 -->
<g id="node8" class="node">
<title>7</title>
<path fill="none" stroke="#d85656" stroke-width="2" d="M657,-396C657,-396 469,-396 469,-396 463,-396 457,-390 457,-384 457,-384 457,-372 457,-372 457,-366 463,-360 469,-360 469,-360 657,-360 657,-360 663,-360 669,-366 669,-372 669,-372 669,-384 669,-384 669,-390 663,-396 657,-396"/>
<text text-anchor="middle" x="563" y="-375.5" font-family="sans" font-size="10.00" fill="#000000">aggregate_variant_counts_Wuhan_Hu_1</text>
</g>
<!-- 7&#45;&gt;0 -->
<g id="edge1" class="edge">
<title>7&#45;&gt;0</title>
<path fill="none" stroke="#c0c0c0" stroke-width="2" d="M456.8721,-360.9251C339.2711,-338.9285 166,-295.9992 166,-234 166,-234 166,-234 166,-162 166,-121.1184 153.7336,-98.3385 185,-72 238.813,-26.6685 1307.5854,-19.3176 1570.8063,-18.1932"/>
<polygon fill="#c0c0c0" stroke="#c0c0c0" stroke-width="2" points="1570.9349,-21.6928 1580.9203,-18.1514 1570.9059,-14.6929 1570.9349,-21.6928"/>
</g>
<!-- 11 -->
<g id="node12" class="node">
<title>11</title>
<path fill="none" stroke="#567bd8" stroke-width="2" d="M842,-324C842,-324 678,-324 678,-324 672,-324 666,-318 666,-312 666,-312 666,-300 666,-300 666,-294 672,-288 678,-288 678,-288 842,-288 842,-288 848,-288 854,-294 854,-300 854,-300 854,-312 854,-312 854,-318 848,-324 842,-324"/>
<text text-anchor="middle" x="760" y="-303.5" font-family="sans" font-size="10.00" fill="#000000">counts_to_cells_ratio_Wuhan_Hu_1</text>
</g>
<!-- 7&#45;&gt;11 -->
<g id="edge44" class="edge">
<title>7&#45;&gt;11</title>
<path fill="none" stroke="#c0c0c0" stroke-width="2" d="M612.4571,-359.9243C639.2711,-350.1243 672.5949,-337.945 700.7847,-327.6422"/>
<polygon fill="#c0c0c0" stroke="#c0c0c0" stroke-width="2" points="702.3316,-330.8033 710.5225,-324.0831 699.9287,-324.2286 702.3316,-330.8033"/>
</g>
<!-- 13 -->
<g id="node14" class="node">
<title>13</title>
<path fill="none" stroke="#a7d856" stroke-width="2" d="M636,-324C636,-324 490,-324 490,-324 484,-324 478,-318 478,-312 478,-312 478,-300 478,-300 478,-294 484,-288 490,-288 490,-288 636,-288 636,-288 642,-288 648,-294 648,-300 648,-300 648,-312 648,-312 648,-318 642,-324 636,-324"/>
<text text-anchor="middle" x="563" y="-303.5" font-family="sans" font-size="10.00" fill="#000000">counts_to_scores_Wuhan_Hu_1</text>
</g>
<!-- 7&#45;&gt;13 -->
<g id="edge46" class="edge">
<title>7&#45;&gt;13</title>
<path fill="none" stroke="#c0c0c0" stroke-width="2" d="M563,-359.8314C563,-352.131 563,-342.9743 563,-334.4166"/>
<polygon fill="#c0c0c0" stroke="#c0c0c0" stroke-width="2" points="566.5001,-334.4132 563,-324.4133 559.5001,-334.4133 566.5001,-334.4132"/>
</g>
<!-- 8 -->
<g id="node9" class="node">
<title>8</title>
<path fill="none" stroke="#68d856" stroke-width="2" d="M630,-468C630,-468 496,-468 496,-468 490,-468 484,-462 484,-456 484,-456 484,-444 484,-444 484,-438 490,-432 496,-432 496,-432 630,-432 630,-432 636,-432 642,-438 642,-444 642,-444 642,-456 642,-456 642,-462 636,-468 630,-468"/>
<text text-anchor="middle" x="563" y="-447.5" font-family="sans" font-size="10.00" fill="#000000">count_variants_Wuhan_Hu_1</text>
</g>
<!-- 8&#45;&gt;7 -->
<g id="edge42" class="edge">
<title>8&#45;&gt;7</title>
<path fill="none" stroke="#c0c0c0" stroke-width="2" d="M563,-431.8314C563,-424.131 563,-414.9743 563,-406.4166"/>
<polygon fill="#c0c0c0" stroke="#c0c0c0" stroke-width="2" points="566.5001,-406.4132 563,-396.4133 559.5001,-406.4133 566.5001,-406.4132"/>
</g>
<!-- 9 -->
<g id="node10" class="node">
<title>9</title>
<path fill="none" stroke="#5692d8" stroke-width="2" d="M1101.5,-396C1101.5,-396 910.5,-396 910.5,-396 904.5,-396 898.5,-390 898.5,-384 898.5,-384 898.5,-372 898.5,-372 898.5,-366 904.5,-360 910.5,-360 910.5,-360 1101.5,-360 1101.5,-360 1107.5,-360 1113.5,-366 1113.5,-372 1113.5,-372 1113.5,-384 1113.5,-384 1113.5,-390 1107.5,-396 1101.5,-396"/>
<text text-anchor="middle" x="1006" y="-375.5" font-family="sans" font-size="10.00" fill="#000000">aggregate_variant_counts_Omicron_BA2</text>
</g>
<!-- 9&#45;&gt;0 -->
<g id="edge34" class="edge">
<title>9&#45;&gt;0</title>
<path fill="none" stroke="#c0c0c0" stroke-width="2" d="M950.2083,-359.8735C932.4225,-351.5449 914.2115,-339.8887 902,-324 877.0303,-291.5112 882,-274.9758 882,-234 882,-234 882,-234 882,-162 882,-119.0818 882.5192,-97.5548 917,-72 968.9864,-33.4712 1409.7857,-21.8697 1570.5943,-18.9011"/>
<polygon fill="#c0c0c0" stroke="#c0c0c0" stroke-width="2" points="1570.8391,-22.3974 1580.7745,-18.7179 1570.7131,-15.3985 1570.8391,-22.3974"/>
</g>
<!-- 12 -->
<g id="node13" class="node">
<title>12</title>
<path fill="none" stroke="#d8d356" stroke-width="2" d="M1089.5,-324C1089.5,-324 922.5,-324 922.5,-324 916.5,-324 910.5,-318 910.5,-312 910.5,-312 910.5,-300 910.5,-300 910.5,-294 916.5,-288 922.5,-288 922.5,-288 1089.5,-288 1089.5,-288 1095.5,-288 1101.5,-294 1101.5,-300 1101.5,-300 1101.5,-312 1101.5,-312 1101.5,-318 1095.5,-324 1089.5,-324"/>
<text text-anchor="middle" x="1006" y="-303.5" font-family="sans" font-size="10.00" fill="#000000">counts_to_cells_ratio_Omicron_BA2</text>
</g>
<!-- 9&#45;&gt;12 -->
<g id="edge45" class="edge">
<title>9&#45;&gt;12</title>
<path fill="none" stroke="#c0c0c0" stroke-width="2" d="M1006,-359.8314C1006,-352.131 1006,-342.9743 1006,-334.4166"/>
<polygon fill="#c0c0c0" stroke="#c0c0c0" stroke-width="2" points="1009.5001,-334.4132 1006,-324.4133 1002.5001,-334.4133 1009.5001,-334.4132"/>
</g>
<!-- 14 -->
<g id="node15" class="node">
<title>14</title>
<path fill="none" stroke="#59d856" stroke-width="2" d="M1528,-324C1528,-324 1380,-324 1380,-324 1374,-324 1368,-318 1368,-312 1368,-312 1368,-300 1368,-300 1368,-294 1374,-288 1380,-288 1380,-288 1528,-288 1528,-288 1534,-288 1540,-294 1540,-300 1540,-300 1540,-312 1540,-312 1540,-318 1534,-324 1528,-324"/>
<text text-anchor="middle" x="1454" y="-303.5" font-family="sans" font-size="10.00" fill="#000000">counts_to_scores_Omicron_BA2</text>
</g>
<!-- 9&#45;&gt;14 -->
<g id="edge47" class="edge">
<title>9&#45;&gt;14</title>
<path fill="none" stroke="#c0c0c0" stroke-width="2" d="M1113.5921,-360.7084C1188.0165,-348.7474 1286.1825,-332.9707 1357.9661,-321.434"/>
<polygon fill="#c0c0c0" stroke="#c0c0c0" stroke-width="2" points="1358.5968,-324.8777 1367.9147,-319.8351 1357.486,-317.9663 1358.5968,-324.8777"/>
</g>
<!-- 10 -->
<g id="node11" class="node">
<title>10</title>
<path fill="none" stroke="#d86656" stroke-width="2" d="M1074,-468C1074,-468 938,-468 938,-468 932,-468 926,-462 926,-456 926,-456 926,-444 926,-444 926,-438 932,-432 938,-432 938,-432 1074,-432 1074,-432 1080,-432 1086,-438 1086,-444 1086,-444 1086,-456 1086,-456 1086,-462 1080,-468 1074,-468"/>
<text text-anchor="middle" x="1006" y="-447.5" font-family="sans" font-size="10.00" fill="#000000">count_variants_Omicron_BA2</text>
</g>
<!-- 10&#45;&gt;9 -->
<g id="edge43" class="edge">
<title>10&#45;&gt;9</title>
<path fill="none" stroke="#c0c0c0" stroke-width="2" d="M1006,-431.8314C1006,-424.131 1006,-414.9743 1006,-406.4166"/>
<polygon fill="#c0c0c0" stroke="#c0c0c0" stroke-width="2" points="1009.5001,-406.4132 1006,-396.4133 1002.5001,-406.4133 1009.5001,-406.4132"/>
</g>
<!-- 11&#45;&gt;0 -->
<g id="edge36" class="edge">
<title>11&#45;&gt;0</title>
<path fill="none" stroke="#c0c0c0" stroke-width="2" d="M770.0394,-287.9121C783.3221,-263.6841 807.1379,-219.1968 825,-180 846.4241,-132.9868 826.2951,-102.4949 868,-72 924.2566,-30.8649 1402.3847,-20.868 1570.6828,-18.6132"/>
<polygon fill="#c0c0c0" stroke="#c0c0c0" stroke-width="2" points="1570.886,-22.111 1580.8397,-18.4816 1570.7952,-15.1116 1570.886,-22.111"/>
</g>
<!-- 12&#45;&gt;0 -->
<g id="edge8" class="edge">
<title>12&#45;&gt;0</title>
<path fill="none" stroke="#c0c0c0" stroke-width="2" d="M990.9539,-287.8347C957.0415,-244.6456 881.9691,-134.757 940,-72 961.31,-48.9545 1408.2413,-27.4999 1570.6613,-20.4365"/>
<polygon fill="#c0c0c0" stroke="#c0c0c0" stroke-width="2" points="1571.1012,-23.9208 1580.9407,-19.9922 1570.7988,-16.9273 1571.1012,-23.9208"/>
</g>
<!-- 13&#45;&gt;0 -->
<g id="edge12" class="edge">
<title>13&#45;&gt;0</title>
<path fill="none" stroke="#c0c0c0" stroke-width="2" d="M494.6521,-287.9405C477.1223,-279.8841 460.3201,-268.3697 450,-252 426.3808,-214.5354 365.2643,-162.3615 454,-72 493.4781,-31.7986 1338.4327,-20.777 1570.4916,-18.5033"/>
<polygon fill="#c0c0c0" stroke="#c0c0c0" stroke-width="2" points="1570.7861,-22.0007 1580.7519,-18.4046 1570.7187,-15.001 1570.7861,-22.0007"/>
</g>
<!-- 15 -->
<g id="node16" class="node">
<title>15</title>
<path fill="none" stroke="#d6d856" stroke-width="2" d="M662.5,-252C662.5,-252 479.5,-252 479.5,-252 473.5,-252 467.5,-246 467.5,-240 467.5,-240 467.5,-228 467.5,-228 467.5,-222 473.5,-216 479.5,-216 479.5,-216 662.5,-216 662.5,-216 668.5,-216 674.5,-222 674.5,-228 674.5,-228 674.5,-240 674.5,-240 674.5,-246 668.5,-252 662.5,-252"/>
<text text-anchor="middle" x="571" y="-231.5" font-family="sans" font-size="10.00" fill="#000000">call_strong_escape_sites_Wuhan_Hu_1</text>
</g>
<!-- 13&#45;&gt;15 -->
<g id="edge48" class="edge">
<title>13&#45;&gt;15</title>
<path fill="none" stroke="#c0c0c0" stroke-width="2" d="M565.0187,-287.8314C565.8743,-280.131 566.8917,-270.9743 567.8426,-262.4166"/>
<polygon fill="#c0c0c0" stroke="#c0c0c0" stroke-width="2" points="571.3283,-262.7386 568.9541,-252.4133 564.3711,-261.9656 571.3283,-262.7386"/>
</g>
<!-- 13&#45;&gt;17 -->
<g id="edge50" class="edge">
<title>13&#45;&gt;17</title>
<path fill="none" stroke="#c0c0c0" stroke-width="2" d="M637.6712,-287.8746C655.4873,-279.8725 672.3942,-268.4028 683,-252 691.6875,-238.564 691.5094,-229.5495 683,-216 674.5713,-202.5789 661.7653,-192.4144 647.786,-184.7425"/>
<polygon fill="#c0c0c0" stroke="#c0c0c0" stroke-width="2" points="648.9705,-181.4204 638.4644,-180.0518 645.8239,-187.6734 648.9705,-181.4204"/>
</g>
<!-- 19 -->
<g id="node20" class="node">
<title>19</title>
<path fill="none" stroke="#56d8c9" stroke-width="2" d="M804,-180C804,-180 682,-180 682,-180 676,-180 670,-174 670,-168 670,-168 670,-156 670,-156 670,-150 676,-144 682,-144 682,-144 804,-144 804,-144 810,-144 816,-150 816,-156 816,-156 816,-168 816,-168 816,-174 810,-180 804,-180"/>
<text text-anchor="middle" x="743" y="-159.5" font-family="sans" font-size="10.00" fill="#000000">output_pdbs_Wuhan_Hu_1</text>
</g>
<!-- 13&#45;&gt;19 -->
<g id="edge56" class="edge">
<title>13&#45;&gt;19</title>
<path fill="none" stroke="#c0c0c0" stroke-width="2" d="M638.7324,-287.982C660.8155,-279.85 683.6456,-268.2837 701,-252 718.7747,-235.322 729.7257,-209.6209 735.9692,-189.9468"/>
<polygon fill="#c0c0c0" stroke="#c0c0c0" stroke-width="2" points="739.3462,-190.8692 738.8163,-180.2877 732.6318,-188.8901 739.3462,-190.8692"/>
</g>
<!-- 21 -->
<g id="node22" class="node">
<title>21</title>
<path fill="none" stroke="#566bd8" stroke-width="2" d="M643.5,-108C643.5,-108 498.5,-108 498.5,-108 492.5,-108 486.5,-102 486.5,-96 486.5,-96 486.5,-84 486.5,-84 486.5,-78 492.5,-72 498.5,-72 498.5,-72 643.5,-72 643.5,-72 649.5,-72 655.5,-78 655.5,-84 655.5,-84 655.5,-96 655.5,-96 655.5,-102 649.5,-108 643.5,-108"/>
<text text-anchor="middle" x="571" y="-87.5" font-family="sans" font-size="10.00" fill="#000000">make_supp_data_Wuhan_Hu_1</text>
</g>
<!-- 13&#45;&gt;21 -->
<g id="edge58" class="edge">
<title>13&#45;&gt;21</title>
<path fill="none" stroke="#c0c0c0" stroke-width="2" d="M501.5808,-287.9938C484.5025,-279.8495 467.9301,-268.2732 458,-252 449.6658,-238.342 455.5363,-231.8092 458,-216 463.1728,-182.8076 460.1448,-170.3354 481,-144 490.9293,-131.4616 504.6298,-121.1731 518.3483,-113.0656"/>
<polygon fill="#c0c0c0" stroke="#c0c0c0" stroke-width="2" points="520.3026,-115.9831 527.3265,-108.0511 516.8892,-109.8717 520.3026,-115.9831"/>
</g>
<!-- 14&#45;&gt;0 -->
<g id="edge18" class="edge">
<title>14&#45;&gt;0</title>
<path fill="none" stroke="#c0c0c0" stroke-width="2" d="M1448.8809,-287.6727C1446.248,-277.2978 1443.3204,-264.0284 1442,-252 1440.2541,-236.0955 1440.0451,-231.8801 1442,-216 1444.0151,-199.6311 1466.9261,-84.2217 1478,-72 1501.7845,-45.7502 1539.2249,-32.2543 1570.8726,-25.3187"/>
<polygon fill="#c0c0c0" stroke="#c0c0c0" stroke-width="2" points="1571.8105,-28.7001 1580.9197,-23.2896 1570.4247,-21.8386 1571.8105,-28.7001"/>
</g>
<!-- 16 -->
<g id="node17" class="node">
<title>16</title>
<path fill="none" stroke="#d86e56" stroke-width="2" d="M1679.5,-252C1679.5,-252 1494.5,-252 1494.5,-252 1488.5,-252 1482.5,-246 1482.5,-240 1482.5,-240 1482.5,-228 1482.5,-228 1482.5,-222 1488.5,-216 1494.5,-216 1494.5,-216 1679.5,-216 1679.5,-216 1685.5,-216 1691.5,-222 1691.5,-228 1691.5,-228 1691.5,-240 1691.5,-240 1691.5,-246 1685.5,-252 1679.5,-252"/>
<text text-anchor="middle" x="1587" y="-231.5" font-family="sans" font-size="10.00" fill="#000000">call_strong_escape_sites_Omicron_BA2</text>
</g>
<!-- 14&#45;&gt;16 -->
<g id="edge49" class="edge">
<title>14&#45;&gt;16</title>
<path fill="none" stroke="#c0c0c0" stroke-width="2" d="M1487.5615,-287.8314C1504.8881,-278.4516 1526.2058,-266.9112 1544.6536,-256.9244"/>
<polygon fill="#c0c0c0" stroke="#c0c0c0" stroke-width="2" points="1546.3214,-260.0015 1553.4492,-252.1628 1542.9889,-253.8457 1546.3214,-260.0015"/>
</g>
<!-- 14&#45;&gt;18 -->
<g id="edge53" class="edge">
<title>14&#45;&gt;18</title>
<path fill="none" stroke="#c0c0c0" stroke-width="2" d="M1453.2509,-287.9174C1453.4034,-268.0021 1456.6672,-236.1383 1474,-216 1486.866,-201.0515 1504.3667,-190.2218 1522.6353,-182.3821"/>
<polygon fill="#c0c0c0" stroke="#c0c0c0" stroke-width="2" points="1523.9573,-185.623 1531.9419,-178.6592 1521.3573,-179.1237 1523.9573,-185.623"/>
</g>
<!-- 20 -->
<g id="node21" class="node">
<title>20</title>
<path fill="none" stroke="#56a9d8" stroke-width="2" d="M1846,-252C1846,-252 1722,-252 1722,-252 1716,-252 1710,-246 1710,-240 1710,-240 1710,-228 1710,-228 1710,-222 1716,-216 1722,-216 1722,-216 1846,-216 1846,-216 1852,-216 1858,-222 1858,-228 1858,-228 1858,-240 1858,-240 1858,-246 1852,-252 1846,-252"/>
<text text-anchor="middle" x="1784" y="-231.5" font-family="sans" font-size="10.00" fill="#000000">output_pdbs_Omicron_BA2</text>
</g>
<!-- 14&#45;&gt;20 -->
<g id="edge57" class="edge">
<title>14&#45;&gt;20</title>
<path fill="none" stroke="#c0c0c0" stroke-width="2" d="M1536.847,-287.9243C1586.6957,-277.0482 1649.9754,-263.2417 1700.0248,-252.3219"/>
<polygon fill="#c0c0c0" stroke="#c0c0c0" stroke-width="2" points="1700.8264,-255.7294 1709.8504,-250.1781 1699.3341,-248.8903 1700.8264,-255.7294"/>
</g>
<!-- 22 -->
<g id="node23" class="node">
<title>22</title>
<path fill="none" stroke="#afd856" stroke-width="2" d="M1645.5,-108C1645.5,-108 1498.5,-108 1498.5,-108 1492.5,-108 1486.5,-102 1486.5,-96 1486.5,-96 1486.5,-84 1486.5,-84 1486.5,-78 1492.5,-72 1498.5,-72 1498.5,-72 1645.5,-72 1645.5,-72 1651.5,-72 1657.5,-78 1657.5,-84 1657.5,-84 1657.5,-96 1657.5,-96 1657.5,-102 1651.5,-108 1645.5,-108"/>
<text text-anchor="middle" x="1572" y="-87.5" font-family="sans" font-size="10.00" fill="#000000">make_supp_data_Omicron_BA2</text>
</g>
<!-- 14&#45;&gt;22 -->
<g id="edge61" class="edge">
<title>14&#45;&gt;22</title>
<path fill="none" stroke="#c0c0c0" stroke-width="2" d="M1449.8492,-287.6749C1446.4972,-268.9479 1443.7054,-239.3779 1453,-216 1457.909,-203.6528 1512.6999,-148.3558 1546.1982,-115.2584"/>
<polygon fill="#c0c0c0" stroke="#c0c0c0" stroke-width="2" points="1548.737,-117.6704 1553.4025,-108.1581 1543.8233,-112.6848 1548.737,-117.6704"/>
</g>
<!-- 42 -->
<g id="node43" class="node">
<title>42</title>
<path fill="none" stroke="#56d8a2" stroke-width="2" d="M1860,-108C1860,-108 1802,-108 1802,-108 1796,-108 1790,-102 1790,-96 1790,-96 1790,-84 1790,-84 1790,-78 1796,-72 1802,-72 1802,-72 1860,-72 1860,-72 1866,-72 1872,-78 1872,-84 1872,-84 1872,-96 1872,-96 1872,-102 1866,-108 1860,-108"/>
<text text-anchor="middle" x="1831" y="-87.5" font-family="sans" font-size="10.00" fill="#000000">custom_plots</text>
</g>
<!-- 14&#45;&gt;42 -->
<g id="edge85" class="edge">
<title>14&#45;&gt;42</title>
<path fill="none" stroke="#c0c0c0" stroke-width="2" d="M1540.2296,-300.7176C1654.9329,-292.797 1845.8022,-276.1499 1867,-252 1877.5549,-239.9752 1874.1554,-230.3108 1867,-216 1855.0743,-192.1486 1830.9257,-203.8514 1819,-180 1809.3641,-160.7283 1813.4392,-136.3784 1819.3307,-117.8674"/>
<polygon fill="#c0c0c0" stroke="#c0c0c0" stroke-width="2" points="1822.6959,-118.8483 1822.7151,-108.2535 1816.0931,-116.5238 1822.6959,-118.8483"/>
</g>
<!-- 15&#45;&gt;0 -->
<g id="edge9" class="edge">
<title>15&#45;&gt;0</title>
<path fill="none" stroke="#c0c0c0" stroke-width="2" d="M522.4301,-215.9133C506.5231,-207.4865 490.5085,-195.7574 481,-180 456.1836,-138.8745 443.8403,-106.7505 477,-72 515.0952,-32.0773 1342.1159,-20.8665 1570.8406,-18.5244"/>
<polygon fill="#c0c0c0" stroke="#c0c0c0" stroke-width="2" points="1570.9933,-22.0231 1580.9576,-18.4226 1570.9229,-15.0235 1570.9933,-22.0231"/>
</g>
<!-- 15&#45;&gt;17 -->
<g id="edge52" class="edge">
<title>15&#45;&gt;17</title>
<path fill="none" stroke="#c0c0c0" stroke-width="2" d="M571,-215.8314C571,-208.131 571,-198.9743 571,-190.4166"/>
<polygon fill="#c0c0c0" stroke="#c0c0c0" stroke-width="2" points="574.5001,-190.4132 571,-180.4133 567.5001,-190.4133 574.5001,-190.4132"/>
</g>
<!-- 16&#45;&gt;0 -->
<g id="edge2" class="edge">
<title>16&#45;&gt;0</title>
<path fill="none" stroke="#c0c0c0" stroke-width="2" d="M1659.8398,-215.8958C1677.5845,-207.8802 1694.4704,-196.3984 1705,-180 1722.1662,-153.266 1684.8905,-75.1469 1683,-72 1676.7159,-61.5397 1667.9704,-51.6209 1659.3457,-43.2063"/>
<polygon fill="#c0c0c0" stroke="#c0c0c0" stroke-width="2" points="1661.5614,-40.4867 1651.8623,-36.2231 1656.7856,-45.6045 1661.5614,-40.4867"/>
</g>
<!-- 16&#45;&gt;18 -->
<g id="edge54" class="edge">
<title>16&#45;&gt;18</title>
<path fill="none" stroke="#c0c0c0" stroke-width="2" d="M1593.8132,-215.8314C1596.7644,-207.9617 1600.2858,-198.5712 1603.555,-189.8533"/>
<polygon fill="#c0c0c0" stroke="#c0c0c0" stroke-width="2" points="1606.8609,-191.0055 1607.095,-180.4133 1600.3066,-188.5476 1606.8609,-191.0055"/>
</g>
<!-- 17&#45;&gt;0 -->
<g id="edge3" class="edge">
<title>17&#45;&gt;0</title>
<path fill="none" stroke="#c0c0c0" stroke-width="2" d="M603.6135,-143.8414C643.9081,-122.4072 715.2173,-87.6973 781,-72 931.5631,-36.0722 1405.1264,-22.7605 1570.9535,-19.129"/>
<polygon fill="#c0c0c0" stroke="#c0c0c0" stroke-width="2" points="1571.0366,-22.6281 1580.9589,-18.9135 1570.8858,-15.6298 1571.0366,-22.6281"/>
</g>
<!-- 17&#45;&gt;21 -->
<g id="edge59" class="edge">
<title>17&#45;&gt;21</title>
<path fill="none" stroke="#c0c0c0" stroke-width="2" d="M571,-143.8314C571,-136.131 571,-126.9743 571,-118.4166"/>
<polygon fill="#c0c0c0" stroke="#c0c0c0" stroke-width="2" points="574.5001,-118.4132 571,-108.4133 567.5001,-118.4133 574.5001,-118.4132"/>
</g>
<!-- 18&#45;&gt;0 -->
<g id="edge22" class="edge">
<title>18&#45;&gt;0</title>
<path fill="none" stroke="#c0c0c0" stroke-width="2" d="M1639.0428,-143.8695C1649.812,-134.5148 1661.2346,-122.105 1667,-108 1673.0538,-93.1895 1671.8292,-87.2538 1667,-72 1663.9185,-62.2664 1658.3817,-52.7695 1652.4711,-44.5228"/>
<polygon fill="#c0c0c0" stroke="#c0c0c0" stroke-width="2" points="1655.1248,-42.2316 1646.2635,-36.4239 1649.569,-46.49 1655.1248,-42.2316"/>
</g>
<!-- 18&#45;&gt;22 -->
<g id="edge60" class="edge">
<title>18&#45;&gt;22</title>
<path fill="none" stroke="#c0c0c0" stroke-width="2" d="M1603.4016,-143.8314C1598.7123,-135.7925 1593.0972,-126.1666 1587.9202,-117.2918"/>
<polygon fill="#c0c0c0" stroke="#c0c0c0" stroke-width="2" points="1590.8031,-115.2875 1582.7411,-108.4133 1584.7566,-118.8146 1590.8031,-115.2875"/>
</g>
<!-- 19&#45;&gt;0 -->
<g id="edge28" class="edge">
<title>19&#45;&gt;0</title>
<path fill="none" stroke="#c0c0c0" stroke-width="2" d="M754.5147,-143.6236C769.1237,-122.1464 796.495,-87.5658 830,-72 896.609,-41.0547 1397.634,-24.4039 1570.5388,-19.5333"/>
<polygon fill="#c0c0c0" stroke="#c0c0c0" stroke-width="2" points="1570.8195,-23.0269 1580.7181,-19.2495 1570.6244,-16.0296 1570.8195,-23.0269"/>
</g>
<!-- 20&#45;&gt;0 -->
<g id="edge32" class="edge">
<title>20&#45;&gt;0</title>
<path fill="none" stroke="#c0c0c0" stroke-width="2" d="M1778.3026,-215.815C1767.6608,-183.9792 1742.316,-117.2386 1704,-72 1694.2265,-60.4606 1681.4836,-50.0986 1669.2825,-41.6111"/>
<polygon fill="#c0c0c0" stroke="#c0c0c0" stroke-width="2" points="1671.2223,-38.6978 1660.9654,-36.0432 1667.3282,-44.5147 1671.2223,-38.6978"/>
</g>
<!-- 21&#45;&gt;0 -->
<g id="edge37" class="edge">
<title>21&#45;&gt;0</title>
<path fill="none" stroke="#c0c0c0" stroke-width="2" d="M655.7739,-76.2983C667.5836,-74.6777 679.5799,-73.1827 691,-72 1022.549,-37.6629 1422.456,-23.7364 1570.3397,-19.5144"/>
<polygon fill="#c0c0c0" stroke="#c0c0c0" stroke-width="2" points="1570.6499,-23.0071 1580.5475,-19.227 1570.4529,-16.0099 1570.6499,-23.0071"/>
</g>
<!-- 22&#45;&gt;0 -->
<g id="edge13" class="edge">
<title>22&#45;&gt;0</title>
<path fill="none" stroke="#c0c0c0" stroke-width="2" d="M1586.3835,-71.8314C1592.9486,-63.5386 1600.8507,-53.557 1608.0578,-44.4533"/>
<polygon fill="#c0c0c0" stroke="#c0c0c0" stroke-width="2" points="1610.9599,-46.4262 1614.4228,-36.4133 1605.4716,-42.0813 1610.9599,-46.4262"/>
</g>
<!-- 23&#45;&gt;0 -->
<g id="edge30" class="edge">
<title>23&#45;&gt;0</title>
<path fill="none" stroke="#c0c0c0" stroke-width="2" d="M1233.441,-143.962C1279.7332,-133.1443 1332.0763,-119.3331 1353,-108 1374.0307,-96.6089 1371.7729,-83.0208 1393,-72 1449.2439,-42.7989 1521.1003,-29.2632 1570.6687,-23.0693"/>
<polygon fill="#c0c0c0" stroke="#c0c0c0" stroke-width="2" points="1571.3762,-26.51 1580.8942,-21.8561 1570.5514,-19.5588 1571.3762,-26.51"/>
</g>
<!-- 24&#45;&gt;0 -->
<g id="edge26" class="edge">
<title>24&#45;&gt;0</title>
<path fill="none" stroke="#c0c0c0" stroke-width="2" d="M1361.9204,-143.7934C1379.5194,-123.4611 1410.6308,-90.9288 1444,-72 1483.4045,-49.6477 1532.8788,-35.8339 1570.7478,-27.7793"/>
<polygon fill="#c0c0c0" stroke="#c0c0c0" stroke-width="2" points="1571.5143,-31.195 1580.6064,-25.756 1570.1069,-24.338 1571.5143,-31.195"/>
</g>
<!-- 25 -->
<g id="node26" class="node">
<title>25</title>
<path fill="none" stroke="#56d88a" stroke-width="2" d="M2287.5,-396C2287.5,-396 2090.5,-396 2090.5,-396 2084.5,-396 2078.5,-390 2078.5,-384 2078.5,-384 2078.5,-372 2078.5,-372 2078.5,-366 2084.5,-360 2090.5,-360 2090.5,-360 2287.5,-360 2287.5,-360 2293.5,-360 2299.5,-366 2299.5,-372 2299.5,-372 2299.5,-384 2299.5,-384 2299.5,-390 2293.5,-396 2287.5,-396"/>
<text text-anchor="middle" x="2189" y="-375.5" font-family="sans" font-size="10.00" fill="#000000">aggregate_variant_counts_Omicron_BQ11</text>
</g>
<!-- 25&#45;&gt;0 -->
<g id="edge23" class="edge">
<title>25&#45;&gt;0</title>
<path fill="none" stroke="#c0c0c0" stroke-width="2" d="M2126.672,-359.981C2075.4115,-341.6464 2005.6181,-307.8434 1970,-252 1944.0545,-211.3216 1977.335,-188.6288 1959,-144 1943.3848,-105.9913 1936.1526,-93.2789 1901,-72 1865.7916,-50.6873 1756.2886,-33.7563 1687.4328,-24.8606"/>
<polygon fill="#c0c0c0" stroke="#c0c0c0" stroke-width="2" points="1687.5273,-21.3445 1677.1656,-23.5546 1686.644,-28.2886 1687.5273,-21.3445"/>
</g>
<!-- 29 -->
<g id="node30" class="node">
<title>29</title>
<path fill="none" stroke="#568ad8" stroke-width="2" d="M2481.5,-324C2481.5,-324 2308.5,-324 2308.5,-324 2302.5,-324 2296.5,-318 2296.5,-312 2296.5,-312 2296.5,-300 2296.5,-300 2296.5,-294 2302.5,-288 2308.5,-288 2308.5,-288 2481.5,-288 2481.5,-288 2487.5,-288 2493.5,-294 2493.5,-300 2493.5,-300 2493.5,-312 2493.5,-312 2493.5,-318 2487.5,-324 2481.5,-324"/>
<text text-anchor="middle" x="2395" y="-303.5" font-family="sans" font-size="10.00" fill="#000000">counts_to_cells_ratio_Omicron_BQ11</text>
</g>
<!-- 25&#45;&gt;29 -->
<g id="edge66" class="edge">
<title>25&#45;&gt;29</title>
<path fill="none" stroke="#c0c0c0" stroke-width="2" d="M2240.7166,-359.9243C2268.878,-350.0815 2303.9062,-337.8386 2333.4653,-327.5073"/>
<polygon fill="#c0c0c0" stroke="#c0c0c0" stroke-width="2" points="2334.9769,-330.6866 2343.2621,-324.0831 2332.6673,-324.0786 2334.9769,-330.6866"/>
</g>
<!-- 31 -->
<g id="node32" class="node">
<title>31</title>
<path fill="none" stroke="#d8b456" stroke-width="2" d="M2266.5,-324C2266.5,-324 2111.5,-324 2111.5,-324 2105.5,-324 2099.5,-318 2099.5,-312 2099.5,-312 2099.5,-300 2099.5,-300 2099.5,-294 2105.5,-288 2111.5,-288 2111.5,-288 2266.5,-288 2266.5,-288 2272.5,-288 2278.5,-294 2278.5,-300 2278.5,-300 2278.5,-312 2278.5,-312 2278.5,-318 2272.5,-324 2266.5,-324"/>
<text text-anchor="middle" x="2189" y="-303.5" font-family="sans" font-size="10.00" fill="#000000">counts_to_scores_Omicron_BQ11</text>
</g>
<!-- 25&#45;&gt;31 -->
<g id="edge68" class="edge">
<title>25&#45;&gt;31</title>
<path fill="none" stroke="#c0c0c0" stroke-width="2" d="M2189,-359.8314C2189,-352.131 2189,-342.9743 2189,-334.4166"/>
<polygon fill="#c0c0c0" stroke="#c0c0c0" stroke-width="2" points="2192.5001,-334.4132 2189,-324.4133 2185.5001,-334.4133 2192.5001,-334.4132"/>
</g>
<!-- 26 -->
<g id="node27" class="node">
<title>26</title>
<path fill="none" stroke="#56d0d8" stroke-width="2" d="M2260.5,-468C2260.5,-468 2117.5,-468 2117.5,-468 2111.5,-468 2105.5,-462 2105.5,-456 2105.5,-456 2105.5,-444 2105.5,-444 2105.5,-438 2111.5,-432 2117.5,-432 2117.5,-432 2260.5,-432 2260.5,-432 2266.5,-432 2272.5,-438 2272.5,-444 2272.5,-444 2272.5,-456 2272.5,-456 2272.5,-462 2266.5,-468 2260.5,-468"/>
<text text-anchor="middle" x="2189" y="-447.5" font-family="sans" font-size="10.00" fill="#000000">count_variants_Omicron_BQ11</text>
</g>
<!-- 26&#45;&gt;25 -->
<g id="edge64" class="edge">
<title>26&#45;&gt;25</title>
<path fill="none" stroke="#c0c0c0" stroke-width="2" d="M2189,-431.8314C2189,-424.131 2189,-414.9743 2189,-406.4166"/>
<polygon fill="#c0c0c0" stroke="#c0c0c0" stroke-width="2" points="2192.5001,-406.4132 2189,-396.4133 2185.5001,-406.4133 2192.5001,-406.4132"/>
</g>
<!-- 27 -->
<g id="node28" class="node">
<title>27</title>
<path fill="none" stroke="#d8ac56" stroke-width="2" d="M2753.5,-396C2753.5,-396 2550.5,-396 2550.5,-396 2544.5,-396 2538.5,-390 2538.5,-384 2538.5,-384 2538.5,-372 2538.5,-372 2538.5,-366 2544.5,-360 2550.5,-360 2550.5,-360 2753.5,-360 2753.5,-360 2759.5,-360 2765.5,-366 2765.5,-372 2765.5,-372 2765.5,-384 2765.5,-384 2765.5,-390 2759.5,-396 2753.5,-396"/>
<text text-anchor="middle" x="2652" y="-375.5" font-family="sans" font-size="10.00" fill="#000000">aggregate_variant_counts_Omicron_XBB15</text>
</g>
<!-- 27&#45;&gt;0 -->
<g id="edge5" class="edge">
<title>27&#45;&gt;0</title>
<path fill="none" stroke="#c0c0c0" stroke-width="2" d="M2591.6024,-359.8966C2573.253,-351.6585 2554.6274,-340.0518 2542,-324 2516.6653,-291.7949 2522,-274.9758 2522,-234 2522,-234 2522,-234 2522,-162 2522,-83.8725 2445.52,-95.4664 2371,-72 2243.7967,-31.9436 1838.9927,-21.3732 1687.2186,-18.7831"/>
<polygon fill="#c0c0c0" stroke="#c0c0c0" stroke-width="2" points="1687.2203,-15.2828 1677.1638,-18.617 1687.1046,-22.2818 1687.2203,-15.2828"/>
</g>
<!-- 30 -->
<g id="node31" class="node">
<title>30</title>
<path fill="none" stroke="#d88556" stroke-width="2" d="M2741.5,-324C2741.5,-324 2562.5,-324 2562.5,-324 2556.5,-324 2550.5,-318 2550.5,-312 2550.5,-312 2550.5,-300 2550.5,-300 2550.5,-294 2556.5,-288 2562.5,-288 2562.5,-288 2741.5,-288 2741.5,-288 2747.5,-288 2753.5,-294 2753.5,-300 2753.5,-300 2753.5,-312 2753.5,-312 2753.5,-318 2747.5,-324 2741.5,-324"/>
<text text-anchor="middle" x="2652" y="-303.5" font-family="sans" font-size="10.00" fill="#000000">counts_to_cells_ratio_Omicron_XBB15</text>
</g>
<!-- 27&#45;&gt;30 -->
<g id="edge67" class="edge">
<title>27&#45;&gt;30</title>
<path fill="none" stroke="#c0c0c0" stroke-width="2" d="M2652,-359.8314C2652,-352.131 2652,-342.9743 2652,-334.4166"/>
<polygon fill="#c0c0c0" stroke="#c0c0c0" stroke-width="2" points="2655.5001,-334.4132 2652,-324.4133 2648.5001,-334.4133 2655.5001,-334.4132"/>
</g>
<!-- 32 -->
<g id="node33" class="node">
<title>32</title>
<path fill="none" stroke="#56d85b" stroke-width="2" d="M2950.5,-324C2950.5,-324 2789.5,-324 2789.5,-324 2783.5,-324 2777.5,-318 2777.5,-312 2777.5,-312 2777.5,-300 2777.5,-300 2777.5,-294 2783.5,-288 2789.5,-288 2789.5,-288 2950.5,-288 2950.5,-288 2956.5,-288 2962.5,-294 2962.5,-300 2962.5,-300 2962.5,-312 2962.5,-312 2962.5,-318 2956.5,-324 2950.5,-324"/>
<text text-anchor="middle" x="2870" y="-303.5" font-family="sans" font-size="10.00" fill="#000000">counts_to_scores_Omicron_XBB15</text>
</g>
<!-- 27&#45;&gt;32 -->
<g id="edge69" class="edge">
<title>27&#45;&gt;32</title>
<path fill="none" stroke="#c0c0c0" stroke-width="2" d="M2706.7292,-359.9243C2736.7902,-349.9959 2774.245,-337.6255 2805.6954,-327.2382"/>
<polygon fill="#c0c0c0" stroke="#c0c0c0" stroke-width="2" points="2806.8504,-330.5428 2815.2483,-324.0831 2804.6551,-323.8959 2806.8504,-330.5428"/>
</g>
<!-- 28 -->
<g id="node29" class="node">
<title>28</title>
<path fill="none" stroke="#d8c356" stroke-width="2" d="M2726.5,-468C2726.5,-468 2577.5,-468 2577.5,-468 2571.5,-468 2565.5,-462 2565.5,-456 2565.5,-456 2565.5,-444 2565.5,-444 2565.5,-438 2571.5,-432 2577.5,-432 2577.5,-432 2726.5,-432 2726.5,-432 2732.5,-432 2738.5,-438 2738.5,-444 2738.5,-444 2738.5,-456 2738.5,-456 2738.5,-462 2732.5,-468 2726.5,-468"/>
<text text-anchor="middle" x="2652" y="-447.5" font-family="sans" font-size="10.00" fill="#000000">count_variants_Omicron_XBB15</text>
</g>
<!-- 28&#45;&gt;27 -->
<g id="edge65" class="edge">
<title>28&#45;&gt;27</title>
<path fill="none" stroke="#c0c0c0" stroke-width="2" d="M2652,-431.8314C2652,-424.131 2652,-414.9743 2652,-406.4166"/>
<polygon fill="#c0c0c0" stroke="#c0c0c0" stroke-width="2" points="2655.5001,-406.4132 2652,-396.4133 2648.5001,-406.4133 2655.5001,-406.4132"/>
</g>
<!-- 29&#45;&gt;0 -->
<g id="edge35" class="edge">
<title>29&#45;&gt;0</title>
<path fill="none" stroke="#c0c0c0" stroke-width="2" d="M2430.4354,-287.8842C2443.8341,-279.0325 2457.6198,-267.0142 2465,-252 2472.0581,-237.6409 2471.0187,-230.8248 2465,-216 2431.4227,-133.2947 2405.818,-109.8953 2325,-72 2267.9806,-45.2638 1844.7476,-26.3457 1687.554,-20.1749"/>
<polygon fill="#c0c0c0" stroke="#c0c0c0" stroke-width="2" points="1687.2761,-16.6616 1677.1475,-19.7698 1687.0037,-23.6563 1687.2761,-16.6616"/>
</g>
<!-- 30&#45;&gt;0 -->
<g id="edge4" class="edge">
<title>30&#45;&gt;0</title>
<path fill="none" stroke="#c0c0c0" stroke-width="2" d="M2621.1391,-287.8557C2607.935,-278.6546 2593.42,-266.374 2584,-252 2538.6172,-182.7504 2600.1274,-124.3717 2536,-72 2503.067,-45.1042 1882.0512,-25.2039 1687.0634,-19.5977"/>
<polygon fill="#c0c0c0" stroke="#c0c0c0" stroke-width="2" points="1687.1077,-16.0977 1677.0118,-19.3106 1686.9078,-23.0948 1687.1077,-16.0977"/>
</g>
<!-- 31&#45;&gt;0 -->
<g id="edge7" class="edge">
<title>31&#45;&gt;0</title>
<path fill="none" stroke="#c0c0c0" stroke-width="2" d="M2207.0978,-287.6235C2215.568,-277.8592 2224.8958,-265.1708 2230,-252 2258.9834,-177.2113 2297.1745,-131.1482 2243,-72 2205.9003,-31.4943 1833.3447,-21.2265 1687.2965,-18.7486"/>
<polygon fill="#c0c0c0" stroke="#c0c0c0" stroke-width="2" points="1687.2361,-15.2473 1677.1802,-18.5834 1687.1217,-22.2463 1687.2361,-15.2473"/>
</g>
<!-- 33 -->
<g id="node34" class="node">
<title>33</title>
<path fill="none" stroke="#78d856" stroke-width="2" d="M2194,-252C2194,-252 2002,-252 2002,-252 1996,-252 1990,-246 1990,-240 1990,-240 1990,-228 1990,-228 1990,-222 1996,-216 2002,-216 2002,-216 2194,-216 2194,-216 2200,-216 2206,-222 2206,-228 2206,-228 2206,-240 2206,-240 2206,-246 2200,-252 2194,-252"/>
<text text-anchor="middle" x="2098" y="-231.5" font-family="sans" font-size="10.00" fill="#000000">call_strong_escape_sites_Omicron_BQ11</text>
</g>
<!-- 31&#45;&gt;33 -->
<g id="edge70" class="edge">
<title>31&#45;&gt;33</title>
<path fill="none" stroke="#c0c0c0" stroke-width="2" d="M2166.0369,-287.8314C2154.8285,-278.9632 2141.1791,-268.1637 2129.0561,-258.5718"/>
<polygon fill="#c0c0c0" stroke="#c0c0c0" stroke-width="2" points="2130.9697,-255.6229 2120.9558,-252.1628 2126.6263,-261.1125 2130.9697,-255.6229"/>
</g>
<!-- 31&#45;&gt;35 -->
<g id="edge74" class="edge">
<title>31&#45;&gt;35</title>
<path fill="none" stroke="#c0c0c0" stroke-width="2" d="M2099.3498,-293.7742C2050.0673,-285.0162 1995.9516,-271.329 1981,-252 1971.2104,-239.3444 1972.5387,-229.5796 1981,-216 1989.3522,-202.5955 2002.1108,-192.4243 2016.0178,-184.7383"/>
<polygon fill="#c0c0c0" stroke="#c0c0c0" stroke-width="2" points="2017.9519,-187.6818 2025.2877,-180.0374 2014.7859,-181.4387 2017.9519,-187.6818"/>
</g>
<!-- 37 -->
<g id="node38" class="node">
<title>37</title>
<path fill="none" stroke="#d89c56" stroke-width="2" d="M2443.5,-252C2443.5,-252 2312.5,-252 2312.5,-252 2306.5,-252 2300.5,-246 2300.5,-240 2300.5,-240 2300.5,-228 2300.5,-228 2300.5,-222 2306.5,-216 2312.5,-216 2312.5,-216 2443.5,-216 2443.5,-216 2449.5,-216 2455.5,-222 2455.5,-228 2455.5,-228 2455.5,-240 2455.5,-240 2455.5,-246 2449.5,-252 2443.5,-252"/>
<text text-anchor="middle" x="2378" y="-231.5" font-family="sans" font-size="10.00" fill="#000000">output_pdbs_Omicron_BQ11</text>
</g>
<!-- 31&#45;&gt;37 -->
<g id="edge78" class="edge">
<title>31&#45;&gt;37</title>
<path fill="none" stroke="#c0c0c0" stroke-width="2" d="M2236.6927,-287.8314C2262.3073,-278.0734 2294.0602,-265.977 2320.974,-255.7242"/>
<polygon fill="#c0c0c0" stroke="#c0c0c0" stroke-width="2" points="2322.5514,-258.8687 2330.6503,-252.038 2320.0594,-252.3273 2322.5514,-258.8687"/>
</g>
<!-- 39 -->
<g id="node40" class="node">
<title>39</title>
<path fill="none" stroke="#56d89a" stroke-width="2" d="M2202,-108C2202,-108 2048,-108 2048,-108 2042,-108 2036,-102 2036,-96 2036,-96 2036,-84 2036,-84 2036,-78 2042,-72 2048,-72 2048,-72 2202,-72 2202,-72 2208,-72 2214,-78 2214,-84 2214,-84 2214,-96 2214,-96 2214,-102 2208,-108 2202,-108"/>
<text text-anchor="middle" x="2125" y="-87.5" font-family="sans" font-size="10.00" fill="#000000">make_supp_data_Omicron_BQ11</text>
</g>
<!-- 31&#45;&gt;39 -->
<g id="edge81" class="edge">
<title>31&#45;&gt;39</title>
<path fill="none" stroke="#c0c0c0" stroke-width="2" d="M2200.3196,-287.7678C2205.9396,-277.6415 2212.1294,-264.5789 2215,-252 2218.5597,-236.401 2218.1379,-231.6893 2215,-216 2208.2013,-182.0065 2205.0405,-172.2871 2185,-144 2177.3928,-133.2625 2167.294,-123.1369 2157.5548,-114.619"/>
<polygon fill="#c0c0c0" stroke="#c0c0c0" stroke-width="2" points="2159.7791,-111.9163 2149.8757,-108.1514 2155.2697,-117.2704 2159.7791,-111.9163"/>
</g>
<!-- 32&#45;&gt;0 -->
<g id="edge21" class="edge">
<title>32&#45;&gt;0</title>
<path fill="none" stroke="#c0c0c0" stroke-width="2" d="M2777.2237,-288.4885C2707.5635,-274.9747 2623.1398,-257.6606 2617,-252 2555.593,-195.3857 2628.5421,-123.771 2563,-72 2528.5653,-44.8004 1886.5292,-25.0377 1687.3942,-19.542"/>
<polygon fill="#c0c0c0" stroke="#c0c0c0" stroke-width="2" points="1687.2287,-16.0362 1677.1365,-19.2608 1687.0367,-23.0336 1687.2287,-16.0362"/>
</g>
<!-- 34 -->
<g id="node35" class="node">
<title>34</title>
<path fill="none" stroke="#56d8c1" stroke-width="2" d="M2836,-252C2836,-252 2638,-252 2638,-252 2632,-252 2626,-246 2626,-240 2626,-240 2626,-228 2626,-228 2626,-222 2632,-216 2638,-216 2638,-216 2836,-216 2836,-216 2842,-216 2848,-222 2848,-228 2848,-228 2848,-240 2848,-240 2848,-246 2842,-252 2836,-252"/>
<text text-anchor="middle" x="2737" y="-231.5" font-family="sans" font-size="10.00" fill="#000000">call_strong_escape_sites_Omicron_XBB15</text>
</g>
<!-- 32&#45;&gt;34 -->
<g id="edge71" class="edge">
<title>32&#45;&gt;34</title>
<path fill="none" stroke="#c0c0c0" stroke-width="2" d="M2836.4385,-287.8314C2819.1119,-278.4516 2797.7942,-266.9112 2779.3464,-256.9244"/>
<polygon fill="#c0c0c0" stroke="#c0c0c0" stroke-width="2" points="2781.0111,-253.8457 2770.5508,-252.1628 2777.6786,-260.0015 2781.0111,-253.8457"/>
</g>
<!-- 32&#45;&gt;36 -->
<g id="edge76" class="edge">
<title>32&#45;&gt;36</title>
<path fill="none" stroke="#c0c0c0" stroke-width="2" d="M2871.9954,-287.6504C2873.142,-268.0857 2872.0355,-237.0778 2857,-216 2847.487,-202.664 2833.6813,-192.3919 2819.1901,-184.5705"/>
<polygon fill="#c0c0c0" stroke="#c0c0c0" stroke-width="2" points="2820.6181,-181.3711 2810.1108,-180.0117 2817.477,-187.6268 2820.6181,-181.3711"/>
</g>
<!-- 38 -->
<g id="node39" class="node">
<title>38</title>
<path fill="none" stroke="#8fd856" stroke-width="2" d="M3091.5,-252C3091.5,-252 2954.5,-252 2954.5,-252 2948.5,-252 2942.5,-246 2942.5,-240 2942.5,-240 2942.5,-228 2942.5,-228 2942.5,-222 2948.5,-216 2954.5,-216 2954.5,-216 3091.5,-216 3091.5,-216 3097.5,-216 3103.5,-222 3103.5,-228 3103.5,-228 3103.5,-240 3103.5,-240 3103.5,-246 3097.5,-252 3091.5,-252"/>
<text text-anchor="middle" x="3023" y="-231.5" font-family="sans" font-size="10.00" fill="#000000">output_pdbs_Omicron_XBB15</text>
</g>
<!-- 32&#45;&gt;38 -->
<g id="edge79" class="edge">
<title>32&#45;&gt;38</title>
<path fill="none" stroke="#c0c0c0" stroke-width="2" d="M2908.6084,-287.8314C2928.8893,-278.2874 2953.9238,-266.5065 2975.3971,-256.4013"/>
<polygon fill="#c0c0c0" stroke="#c0c0c0" stroke-width="2" points="2977.1114,-259.4629 2984.6693,-252.038 2974.1308,-253.1291 2977.1114,-259.4629"/>
</g>
<!-- 40 -->
<g id="node41" class="node">
<title>40</title>
<path fill="none" stroke="#bed856" stroke-width="2" d="M2874,-108C2874,-108 2714,-108 2714,-108 2708,-108 2702,-102 2702,-96 2702,-96 2702,-84 2702,-84 2702,-78 2708,-72 2714,-72 2714,-72 2874,-72 2874,-72 2880,-72 2886,-78 2886,-84 2886,-84 2886,-96 2886,-96 2886,-102 2880,-108 2874,-108"/>
<text text-anchor="middle" x="2794" y="-87.5" font-family="sans" font-size="10.00" fill="#000000">make_supp_data_Omicron_XBB15</text>
</g>
<!-- 32&#45;&gt;40 -->
<g id="edge83" class="edge">
<title>32&#45;&gt;40</title>
<path fill="none" stroke="#c0c0c0" stroke-width="2" d="M2874.1654,-287.9208C2877.7333,-269.6404 2881.6235,-240.6456 2877,-216 2870.6692,-182.2541 2867.8946,-172.6681 2849,-144 2842.0963,-133.5252 2832.8729,-123.4804 2823.9547,-114.9555"/>
<polygon fill="#c0c0c0" stroke="#c0c0c0" stroke-width="2" points="2826.3199,-112.3755 2816.5929,-108.1759 2821.5779,-117.5247 2826.3199,-112.3755"/>
</g>
<!-- 33&#45;&gt;0 -->
<g id="edge16" class="edge">
<title>33&#45;&gt;0</title>
<path fill="none" stroke="#c0c0c0" stroke-width="2" d="M2136.7249,-215.7863C2153.0719,-206.7181 2171.4216,-194.5619 2185,-180 2219.7021,-142.7844 2257.3134,-109.5743 2223,-72 2187.3205,-32.9298 1829.9908,-21.8252 1687.3515,-18.9356"/>
<polygon fill="#c0c0c0" stroke="#c0c0c0" stroke-width="2" points="1687.1213,-15.4305 1677.0546,-18.7337 1686.984,-22.4291 1687.1213,-15.4305"/>
</g>
<!-- 33&#45;&gt;35 -->
<g id="edge72" class="edge">
<title>33&#45;&gt;35</title>
<path fill="none" stroke="#c0c0c0" stroke-width="2" d="M2096.2336,-215.8314C2095.485,-208.131 2094.5947,-198.9743 2093.7627,-190.4166"/>
<polygon fill="#c0c0c0" stroke="#c0c0c0" stroke-width="2" points="2097.2415,-190.0276 2092.7902,-180.4133 2090.2744,-190.7051 2097.2415,-190.0276"/>
</g>
<!-- 34&#45;&gt;0 -->
<g id="edge27" class="edge">
<title>34&#45;&gt;0</title>
<path fill="none" stroke="#c0c0c0" stroke-width="2" d="M2699.3825,-215.7703C2683.9548,-206.7688 2666.9513,-194.6684 2655,-180 2622.3662,-139.9467 2653.9469,-102.1611 2612,-72 2574.3228,-44.909 1892.9197,-24.9152 1687.2778,-19.4778"/>
<polygon fill="#c0c0c0" stroke="#c0c0c0" stroke-width="2" points="1687.3637,-15.979 1677.2751,-19.215 1687.1797,-22.9766 1687.3637,-15.979"/>
</g>
<!-- 34&#45;&gt;36 -->
<g id="edge77" class="edge">
<title>34&#45;&gt;36</title>
<path fill="none" stroke="#c0c0c0" stroke-width="2" d="M2740.7851,-215.8314C2742.3894,-208.131 2744.297,-198.9743 2746.0799,-190.4166"/>
<polygon fill="#c0c0c0" stroke="#c0c0c0" stroke-width="2" points="2749.5507,-190.9169 2748.1639,-180.4133 2742.6979,-189.4892 2749.5507,-190.9169"/>
</g>
<!-- 35&#45;&gt;0 -->
<g id="edge15" class="edge">
<title>35&#45;&gt;0</title>
<path fill="none" stroke="#c0c0c0" stroke-width="2" d="M2069.5046,-143.8585C2038.4448,-117.6535 1984.6288,-72.2847 1984,-72 1932.2238,-48.5585 1774.1083,-31.115 1687.402,-23.0174"/>
<polygon fill="#c0c0c0" stroke="#c0c0c0" stroke-width="2" points="1687.4731,-19.5092 1677.194,-22.0764 1686.8305,-26.4796 1687.4731,-19.5092"/>
</g>
<!-- 35&#45;&gt;39 -->
<g id="edge80" class="edge">
<title>35&#45;&gt;39</title>
<path fill="none" stroke="#c0c0c0" stroke-width="2" d="M2099.5796,-143.8314C2103.3358,-135.8771 2107.8257,-126.369 2111.9798,-117.5723"/>
<polygon fill="#c0c0c0" stroke="#c0c0c0" stroke-width="2" points="2115.1996,-118.9503 2116.3048,-108.4133 2108.8699,-115.9612 2115.1996,-118.9503"/>
</g>
<!-- 36&#45;&gt;0 -->
<g id="edge38" class="edge">
<title>36&#45;&gt;0</title>
<path fill="none" stroke="#c0c0c0" stroke-width="2" d="M2732.1391,-143.8724C2703.8873,-118.1746 2654.9462,-74.0211 2650,-72 2560.9686,-35.6206 1890.8896,-22.1351 1687.4151,-18.854"/>
<polygon fill="#c0c0c0" stroke="#c0c0c0" stroke-width="2" points="1687.2848,-15.3516 1677.2304,-18.692 1687.1734,-22.3507 1687.2848,-15.3516"/>
</g>
<!-- 36&#45;&gt;40 -->
<g id="edge82" class="edge">
<title>36&#45;&gt;40</title>
<path fill="none" stroke="#c0c0c0" stroke-width="2" d="M2762.5984,-143.8314C2767.2877,-135.7925 2772.9028,-126.1666 2778.0798,-117.2918"/>
<polygon fill="#c0c0c0" stroke="#c0c0c0" stroke-width="2" points="2781.2434,-118.8146 2783.2589,-108.4133 2775.1969,-115.2875 2781.2434,-118.8146"/>
</g>
<!-- 37&#45;&gt;0 -->
<g id="edge6" class="edge">
<title>37&#45;&gt;0</title>
<path fill="none" stroke="#c0c0c0" stroke-width="2" d="M2374.5528,-215.8159C2366.918,-181.1267 2345.0501,-105.94 2294,-72 2244.084,-38.814 1840.1219,-23.99 1687.2901,-19.5306"/>
<polygon fill="#c0c0c0" stroke="#c0c0c0" stroke-width="2" points="1687.2568,-16.0283 1677.1604,-19.2395 1687.0557,-23.0254 1687.2568,-16.0283"/>
</g>
<!-- 38&#45;&gt;0 -->
<g id="edge17" class="edge">
<title>38&#45;&gt;0</title>
<path fill="none" stroke="#c0c0c0" stroke-width="2" d="M3015.1367,-215.936C2998.7163,-180.7546 2957.0834,-103.7214 2895,-72 2840.6496,-44.2298 1928.9172,-24.0221 1687.3468,-19.1379"/>
<polygon fill="#c0c0c0" stroke="#c0c0c0" stroke-width="2" points="1687.0908,-15.6322 1677.0224,-18.9303 1686.95,-22.6308 1687.0908,-15.6322"/>
</g>
<!-- 39&#45;&gt;0 -->
<g id="edge24" class="edge">
<title>39&#45;&gt;0</title>
<path fill="none" stroke="#c0c0c0" stroke-width="2" d="M2035.986,-74.2358C2031.2581,-73.4637 2026.5737,-72.7136 2022,-72 1903.3133,-53.4816 1763.9232,-35.1303 1687.1359,-25.3147"/>
<polygon fill="#c0c0c0" stroke="#c0c0c0" stroke-width="2" points="1687.5417,-21.8382 1677.1792,-24.045 1686.6561,-28.782 1687.5417,-21.8382"/>
</g>
<!-- 40&#45;&gt;0 -->
<g id="edge11" class="edge">
<title>40&#45;&gt;0</title>
<path fill="none" stroke="#c0c0c0" stroke-width="2" d="M2701.8788,-73.69C2697.1924,-73.0694 2692.5458,-72.5001 2688,-72 2307.9504,-30.1878 1847.538,-20.6769 1687.3024,-18.5763"/>
<polygon fill="#c0c0c0" stroke="#c0c0c0" stroke-width="2" points="1687.2296,-15.0752 1677.1861,-18.4484 1687.141,-22.0746 1687.2296,-15.0752"/>
</g>
<!-- 41 -->
<g id="node42" class="node">
<title>41</title>
<path fill="none" stroke="#56a2d8" stroke-width="2" d="M1938,-180C1938,-180 1840,-180 1840,-180 1834,-180 1828,-174 1828,-168 1828,-168 1828,-156 1828,-156 1828,-150 1834,-144 1840,-144 1840,-144 1938,-144 1938,-144 1944,-144 1950,-150 1950,-156 1950,-156 1950,-168 1950,-168 1950,-174 1944,-180 1938,-180"/>
<text text-anchor="middle" x="1889" y="-159.5" font-family="sans" font-size="10.00" fill="#000000">gisaid_rbd_mutations</text>
</g>
<!-- 41&#45;&gt;0 -->
<g id="edge33" class="edge">
<title>41&#45;&gt;0</title>
<path fill="none" stroke="#c0c0c0" stroke-width="2" d="M1893.1257,-143.6825C1896.494,-123.5568 1898.2519,-91.5049 1881,-72 1855.8869,-43.6072 1753.6264,-29.1434 1687.3406,-22.6082"/>
<polygon fill="#c0c0c0" stroke="#c0c0c0" stroke-width="2" points="1687.3151,-19.09 1677.0284,-21.6265 1686.6516,-26.0585 1687.3151,-19.09"/>
</g>
<!-- 41&#45;&gt;42 -->
<g id="edge84" class="edge">
<title>41&#45;&gt;42</title>
<path fill="none" stroke="#c0c0c0" stroke-width="2" d="M1874.3642,-143.8314C1867.6839,-135.5386 1859.6432,-125.557 1852.3096,-116.4533"/>
<polygon fill="#c0c0c0" stroke="#c0c0c0" stroke-width="2" points="1854.8319,-114.0052 1845.8329,-108.4133 1849.3806,-118.3965 1854.8319,-114.0052"/>
</g>
<!-- 42&#45;&gt;0 -->
<g id="edge25" class="edge">
<title>42&#45;&gt;0</title>
<path fill="none" stroke="#c0c0c0" stroke-width="2" d="M1789.6348,-75.256C1759.9043,-64.6589 1719.433,-50.2335 1686.552,-38.5136"/>
<polygon fill="#c0c0c0" stroke="#c0c0c0" stroke-width="2" points="1687.649,-35.1889 1677.0543,-35.1283 1685.2987,-41.7826 1687.649,-35.1889"/>
</g>
</g>
</svg>
